<svg xmlns="http://www.w3.org/2000/svg" 
    viewBox="0 0 905.0 1268.0" 
    width="905.0" height="1268.0">
  <path d="M 538.0,478.0 Q 556.0,461.0 570.0,444.0 Q 584.0,427.0 584.0,407.0 Q 584.0,381.0 552.0,335.0 L 535.0,311.0 Q 520.0,289.0 503.0,276.5 Q 486.0,264.0 467.0,264.0 Q 453.0,264.0 438.0,269.0 Q 423.0,274.0 409.0,288.0 L 365.0,327.0 Q 344.0,346.0 328.5,365.0 Q 313.0,384.0 313.0,403.0 Q 313.0,422.0 322.5,441.0 Q 332.0,460.0 348.0,483.0 L 365.0,509.0 Q 377.0,526.0 393.0,538.5 Q 409.0,551.0 426.0,551.0 Q 445.0,551.0 460.0,542.5 Q 475.0,534.0 492.0,519.0 L 538.0,478.0" fill="black"/>
</svg>
