<svg xmlns="http://www.w3.org/2000/svg" 
    viewBox="0 0 905.0 1268.0" 
    width="905.0" height="1268.0">
  <path d="M 720.0,1234.0 Q 722.0,1242.0 729.0,1246.5 Q 736.0,1251.0 753.0,1251.0 Q 787.0,1251.0 787.0,1231.0 Q 787.0,1148.0 769.0,1081.0 Q 751.0,1014.0 715.0,967.5 Q 679.0,921.0 625.5,896.0 Q 572.0,871.0 502.0,871.0 Q 487.0,871.0 466.0,875.0 Q 445.0,879.0 416.0,886.0 Q 453.0,806.0 479.5,732.5 Q 506.0,659.0 522.5,588.0 Q 539.0,517.0 546.5,446.5 Q 554.0,376.0 554.0,302.0 Q 554.0,271.0 552.0,235.5 Q 550.0,200.0 545.5,163.5 Q 541.0,127.0 534.5,90.5 Q 528.0,54.0 519.0,21.0 Q 516.0,5.0 486.0,5.0 Q 468.0,5.0 460.5,9.0 Q 453.0,13.0 453.0,21.0 Q 453.0,214.0 428.0,364.5 Q 403.0,515.0 365.5,629.5 Q 328.0,744.0 284.0,824.5 Q 240.0,905.0 202.5,957.5 Q 165.0,1010.0 140.0,1038.5 Q 115.0,1067.0 115.0,1076.0 Q 115.0,1102.0 125.0,1133.0 Q 135.0,1164.0 148.5,1190.5 Q 162.0,1217.0 176.5,1234.5 Q 191.0,1252.0 200.0,1252.0 Q 205.0,1252.0 210.0,1245.5 Q 215.0,1239.0 223.0,1230.0 Q 265.0,1177.0 301.0,1140.5 Q 337.0,1104.0 370.0,1081.5 Q 403.0,1059.0 435.0,1049.0 Q 467.0,1039.0 502.0,1039.0 Q 590.0,1039.0 642.5,1084.5 Q 695.0,1130.0 720.0,1234.0" fill="black"/>
</svg>
