<svg xmlns="http://www.w3.org/2000/svg" 
    viewBox="0 0 905.0 1268.0" 
    width="905.0" height="1268.0">
  <path d="M 842.0,1251.0 Q 844.0,1259.0 850.5,1263.5 Q 857.0,1268.0 873.0,1268.0 Q 905.0,1268.0 905.0,1249.0 Q 905.0,1170.0 889.5,1109.0 Q 874.0,1048.0 845.5,1006.0 Q 817.0,964.0 777.0,942.0 Q 737.0,920.0 688.0,920.0 Q 648.0,920.0 610.5,936.0 Q 573.0,952.0 541.0,994.0 Q 512.0,946.0 466.0,914.0 Q 420.0,882.0 348.0,877.0 Q 329.0,877.0 311.5,879.0 Q 294.0,881.0 274.0,885.0 Q 301.0,823.0 325.0,757.5 Q 349.0,692.0 366.0,624.0 Q 383.0,556.0 393.0,486.5 Q 403.0,417.0 403.0,349.0 Q 403.0,264.0 397.5,183.0 Q 392.0,102.0 376.0,20.0 Q 374.0,12.0 366.0,8.5 Q 358.0,5.0 341.0,5.0 Q 309.0,5.0 309.0,20.0 Q 309.0,214.0 286.0,364.5 Q 263.0,515.0 229.0,629.5 Q 195.0,744.0 154.5,824.0 Q 114.0,904.0 80.0,956.5 Q 46.0,1009.0 23.0,1037.0 Q 0.0,1065.0 0.0,1074.0 Q 0.0,1100.0 8.5,1131.0 Q 17.0,1162.0 28.0,1188.5 Q 39.0,1215.0 51.0,1233.0 Q 63.0,1251.0 71.0,1251.0 Q 76.0,1251.0 81.5,1244.5 Q 87.0,1238.0 92.0,1229.0 Q 158.0,1132.0 215.0,1088.5 Q 272.0,1045.0 331.0,1045.0 Q 371.0,1045.0 400.5,1054.5 Q 430.0,1064.0 451.5,1085.5 Q 473.0,1107.0 488.0,1143.0 Q 503.0,1179.0 514.0,1233.0 Q 517.0,1250.0 546.0,1250.0 Q 583.0,1250.0 583.0,1231.0 Q 587.0,1188.0 597.0,1160.5 Q 607.0,1133.0 623.0,1116.5 Q 639.0,1100.0 661.0,1093.5 Q 683.0,1087.0 712.0,1087.0 Q 757.0,1087.0 790.0,1127.0 Q 823.0,1167.0 842.0,1251.0" fill="black"/>
</svg>
