<svg xmlns="http://www.w3.org/2000/svg" 
    viewBox="0 0 905.0 1268.0" 
    width="905.0" height="1268.0">
  <path d="M 462.0,1231.0 Q 482.0,1245.0 507.0,1250.0 Q 522.0,1237.0 524.5,1221.0 Q 527.0,1205.0 527.0,1183.0 Q 527.0,1166.0 526.0,1154.5 Q 525.0,1143.0 521.0,1135.0 Q 517.0,1127.0 510.5,1120.5 Q 504.0,1114.0 493.0,1108.0 Q 436.0,1069.0 390.0,1034.5 Q 344.0,1000.0 312.0,972.0 Q 280.0,944.0 262.5,924.0 Q 245.0,904.0 245.0,893.0 Q 245.0,881.0 265.0,867.5 Q 285.0,854.0 313.5,840.5 Q 342.0,827.0 373.5,814.0 Q 405.0,801.0 428.0,790.0 Q 450.0,780.0 466.5,770.5 Q 483.0,761.0 493.5,749.0 Q 504.0,737.0 509.0,720.5 Q 514.0,704.0 514.0,680.0 Q 514.0,642.0 505.5,617.0 Q 497.0,592.0 474.0,566.0 Q 443.0,529.0 408.0,490.0 Q 373.0,451.0 343.5,416.5 Q 314.0,382.0 295.0,354.5 Q 276.0,327.0 276.0,314.0 Q 276.0,296.0 298.5,278.0 Q 321.0,260.0 358.5,242.5 Q 396.0,225.0 445.0,209.0 Q 494.0,193.0 548.0,179.5 Q 602.0,166.0 657.5,156.0 Q 713.0,146.0 763.0,141.0 Q 786.0,138.0 786.0,114.0 Q 786.0,89.0 781.0,79.5 Q 776.0,70.0 759.0,63.0 Q 695.0,36.0 636.0,18.0 Q 577.0,0.0 538.0,0.0 Q 509.0,0.0 468.0,8.0 Q 427.0,16.0 385.0,28.0 Q 343.0,40.0 304.5,54.5 Q 266.0,69.0 242.0,81.0 Q 190.0,107.0 166.5,139.5 Q 143.0,172.0 143.0,214.0 Q 143.0,247.0 156.0,283.5 Q 169.0,320.0 190.5,357.0 Q 212.0,394.0 239.0,431.0 Q 266.0,468.0 293.5,502.0 Q 321.0,536.0 346.5,566.0 Q 372.0,596.0 391.0,619.0 Q 342.0,640.0 294.0,660.0 Q 246.0,680.0 208.5,702.5 Q 171.0,725.0 147.5,752.0 Q 124.0,779.0 124.0,814.0 Q 124.0,869.0 155.0,925.0 Q 186.0,981.0 235.0,1035.0 Q 284.0,1089.0 344.0,1138.5 Q 404.0,1188.0 462.0,1231.0" fill="black"/>
</svg>
