<svg xmlns="http://www.w3.org/2000/svg" 
    viewBox="0 0 905.0 1268.0" 
    width="905.0" height="1268.0">
  <path d="M 698.0,489.0 Q 698.0,564.0 673.0,639.0 Q 648.0,714.0 608.0,775.0 Q 568.0,836.0 518.5,874.0 Q 469.0,912.0 421.0,912.0 Q 398.0,912.0 373.5,890.5 Q 349.0,869.0 326.0,834.5 Q 303.0,800.0 282.5,757.0 Q 262.0,714.0 246.5,670.0 Q 231.0,626.0 222.0,586.0 Q 213.0,546.0 213.0,518.0 Q 213.0,473.0 224.0,435.5 Q 235.0,398.0 262.0,370.5 Q 289.0,343.0 334.0,327.5 Q 379.0,312.0 447.0,312.0 Q 488.0,312.0 532.5,325.5 Q 577.0,339.0 613.5,363.0 Q 650.0,387.0 674.0,419.5 Q 698.0,452.0 698.0,489.0 M 788.0,588.0 Q 788.0,540.0 779.5,490.0 Q 771.0,440.0 755.0,393.5 Q 739.0,347.0 717.5,307.0 Q 696.0,267.0 671.0,239.0 Q 654.0,220.0 626.5,202.0 Q 599.0,184.0 565.5,169.5 Q 532.0,155.0 495.5,146.5 Q 459.0,138.0 423.0,138.0 Q 351.0,138.0 293.5,154.0 Q 236.0,170.0 195.0,203.0 Q 154.0,236.0 132.0,286.0 Q 110.0,336.0 110.0,404.0 Q 110.0,464.0 127.5,548.5 Q 145.0,633.0 187.0,739.0 Q 211.0,800.0 244.0,861.5 Q 277.0,923.0 312.5,972.5 Q 348.0,1022.0 383.0,1053.0 Q 418.0,1084.0 446.0,1084.0 Q 509.0,1084.0 561.0,1048.5 Q 613.0,1013.0 667.0,944.0 Q 701.0,904.0 724.0,856.5 Q 747.0,809.0 761.0,761.0 Q 775.0,713.0 781.5,668.0 Q 788.0,623.0 788.0,588.0" fill="black"/>
</svg>
