<svg xmlns="http://www.w3.org/2000/svg" 
    viewBox="0 0 905.0 1268.0" 
    width="905.0" height="1268.0">
  <path d="M 122.0,1032.0 Q 78.0,1032.0 78.0,1122.0 Q 78.0,1162.0 89.0,1184.5 Q 100.0,1207.0 122.0,1207.0 L 627.0,1207.0 Q 655.0,1207.0 671.0,1190.0 Q 687.0,1173.0 687.0,1141.0 L 687.0,1075.0 Q 687.0,845.0 707.5,660.0 Q 728.0,475.0 753.0,341.0 Q 778.0,207.0 798.5,128.5 Q 819.0,50.0 819.0,34.0 Q 819.0,20.0 805.5,10.0 Q 792.0,0.0 755.0,0.0 Q 699.0,0.0 692.0,27.0 Q 688.0,36.0 677.5,80.0 Q 667.0,124.0 652.5,194.5 Q 638.0,265.0 622.5,358.5 Q 607.0,452.0 594.0,560.5 Q 581.0,669.0 572.5,789.0 Q 564.0,909.0 564.0,1032.0 L 122.0,1032.0" fill="black"/>
</svg>
