<svg xmlns="http://www.w3.org/2000/svg" 
    viewBox="0 0 905.0 1268.0" 
    width="905.0" height="1268.0">
  <path d="M 451.0,0.0 Q 413.0,0.0 392.0,11.5 Q 371.0,23.0 364.0,57.0 L 350.0,124.0 Q 305.0,350.0 251.5,524.5 Q 198.0,699.0 149.5,824.0 Q 101.0,949.0 64.0,1026.5 Q 27.0,1104.0 14.0,1138.0 Q 11.0,1147.0 8.0,1156.0 Q 5.0,1165.0 5.0,1174.0 Q 5.0,1185.0 21.0,1192.0 Q 37.0,1199.0 75.0,1199.0 Q 117.0,1199.0 135.0,1194.0 Q 153.0,1189.0 159.0,1177.0 Q 166.0,1166.0 184.0,1128.5 Q 202.0,1091.0 226.5,1031.5 Q 251.0,972.0 281.0,892.5 Q 311.0,813.0 342.0,719.5 Q 373.0,626.0 403.5,520.0 Q 434.0,414.0 459.0,301.0 Q 500.0,477.0 550.0,630.0 Q 600.0,783.0 645.0,899.5 Q 690.0,1016.0 723.0,1089.0 Q 756.0,1162.0 765.0,1177.0 Q 774.0,1191.0 790.0,1195.0 Q 806.0,1199.0 839.0,1199.0 Q 867.0,1199.0 880.5,1191.0 Q 894.0,1183.0 894.0,1174.0 Q 894.0,1165.0 890.0,1156.0 Q 886.0,1147.0 884.0,1140.0 Q 872.0,1109.0 834.5,1032.0 Q 797.0,955.0 748.0,829.0 Q 699.0,703.0 645.0,527.5 Q 591.0,352.0 546.0,124.0 L 533.0,58.0 Q 526.0,23.0 507.5,11.5 Q 489.0,0.0 451.0,0.0" fill="black"/>
</svg>
