<svg xmlns="http://www.w3.org/2000/svg" 
    viewBox="0 0 905.0 1268.0" 
    width="905.0" height="1268.0">
  <path d="M 447.0,1199.0 Q 485.0,1199.0 506.5,1187.5 Q 528.0,1176.0 535.0,1142.0 L 549.0,1075.0 Q 594.0,848.0 647.0,674.0 Q 700.0,500.0 749.0,375.0 Q 798.0,250.0 835.0,172.5 Q 872.0,95.0 885.0,61.0 Q 888.0,52.0 891.0,43.0 Q 894.0,34.0 894.0,25.0 Q 894.0,14.0 877.5,7.0 Q 861.0,0.0 823.0,0.0 Q 782.0,0.0 764.0,5.0 Q 746.0,10.0 739.0,22.0 Q 732.0,33.0 714.5,70.5 Q 697.0,108.0 672.0,167.5 Q 647.0,227.0 617.5,306.5 Q 588.0,386.0 557.0,479.5 Q 526.0,573.0 496.0,679.0 Q 466.0,785.0 440.0,898.0 Q 399.0,722.0 349.0,569.0 Q 299.0,416.0 254.0,299.5 Q 209.0,183.0 176.0,110.0 Q 143.0,37.0 134.0,22.0 Q 125.0,8.0 108.5,4.0 Q 92.0,0.0 60.0,0.0 Q 32.0,0.0 18.5,8.0 Q 5.0,16.0 5.0,25.0 Q 5.0,34.0 9.0,43.0 Q 13.0,52.0 15.0,59.0 Q 27.0,90.0 64.5,167.0 Q 102.0,244.0 150.5,370.0 Q 199.0,496.0 253.0,671.5 Q 307.0,847.0 352.0,1075.0 L 366.0,1141.0 Q 373.0,1176.0 391.5,1187.5 Q 410.0,1199.0 447.0,1199.0" fill="black"/>
</svg>
