<svg xmlns="http://www.w3.org/2000/svg"
     width="160" height="200"
     viewBox="0 0 160 200">
  <g transform="translate(80.0,100.0) scale(0.11389521640091116, -0.11389521640091116) translate(-719.5, -578.0)">
    <path d="M551 879Q664 950 664 1048Q664 1112 619.5 1157.5Q575 1203 511 1203Q443 1203 398.0 1152.5Q353 1102 353 1032Q353 976 374.0 919.0Q395 862 432 819Q790 395 857 322Q976 191 1021.0 118.5Q1066 46 1066 -18Q1066 -66 1037.5 -134.0Q1009 -202 943 -282L731 -155Q773 -94 786.5 -66.0Q800 -38 800 -20Q800 10 765.5 59.0Q731 108 641 207L307 577Q188 709 140.5 812.0Q93 915 93 1045Q93 1221 204.0 1330.0Q315 1439 504 1439Q637 1439 732.0 1390.5Q827 1342 877.5 1251.5Q928 1161 928 1043Q928 923 855.5 824.5Q783 726 648 660Z" fill="black"/>
  </g>
</svg>
