
<svg xmlns="http://www.w3.org/2000/svg" viewBox="0 0 645 1486">
  <g transform="translate(-127, 22)">
    <path d="M617 772Q502 677 431.0 602.0Q360 527 320.5 468.5Q281 410 267.0 365.5Q253 321 253 288Q253 240 274.0 206.5Q295 173 332.5 152.5Q370 132 420.5 122.5Q471 113 530 113Q601 113 658.0 122.5Q715 132 772 147V21Q649 -22 513 -22Q438 -22 368.0 -4.0Q298 14 244.5 49.0Q191 84 159.0 136.5Q127 189 127 258Q127 304 143.5 360.5Q160 417 196.0 479.0Q232 541 289.5 608.5Q347 676 429 745Q346 779 289.5 813.5Q233 848 198.0 884.0Q163 920 147.5 958.5Q132 997 132 1039Q132 1094 156.0 1150.0Q180 1206 235.5 1260.5Q291 1315 380.0 1366.0Q469 1417 600 1464V1326Q489 1287 419.5 1248.0Q350 1209 310.0 1173.5Q270 1138 255.5 1107.0Q241 1076 241 1053Q241 1022 260.5 993.5Q280 965 324.5 934.5Q369 904 441.0 869.0Q513 834 617 791Z" fill="black" />
  </g>
</svg>
