
<svg xmlns="http://www.w3.org/2000/svg" viewBox="0 0 813 1028">
  <g transform="translate(-97, -181)">
    <path d="M498 1209Q543 1209 591.0 1189.5Q639 1170 685.0 1132.5Q731 1095 771.5 1040.5Q812 986 843.0 917.5Q874 849 892.0 766.5Q910 684 910 590Q910 493 880.0 417.0Q850 341 795.5 288.5Q741 236 665.0 208.5Q589 181 497 181Q400 181 325.5 209.0Q251 237 200.0 287.0Q149 337 123.0 407.5Q97 478 97 563Q97 656 114.5 740.5Q132 825 162.0 896.5Q192 968 231.5 1026.0Q271 1084 315.5 1124.5Q360 1165 407.0 1187.0Q454 1209 498 1209ZM496 1080Q449 1080 400.0 1040.5Q351 1001 310.5 932.5Q270 864 244.0 772.0Q218 680 218 576Q218 510 238.5 460.5Q259 411 295.5 378.5Q332 346 383.5 330.0Q435 314 497 314Q570 314 625.0 332.5Q680 351 717.0 385.0Q754 419 772.0 467.5Q790 516 790 575Q790 689 761.0 782.0Q732 875 688.0 941.0Q644 1007 592.5 1043.5Q541 1080 496 1080Z" fill="black" />
  </g>
</svg>
