<svg xmlns="http://www.w3.org/2000/svg"
     width="160" height="200"
     viewBox="0 0 160 200">
  <g transform="translate(80.0,100.0) scale(0.11648223645894001, -0.11648223645894001) translate(-644.0, -552.5)">
    <path d="M293 1104 202 1264Q391 1319 534 1319Q781 1319 914.0 1205.0Q1047 1091 1047 905Q1047 755 956.0 635.5Q865 516 707 455Q958 3 1110 -222L1073 -251Q923 -30 654 437H581Q494 437 427.5 492.0Q361 547 361 625Q361 682 395.5 718.0Q430 754 471 754Q510 754 546.5 726.0Q583 698 641 594Q789 634 882.5 736.5Q976 839 976 966Q976 1073 916.0 1137.0Q856 1201 741 1201Q607 1201 293 1104Z" fill="black"/>
  </g>
</svg>
