<svg xmlns="http://www.w3.org/2000/svg"
     width="160" height="200"
     viewBox="0 0 160 200">
  <g transform="translate(80.0,100.0) scale(0.11648223645894001, -0.11648223645894001) translate(-644.0, -552.5)">
    <path d="M1078 -306 756 518Q671 484 586 484Q392 484 279.5 617.5Q167 751 167 987Q167 1150 204 1348L385 1293Q335 1124 310.0 994.5Q285 865 285 775Q285 684 334.0 639.0Q383 594 482 594Q579 594 688 688Q667 755 667 814Q667 892 701.0 940.5Q735 989 793 989Q853 989 891.0 931.0Q929 873 929 793Q929 720 896.0 659.5Q863 599 798 552L1180 -262Z" fill="black"/>
  </g>
</svg>
