<svg xmlns="http://www.w3.org/2000/svg"
     width="160" height="200"
     viewBox="0 0 160 200">
  <g transform="translate(80.0,100.0) scale(0.11648223645894001, -0.11648223645894001) translate(-644.0, -552.5)">
    <path d="M1060 -267 777 188Q626 201 529.0 289.0Q432 377 432 508Q432 654 560 756Q400 759 320.5 825.5Q241 892 241 1021Q241 1161 346.5 1249.0Q452 1337 654 1337H816L861 1196H618Q439 1196 375.0 1166.5Q311 1137 311 1068Q311 1011 360.5 967.5Q410 924 493.0 911.0Q576 898 738 898H809L848 756H767Q658 756 580.0 691.0Q502 626 502 542Q502 468 563.0 413.5Q624 359 746 359H769Q832 484 934 484Q989 484 1020.5 450.0Q1052 416 1052 364Q1052 298 997.5 245.0Q943 192 840 188L1117 -267Z" fill="black"/>
  </g>
</svg>
