<svg xmlns="http://www.w3.org/2000/svg"
     width="160" height="200"
     viewBox="0 0 160 200">
  <g transform="translate(80.0,100.0) scale(0.11648223645894001, -0.11648223645894001) translate(-644.0, -552.5)">
    <path d="M1034 -188 892 -92Q1031 17 1031 55Q1031 93 830 298Q410 695 326.5 811.0Q243 927 243 1031Q243 1134 339.5 1230.5Q436 1327 568 1327Q714 1327 813.5 1230.5Q913 1134 913 1013Q913 889 809.5 791.0Q706 693 573 693Q523 693 487 701Q543 636 735 467Q965 264 1071.5 156.0Q1178 48 1178 -8Q1178 -86 1034 -188ZM345 921Q345 882 376.0 849.0Q407 816 461 816Q571 816 683.5 915.0Q796 1014 796 1110Q796 1217 699 1217Q600 1217 472.5 1107.5Q345 998 345 921Z" fill="black"/>
  </g>
</svg>
