<svg xmlns="http://www.w3.org/2000/svg" 
    viewBox="0 0 1049.0 1464.0" 
    width="1049.0" height="1464.0">
  <path d="M 1017.0,1265.0 Q 933.0,1214.0 831.5,1188.5 Q 730.0,1163.0 598.0,1163.0 Q 573.0,1163.0 541.0,1166.0 Q 509.0,1169.0 475.0,1174.5 Q 441.0,1180.0 408.0,1188.5 Q 375.0,1197.0 348.0,1208.0 L 483.0,989.0 Q 508.0,948.0 534.0,899.5 Q 560.0,851.0 581.5,791.5 Q 603.0,732.0 616.5,660.0 Q 630.0,588.0 630.0,499.0 L 630.0,20.0 L 480.0,20.0 L 480.0,499.0 Q 480.0,583.0 467.5,649.0 Q 455.0,715.0 433.0,770.5 Q 411.0,826.0 382.5,875.5 Q 354.0,925.0 323.0,977.0 L 37.0,1454.0 L 178.0,1454.0 Q 275.0,1385.0 384.0,1354.0 Q 493.0,1323.0 596.0,1323.0 Q 716.0,1323.0 815.5,1355.5 Q 915.0,1388.0 1006.0,1454.0 L 1017.0,1454.0 L 1017.0,1265.0" fill="black"/>
</svg>
