<svg xmlns="http://www.w3.org/2000/svg" 
    viewBox="0 0 1049.0 1464.0" 
    width="1049.0" height="1464.0">
  <path d="M 141.0,1454.0 Q 187.0,1387.0 235.5,1353.5 Q 284.0,1320.0 347.0,1320.0 Q 416.0,1320.0 454.0,1353.5 Q 492.0,1387.0 512.0,1454.0 L 662.0,1454.0 Q 667.0,1431.0 676.5,1407.0 Q 686.0,1383.0 700.5,1363.5 Q 715.0,1344.0 735.5,1332.0 Q 756.0,1320.0 784.0,1320.0 Q 836.0,1320.0 861.0,1353.5 Q 886.0,1387.0 899.0,1454.0 L 1049.0,1454.0 Q 1040.0,1379.0 1017.0,1323.5 Q 994.0,1268.0 960.0,1231.5 Q 926.0,1195.0 882.5,1177.5 Q 839.0,1160.0 788.0,1160.0 Q 655.0,1160.0 586.0,1277.0 Q 508.0,1160.0 340.0,1160.0 L 446.0,989.0 Q 471.0,948.0 497.0,899.5 Q 523.0,851.0 544.5,791.5 Q 566.0,732.0 579.5,660.0 Q 593.0,588.0 593.0,499.0 L 593.0,20.0 L 443.0,20.0 L 443.0,499.0 Q 443.0,583.0 430.5,649.0 Q 418.0,715.0 396.0,770.5 Q 374.0,826.0 345.5,875.5 Q 317.0,925.0 286.0,977.0 L 0.0,1454.0 L 141.0,1454.0" fill="black"/>
</svg>
