<svg xmlns="http://www.w3.org/2000/svg" 
    viewBox="0 0 1049.0 1464.0" 
    width="1049.0" height="1464.0">
  <path d="M 1002.0,20.0 L 286.0,20.0 Q 247.0,20.0 209.5,31.0 Q 172.0,42.0 142.5,63.5 Q 113.0,85.0 95.0,116.5 Q 77.0,148.0 77.0,188.0 Q 77.0,290.0 179.0,389.0 L 433.0,632.0 Q 460.0,659.0 460.0,679.0 Q 460.0,699.0 417.0,741.0 L 279.0,874.0 Q 260.0,893.0 240.5,915.5 Q 221.0,938.0 205.5,964.5 Q 190.0,991.0 180.0,1020.5 Q 170.0,1050.0 170.0,1083.0 Q 170.0,1139.0 189.5,1180.0 Q 209.0,1221.0 244.0,1251.5 Q 279.0,1282.0 329.0,1304.5 Q 379.0,1327.0 439.0,1345.0 L 800.0,1454.0 L 800.0,1298.0 L 416.0,1182.0 Q 363.0,1166.0 341.5,1143.5 Q 320.0,1121.0 320.0,1094.0 Q 320.0,1075.0 335.5,1051.0 Q 351.0,1027.0 395.0,984.0 L 535.0,847.0 Q 575.0,808.0 592.5,767.0 Q 610.0,726.0 610.0,691.0 Q 610.0,665.0 605.0,642.0 Q 600.0,619.0 589.0,596.5 Q 578.0,574.0 560.0,551.5 Q 542.0,529.0 516.0,504.0 L 306.0,303.0 Q 286.0,285.0 276.5,265.0 Q 267.0,245.0 267.0,232.0 Q 267.0,206.0 288.0,193.0 Q 309.0,180.0 338.0,180.0 L 1002.0,180.0 L 1002.0,20.0" fill="black"/>
</svg>
