<svg xmlns="http://www.w3.org/2000/svg" 
    viewBox="0 0 1163.0 1732.0" 
    width="1163.0" height="1732.0">
  <path d="M 410.0,1279.0 Q 348.0,1279.0 297.0,1255.5 Q 246.0,1232.0 209.5,1191.0 Q 173.0,1150.0 152.5,1094.5 Q 132.0,1039.0 132.0,975.0 Q 132.0,910.0 154.0,854.0 Q 176.0,798.0 213.5,756.5 Q 251.0,715.0 302.0,691.0 Q 353.0,667.0 410.0,667.0 Q 468.0,667.0 518.0,691.0 Q 568.0,715.0 605.5,756.5 Q 643.0,798.0 664.5,854.0 Q 686.0,910.0 686.0,975.0 Q 686.0,1039.0 666.0,1094.5 Q 646.0,1150.0 609.5,1191.0 Q 573.0,1232.0 522.0,1255.5 Q 471.0,1279.0 410.0,1279.0 M 410.0,1401.0 Q 497.0,1401.0 572.0,1368.0 Q 647.0,1335.0 701.5,1277.5 Q 756.0,1220.0 787.0,1142.0 Q 818.0,1064.0 818.0,974.0 Q 818.0,883.0 785.5,804.5 Q 753.0,726.0 697.5,668.5 Q 642.0,611.0 568.0,578.0 Q 494.0,545.0 410.0,545.0 Q 327.0,545.0 252.5,578.0 Q 178.0,611.0 122.0,668.5 Q 66.0,726.0 33.0,804.5 Q 0.0,883.0 0.0,974.0 Q 0.0,1064.0 31.5,1142.0 Q 63.0,1220.0 118.0,1277.5 Q 173.0,1335.0 248.0,1368.0 Q 323.0,1401.0 410.0,1401.0" fill="black"/>
</svg>
