<svg xmlns="http://www.w3.org/2000/svg" 
    viewBox="0 0 1163.0 1732.0" 
    width="1163.0" height="1732.0">
  <path d="M 198.0,1105.0 Q 158.0,1133.0 123.5,1166.5 Q 89.0,1200.0 64.0,1239.5 Q 39.0,1279.0 24.5,1325.5 Q 10.0,1372.0 10.0,1428.0 Q 10.0,1500.0 34.5,1556.5 Q 59.0,1613.0 101.0,1652.0 Q 143.0,1691.0 198.0,1711.5 Q 253.0,1732.0 314.0,1732.0 Q 377.0,1732.0 435.0,1711.5 Q 493.0,1691.0 537.5,1648.0 Q 582.0,1605.0 608.5,1540.0 Q 635.0,1475.0 635.0,1387.0 Q 635.0,1297.0 604.0,1211.5 Q 573.0,1126.0 520.5,1043.0 Q 468.0,960.0 400.0,880.0 Q 332.0,800.0 259.0,721.0 Q 376.0,619.0 456.0,543.0 Q 536.0,467.0 585.0,406.0 Q 634.0,345.0 655.5,295.0 Q 677.0,245.0 677.0,195.0 Q 677.0,143.0 655.0,95.5 Q 633.0,48.0 595.0,0.0 L 493.0,67.0 Q 519.0,104.0 532.0,134.5 Q 545.0,165.0 545.0,200.0 Q 545.0,221.0 541.0,241.5 Q 537.0,262.0 522.5,288.0 Q 508.0,314.0 478.5,349.5 Q 449.0,385.0 398.5,436.0 Q 348.0,487.0 272.0,557.0 Q 196.0,627.0 89.0,722.0 Q 212.0,846.0 292.5,941.5 Q 373.0,1037.0 419.5,1114.0 Q 466.0,1191.0 484.5,1255.5 Q 503.0,1320.0 503.0,1382.0 Q 503.0,1445.0 487.5,1488.5 Q 472.0,1532.0 446.5,1559.0 Q 421.0,1586.0 389.0,1598.0 Q 357.0,1610.0 323.0,1610.0 Q 284.0,1610.0 251.0,1596.5 Q 218.0,1583.0 193.5,1558.0 Q 169.0,1533.0 155.5,1499.0 Q 142.0,1465.0 142.0,1424.0 Q 142.0,1387.0 152.0,1356.0 Q 162.0,1325.0 179.0,1298.0 Q 196.0,1271.0 219.0,1248.0 Q 242.0,1225.0 268.0,1205.0 L 198.0,1105.0" fill="black"/>
</svg>
