<svg xmlns="http://www.w3.org/2000/svg" 
    viewBox="0 0 1163.0 1732.0" 
    width="1163.0" height="1732.0">
  <path d="M 714.0,0.0 Q 597.0,169.0 502.5,341.5 Q 408.0,514.0 327.0,706.0 Q 267.0,708.0 220.0,730.5 Q 173.0,753.0 140.0,787.5 Q 107.0,822.0 89.5,864.0 Q 72.0,906.0 72.0,945.0 Q 72.0,1004.0 106.5,1036.0 Q 141.0,1068.0 191.0,1068.0 Q 216.0,1068.0 241.5,1057.0 Q 267.0,1046.0 291.5,1020.5 Q 316.0,995.0 340.0,953.0 Q 364.0,911.0 388.0,848.0 Q 442.0,866.0 497.5,895.5 Q 553.0,925.0 598.5,970.0 Q 644.0,1015.0 672.5,1077.0 Q 701.0,1139.0 701.0,1222.0 Q 701.0,1304.0 676.5,1375.0 Q 652.0,1446.0 604.0,1498.0 Q 556.0,1550.0 485.5,1580.0 Q 415.0,1610.0 324.0,1610.0 Q 264.0,1610.0 191.0,1599.0 Q 118.0,1588.0 42.0,1553.0 L 0.0,1669.0 Q 54.0,1691.0 103.0,1703.5 Q 152.0,1716.0 194.0,1722.5 Q 236.0,1729.0 270.5,1730.5 Q 305.0,1732.0 330.0,1732.0 Q 453.0,1732.0 547.0,1690.0 Q 641.0,1648.0 704.5,1578.5 Q 768.0,1509.0 800.5,1418.0 Q 833.0,1327.0 833.0,1229.0 Q 833.0,1141.0 807.5,1062.5 Q 782.0,984.0 732.0,919.5 Q 682.0,855.0 609.0,806.5 Q 536.0,758.0 441.0,731.0 Q 484.0,638.0 524.5,556.0 Q 565.0,474.0 609.0,396.0 Q 653.0,318.0 703.5,240.0 Q 754.0,162.0 818.0,75.0 L 714.0,0.0" fill="black"/>
</svg>
