<svg xmlns="http://www.w3.org/2000/svg" 
    viewBox="0 0 1163.0 1732.0" 
    width="1163.0" height="1732.0">
  <path d="M 660.0,0.0 Q 610.0,77.0 573.5,128.0 Q 537.0,179.0 506.5,217.0 Q 476.0,255.0 446.0,287.5 Q 416.0,320.0 379.0,361.0 Q 303.0,364.0 249.0,381.5 Q 195.0,399.0 160.5,425.5 Q 126.0,452.0 110.0,483.5 Q 94.0,515.0 94.0,546.0 Q 94.0,569.0 102.0,590.5 Q 110.0,612.0 125.0,628.5 Q 140.0,645.0 162.0,654.5 Q 184.0,664.0 212.0,664.0 Q 248.0,664.0 283.0,647.0 Q 318.0,630.0 350.0,603.5 Q 382.0,577.0 409.0,545.5 Q 436.0,514.0 456.0,486.0 Q 483.0,493.0 521.5,509.5 Q 560.0,526.0 595.0,557.5 Q 630.0,589.0 655.0,639.0 Q 680.0,689.0 680.0,763.0 Q 680.0,837.0 656.0,891.0 Q 632.0,945.0 590.0,980.0 Q 548.0,1015.0 491.5,1032.0 Q 435.0,1049.0 370.0,1049.0 L 112.0,1049.0 L 112.0,1169.0 L 309.0,1169.0 Q 392.0,1169.0 447.0,1188.0 Q 502.0,1207.0 535.0,1237.5 Q 568.0,1268.0 582.0,1306.0 Q 596.0,1344.0 596.0,1382.0 Q 596.0,1425.0 581.0,1464.0 Q 566.0,1503.0 531.5,1532.5 Q 497.0,1562.0 442.0,1579.0 Q 387.0,1596.0 307.0,1596.0 L 0.0,1596.0 L 0.0,1716.0 L 302.0,1716.0 Q 414.0,1716.0 494.5,1688.5 Q 575.0,1661.0 627.0,1615.0 Q 679.0,1569.0 703.5,1508.5 Q 728.0,1448.0 728.0,1382.0 Q 728.0,1306.0 685.5,1235.5 Q 643.0,1165.0 574.0,1114.0 Q 634.0,1088.0 679.0,1048.5 Q 724.0,1009.0 753.5,961.0 Q 783.0,913.0 797.5,860.0 Q 812.0,807.0 812.0,755.0 Q 812.0,690.0 790.0,630.5 Q 768.0,571.0 729.0,521.5 Q 690.0,472.0 635.5,435.0 Q 581.0,398.0 517.0,380.0 Q 540.0,354.0 572.0,317.5 Q 604.0,281.0 638.0,239.5 Q 672.0,198.0 706.0,154.0 Q 740.0,110.0 768.0,70.0 L 660.0,0.0" fill="black"/>
</svg>
