<svg xmlns="http://www.w3.org/2000/svg" 
    viewBox="0 0 1163.0 1732.0" 
    width="1163.0" height="1732.0">
  <path d="M 972.0,1716.0 Q 974.0,1699.0 975.5,1678.0 Q 977.0,1657.0 977.0,1640.0 Q 977.0,1541.0 941.5,1452.0 Q 906.0,1363.0 849.5,1282.0 Q 793.0,1201.0 722.0,1128.5 Q 651.0,1056.0 581.0,990.0 Q 630.0,945.0 674.5,897.5 Q 719.0,850.0 753.0,799.0 Q 787.0,748.0 806.5,691.5 Q 826.0,635.0 826.0,572.0 Q 826.0,497.0 800.5,439.5 Q 775.0,382.0 731.5,343.0 Q 688.0,304.0 630.0,284.0 Q 572.0,264.0 506.0,264.0 Q 423.0,264.0 358.5,287.0 Q 294.0,310.0 250.0,351.5 Q 206.0,393.0 183.5,450.5 Q 161.0,508.0 161.0,576.0 Q 161.0,636.0 180.5,690.5 Q 200.0,745.0 233.0,795.5 Q 266.0,846.0 310.0,893.5 Q 354.0,941.0 404.0,988.0 Q 332.0,1049.0 260.0,1117.5 Q 188.0,1186.0 130.0,1261.5 Q 72.0,1337.0 36.0,1421.5 Q 0.0,1506.0 0.0,1600.0 Q 0.0,1639.0 3.0,1668.5 Q 6.0,1698.0 9.0,1716.0 L 140.0,1716.0 Q 135.0,1690.0 132.5,1662.5 Q 130.0,1635.0 130.0,1611.0 Q 130.0,1528.0 161.0,1454.5 Q 192.0,1381.0 242.5,1314.0 Q 293.0,1247.0 358.0,1185.0 Q 423.0,1123.0 491.0,1065.0 Q 558.0,1125.0 622.0,1191.0 Q 686.0,1257.0 736.0,1329.5 Q 786.0,1402.0 816.5,1483.0 Q 847.0,1564.0 847.0,1656.0 Q 847.0,1669.0 846.5,1686.0 Q 846.0,1703.0 845.0,1716.0 L 972.0,1716.0 M 281.0,569.0 Q 281.0,512.0 303.0,476.5 Q 325.0,441.0 357.0,421.0 Q 389.0,401.0 425.5,393.5 Q 462.0,386.0 491.0,386.0 Q 535.0,386.0 574.0,400.0 Q 613.0,414.0 642.5,439.5 Q 672.0,465.0 689.0,500.5 Q 706.0,536.0 706.0,579.0 Q 706.0,622.0 690.0,664.0 Q 674.0,706.0 645.5,747.0 Q 617.0,788.0 578.5,828.0 Q 540.0,868.0 495.0,909.0 Q 449.0,865.0 410.0,822.0 Q 371.0,779.0 342.5,737.0 Q 314.0,695.0 297.5,653.0 Q 281.0,611.0 281.0,569.0" fill="black"/>
</svg>
