<svg xmlns="http://www.w3.org/2000/svg" 
    viewBox="0 0 1163.0 1732.0" 
    width="1163.0" height="1732.0">
  <path d="M 222.0,1716.0 Q 181.0,1558.0 161.5,1434.0 Q 142.0,1310.0 142.0,1205.0 Q 142.0,1087.0 165.0,1003.5 Q 188.0,920.0 228.0,867.5 Q 268.0,815.0 322.0,791.0 Q 376.0,767.0 437.0,767.0 Q 480.0,767.0 516.0,779.0 Q 552.0,791.0 579.0,808.5 Q 606.0,826.0 624.5,844.5 Q 643.0,863.0 653.0,875.0 Q 615.0,929.0 599.0,983.5 Q 583.0,1038.0 583.0,1083.0 Q 583.0,1117.0 591.0,1146.5 Q 599.0,1176.0 614.5,1198.0 Q 630.0,1220.0 652.0,1232.0 Q 674.0,1244.0 702.0,1244.0 Q 736.0,1244.0 764.5,1227.5 Q 793.0,1211.0 813.0,1183.0 Q 833.0,1155.0 844.0,1117.0 Q 855.0,1079.0 855.0,1037.0 Q 855.0,941.0 795.0,847.0 Q 828.0,745.0 866.0,643.5 Q 904.0,542.0 949.0,444.0 Q 994.0,346.0 1047.0,253.0 Q 1100.0,160.0 1163.0,75.0 L 1057.0,0.0 Q 1021.0,50.0 984.0,114.0 Q 947.0,178.0 912.0,248.0 Q 877.0,318.0 845.0,390.0 Q 813.0,462.0 786.5,529.0 Q 760.0,596.0 740.0,654.0 Q 720.0,712.0 710.0,754.0 Q 666.0,716.0 623.5,694.0 Q 581.0,672.0 545.5,661.0 Q 510.0,650.0 483.5,647.5 Q 457.0,645.0 444.0,645.0 Q 339.0,645.0 258.5,690.5 Q 178.0,736.0 122.5,813.0 Q 67.0,890.0 38.5,990.0 Q 10.0,1090.0 10.0,1200.0 Q 10.0,1239.0 13.5,1294.5 Q 17.0,1350.0 25.5,1416.5 Q 34.0,1483.0 48.5,1559.0 Q 63.0,1635.0 86.0,1716.0 L 222.0,1716.0" fill="black"/>
</svg>
