<svg xmlns="http://www.w3.org/2000/svg" 
    viewBox="0 0 1163.0 1732.0" 
    width="1163.0" height="1732.0">
  <path d="M 720.0,1049.0 L 488.0,1049.0 Q 414.0,1049.0 364.0,1027.0 Q 314.0,1005.0 283.0,969.0 Q 252.0,933.0 238.5,887.0 Q 225.0,841.0 225.0,792.0 Q 225.0,728.0 246.5,671.5 Q 268.0,615.0 307.5,573.0 Q 347.0,531.0 404.0,507.0 Q 461.0,483.0 532.0,483.0 Q 564.0,483.0 603.0,489.0 Q 642.0,495.0 681.0,509.0 Q 657.0,560.0 645.5,598.5 Q 634.0,637.0 634.0,672.0 Q 634.0,731.0 660.0,764.5 Q 686.0,798.0 736.0,798.0 Q 776.0,798.0 809.5,778.5 Q 843.0,759.0 867.5,727.5 Q 892.0,696.0 905.5,655.5 Q 919.0,615.0 919.0,573.0 Q 919.0,533.0 903.0,502.0 Q 887.0,471.0 847.0,440.0 Q 892.0,351.0 950.5,259.0 Q 1009.0,167.0 1079.0,76.0 L 981.0,0.0 Q 950.0,35.0 918.5,80.0 Q 887.0,125.0 857.0,176.0 Q 827.0,227.0 800.0,281.0 Q 773.0,335.0 750.0,388.0 Q 693.0,371.0 641.0,363.0 Q 589.0,355.0 547.0,355.0 Q 448.0,355.0 364.5,389.5 Q 281.0,424.0 220.5,484.5 Q 160.0,545.0 126.5,626.5 Q 93.0,708.0 93.0,801.0 Q 93.0,841.0 100.5,878.5 Q 108.0,916.0 125.5,951.0 Q 143.0,986.0 172.5,1019.5 Q 202.0,1053.0 246.0,1086.0 Q 123.0,1134.0 66.5,1219.5 Q 10.0,1305.0 10.0,1416.0 Q 10.0,1488.0 35.0,1538.0 Q 60.0,1588.0 100.5,1621.5 Q 141.0,1655.0 191.0,1674.0 Q 241.0,1693.0 291.5,1702.0 Q 342.0,1711.0 388.0,1713.5 Q 434.0,1716.0 465.0,1716.0 L 683.0,1716.0 L 683.0,1596.0 L 487.0,1596.0 Q 417.0,1596.0 354.5,1587.5 Q 292.0,1579.0 244.5,1556.5 Q 197.0,1534.0 169.5,1494.0 Q 142.0,1454.0 142.0,1392.0 Q 142.0,1332.0 168.0,1289.5 Q 194.0,1247.0 236.0,1220.0 Q 278.0,1193.0 332.0,1181.0 Q 386.0,1169.0 442.0,1169.0 L 720.0,1169.0 L 720.0,1049.0" fill="black"/>
</svg>
