<svg xmlns="http://www.w3.org/2000/svg" 
    viewBox="0 0 1163.0 1732.0" 
    width="1163.0" height="1732.0">
  <path d="M 827.0,877.0 L 827.0,757.0 Q 823.0,757.0 822.0,757.0 Q 821.0,757.0 820.0,757.0 Q 819.0,757.0 817.0,757.0 Q 815.0,757.0 811.0,757.0 Q 708.0,757.0 635.0,791.0 Q 562.0,825.0 515.5,879.0 Q 469.0,933.0 447.5,999.0 Q 426.0,1065.0 426.0,1128.0 Q 426.0,1194.0 448.0,1249.5 Q 470.0,1305.0 509.0,1345.0 Q 548.0,1385.0 602.5,1407.0 Q 657.0,1429.0 722.0,1429.0 Q 811.0,1429.0 882.0,1388.0 Q 953.0,1347.0 1003.0,1274.5 Q 1053.0,1202.0 1080.0,1103.0 Q 1107.0,1004.0 1107.0,889.0 Q 1107.0,745.0 1069.0,629.0 Q 1031.0,513.0 964.0,432.0 Q 897.0,351.0 806.5,307.0 Q 716.0,263.0 611.0,263.0 Q 519.0,263.0 443.0,294.0 Q 367.0,325.0 306.5,383.0 Q 246.0,441.0 200.0,522.5 Q 154.0,604.0 121.0,706.0 Q 88.0,807.0 65.0,928.0 Q 42.0,1049.0 27.5,1179.5 Q 13.0,1310.0 6.5,1446.5 Q 0.0,1583.0 0.0,1716.0 L 126.0,1716.0 Q 126.0,1569.0 133.0,1431.5 Q 140.0,1294.0 154.0,1170.5 Q 168.0,1047.0 190.0,938.0 Q 212.0,829.0 244.0,739.0 Q 273.0,656.0 310.0,590.5 Q 347.0,525.0 392.5,479.0 Q 438.0,433.0 493.0,409.0 Q 548.0,385.0 613.0,385.0 Q 696.0,385.0 763.0,425.0 Q 830.0,465.0 877.0,534.5 Q 924.0,604.0 949.5,697.0 Q 975.0,790.0 975.0,896.0 Q 975.0,993.0 953.0,1069.5 Q 931.0,1146.0 895.0,1198.5 Q 859.0,1251.0 813.0,1279.0 Q 767.0,1307.0 719.0,1307.0 Q 693.0,1307.0 664.5,1298.5 Q 636.0,1290.0 612.5,1269.0 Q 589.0,1248.0 573.5,1212.5 Q 558.0,1177.0 558.0,1124.0 Q 558.0,1055.0 584.0,1008.5 Q 610.0,962.0 649.5,933.0 Q 689.0,904.0 736.5,891.0 Q 784.0,878.0 827.0,877.0" fill="black"/>
</svg>
