<svg xmlns="http://www.w3.org/2000/svg" 
    viewBox="0 0 1163.0 1732.0" 
    width="1163.0" height="1732.0">
  <path d="M 790.0,1649.0 Q 635.0,1437.0 526.5,1279.5 Q 418.0,1122.0 345.0,1008.0 Q 272.0,894.0 230.5,819.0 Q 189.0,744.0 169.0,697.0 Q 155.0,665.0 148.5,632.5 Q 142.0,600.0 142.0,569.0 Q 142.0,501.0 167.5,452.5 Q 193.0,404.0 234.5,373.0 Q 276.0,342.0 327.5,327.0 Q 379.0,312.0 431.0,312.0 Q 500.0,312.0 558.5,336.0 Q 617.0,360.0 668.0,402.5 Q 719.0,445.0 763.5,502.5 Q 808.0,560.0 850.0,627.0 Q 880.0,607.0 906.5,591.0 Q 933.0,575.0 962.0,557.0 Q 911.0,479.0 854.0,412.0 Q 797.0,345.0 732.5,295.5 Q 668.0,246.0 593.5,218.0 Q 519.0,190.0 433.0,190.0 Q 348.0,190.0 271.5,216.0 Q 195.0,242.0 137.0,291.5 Q 79.0,341.0 44.5,411.5 Q 10.0,482.0 10.0,571.0 Q 10.0,625.0 21.5,676.0 Q 33.0,727.0 54.0,774.0 Q 79.0,831.0 126.5,913.0 Q 174.0,995.0 249.0,1110.0 Q 324.0,1225.0 430.0,1376.5 Q 536.0,1528.0 678.0,1724.0 L 790.0,1649.0" fill="black"/>
</svg>
