<svg xmlns="http://www.w3.org/2000/svg" 
    viewBox="0 0 1163.0 1732.0" 
    width="1163.0" height="1732.0">
  <path d="M 440.0,1110.0 Q 516.0,1151.0 560.5,1217.0 Q 605.0,1283.0 605.0,1372.0 Q 605.0,1418.0 591.0,1461.0 Q 577.0,1504.0 548.5,1537.0 Q 520.0,1570.0 478.0,1590.0 Q 436.0,1610.0 381.0,1610.0 Q 319.0,1610.0 274.0,1589.0 Q 229.0,1568.0 200.0,1533.0 Q 171.0,1498.0 156.5,1451.0 Q 142.0,1404.0 142.0,1352.0 Q 142.0,1292.0 166.5,1232.5 Q 191.0,1173.0 241.0,1103.0 Q 291.0,1033.0 368.5,947.0 Q 446.0,861.0 552.0,749.0 Q 647.0,648.0 719.5,568.0 Q 792.0,488.0 841.0,422.5 Q 890.0,357.0 915.0,303.0 Q 940.0,249.0 940.0,199.0 Q 940.0,157.0 922.0,105.0 Q 904.0,53.0 866.0,0.0 L 757.0,68.0 Q 775.0,95.0 791.5,127.5 Q 808.0,160.0 808.0,197.0 Q 808.0,231.0 788.5,270.0 Q 769.0,309.0 730.0,359.5 Q 691.0,410.0 631.0,475.0 Q 571.0,540.0 490.0,626.0 Q 371.0,752.0 281.5,852.0 Q 192.0,952.0 131.5,1038.0 Q 71.0,1124.0 40.5,1203.0 Q 10.0,1282.0 10.0,1366.0 Q 10.0,1448.0 37.5,1515.5 Q 65.0,1583.0 113.5,1631.0 Q 162.0,1679.0 229.0,1705.5 Q 296.0,1732.0 374.0,1732.0 Q 458.0,1732.0 525.0,1703.0 Q 592.0,1674.0 639.5,1624.0 Q 687.0,1574.0 712.0,1508.0 Q 737.0,1442.0 737.0,1367.0 Q 737.0,1315.0 723.5,1263.5 Q 710.0,1212.0 680.5,1165.5 Q 651.0,1119.0 604.0,1078.5 Q 557.0,1038.0 490.0,1007.0 L 440.0,1110.0" fill="black"/>
</svg>
