<svg xmlns="http://www.w3.org/2000/svg" 
    viewBox="0 0 1868.0 1804.0" 
    width="1868.0" height="1804.0">
  <path d="M 1856.0,721.0 L 1786.0,602.0 Q 1584.0,644.0 1294.0,772.0 L 1294.0,690.0 L 555.0,690.0 L 555.0,774.0 Q 341.0,670.0 70.0,602.0 L 2.0,721.0 Q 251.0,760.0 495.0,873.5 Q 739.0,987.0 869.0,1126.0 L 869.0,1425.0 L 250.0,1425.0 L 250.0,1188.0 L 119.0,1188.0 L 119.0,1538.0 L 869.0,1538.0 L 869.0,1647.0 L 221.0,1647.0 L 221.0,1763.0 L 1632.0,1763.0 L 1632.0,1649.0 L 995.0,1649.0 L 995.0,1540.0 L 1745.0,1540.0 L 1745.0,1188.0 L 1616.0,1188.0 L 1616.0,1425.0 L 995.0,1425.0 L 995.0,1153.0 L 1034.0,1122.0 Q 1028.0,1110.0 1008.0,1094.0 Q 1388.0,775.0 1856.0,721.0 M 1217.0,809.0 Q 1041.0,904.0 924.0,1005.0 Q 797.0,903.0 619.0,809.0 L 1217.0,809.0 M 1516.0,1247.0 L 1133.0,1245.0 L 1133.0,1348.0 L 1516.0,1348.0 L 1516.0,1247.0 M 705.0,1247.0 L 340.0,1245.0 L 340.0,1348.0 L 705.0,1348.0 L 705.0,1247.0 M 1540.0,1055.0 L 1133.0,1055.0 L 1133.0,1157.0 L 1540.0,1157.0 L 1540.0,1055.0 M 707.0,1055.0 L 318.0,1055.0 L 318.0,1157.0 L 707.0,1157.0 L 707.0,1055.0 M 1520.0,266.0 Q 1520.0,104.0 1350.0,104.0 L 1161.0,104.0 L 1131.0,219.0 L 1331.0,219.0 Q 1391.0,219.0 1391.0,283.0 L 1391.0,432.0 L 879.0,432.0 L 879.0,0.0 L 750.0,0.0 L 750.0,430.0 L 281.0,430.0 L 281.0,551.0 L 1520.0,551.0 L 1520.0,266.0" fill="black"/>
</svg>
