<svg xmlns="http://www.w3.org/2000/svg" 
    viewBox="0 0 1868.0 1804.0" 
    width="1868.0" height="1804.0">
  <path d="M 1696.0,4.0 L 1555.0,4.0 L 1555.0,252.0 L 314.0,252.0 L 314.0,4.0 L 168.0,4.0 L 168.0,1722.0 L 1696.0,1722.0 L 1696.0,4.0 M 1555.0,375.0 L 1555.0,1593.0 L 1157.0,1593.0 L 1157.0,901.0 Q 1157.0,836.0 1215.0,836.0 L 1323.0,836.0 Q 1358.0,836.0 1371.0,857.5 Q 1384.0,879.0 1409.0,1016.0 L 1524.0,942.0 Q 1497.0,798.0 1459.5,751.0 Q 1422.0,704.0 1342.0,704.0 L 1192.0,704.0 Q 1032.0,704.0 1032.0,887.0 L 1032.0,1593.0 L 791.0,1593.0 L 791.0,1208.0 Q 791.0,956.0 701.0,847.0 Q 611.0,738.0 387.0,672.0 L 311.0,754.0 L 311.0,375.0 L 1555.0,375.0 M 656.0,1182.0 L 653.0,1593.0 L 311.0,1593.0 L 311.0,782.0 Q 503.0,823.0 579.5,913.0 Q 656.0,1003.0 656.0,1182.0" fill="black"/>
</svg>
