<svg xmlns="http://www.w3.org/2000/svg" 
    viewBox="0 0 1868.0 1804.0" 
    width="1868.0" height="1804.0">
  <path d="M 1856.0,446.0 Q 1835.0,294.0 1800.0,207.0 Q 1765.0,120.0 1719.5,92.5 Q 1674.0,65.0 1583.0,65.0 L 866.0,65.0 Q 668.0,65.0 668.0,278.0 L 668.0,879.0 L 35.0,758.0 L 12.0,887.0 L 666.0,1014.0 L 666.0,1802.0 L 805.0,1802.0 L 805.0,1038.0 L 1786.0,1223.0 L 1809.0,1094.0 L 805.0,903.0 L 805.0,293.0 Q 805.0,194.0 899.0,194.0 L 1569.0,194.0 Q 1638.0,194.0 1664.5,235.5 Q 1691.0,277.0 1729.0,489.0 L 1856.0,446.0" fill="black"/>
</svg>
