<svg xmlns="http://www.w3.org/2000/svg" 
    viewBox="0 0 1868.0 1804.0" 
    width="1868.0" height="1804.0">
  <path d="M 1852.0,444.0 Q 1810.0,203.0 1760.0,133.0 Q 1710.0,63.0 1606.0,63.0 L 1413.0,63.0 Q 1217.0,63.0 1225.0,260.0 L 1264.0,1237.0 L 838.0,1237.0 Q 809.0,684.0 632.0,417.5 Q 455.0,151.0 90.0,4.0 L 12.0,129.0 Q 335.0,236.0 504.5,476.0 Q 674.0,716.0 703.0,1235.0 L 217.0,1235.0 L 217.0,1364.0 L 701.0,1364.0 L 701.0,1802.0 L 836.0,1802.0 L 836.0,1366.0 L 1407.0,1366.0 L 1358.0,266.0 Q 1355.0,194.0 1428.0,194.0 L 1596.0,194.0 Q 1661.0,194.0 1684.5,250.5 Q 1708.0,307.0 1729.0,485.0 L 1852.0,444.0" fill="black"/>
</svg>
