<svg xmlns="http://www.w3.org/2000/svg" 
    viewBox="0 0 818.0 1189.0" 
    width="818.0" height="1189.0">
  <path d="M 718.0,307.0 L 646.0,7.0 Q 578.0,26.0 535.0,114.0 Q 499.0,187.0 483.5,299.0 Q 468.0,411.0 468.0,531.0 Q 377.0,507.0 324.0,507.0 Q 219.0,507.0 150.5,562.5 Q 82.0,618.0 82.0,703.0 Q 82.0,886.0 176.5,1032.5 Q 271.0,1179.0 390.0,1179.0 Q 482.0,1179.0 518.0,1127.0 Q 558.0,1070.0 567.0,997.0 Q 576.0,924.0 576.0,715.0 Q 576.0,528.0 606.0,451.0 Q 630.0,391.0 718.0,307.0 M 448.0,805.0 Q 430.0,919.0 328.0,919.0 Q 284.0,919.0 247.0,895.0 Q 210.0,871.0 210.0,853.0 Q 210.0,793.0 354.0,793.0 Q 400.0,793.0 448.0,805.0" fill="black"/>
</svg>
