
<svg xmlns="http://www.w3.org/2000/svg" viewBox="0 0 818 856">
  <g transform="translate(-90, -263)">
    <path d="M500 997Q438 997 387.0 973.5Q336 950 299.5 909.0Q263 868 242.5 812.5Q222 757 222 693Q222 628 244.0 572.0Q266 516 303.5 474.5Q341 433 392.0 409.0Q443 385 500 385Q558 385 608.0 409.0Q658 433 695.5 474.5Q733 516 754.5 572.0Q776 628 776 693Q776 757 756.0 812.5Q736 868 699.5 909.0Q663 950 612.0 973.5Q561 997 500 997ZM500 1119Q587 1119 662.0 1086.0Q737 1053 791.5 995.5Q846 938 877.0 860.0Q908 782 908 692Q908 601 875.5 522.5Q843 444 787.5 386.5Q732 329 658.0 296.0Q584 263 500 263Q417 263 342.5 296.0Q268 329 212.0 386.5Q156 444 123.0 522.5Q90 601 90 692Q90 782 121.5 860.0Q153 938 208.0 995.5Q263 1053 338.0 1086.0Q413 1119 500 1119Z" fill="black" />
  </g>
</svg>
