
<svg xmlns="http://www.w3.org/2000/svg" viewBox="0 0 667 1732">
  <g transform="translate(-100, 282)">
    <path d="M288 823Q248 851 213.5 884.5Q179 918 154.0 957.5Q129 997 114.5 1043.5Q100 1090 100 1146Q100 1218 124.5 1274.5Q149 1331 191.0 1370.0Q233 1409 288.0 1429.5Q343 1450 404 1450Q467 1450 525.0 1429.5Q583 1409 627.5 1366.0Q672 1323 698.5 1258.0Q725 1193 725 1105Q725 1015 694.0 929.5Q663 844 610.5 761.0Q558 678 490.0 598.0Q422 518 349 439Q466 337 546.0 261.0Q626 185 675.0 124.0Q724 63 745.5 13.0Q767 -37 767 -87Q767 -139 745.0 -186.5Q723 -234 685 -282L583 -215Q609 -178 622.0 -147.5Q635 -117 635 -82Q635 -61 631.0 -40.5Q627 -20 612.5 6.0Q598 32 568.5 67.5Q539 103 488.5 154.0Q438 205 362.0 275.0Q286 345 179 440Q302 564 382.5 659.5Q463 755 509.5 832.0Q556 909 574.5 973.5Q593 1038 593 1100Q593 1163 577.5 1206.5Q562 1250 536.5 1277.0Q511 1304 479.0 1316.0Q447 1328 413 1328Q374 1328 341.0 1314.5Q308 1301 283.5 1276.0Q259 1251 245.5 1217.0Q232 1183 232 1142Q232 1105 242.0 1074.0Q252 1043 269.0 1016.0Q286 989 309.0 966.0Q332 943 358 923Z" fill="black" />
  </g>
</svg>
