
<svg xmlns="http://www.w3.org/2000/svg" viewBox="0 0 812 1716">
  <g transform="translate(-90, 282)">
    <path d="M750 -282Q700 -205 663.5 -154.0Q627 -103 596.5 -65.0Q566 -27 536.0 5.5Q506 38 469 79Q393 82 339.0 99.5Q285 117 250.5 143.5Q216 170 200.0 201.5Q184 233 184 264Q184 287 192.0 308.5Q200 330 215.0 346.5Q230 363 252.0 372.5Q274 382 302 382Q338 382 373.0 365.0Q408 348 440.0 321.5Q472 295 499.0 263.5Q526 232 546 204Q573 211 611.5 227.5Q650 244 685.0 275.5Q720 307 745.0 357.0Q770 407 770 481Q770 555 746.0 609.0Q722 663 680.0 698.0Q638 733 581.5 750.0Q525 767 460 767H202V887H399Q482 887 537.0 906.0Q592 925 625.0 955.5Q658 986 672.0 1024.0Q686 1062 686 1100Q686 1143 671.0 1182.0Q656 1221 621.5 1250.5Q587 1280 532.0 1297.0Q477 1314 397 1314H90V1434H392Q504 1434 584.5 1406.5Q665 1379 717.0 1333.0Q769 1287 793.5 1226.5Q818 1166 818 1100Q818 1024 775.5 953.5Q733 883 664 832Q724 806 769.0 766.5Q814 727 843.5 679.0Q873 631 887.5 578.0Q902 525 902 473Q902 408 880.0 348.5Q858 289 819.0 239.5Q780 190 725.5 153.0Q671 116 607 98Q630 72 662.0 35.5Q694 -1 728.0 -42.5Q762 -84 796.0 -128.0Q830 -172 858 -212Z" fill="black" />
  </g>
</svg>
