
<svg xmlns="http://www.w3.org/2000/svg" viewBox="0 0 977 1452">
  <g transform="translate(-90, 18)">
    <path d="M1062 1434Q1064 1417 1065.5 1396.0Q1067 1375 1067 1358Q1067 1259 1031.5 1170.0Q996 1081 939.5 1000.0Q883 919 812.0 846.5Q741 774 671 708Q720 663 764.5 615.5Q809 568 843.0 517.0Q877 466 896.5 409.5Q916 353 916 290Q916 215 890.5 157.5Q865 100 821.5 61.0Q778 22 720.0 2.0Q662 -18 596 -18Q513 -18 448.5 5.0Q384 28 340.0 69.5Q296 111 273.5 168.5Q251 226 251 294Q251 354 270.5 408.5Q290 463 323.0 513.5Q356 564 400.0 611.5Q444 659 494 706Q422 767 350.0 835.5Q278 904 220.0 979.5Q162 1055 126.0 1139.5Q90 1224 90 1318Q90 1357 93.0 1386.5Q96 1416 99 1434H230Q225 1408 222.5 1380.5Q220 1353 220 1329Q220 1246 251.0 1172.5Q282 1099 332.5 1032.0Q383 965 448.0 903.0Q513 841 581 783Q648 843 712.0 909.0Q776 975 826.0 1047.5Q876 1120 906.5 1201.0Q937 1282 937 1374Q937 1387 936.5 1404.0Q936 1421 935 1434ZM371 287Q371 230 393.0 194.5Q415 159 447.0 139.0Q479 119 515.5 111.5Q552 104 581 104Q625 104 664.0 118.0Q703 132 732.5 157.5Q762 183 779.0 218.5Q796 254 796 297Q796 340 780.0 382.0Q764 424 735.5 465.0Q707 506 668.5 546.0Q630 586 585 627Q539 583 500.0 540.0Q461 497 432.5 455.0Q404 413 387.5 371.0Q371 329 371 287Z" fill="black" />
  </g>
</svg>
