
<svg xmlns="http://www.w3.org/2000/svg" viewBox="0 0 1153 1716">
  <g transform="translate(-100, 282)">
    <path d="M312 1434Q271 1276 251.5 1152.0Q232 1028 232 923Q232 805 255.0 721.5Q278 638 318.0 585.5Q358 533 412.0 509.0Q466 485 527 485Q570 485 606.0 497.0Q642 509 669.0 526.5Q696 544 714.5 562.5Q733 581 743 593Q705 647 689.0 701.5Q673 756 673 801Q673 835 681.0 864.5Q689 894 704.5 916.0Q720 938 742.0 950.0Q764 962 792 962Q826 962 854.5 945.5Q883 929 903.0 901.0Q923 873 934.0 835.0Q945 797 945 755Q945 659 885 565Q918 463 956.0 361.5Q994 260 1039.0 162.0Q1084 64 1137.0 -29.0Q1190 -122 1253 -207L1147 -282Q1111 -232 1074.0 -168.0Q1037 -104 1002.0 -34.0Q967 36 935.0 108.0Q903 180 876.5 247.0Q850 314 830.0 372.0Q810 430 800 472Q756 434 713.5 412.0Q671 390 635.5 379.0Q600 368 573.5 365.5Q547 363 534 363Q429 363 348.5 408.5Q268 454 212.5 531.0Q157 608 128.5 708.0Q100 808 100 918Q100 957 103.5 1012.5Q107 1068 115.5 1134.5Q124 1201 138.5 1277.0Q153 1353 176 1434Z" fill="black" />
  </g>
</svg>
