
<svg xmlns="http://www.w3.org/2000/svg" viewBox="0 0 952 1534">
  <g transform="translate(-100, 92)">
    <path d="M880 1367Q725 1155 616.5 997.5Q508 840 435.0 726.0Q362 612 320.5 537.0Q279 462 259 415Q245 383 238.5 350.5Q232 318 232 287Q232 219 257.5 170.5Q283 122 324.5 91.0Q366 60 417.5 45.0Q469 30 521 30Q590 30 648.5 54.0Q707 78 758.0 120.5Q809 163 853.5 220.5Q898 278 940 345Q970 325 996.5 309.0Q1023 293 1052 275Q1001 197 944.0 130.0Q887 63 822.5 13.5Q758 -36 683.5 -64.0Q609 -92 523 -92Q438 -92 361.5 -66.0Q285 -40 227.0 9.5Q169 59 134.5 129.5Q100 200 100 289Q100 343 111.5 394.0Q123 445 144 492Q169 549 216.5 631.0Q264 713 339.0 828.0Q414 943 520.0 1094.5Q626 1246 768 1442Z" fill="black" />
  </g>
</svg>
