
<svg xmlns="http://www.w3.org/2000/svg" viewBox="0 0 930 1732">
  <g transform="translate(-100, 282)">
    <path d="M530 828Q606 869 650.5 935.0Q695 1001 695 1090Q695 1136 681.0 1179.0Q667 1222 638.5 1255.0Q610 1288 568.0 1308.0Q526 1328 471 1328Q409 1328 364.0 1307.0Q319 1286 290.0 1251.0Q261 1216 246.5 1169.0Q232 1122 232 1070Q232 1010 256.5 950.5Q281 891 331.0 821.0Q381 751 458.5 665.0Q536 579 642 467Q737 366 809.5 286.0Q882 206 931.0 140.5Q980 75 1005.0 21.0Q1030 -33 1030 -83Q1030 -125 1012.0 -177.0Q994 -229 956 -282L847 -214Q865 -187 881.5 -154.5Q898 -122 898 -85Q898 -51 878.5 -12.0Q859 27 820.0 77.5Q781 128 721.0 193.0Q661 258 580 344Q461 470 371.5 570.0Q282 670 221.5 756.0Q161 842 130.5 921.0Q100 1000 100 1084Q100 1166 127.5 1233.5Q155 1301 203.5 1349.0Q252 1397 319.0 1423.5Q386 1450 464 1450Q548 1450 615.0 1421.0Q682 1392 729.5 1342.0Q777 1292 802.0 1226.0Q827 1160 827 1085Q827 1033 813.5 981.5Q800 930 770.5 883.5Q741 837 694.0 796.5Q647 756 580 725Z" fill="black" />
  </g>
</svg>
