<svg xmlns="http://www.w3.org/2000/svg" 
    viewBox="0 0 1099.0 1486.0" 
    width="1099.0" height="1486.0">
  <path d="M 431.0,485.0 Q 398.0,485.0 363.5,502.5 Q 329.0,520.0 301.0,548.0 Q 273.0,576.0 255.0,611.0 Q 237.0,646.0 237.0,680.0 Q 237.0,714.0 255.0,749.0 Q 273.0,784.0 301.0,813.0 Q 329.0,842.0 363.5,860.5 Q 398.0,879.0 431.0,879.0 Q 464.0,879.0 498.0,860.5 Q 532.0,842.0 559.0,813.5 Q 586.0,785.0 603.5,749.5 Q 621.0,714.0 621.0,680.0 Q 621.0,646.0 603.5,611.0 Q 586.0,576.0 559.0,548.0 Q 532.0,520.0 498.0,502.5 Q 464.0,485.0 431.0,485.0" fill="black"/>
</svg>
