<svg xmlns="http://www.w3.org/2000/svg" 
    viewBox="0 0 1099.0 1486.0" 
    width="1099.0" height="1486.0">
  <path d="M 195.0,1456.0 Q 219.0,1355.0 238.5,1266.0 Q 258.0,1177.0 273.5,1094.5 Q 289.0,1012.0 300.5,933.5 Q 312.0,855.0 319.5,773.5 Q 327.0,692.0 330.5,605.5 Q 334.0,519.0 334.0,422.0 L 334.0,22.0 L 214.0,22.0 L 214.0,400.0 Q 214.0,495.0 211.0,579.5 Q 208.0,664.0 201.0,745.5 Q 194.0,827.0 183.0,907.0 Q 172.0,987.0 156.0,1073.0 Q 140.0,1159.0 119.0,1253.0 Q 98.0,1347.0 71.0,1456.0 L 195.0,1456.0" fill="black"/>
</svg>
