<svg xmlns="http://www.w3.org/2000/svg" 
    viewBox="0 0 1099.0 1486.0" 
    width="1099.0" height="1486.0">
  <path d="M 212.0,1456.0 Q 233.0,1363.0 251.0,1280.5 Q 269.0,1198.0 284.0,1121.0 Q 307.0,1113.0 335.5,1109.0 Q 364.0,1105.0 393.0,1105.0 Q 472.0,1105.0 510.5,1154.0 Q 549.0,1203.0 549.0,1287.0 Q 549.0,1328.0 540.0,1371.0 Q 531.0,1414.0 513.0,1456.0 L 634.0,1456.0 Q 652.0,1411.0 661.0,1365.5 Q 670.0,1320.0 670.0,1277.0 Q 670.0,1234.0 661.0,1195.5 Q 652.0,1157.0 637.0,1130.0 Q 671.0,1118.0 701.5,1111.5 Q 732.0,1105.0 767.0,1105.0 Q 840.0,1105.0 877.0,1156.5 Q 914.0,1208.0 914.0,1294.0 Q 914.0,1378.0 878.0,1456.0 L 998.0,1456.0 Q 1035.0,1369.0 1035.0,1281.0 Q 1035.0,1218.0 1017.0,1165.5 Q 999.0,1113.0 966.0,1075.5 Q 933.0,1038.0 886.5,1017.0 Q 840.0,996.0 782.0,996.0 Q 731.0,996.0 678.5,1009.5 Q 626.0,1023.0 572.0,1052.0 Q 506.0,996.0 409.0,996.0 Q 388.0,996.0 359.5,1000.0 Q 331.0,1004.0 307.0,1010.0 Q 318.0,941.0 326.0,875.5 Q 334.0,810.0 339.5,740.0 Q 345.0,670.0 348.0,592.5 Q 351.0,515.0 351.0,423.0 L 351.0,22.0 L 229.0,22.0 L 229.0,400.0 Q 229.0,540.0 221.0,664.5 Q 213.0,789.0 195.5,913.0 Q 178.0,1037.0 150.0,1169.0 Q 122.0,1301.0 81.0,1456.0 L 212.0,1456.0" fill="black"/>
</svg>
