<svg xmlns="http://www.w3.org/2000/svg" 
    viewBox="0 0 1099.0 1486.0" 
    width="1099.0" height="1486.0">
  <path d="M 626.0,794.0 Q 511.0,699.0 440.0,624.0 Q 369.0,549.0 329.5,490.5 Q 290.0,432.0 276.0,387.5 Q 262.0,343.0 262.0,310.0 Q 262.0,262.0 283.0,228.5 Q 304.0,195.0 341.5,174.5 Q 379.0,154.0 429.5,144.5 Q 480.0,135.0 539.0,135.0 Q 610.0,135.0 667.0,144.5 Q 724.0,154.0 781.0,169.0 L 781.0,43.0 Q 658.0,0.0 522.0,0.0 Q 447.0,0.0 377.0,18.0 Q 307.0,36.0 253.5,71.0 Q 200.0,106.0 168.0,158.5 Q 136.0,211.0 136.0,280.0 Q 136.0,326.0 152.5,382.5 Q 169.0,439.0 205.0,501.0 Q 241.0,563.0 298.5,630.5 Q 356.0,698.0 438.0,767.0 Q 355.0,801.0 298.5,835.5 Q 242.0,870.0 207.0,906.0 Q 172.0,942.0 156.5,980.5 Q 141.0,1019.0 141.0,1061.0 Q 141.0,1116.0 165.0,1172.0 Q 189.0,1228.0 244.5,1282.5 Q 300.0,1337.0 389.0,1388.0 Q 478.0,1439.0 609.0,1486.0 L 609.0,1348.0 Q 498.0,1309.0 428.5,1270.0 Q 359.0,1231.0 319.0,1195.5 Q 279.0,1160.0 264.5,1129.0 Q 250.0,1098.0 250.0,1075.0 Q 250.0,1044.0 269.5,1015.5 Q 289.0,987.0 333.5,956.5 Q 378.0,926.0 450.0,891.0 Q 522.0,856.0 626.0,813.0 L 626.0,794.0" fill="black"/>
</svg>
