<svg xmlns="http://www.w3.org/2000/svg" 
    viewBox="0 0 1099.0 1486.0" 
    width="1099.0" height="1486.0">
  <path d="M 507.0,1231.0 Q 552.0,1231.0 600.0,1211.5 Q 648.0,1192.0 694.0,1154.5 Q 740.0,1117.0 780.5,1062.5 Q 821.0,1008.0 852.0,939.5 Q 883.0,871.0 901.0,788.5 Q 919.0,706.0 919.0,612.0 Q 919.0,515.0 889.0,439.0 Q 859.0,363.0 804.5,310.5 Q 750.0,258.0 674.0,230.5 Q 598.0,203.0 506.0,203.0 Q 409.0,203.0 334.5,231.0 Q 260.0,259.0 209.0,309.0 Q 158.0,359.0 132.0,429.5 Q 106.0,500.0 106.0,585.0 Q 106.0,678.0 123.5,762.5 Q 141.0,847.0 171.0,918.5 Q 201.0,990.0 240.5,1048.0 Q 280.0,1106.0 324.5,1146.5 Q 369.0,1187.0 416.0,1209.0 Q 463.0,1231.0 507.0,1231.0 M 505.0,1102.0 Q 458.0,1102.0 409.0,1062.5 Q 360.0,1023.0 319.5,954.5 Q 279.0,886.0 253.0,794.0 Q 227.0,702.0 227.0,598.0 Q 227.0,532.0 247.5,482.5 Q 268.0,433.0 304.5,400.5 Q 341.0,368.0 392.5,352.0 Q 444.0,336.0 506.0,336.0 Q 579.0,336.0 634.0,354.5 Q 689.0,373.0 726.0,407.0 Q 763.0,441.0 781.0,489.5 Q 799.0,538.0 799.0,597.0 Q 799.0,711.0 770.0,804.0 Q 741.0,897.0 697.0,963.0 Q 653.0,1029.0 601.5,1065.5 Q 550.0,1102.0 505.0,1102.0" fill="black"/>
</svg>
