<svg xmlns="http://www.w3.org/2000/svg" 
    viewBox="0 0 1099.0 1486.0" 
    width="1099.0" height="1486.0">
  <path d="M 136.0,1456.0 Q 246.0,1169.0 339.5,866.5 Q 433.0,564.0 517.0,236.0 L 523.0,236.0 Q 607.0,565.0 700.0,868.5 Q 793.0,1172.0 897.0,1456.0 L 1024.0,1456.0 Q 957.0,1269.0 899.5,1097.0 Q 842.0,925.0 788.5,753.5 Q 735.0,582.0 684.0,402.5 Q 633.0,223.0 579.0,22.0 L 457.0,22.0 Q 402.0,230.0 350.5,411.5 Q 299.0,593.0 245.5,764.5 Q 192.0,936.0 134.5,1105.0 Q 77.0,1274.0 9.0,1456.0 L 136.0,1456.0" fill="black"/>
</svg>
