<svg xmlns="http://www.w3.org/2000/svg" 
    viewBox="0 0 1099.0 1486.0" 
    width="1099.0" height="1486.0">
  <path d="M 651.0,1456.0 Q 706.0,1248.0 757.5,1066.5 Q 809.0,885.0 862.0,713.5 Q 915.0,542.0 973.0,373.0 Q 1031.0,204.0 1099.0,22.0 L 972.0,22.0 Q 862.0,308.0 768.5,610.5 Q 675.0,913.0 591.0,1241.0 L 585.0,1241.0 Q 501.0,912.0 408.0,609.0 Q 315.0,306.0 211.0,22.0 L 84.0,22.0 Q 151.0,208.0 208.5,380.0 Q 266.0,552.0 319.5,723.5 Q 373.0,895.0 424.0,1074.5 Q 475.0,1254.0 529.0,1456.0 L 651.0,1456.0" fill="black"/>
</svg>
