<svg xmlns="http://www.w3.org/2000/svg" 
    viewBox="0 0 1099.0 1486.0" 
    width="1099.0" height="1486.0">
  <path d="M 838.0,22.0 Q 804.0,118.0 780.0,208.5 Q 756.0,299.0 739.5,388.0 Q 723.0,477.0 712.5,566.0 Q 702.0,655.0 693.0,748.0 Q 633.0,718.0 574.5,703.0 Q 516.0,688.0 448.0,688.0 Q 368.0,688.0 298.5,714.0 Q 229.0,740.0 176.5,788.0 Q 124.0,836.0 94.0,905.0 Q 64.0,974.0 64.0,1060.0 Q 64.0,1137.0 90.0,1210.5 Q 116.0,1284.0 163.0,1342.0 Q 210.0,1400.0 275.5,1435.0 Q 341.0,1470.0 420.0,1470.0 Q 498.0,1470.0 567.0,1430.5 Q 636.0,1391.0 691.0,1307.0 Q 718.0,1266.0 736.5,1221.0 Q 755.0,1176.0 768.0,1122.0 Q 781.0,1068.0 789.0,1002.5 Q 797.0,937.0 802.0,854.0 Q 810.0,755.0 821.0,658.0 Q 832.0,561.0 850.0,460.0 Q 868.0,359.0 895.5,251.0 Q 923.0,143.0 964.0,22.0 L 838.0,22.0 M 682.0,869.0 Q 676.0,969.0 661.5,1042.5 Q 647.0,1116.0 621.0,1170.0 Q 583.0,1249.0 529.0,1292.0 Q 475.0,1335.0 409.0,1335.0 Q 363.0,1335.0 322.0,1312.5 Q 281.0,1290.0 250.0,1253.0 Q 219.0,1216.0 201.0,1168.0 Q 183.0,1120.0 183.0,1069.0 Q 183.0,1010.0 204.5,963.5 Q 226.0,917.0 263.5,884.0 Q 301.0,851.0 351.5,833.5 Q 402.0,816.0 461.0,816.0 Q 523.0,816.0 576.5,829.5 Q 630.0,843.0 682.0,869.0" fill="black"/>
</svg>
