
<svg xmlns="http://www.w3.org/2000/svg" viewBox="0 0 1058 1434">
  <g transform="translate(-35, 0)">
    <path d="M242 1434Q265 1340 282.5 1259.0Q300 1178 315 1100Q327 1098 337.5 1097.5Q348 1097 359 1097Q400 1097 428.0 1107.5Q456 1118 473.0 1137.0Q490 1156 497.5 1181.5Q505 1207 505 1236Q505 1284 489.5 1336.0Q474 1388 452 1434H653Q677 1375 688.5 1323.0Q700 1271 700 1220Q700 1188 695.5 1160.0Q691 1132 683 1105Q703 1100 720.0 1098.5Q737 1097 753 1097Q794 1097 821.5 1107.5Q849 1118 866.0 1137.0Q883 1156 890.5 1181.5Q898 1207 898 1236Q898 1284 883.0 1336.0Q868 1388 846 1434H1046Q1070 1374 1081.5 1323.0Q1093 1272 1093 1218Q1093 1141 1070.0 1080.0Q1047 1019 1006.0 976.0Q965 933 906.5 910.0Q848 887 778 887Q730 887 679.0 898.0Q628 909 571 938Q533 912 487.0 900.0Q441 888 393 888Q371 888 347 891Q360 789 366.5 683.0Q373 577 373 448V0H175V439Q175 523 171.5 600.5Q168 678 161.0 754.0Q154 830 142.5 906.5Q131 983 115.5 1065.5Q100 1148 80.0 1238.5Q60 1329 35 1434Z" fill="black" />
  </g>
</svg>
