
<svg xmlns="http://www.w3.org/2000/svg" viewBox="0 0 683 1498">
  <g transform="translate(-84, 24)">
    <path d="M767 17Q698 -4 635.0 -14.0Q572 -24 504 -24Q427 -24 352.0 -8.5Q277 7 217.5 41.0Q158 75 121.0 129.0Q84 183 84 261Q84 306 98.5 356.5Q113 407 144.5 464.0Q176 521 227.0 584.5Q278 648 350 720Q280 753 231.5 785.5Q183 818 153.0 853.0Q123 888 109.5 928.0Q96 968 96 1017Q96 1083 122.0 1145.0Q148 1207 208.5 1264.5Q269 1322 368.0 1374.5Q467 1427 614 1474V1217Q500 1182 432.0 1153.5Q364 1125 329.0 1102.5Q294 1080 283.5 1063.0Q273 1046 273 1035Q273 1014 301.0 989.5Q329 965 379.5 937.0Q430 909 499.0 878.0Q568 847 651 813V765Q566 693 506.0 634.5Q446 576 405.5 530.0Q365 484 341.0 449.0Q317 414 304.5 388.0Q292 362 288.5 345.5Q285 329 285 319Q285 288 306.5 270.0Q328 252 360.5 243.0Q393 234 431.5 231.5Q470 229 504 229Q543 229 575.5 231.0Q608 233 638.5 236.5Q669 240 700.0 246.0Q731 252 767 261Z" fill="black" />
  </g>
</svg>
