
<svg xmlns="http://www.w3.org/2000/svg" viewBox="0 0 979 1447">
  <g transform="translate(-38, 0)">
    <path d="M808 0Q768 92 740.5 181.0Q713 270 695.0 353.5Q677 437 666.0 513.0Q655 589 648 655Q589 632 532.5 619.5Q476 607 420 607Q342 607 272.5 631.5Q203 656 151.0 705.5Q99 755 68.5 828.0Q38 901 38 999Q38 1090 65.5 1171.5Q93 1253 143.0 1314.0Q193 1375 264.0 1411.0Q335 1447 422 1447Q507 1447 578.0 1407.0Q649 1367 711 1274Q743 1224 762.0 1175.0Q781 1126 793.0 1071.5Q805 1017 811.5 955.5Q818 894 825 819Q832 741 842.0 656.0Q852 571 872.0 471.5Q892 372 926.5 255.5Q961 139 1017 0ZM627 876Q624 906 620.5 929.0Q617 952 613.0 972.0Q609 992 603.5 1009.5Q598 1027 591 1046Q560 1121 513.0 1162.5Q466 1204 402 1204Q362 1204 330.0 1187.5Q298 1171 276.0 1144.0Q254 1117 242.0 1082.5Q230 1048 230 1012Q230 970 246.0 938.0Q262 906 290.5 884.5Q319 863 358.0 852.5Q397 842 442 842Q527 842 627 876Z" fill="black" />
  </g>
</svg>
