
<svg xmlns="http://www.w3.org/2000/svg" viewBox="0 0 658 1228">
  <g transform="translate(-191, -107)">
    <path d="M799 1322Q801 1335 825 1335Q849 1335 849 1318Q849 1247 831.0 1188.5Q813 1130 778.0 1088.5Q743 1047 690.0 1024.0Q637 1001 567 1001Q532 1001 459 1019Q499 934 529.5 855.0Q560 776 580.0 699.5Q600 623 610.0 547.0Q620 471 620 392Q620 331 612.5 262.0Q605 193 589 119Q587 107 565 107Q540 107 540 119Q540 309 514.0 459.5Q488 610 449.5 725.5Q411 841 365.5 923.5Q320 1006 281.5 1060.5Q243 1115 217.0 1144.0Q191 1173 191 1182Q191 1206 199.0 1232.5Q207 1259 218.5 1281.5Q230 1304 241.5 1318.5Q253 1333 260 1333Q264 1333 267.5 1328.0Q271 1323 279 1315Q324 1262 362.5 1226.5Q401 1191 436.5 1169.0Q472 1147 506.0 1138.0Q540 1129 577 1129Q622 1129 658.0 1139.5Q694 1150 721.0 1173.0Q748 1196 767.0 1232.5Q786 1269 799 1322Z" fill="black" />
  </g>
</svg>
