
<svg xmlns="http://www.w3.org/2000/svg" viewBox="0 0 631 1228.28125">
  <g transform="translate(-209, -102)">
    <path d="M526 1315Q542 1327 553.0 1329.5Q564 1332 570.0 1326.5Q576 1321 578.5 1309.0Q581 1297 581 1281Q581 1254 575.0 1241.5Q569 1229 555 1218Q496 1176 449.0 1138.0Q402 1100 369.5 1070.0Q337 1040 319.5 1018.0Q302 996 302 985Q302 970 321.5 955.0Q341 940 369.5 925.5Q398 911 431.0 896.5Q464 882 491 869Q513 858 529.0 848.5Q545 839 555.0 827.5Q565 816 569.5 800.5Q574 785 574 762Q574 727 564.5 703.5Q555 680 535 657Q501 618 462.5 575.0Q424 532 391.5 493.0Q359 454 337.5 423.0Q316 392 317 377Q317 359 341.0 340.5Q365 322 405.5 305.0Q446 288 498.0 272.0Q550 256 606.5 243.0Q663 230 719.5 220.5Q776 211 824 207Q840 206 840 186Q840 169 836.0 161.0Q832 153 818 149Q755 129 702.0 115.5Q649 102 615 102Q586 102 545.0 110.0Q504 118 461.0 130.0Q418 142 379.0 156.5Q340 171 316 183Q265 209 243.0 238.0Q221 267 221 305Q221 356 252.0 414.0Q283 472 326.0 529.0Q369 586 415.0 637.5Q461 689 491 727Q440 749 389.5 769.5Q339 790 299.0 812.5Q259 835 234.0 861.0Q209 887 209 922Q209 973 238.0 1025.5Q267 1078 313.0 1128.5Q359 1179 415.5 1226.0Q472 1273 526 1315Z" fill="black" />
  </g>
</svg>
