
<svg xmlns="http://www.w3.org/2000/svg" viewBox="0 0 660 906">
  <g transform="translate(-190, -249)">
    <path d="M773 568Q773 661 747.5 744.5Q722 828 682.0 890.0Q642 952 593.0 988.5Q544 1025 498 1025Q477 1025 453.0 1002.5Q429 980 405.0 944.0Q381 908 359.0 862.5Q337 817 319.5 770.5Q302 724 292.0 680.5Q282 637 282 606Q282 558 293.0 517.0Q304 476 331.5 446.0Q359 416 405.0 399.0Q451 382 521 382Q564 382 608.5 397.5Q653 413 689.5 439.0Q726 465 749.5 498.5Q773 532 773 568ZM850 668Q850 624 841.5 577.5Q833 531 818.0 487.5Q803 444 783.5 407.0Q764 370 742 346Q725 327 698.0 309.5Q671 292 638.5 278.5Q606 265 570.0 257.0Q534 249 498 249Q427 249 370.5 265.0Q314 281 273.5 313.5Q233 346 211.5 394.0Q190 442 190 506Q190 565 206.5 641.5Q223 718 265 827Q288 886 319.5 945.0Q351 1004 385.0 1050.5Q419 1097 453.5 1126.0Q488 1155 518 1155Q579 1155 632.0 1118.5Q685 1082 737 1013Q771 971 792.5 924.0Q814 877 827.0 830.5Q840 784 845.0 741.5Q850 699 850 668Z" fill="black" />
  </g>
</svg>
