
<svg xmlns="http://www.w3.org/2000/svg" viewBox="0 0 715 1184">
  <g transform="translate(-162, -102)">
    <path d="M200 1157Q180 1157 171.0 1174.5Q162 1192 162 1223Q162 1252 171.0 1269.0Q180 1286 200 1286H688Q718 1286 731.5 1269.5Q745 1253 745 1221V1156Q745 938 765.5 756.5Q786 575 811.0 440.5Q836 306 856.5 225.0Q877 144 877 128Q877 117 864.5 109.5Q852 102 823 102Q800 102 790.0 107.5Q780 113 776 123Q773 130 762.5 175.0Q752 220 738.0 293.5Q724 367 708.5 464.5Q693 562 680.0 674.5Q667 787 658.5 910.0Q650 1033 650 1157Z" fill="black" />
  </g>
</svg>
