
<svg xmlns="http://www.w3.org/2000/svg" viewBox="0 0 880 1193">
  <g transform="translate(-80, -102)">
    <path d="M518 102Q485 102 470.5 113.0Q456 124 449 159L434 225Q386 451 331.0 625.5Q276 800 227.0 925.0Q178 1050 140.5 1128.0Q103 1206 90 1241Q86 1252 83.0 1260.0Q80 1268 80 1274Q80 1283 93.5 1289.0Q107 1295 139 1295Q171 1295 187.0 1291.0Q203 1287 208 1278Q214 1269 232.5 1228.5Q251 1188 277.0 1122.5Q303 1057 335.0 969.5Q367 882 400.0 780.0Q433 678 465.0 563.5Q497 449 523 330Q552 456 586.5 573.5Q621 691 656.0 794.0Q691 897 724.5 983.5Q758 1070 784.5 1133.5Q811 1197 829.0 1234.5Q847 1272 851 1278Q859 1289 872.5 1292.0Q886 1295 910 1295Q936 1295 948.0 1288.0Q960 1281 960 1274Q960 1268 955.5 1259.5Q951 1251 949 1244Q935 1210 897.5 1132.0Q860 1054 810.5 928.5Q761 803 705.5 628.0Q650 453 602 225L588 159Q581 124 566.5 113.0Q552 102 518 102Z" fill="black" />
  </g>
</svg>
