
<svg xmlns="http://www.w3.org/2000/svg" viewBox="0 0 880 1193">
  <g transform="translate(-80, -102)">
    <path d="M522 1295Q555 1295 569.5 1284.0Q584 1273 591 1238L606 1172Q654 945 709.0 771.0Q764 597 813.0 472.0Q862 347 899.5 268.5Q937 190 950 156Q954 145 957.0 137.0Q960 129 960 123Q960 114 946.5 108.0Q933 102 901 102Q869 102 853.0 106.0Q837 110 832 119Q826 128 807.5 168.5Q789 209 763.0 274.5Q737 340 705.0 427.5Q673 515 640.0 617.0Q607 719 575.0 833.5Q543 948 517 1067Q488 941 453.5 823.5Q419 706 384.0 603.0Q349 500 315.5 413.5Q282 327 255.5 263.5Q229 200 211.0 162.5Q193 125 189 119Q181 108 167.5 105.0Q154 102 130 102Q104 102 92.0 109.0Q80 116 80 123Q80 129 84.5 137.5Q89 146 91 153Q104 187 142.0 265.0Q180 343 229.5 468.5Q279 594 334.5 769.0Q390 944 438 1172L452 1238Q455 1256 460.0 1267.0Q465 1278 473.0 1284.0Q481 1290 493.0 1292.5Q505 1295 522 1295Z" fill="black" />
  </g>
</svg>
