
<svg xmlns="http://www.w3.org/2000/svg" viewBox="0 0 1007 1434">
  <g transform="translate(-43, 0)">
    <path d="M203 1434Q224 1343 242.0 1262.5Q260 1182 275 1106Q296 1101 315.0 1099.0Q334 1097 351 1097Q393 1097 422.5 1111.0Q452 1125 471.0 1149.0Q490 1173 498.5 1204.5Q507 1236 507 1272Q507 1356 471 1434H628Q664 1345 664 1259Q664 1178 633 1114Q662 1105 688.0 1101.0Q714 1097 737 1097Q779 1097 808.5 1111.0Q838 1125 857.0 1149.0Q876 1173 884.5 1204.5Q893 1236 893 1272Q893 1356 857 1434H1014Q1050 1345 1050 1259Q1050 1197 1031.0 1143.5Q1012 1090 975.0 1050.5Q938 1011 884.0 988.5Q830 966 760 966Q715 966 663.5 978.0Q612 990 552 1018Q481 967 382 967Q341 967 298 976Q309 909 317.0 841.0Q325 773 330.5 700.5Q336 628 339.0 548.5Q342 469 342 379V0H186V371Q186 519 177.5 646.5Q169 774 151.5 898.0Q134 1022 107.0 1151.5Q80 1281 43 1434Z" fill="black" />
  </g>
</svg>
