
<svg xmlns="http://www.w3.org/2000/svg" viewBox="0 0 858 1078">
  <g transform="translate(-79, -156)">
    <path d="M500 1234Q571 1234 648.5 1191.5Q726 1149 790.0 1066.5Q854 984 895.5 863.0Q937 742 937 586Q937 490 906.5 410.5Q876 331 819.0 274.5Q762 218 680.0 187.0Q598 156 495 156Q394 156 316.5 184.0Q239 212 186.0 263.0Q133 314 106.0 386.0Q79 458 79 547Q79 652 98.5 743.5Q118 835 150.5 911.5Q183 988 226.0 1048.0Q269 1108 316.0 1149.0Q363 1190 410.5 1212.0Q458 1234 500 1234ZM498 1072Q458 1072 412.0 1035.0Q366 998 327.0 931.5Q288 865 262.0 771.5Q236 678 236 566Q236 501 257.0 455.0Q278 409 314.0 380.0Q350 351 397.5 338.0Q445 325 499 325Q573 325 626.0 342.0Q679 359 713.5 390.0Q748 421 764.0 465.0Q780 509 780 564Q780 683 750.5 777.5Q721 872 678.0 937.5Q635 1003 586.0 1037.5Q537 1072 498 1072Z" fill="black" />
  </g>
</svg>
