<svg xmlns="http://www.w3.org/2000/svg" 
    viewBox="0 0 367.0 453.0" 
    width="367.0" height="453.0">
  <path d="M 67.0,3.0 Q 69.0,13.0 70.5,36.5 Q 72.0,60.0 72.0,97.0 Q 72.0,155.0 67.5,205.5 Q 63.0,256.0 57.5,294.0 Q 52.0,332.0 49.0,350.0 Q 56.0,370.0 65.5,395.0 Q 75.0,420.0 83.0,439.0 L 97.0,438.0 Q 100.0,428.0 104.0,401.0 Q 108.0,374.0 111.5,339.5 Q 115.0,305.0 117.5,271.5 Q 120.0,238.0 120.0,214.0 Q 120.0,162.0 118.0,126.5 Q 116.0,91.0 109.5,62.0 Q 103.0,33.0 88.0,0.0 L 67.0,3.0" fill="black"/>
</svg>
