<svg xmlns="http://www.w3.org/2000/svg" 
    viewBox="0 0 367.0 453.0" 
    width="367.0" height="453.0">
  <path d="M 272.0,64.0 Q 243.0,39.0 207.0,20.0 Q 171.0,1.0 136.0,1.0 Q 109.0,1.0 83.0,6.5 Q 57.0,12.0 40.5,26.0 Q 24.0,40.0 24.0,64.0 Q 24.0,77.0 29.0,95.5 Q 34.0,114.0 52.0,139.0 Q 70.0,164.0 108.0,197.0 Q 68.0,211.0 42.5,226.5 Q 17.0,242.0 17.0,276.0 Q 17.0,305.0 35.0,327.5 Q 53.0,350.0 73.0,369.0 Q 94.0,389.0 127.0,413.5 Q 160.0,438.0 203.0,453.0 L 211.0,449.0 Q 207.0,436.0 192.0,412.0 Q 177.0,388.0 164.0,375.0 Q 127.0,360.0 103.0,344.5 Q 79.0,329.0 79.0,316.0 Q 79.0,311.0 84.5,306.5 Q 90.0,302.0 109.0,294.0 L 159.0,275.0 Q 190.0,263.0 190.0,246.0 Q 190.0,237.0 184.0,226.0 Q 178.0,215.0 163.0,201.0 Q 134.0,175.0 119.0,157.0 Q 96.0,131.0 96.0,116.0 Q 96.0,90.0 129.0,84.0 Q 165.0,77.0 204.0,74.5 Q 243.0,72.0 266.0,72.0 L 272.0,64.0" fill="black"/>
</svg>
