<svg xmlns="http://www.w3.org/2000/svg" 
    viewBox="0 0 367.0 453.0" 
    width="367.0" height="453.0">
  <path d="M 6.0,354.0 Q 9.0,367.0 21.5,393.5 Q 34.0,420.0 46.0,439.0 L 58.0,439.0 Q 68.0,418.0 84.0,377.5 Q 100.0,337.0 117.5,289.0 Q 135.0,241.0 150.5,196.5 Q 166.0,152.0 173.0,123.0 L 176.0,123.0 Q 188.0,155.0 201.0,189.5 Q 214.0,224.0 230.0,268.0 Q 243.0,303.0 258.5,341.0 Q 274.0,379.0 298.0,439.0 L 310.0,439.0 Q 314.0,432.0 318.5,418.5 Q 323.0,405.0 327.0,392.5 Q 331.0,380.0 331.0,375.0 Q 316.0,344.0 296.5,301.0 Q 277.0,258.0 256.5,211.0 Q 236.0,164.0 218.0,120.0 Q 177.0,17.0 164.0,1.0 L 146.0,1.0 Q 145.0,5.0 138.5,22.0 Q 132.0,39.0 123.0,64.0 Q 99.0,131.0 75.5,189.0 Q 52.0,247.0 34.0,289.0 Q 16.0,331.0 6.0,350.0 L 6.0,354.0" fill="black"/>
</svg>
