<svg xmlns="http://www.w3.org/2000/svg" 
    viewBox="0 0 367.0 453.0" 
    width="367.0" height="453.0">
  <path d="M 187.0,1.0 Q 182.0,17.0 178.0,50.0 Q 174.0,83.0 171.5,126.0 Q 169.0,169.0 168.0,214.0 Q 154.0,199.0 135.5,192.0 Q 117.0,185.0 99.0,185.0 Q 62.0,185.0 37.0,205.5 Q 12.0,226.0 12.0,269.0 Q 12.0,293.0 19.0,322.5 Q 26.0,352.0 40.5,378.5 Q 55.0,405.0 76.5,422.0 Q 98.0,439.0 127.0,439.0 Q 162.0,439.0 179.5,418.5 Q 197.0,398.0 204.0,355.5 Q 211.0,313.0 214.0,246.0 Q 215.0,230.0 217.5,200.5 Q 220.0,171.0 224.0,142.0 Q 226.0,128.0 228.0,114.0 Q 230.0,100.0 231.0,87.0 Q 226.0,70.0 216.5,44.0 Q 207.0,18.0 200.0,1.0 L 187.0,1.0 M 116.0,266.0 Q 133.0,266.0 146.5,269.0 Q 160.0,272.0 166.0,276.0 Q 164.0,361.0 109.0,361.0 Q 87.0,361.0 71.5,342.5 Q 56.0,324.0 56.0,307.0 Q 56.0,286.0 73.5,276.0 Q 91.0,266.0 116.0,266.0" fill="black"/>
</svg>
