<svg xmlns="http://www.w3.org/2000/svg"
     width="160" height="200"
     viewBox="0 0 160 200">
  <g transform="translate(80.0,100.0) scale(0.11534025374855825, -0.11534025374855825) translate(-682.5, -567.0)">
    <path d="M309 752Q258 787 215.5 825.5Q173 864 143.0 908.0Q113 952 96.5 1001.5Q80 1051 80 1108Q80 1183 107.5 1243.5Q135 1304 184.5 1346.0Q234 1388 302.5 1411.0Q371 1434 453 1434Q532 1434 600.5 1410.0Q669 1386 718.5 1340.5Q768 1295 796.5 1227.5Q825 1160 825 1073Q825 963 800.5 873.5Q776 784 733.0 706.0Q690 628 633.0 557.5Q576 487 510 414Q582 351 633.5 301.0Q685 251 720.5 210.0Q756 169 777.5 135.0Q799 101 810.5 70.5Q822 40 825.5 10.0Q829 -20 829 -52Q829 -106 801.5 -160.5Q774 -215 720 -280L545 -172Q564 -142 582.5 -112.0Q601 -82 601 -47Q601 -19 590.0 17.5Q579 54 541.0 107.0Q503 160 429.5 234.0Q356 308 232 412Q311 491 369.0 555.5Q427 620 467.5 675.5Q508 731 533.5 779.0Q559 827 573.0 873.5Q587 920 592.0 967.5Q597 1015 597 1068Q597 1119 586.0 1154.0Q575 1189 555.5 1210.5Q536 1232 509.5 1241.0Q483 1250 452 1250Q420 1250 393.0 1239.5Q366 1229 347.0 1209.5Q328 1190 317.5 1163.5Q307 1137 307 1105Q307 1073 317.0 1043.0Q327 1013 343.5 986.5Q360 960 382.0 937.5Q404 915 428 897Z" fill="black"/>
  </g>
</svg>
