<svg xmlns="http://www.w3.org/2000/svg"
     width="160" height="200"
     viewBox="0 0 160 200">
  <g transform="translate(80.0,100.0) scale(0.11534025374855825, -0.11534025374855825) translate(-682.5, -567.0)">
    <path d="M891 461Q787 470 715.0 506.5Q643 543 598.5 595.0Q554 647 534.0 709.5Q514 772 514 833Q514 902 536.5 960.5Q559 1019 601.0 1062.5Q643 1106 702.5 1130.5Q762 1155 836 1155Q943 1155 1024.0 1111.5Q1105 1068 1159.0 993.0Q1213 918 1240.5 817.5Q1268 717 1268 602Q1268 459 1226.5 345.5Q1185 232 1113.0 153.0Q1041 74 944.5 32.0Q848 -10 738 -10Q639 -10 557.5 22.5Q476 55 411.5 113.5Q347 172 298.5 254.5Q250 337 217 437Q185 535 164.5 650.0Q144 765 132.0 890.5Q120 1016 115.0 1147.0Q110 1278 110 1408H318Q318 1231 328.0 1070.5Q338 910 360.0 772.5Q382 635 415.5 523.5Q449 412 497.0 333.5Q545 255 607.0 212.5Q669 170 747 170Q815 170 870.0 200.0Q925 230 964.0 286.0Q1003 342 1024.0 423.5Q1045 505 1045 608Q1045 702 1027.5 771.0Q1010 840 982.0 885.5Q954 931 919.0 953.0Q884 975 849 975Q825 975 803.5 967.5Q782 960 766.0 943.0Q750 926 741.0 898.0Q732 870 732 829Q732 782 747.5 748.0Q763 714 788.5 691.0Q814 668 846.0 654.5Q878 641 912 635Z" fill="black"/>
  </g>
</svg>
