<svg xmlns="http://www.w3.org/2000/svg" 
    viewBox="0 0 818.0 1189.0" 
    width="818.0" height="1189.0">
  <path d="M 702.0,978.0 Q 702.0,838.0 649.0,768.0 Q 596.0,698.0 468.0,668.0 Q 505.0,538.0 517.5,465.0 Q 530.0,392.0 530.0,302.0 Q 530.0,244.0 523.5,178.0 Q 517.0,112.0 500.0,0.0 L 444.0,0.0 Q 444.0,100.0 433.5,172.5 Q 423.0,245.0 402.0,309.0 Q 397.0,325.0 349.5,450.5 Q 302.0,576.0 255.5,659.5 Q 209.0,743.0 104.0,890.0 L 200.0,1178.0 Q 276.0,1069.0 333.0,1027.5 Q 390.0,986.0 468.0,986.0 Q 638.0,986.0 638.0,1170.0 L 696.0,1170.0 Q 696.0,1110.0 699.0,1070.5 Q 702.0,1031.0 702.0,978.0" fill="black"/>
</svg>
