<svg xmlns="http://www.w3.org/2000/svg" 
    viewBox="0 0 818.0 1189.0" 
    width="818.0" height="1189.0">
  <path d="M 671.0,291.0 L 589.0,3.0 Q 365.0,38.0 327.0,49.0 Q 185.0,91.0 185.0,181.0 Q 185.0,254.0 216.0,309.0 Q 252.0,374.0 377.0,505.0 Q 299.0,526.0 261.0,542.0 Q 145.0,591.0 145.0,651.0 Q 145.0,736.0 256.0,877.0 Q 367.0,1018.0 547.0,1161.0 L 511.0,915.0 Q 450.0,901.0 404.5,876.5 Q 359.0,852.0 359.0,831.0 Q 359.0,816.0 407.5,790.0 Q 456.0,764.0 527.0,741.0 Q 579.0,722.0 596.0,711.5 Q 613.0,701.0 613.0,687.0 Q 613.0,656.0 544.5,590.5 Q 476.0,525.0 426.5,460.5 Q 377.0,396.0 377.0,373.0 Q 377.0,339.0 524.0,312.0 Q 573.0,303.0 671.0,291.0" fill="black"/>
</svg>
