<svg xmlns="http://www.w3.org/2000/svg"
     width="160" height="200"
     viewBox="0 0 160 200">
  <g transform="translate(80.0,100.0) scale(0.11547344110854503, -0.11547344110854503) translate(-671.5, -584.0)">
    <path d="M804 -282Q687 -113 592.5 59.5Q498 232 417 424Q357 426 310.0 448.5Q263 471 230.0 505.5Q197 540 179.5 582.0Q162 624 162 663Q162 722 196.5 754.0Q231 786 281 786Q306 786 331.5 775.0Q357 764 381.5 738.5Q406 713 430.0 671.0Q454 629 478 566Q532 584 587.5 613.5Q643 643 688.5 688.0Q734 733 762.5 795.0Q791 857 791 940Q791 1022 766.5 1093.0Q742 1164 694.0 1216.0Q646 1268 575.5 1298.0Q505 1328 414 1328Q354 1328 281.0 1317.0Q208 1306 132 1271L90 1387Q144 1409 193.0 1421.5Q242 1434 284.0 1440.5Q326 1447 360.5 1448.5Q395 1450 420 1450Q543 1450 637.0 1408.0Q731 1366 794.5 1296.5Q858 1227 890.5 1136.0Q923 1045 923 947Q923 859 897.5 780.5Q872 702 822.0 637.5Q772 573 699.0 524.5Q626 476 531 449Q574 356 614.5 274.0Q655 192 699.0 114.0Q743 36 793.5 -42.0Q844 -120 908 -207Z" fill="black"/>
  </g>
</svg>
