<svg xmlns="http://www.w3.org/2000/svg"
     width="160" height="200"
     viewBox="0 0 160 200">
  <g transform="translate(80.0,100.0) scale(0.11547344110854503, -0.11547344110854503) translate(-671.5, -584.0)">
    <path d="M810 767H578Q504 767 454.0 745.0Q404 723 373.0 687.0Q342 651 328.5 605.0Q315 559 315 510Q315 446 336.5 389.5Q358 333 397.5 291.0Q437 249 494.0 225.0Q551 201 622 201Q654 201 693.0 207.0Q732 213 771 227Q747 278 735.5 316.5Q724 355 724 390Q724 449 750.0 482.5Q776 516 826 516Q866 516 899.5 496.5Q933 477 957.5 445.5Q982 414 995.5 373.5Q1009 333 1009 291Q1009 251 993.0 220.0Q977 189 937 158Q982 69 1040.5 -23.0Q1099 -115 1169 -206L1071 -282Q1040 -247 1008.5 -202.0Q977 -157 947.0 -106.0Q917 -55 890.0 -1.0Q863 53 840 106Q783 89 731.0 81.0Q679 73 637 73Q538 73 454.5 107.5Q371 142 310.5 202.5Q250 263 216.5 344.5Q183 426 183 519Q183 559 190.5 596.5Q198 634 215.5 669.0Q233 704 262.5 737.5Q292 771 336 804Q213 852 156.5 937.5Q100 1023 100 1134Q100 1206 125.0 1256.0Q150 1306 190.5 1339.5Q231 1373 281.0 1392.0Q331 1411 381.5 1420.0Q432 1429 478.0 1431.5Q524 1434 555 1434H773V1314H577Q507 1314 444.5 1305.5Q382 1297 334.5 1274.5Q287 1252 259.5 1212.0Q232 1172 232 1110Q232 1050 258.0 1007.5Q284 965 326.0 938.0Q368 911 422.0 899.0Q476 887 532 887H810Z" fill="black"/>
  </g>
</svg>
