<svg xmlns="http://www.w3.org/2000/svg"
     width="160" height="200"
     viewBox="0 0 160 200">
  <g transform="translate(80.0,100.0) scale(0.11547344110854503, -0.11547344110854503) translate(-671.5, -584.0)">
    <path d="M917 595V475Q913 475 912.0 475.0Q911 475 910.0 475.0Q909 475 907.0 475.0Q905 475 901 475Q798 475 725.0 509.0Q652 543 605.5 597.0Q559 651 537.5 717.0Q516 783 516 846Q516 912 538.0 967.5Q560 1023 599.0 1063.0Q638 1103 692.5 1125.0Q747 1147 812 1147Q901 1147 972.0 1106.0Q1043 1065 1093.0 992.5Q1143 920 1170.0 821.0Q1197 722 1197 607Q1197 463 1159.0 347.0Q1121 231 1054.0 150.0Q987 69 896.5 25.0Q806 -19 701 -19Q609 -19 533.0 12.0Q457 43 396.5 101.0Q336 159 290.0 240.5Q244 322 211 424Q178 525 155.0 646.0Q132 767 117.5 897.5Q103 1028 96.5 1164.5Q90 1301 90 1434H216Q216 1287 223.0 1149.5Q230 1012 244.0 888.5Q258 765 280.0 656.0Q302 547 334 457Q363 374 400.0 308.5Q437 243 482.5 197.0Q528 151 583.0 127.0Q638 103 703 103Q786 103 853.0 143.0Q920 183 967.0 252.5Q1014 322 1039.5 415.0Q1065 508 1065 614Q1065 711 1043.0 787.5Q1021 864 985.0 916.5Q949 969 903.0 997.0Q857 1025 809 1025Q783 1025 754.5 1016.5Q726 1008 702.5 987.0Q679 966 663.5 930.5Q648 895 648 842Q648 773 674.0 726.5Q700 680 739.5 651.0Q779 622 826.5 609.0Q874 596 917 595Z" fill="black"/>
  </g>
</svg>
