
<svg xmlns="http://www.w3.org/2000/svg" viewBox="0 0 402 582">
  <g transform="translate(-54, 11)">
    <path d="M456 460Q456 429 443.0 406.0Q430 383 407.5 370.5Q385 358 358 358Q333 358 311.0 366.5Q289 375 277 390Q268 373 252.0 364.0Q236 355 218 355Q184 355 160 374Q173 265 182.0 156.5Q191 48 191 5L131 -11L121 -9Q110 123 91.5 273.5Q73 424 54 523L121 571L131 569Q136 545 144 494L148 469Q154 450 168.0 441.0Q182 432 199 432Q213 432 222.5 439.5Q232 447 239.0 467.5Q246 488 252 527L310 519Q309 515 306.0 496.0Q303 477 303 469Q303 454 315.5 444.5Q328 435 351 435Q372 435 381.5 444.5Q391 454 391 473Q391 498 372 550L427 570Q442 539 449.0 510.5Q456 482 456 460Z" fill="black" />
  </g>
</svg>
