
<svg xmlns="http://www.w3.org/2000/svg" viewBox="0 0 384 1285">
  <g transform="translate(-333, -107)">
    <path d="M717 414Q717 388 714.0 350.0Q711 312 705.5 271.5Q700 231 692.0 193.5Q684 156 674 130Q667 107 623 107Q595 107 584.5 113.0Q574 119 574 130Q574 305 556.0 447.5Q538 590 511.5 702.0Q485 814 453.5 897.5Q422 981 395.5 1040.0Q369 1099 351.0 1134.5Q333 1170 333 1186Q333 1213 343.5 1248.5Q354 1284 369.0 1316.0Q384 1348 400.5 1370.0Q417 1392 429 1392Q434 1392 442.0 1386.0Q450 1380 460 1363Q533 1241 582.5 1132.0Q632 1023 662.0 912.0Q692 801 704.5 680.0Q717 559 717 414Z" fill="black" />
  </g>
</svg>
