
<svg xmlns="http://www.w3.org/2000/svg" viewBox="0 0 698 1285">
  <g transform="translate(-176, -107)">
    <path d="M775 1362Q779 1377 787.0 1382.0Q795 1387 823 1387Q846 1387 860.0 1381.0Q874 1375 874 1361Q874 1256 855.0 1174.0Q836 1092 799.0 1035.5Q762 979 708.5 950.0Q655 921 585 921Q575 921 565.0 924.0Q555 927 541 931Q572 860 590.0 796.0Q608 732 618.0 671.5Q628 611 631.0 550.5Q634 490 634 426Q634 394 631.0 354.0Q628 314 623.0 273.0Q618 232 610.5 194.5Q603 157 593 130Q589 118 578.0 112.5Q567 107 541 107Q515 107 504.0 113.0Q493 119 493 130Q493 328 469.5 479.0Q446 630 411.0 742.0Q376 854 334.5 930.5Q293 1007 258.0 1056.5Q223 1106 199.5 1132.5Q176 1159 176 1170Q176 1200 189.0 1238.5Q202 1277 220.5 1311.0Q239 1345 259.0 1368.5Q279 1392 292 1392Q299 1392 306.5 1383.5Q314 1375 322 1363Q359 1309 390.5 1271.5Q422 1234 450.5 1210.5Q479 1187 507.5 1176.0Q536 1165 567 1165Q649 1165 700.5 1212.0Q752 1259 775 1362Z" fill="black" />
  </g>
</svg>
