
<svg xmlns="http://www.w3.org/2000/svg" viewBox="0 0 721 1289.2727272727273">
  <g transform="translate(-169, -101)">
    <path d="M548 1367Q598 1399 599 1387Q630 1364 630 1291Q630 1268 629.0 1254.0Q628 1240 623.5 1229.5Q619 1219 609.5 1211.0Q600 1203 582 1194Q528 1161 484.0 1132.5Q440 1104 408.5 1081.5Q377 1059 360.0 1042.0Q343 1025 343 1015Q343 1009 364.0 998.5Q385 988 413.5 976.0Q442 964 471.0 953.5Q500 943 515 937Q537 928 554.0 918.5Q571 909 582.5 895.5Q594 882 599.5 863.5Q605 845 605 819Q605 797 603.5 780.0Q602 763 597.5 748.5Q593 734 585.5 720.0Q578 706 565 690Q538 657 509.5 625.0Q481 593 457.5 566.0Q434 539 419.0 519.0Q404 499 404 490Q404 465 444.5 437.5Q485 410 549.5 385.5Q614 361 694.0 340.5Q774 320 853 310Q871 308 880.5 300.5Q890 293 890 273Q890 253 888.5 241.0Q887 229 883.0 220.5Q879 212 872.0 207.0Q865 202 854 196Q821 175 786.0 157.5Q751 140 717.0 127.5Q683 115 652.5 108.0Q622 101 598 101Q567 101 527.0 109.5Q487 118 446.5 130.0Q406 142 369.0 156.0Q332 170 308 182Q202 234 202 337Q202 383 224.5 436.0Q247 489 279.5 540.0Q312 591 347.0 636.0Q382 681 408 711Q362 730 319.0 749.0Q276 768 242.5 790.5Q209 813 189.0 841.0Q169 869 169 906Q169 967 203.5 1030.0Q238 1093 293.0 1153.0Q348 1213 415.0 1267.5Q482 1322 548 1367Z" fill="black" />
  </g>
</svg>
