
<svg xmlns="http://www.w3.org/2000/svg" viewBox="0 0 792 1252">
  <g transform="translate(-124, -102)">
    <path d="M178 1091Q153 1091 138.5 1122.5Q124 1154 124 1227Q124 1287 138.5 1320.5Q153 1354 178 1354H718Q741 1354 762.0 1335.5Q783 1317 783 1284V1215Q783 964 804.0 772.5Q825 581 849.5 449.0Q874 317 895.0 243.0Q916 169 916 152Q916 131 899.5 116.5Q883 102 832 102Q794 102 768.0 110.5Q742 119 737 141Q733 154 721.5 195.5Q710 237 695.5 302.0Q681 367 665.0 453.0Q649 539 636.0 640.0Q623 741 614.5 855.5Q606 970 606 1091Z" fill="black" />
  </g>
</svg>
