
<svg xmlns="http://www.w3.org/2000/svg" viewBox="0 0 906 1212">
  <g transform="translate(-68, -101)">
    <path d="M530 101Q484 101 449.5 114.5Q415 128 409 160L396 228Q357 455 307.0 629.0Q257 803 209.5 927.5Q162 1052 125.0 1129.0Q88 1206 76 1239Q74 1245 71.0 1255.0Q68 1265 68 1279Q68 1293 88.5 1303.0Q109 1313 161 1313Q217 1313 240.5 1306.0Q264 1299 273 1281Q286 1259 316.5 1197.5Q347 1136 385.0 1041.0Q423 946 465.0 819.5Q507 693 542 541Q579 693 620.0 818.0Q661 943 698.5 1037.0Q736 1131 765.0 1192.5Q794 1254 808 1280Q814 1290 821.0 1296.5Q828 1303 839.5 1307.0Q851 1311 868.0 1312.0Q885 1313 910 1313Q940 1313 957.0 1303.0Q974 1293 974 1279Q974 1265 971.0 1255.0Q968 1245 966 1239Q956 1215 919.5 1139.0Q883 1063 835.0 936.0Q787 809 736.0 632.0Q685 455 646 229L634 161Q627 129 600.5 115.0Q574 101 530 101Z" fill="black" />
  </g>
</svg>
