
<svg xmlns="http://www.w3.org/2000/svg" viewBox="0 0 906 1212">
  <g transform="translate(-68, -101)">
    <path d="M512 1313Q558 1313 592.5 1299.5Q627 1286 633 1254L646 1186Q685 959 735.0 785.0Q785 611 832.5 486.5Q880 362 917.0 285.0Q954 208 966 175Q968 170 971.0 160.0Q974 150 974 135Q974 121 953.5 111.0Q933 101 882 101Q825 101 801.5 108.0Q778 115 770 133Q757 155 726.5 216.5Q696 278 657.5 373.0Q619 468 577.0 594.5Q535 721 500 873Q463 721 422.0 596.0Q381 471 344.0 377.0Q307 283 277.5 221.0Q248 159 234 134Q223 113 202.0 107.0Q181 101 132 101Q102 101 85.0 111.0Q68 121 68 135Q68 150 71.0 160.0Q74 170 76 176Q86 200 122.5 276.0Q159 352 207.0 478.5Q255 605 306.0 782.0Q357 959 396 1185L408 1253Q415 1285 441.5 1299.0Q468 1313 512 1313Z" fill="black" />
  </g>
</svg>
