<svg xmlns="http://www.w3.org/2000/svg"
     width="160" height="200"
     viewBox="0 0 160 200">
  <g transform="translate(80.0,100.0) scale(0.11648223645894001, -0.11648223645894001) translate(-644.0, -552.5)">
    <path d="M1005 628Q1005 463 887.5 349.5Q770 236 628 236Q502 236 401.5 333.0Q301 430 301 578Q301 737 420.0 847.5Q539 958 673 958Q810 958 907.5 860.0Q1005 762 1005 628ZM419 691Q419 579 526.0 454.5Q633 330 746 330Q800 330 843.5 381.0Q887 432 887 500Q887 622 777.5 746.5Q668 871 568 871Q507 871 463.0 818.5Q419 766 419 691Z" fill="black"/>
  </g>
</svg>
