<svg xmlns="http://www.w3.org/2000/svg"
     width="160" height="200"
     viewBox="0 0 160 200">
  <g transform="translate(80.0,100.0) scale(0.11648223645894001, -0.11648223645894001) translate(-644.0, -552.5)">
    <path d="M256 1387H589Q733 1387 839.0 1283.0Q945 1179 945 1052Q945 938 837 858Q1008 756 1008 565Q1008 456 949.5 379.5Q891 303 775 259L1008 -196L963 -217L725 243Q679 235 639 235Q535 235 475.5 283.5Q416 332 416 408Q416 455 452.5 494.5Q489 534 547 534Q628 534 696 413H730Q823 413 888.0 460.5Q953 508 953 589Q953 678 874.0 742.0Q795 806 659 806H395L356 947H573Q722 947 798.0 1006.0Q874 1065 874 1133Q874 1175 819.5 1210.5Q765 1246 670 1246H319Z" fill="black"/>
  </g>
</svg>
