<svg xmlns="http://www.w3.org/2000/svg"
     width="160" height="200"
     viewBox="0 0 160 200">
  <g transform="translate(80.0,100.0) scale(0.11648223645894001, -0.11648223645894001) translate(-644.0, -552.5)">
    <path d="M24 1361 65 1403 636 877 1151 1403 1264 1308 743 780Q919 619 947.5 565.5Q976 512 976 463Q976 357 897.0 293.5Q818 230 722 230Q583 230 505.0 314.5Q427 399 427 521Q427 676 599 837ZM707 733Q497 546 497 450Q497 407 533.0 373.5Q569 340 628 340Q702 340 771.0 393.0Q840 446 840 534Q840 616 707 733Z" fill="black"/>
  </g>
</svg>
