<svg xmlns="http://www.w3.org/2000/svg"
     width="160" height="200"
     viewBox="0 0 160 200">
  <g transform="translate(80.0,100.0) scale(0.11648223645894001, -0.11648223645894001) translate(-644.0, -552.5)">
    <path d="M1052 1366 1154 1267 424 542Q377 495 353.5 450.0Q330 405 330 361Q330 270 422.5 195.0Q515 120 628 120Q718 120 819.5 190.0Q921 260 1055 382L1167 270Q1067 165 954.0 112.5Q841 60 714 60Q495 60 334.0 188.0Q173 316 173 429Q173 464 194.5 502.5Q216 541 259 584Z" fill="black"/>
  </g>
</svg>
