<svg xmlns="http://www.w3.org/2000/svg" 
    viewBox="0 0 1055.0 1401.0" 
    width="1055.0" height="1401.0">
  <path d="M 999.0,10.0 L 283.0,10.0 Q 196.0,10.0 135.0,60.0 Q 74.0,110.0 74.0,178.0 Q 74.0,280.0 176.0,379.0 L 430.0,622.0 Q 457.0,649.0 457.0,669.0 Q 457.0,689.0 414.0,731.0 L 276.0,864.0 Q 193.0,945.0 170.0,989.0 Q 147.0,1033.0 147.0,1073.0 Q 147.0,1149.0 203.5,1203.0 Q 260.0,1257.0 436.0,1304.0 L 797.0,1401.0 L 797.0,1263.0 L 469.0,1177.0 Q 336.0,1143.0 336.0,1089.0 Q 336.0,1064.0 424.0,979.0 L 553.0,854.0 Q 629.0,781.0 629.0,710.0 Q 629.0,675.0 607.0,634.0 Q 585.0,593.0 504.0,514.0 L 276.0,293.0 Q 238.0,254.0 238.0,229.0 Q 238.0,194.0 295.0,194.0 L 999.0,194.0 L 999.0,10.0" fill="black"/>
</svg>
