<svg xmlns="http://www.w3.org/2000/svg" 
    viewBox="0 0 1055.0 1401.0" 
    width="1055.0" height="1401.0">
  <path d="M 510.0,1112.0 Q 690.0,1112.0 841.5,882.5 Q 993.0,653.0 993.0,416.0 Q 993.0,218.0 867.0,109.0 Q 741.0,0.0 510.0,0.0 Q 279.0,0.0 154.0,108.5 Q 29.0,217.0 29.0,416.0 Q 29.0,653.0 179.5,882.5 Q 330.0,1112.0 510.0,1112.0 M 510.0,188.0 Q 694.0,188.0 778.0,242.0 Q 862.0,296.0 862.0,416.0 Q 862.0,590.0 745.5,756.5 Q 629.0,923.0 510.0,923.0 Q 391.0,923.0 275.5,756.5 Q 160.0,590.0 160.0,416.0 Q 160.0,296.0 243.5,242.0 Q 327.0,188.0 510.0,188.0" fill="black"/>
</svg>
