<svg xmlns="http://www.w3.org/2000/svg" 
    viewBox="0 0 837.0 1191.0" 
    width="837.0" height="1191.0">
  <path d="M 685.0,202.0 L 622.0,0.0 Q 532.0,0.0 449.0,13.0 Q 339.0,30.0 272.0,64.0 Q 190.0,105.0 190.0,166.0 Q 190.0,223.0 225.0,283.0 Q 255.0,334.0 317.0,400.0 Q 350.0,435.0 442.0,522.0 Q 357.0,554.0 272.0,587.0 Q 171.0,632.0 171.0,678.0 Q 171.0,754.0 245.0,854.0 Q 302.0,931.0 411.0,1029.0 Q 487.0,1097.0 580.0,1168.0 L 549.0,976.0 Q 438.0,935.0 401.0,917.0 Q 313.0,874.0 313.0,838.0 Q 313.0,806.0 388.0,773.0 Q 458.0,746.0 529.0,720.0 Q 605.0,689.0 605.0,663.0 Q 605.0,634.0 537.0,562.0 Q 474.0,496.0 411.0,431.0 Q 343.0,354.0 343.0,313.0 Q 343.0,265.0 480.0,233.0 Q 569.0,212.0 685.0,202.0" fill="black"/>
</svg>
