<svg xmlns="http://www.w3.org/2000/svg" 
    viewBox="0 0 837.0 1191.0" 
    width="837.0" height="1191.0">
  <path d="M 767.0,628.0 Q 767.0,455.0 664.0,342.0 Q 547.0,213.0 332.0,213.0 Q 211.0,213.0 141.0,255.0 Q 61.0,303.0 61.0,394.0 Q 61.0,475.0 105.0,610.0 Q 155.0,762.0 225.0,860.0 Q 311.0,980.0 403.0,980.0 Q 521.0,980.0 644.0,861.0 Q 767.0,742.0 767.0,628.0 M 693.0,522.0 Q 693.0,579.0 613.0,645.0 Q 546.0,700.0 445.0,745.0 Q 352.0,786.0 305.0,786.0 Q 239.0,786.0 195.0,696.0 Q 159.0,623.0 159.0,551.0 Q 159.0,469.0 228.0,431.0 Q 291.0,396.0 415.0,396.0 Q 537.0,396.0 615.0,432.5 Q 693.0,469.0 693.0,522.0" fill="black"/>
</svg>
