
<svg xmlns="http://www.w3.org/2000/svg" viewBox="0 0 560 986">
  <g transform="translate(-185, -13)">
    <path d="M745 177Q724 156 701.0 133.5Q678 111 655.5 90.5Q633 70 611.5 53.0Q590 36 571 26Q557 18 543.5 15.5Q530 13 519 13Q497 13 464.5 19.5Q432 26 399.0 35.5Q366 45 336.0 55.5Q306 66 288 75Q249 95 225.0 120.0Q201 145 201 186Q201 212 214.0 244.5Q227 277 243 302Q258 327 290.5 369.0Q323 411 368 463Q333 478 300.5 494.5Q268 511 242.0 530.5Q216 550 200.5 573.5Q185 597 185 625Q185 676 217.5 728.0Q250 780 300.0 829.0Q350 878 409.5 921.5Q469 965 524 999L490 818Q460 803 432.5 788.5Q405 774 384.0 761.0Q363 748 351.0 737.5Q339 727 339 720Q339 712 350.5 702.5Q362 693 379.0 683.5Q396 674 415.0 665.0Q434 656 450 650Q468 642 487.5 634.0Q507 626 522.5 616.5Q538 607 548.0 595.5Q558 584 558 568Q558 563 554.0 555.0Q550 547 544.0 538.0Q538 529 530.5 519.5Q523 510 516 503Q496 481 480.5 463.5Q465 446 449.5 428.0Q434 410 416.5 390.5Q399 371 377 344Q371 337 364.0 328.0Q357 319 351.0 311.0Q345 303 341.0 296.0Q337 289 337 286Q337 278 352.5 268.5Q368 259 385 252Q418 238 456.0 229.5Q494 221 530 214Q560 208 586.5 203.0Q613 198 638.5 193.5Q664 189 690.0 185.0Q716 181 745 177Z" fill="black" />
  </g>
</svg>
