
<svg xmlns="http://www.w3.org/2000/svg" viewBox="0 0 501 1009">
  <g transform="translate(-149, 46)">
    <path d="M329 647Q357 647 389.5 652.5Q422 658 445 665Q441 684 430.0 702.5Q419 721 402.5 735.5Q386 750 364.5 759.0Q343 768 317 768Q296 768 278.5 760.0Q261 752 248.5 740.5Q236 729 229.5 716.0Q223 703 223 692Q223 684 232.5 676.0Q242 668 257.0 661.5Q272 655 291.0 651.0Q310 647 329 647ZM622 -46Q577 -17 545.5 32.0Q514 81 499 145Q493 171 488.0 198.0Q483 225 479.0 256.5Q475 288 472.5 325.5Q470 363 467 410Q466 427 465.5 450.0Q465 473 464 488Q425 465 386.5 456.0Q348 447 308 447Q233 447 191.0 495.5Q149 544 149 627Q149 694 169.5 754.5Q190 815 222.0 861.5Q254 908 292.5 935.5Q331 963 367 963Q400 963 426.0 952.5Q452 942 471.5 917.5Q491 893 503.5 852.0Q516 811 521 750Q526 684 530.5 622.0Q535 560 543 497Q549 449 557.5 403.0Q566 357 579.0 317.0Q592 277 609.5 244.5Q627 212 650 192Z" fill="black" />
  </g>
</svg>
