
<svg xmlns="http://www.w3.org/2000/svg" viewBox="0 0 1913 1786">
  <g transform="translate(-72, 125)">
    <path d="M1985 629 1858 438Q1599 492 1335 629V553H729V639Q450 489 199 438L72 629Q445 680 745 862H420V995H874V952Q893 967 926 995V1272H381V973H174V1430H926V1501H283V1661H1745V1501H1135V1430H1874V973H1667V1272H1133V987L1186 942V995H1620V862H1303Q1606 680 1985 629ZM1190 713Q1105 765 1024 831Q943 767 856 713ZM1620 1067H1186V1200H1620ZM874 1067H420V1200H874ZM1597 182Q1597 84 1539.5 24.5Q1482 -35 1374 -35H1364Q1304 -35 1206 -25L1153 184Q1266 168 1343 168Q1391 168 1391 217V322H956V-125L754 -123V322H416V479H1597Z" fill="black" />
  </g>
</svg>
