<svg xmlns="http://www.w3.org/2000/svg" 
    viewBox="0 0 818.0 1189.0" 
    width="818.0" height="1189.0">
  <path d="M 762.0,631.0 Q 762.0,547.0 726.0,463.0 Q 704.0,402.0 681.0,359.0 Q 658.0,316.0 642.0,301.0 Q 600.0,253.0 504.5,217.0 Q 409.0,181.0 330.0,181.0 Q 220.0,181.0 149.0,239.0 Q 78.0,297.0 78.0,387.0 Q 78.0,456.0 106.5,555.5 Q 135.0,655.0 190.0,783.0 Q 242.0,900.0 295.5,952.5 Q 349.0,1005.0 418.0,1005.0 Q 479.0,1005.0 553.5,962.5 Q 628.0,920.0 682.0,855.0 Q 762.0,757.0 762.0,631.0 M 630.0,531.0 Q 630.0,573.0 540.0,621.0 Q 441.0,678.0 402.5,694.5 Q 364.0,711.0 324.0,711.0 Q 277.0,711.0 246.5,682.5 Q 216.0,654.0 216.0,609.0 Q 216.0,550.0 279.5,515.5 Q 343.0,481.0 454.0,481.0 Q 536.0,481.0 583.0,494.5 Q 630.0,508.0 630.0,531.0" fill="black"/>
</svg>
