<svg xmlns="http://www.w3.org/2000/svg" 
    viewBox="0 0 818.0 1189.0" 
    width="818.0" height="1189.0">
  <path d="M 717.0,337.0 L 665.0,13.0 Q 527.0,108.0 485.0,205.0 Q 443.0,302.0 443.0,511.0 Q 443.0,589.0 450.0,659.5 Q 457.0,730.0 461.0,777.0 Q 396.0,764.0 352.0,758.5 Q 308.0,753.0 273.0,753.0 Q 157.0,753.0 111.0,783.0 Q 57.0,818.0 57.0,915.0 Q 57.0,959.0 62.0,1106.0 Q 62.0,1132.0 65.0,1177.0 L 113.0,1177.0 Q 125.0,1103.0 159.5,1083.0 Q 194.0,1063.0 309.0,1063.0 Q 362.0,1063.0 403.5,1068.5 Q 445.0,1074.0 575.0,1099.0 Q 549.0,999.0 541.0,948.5 Q 533.0,898.0 533.0,823.0 Q 533.0,663.0 563.0,574.0 Q 601.0,462.0 717.0,337.0" fill="black"/>
</svg>
