<svg xmlns="http://www.w3.org/2000/svg"
     width="160" height="200"
     viewBox="0 0 160 200">
  <g transform="translate(80.0,100.0) scale(0.11494252873563218, -0.11494252873563218) translate(-655.0, -588.0)">
    <path d="M780 -271Q720 -185 668.0 -101.0Q616 -17 569.0 69.5Q522 156 478.0 248.0Q434 340 391 441Q331 443 284.0 464.5Q237 486 205.0 519.0Q173 552 156.5 591.5Q140 631 140 669Q140 720 170.0 748.0Q200 776 243 776Q267 776 291.5 764.0Q316 752 341.5 724.5Q367 697 392.5 651.5Q418 606 443 539Q501 554 562.0 587.0Q623 620 672.5 672.5Q722 725 753.5 796.0Q785 867 785 957Q785 1047 761.0 1123.0Q737 1199 688.0 1254.5Q639 1310 564.5 1341.5Q490 1373 390 1373Q331 1373 258.0 1362.5Q185 1352 110 1321L80 1401Q132 1421 179.0 1432.5Q226 1444 266.5 1449.5Q307 1455 340.0 1456.5Q373 1458 397 1458Q520 1458 611.0 1417.5Q702 1377 762.0 1309.0Q822 1241 851.0 1152.0Q880 1063 880 965Q880 876 854.5 797.0Q829 718 778.0 653.0Q727 588 651.0 538.5Q575 489 474 460Q521 358 562.0 272.5Q603 187 646.0 107.5Q689 28 739.0 -50.5Q789 -129 854 -218Z" fill="black"/>
  </g>
</svg>
