<svg xmlns="http://www.w3.org/2000/svg"
     width="160" height="200"
     viewBox="0 0 160 200">
  <g transform="translate(80.0,100.0) scale(0.11494252873563218, -0.11494252873563218) translate(-655.0, -588.0)">
    <path d="M748 -282Q701 -212 666.5 -163.5Q632 -115 600.0 -76.0Q568 -37 534.5 -0.5Q501 36 458 82Q382 85 328.0 102.0Q274 119 239.5 143.0Q205 167 189.0 196.0Q173 225 173 254Q173 274 180.0 292.5Q187 311 200.5 325.0Q214 339 232.5 347.5Q251 356 275 356Q309 356 344.0 338.0Q379 320 411.0 292.5Q443 265 471.5 232.0Q500 199 521 169Q542 174 569.5 184.0Q597 194 626.0 210.0Q655 226 683.5 249.5Q712 273 734.0 306.0Q756 339 769.5 382.0Q783 425 783 480Q783 562 756.5 621.0Q730 680 683.5 717.5Q637 755 574.5 773.0Q512 791 440 791H197V874H376Q468 874 529.5 896.0Q591 918 628.0 952.5Q665 987 680.5 1030.5Q696 1074 696 1117Q696 1166 679.0 1209.0Q662 1252 624.0 1283.0Q586 1314 524.5 1332.0Q463 1350 374 1350H80V1434H369Q480 1434 559.5 1409.0Q639 1384 690.5 1340.5Q742 1297 766.5 1239.5Q791 1182 791 1117Q791 1080 780.0 1041.5Q769 1003 745.0 967.0Q721 931 683.5 900.0Q646 869 594 847Q674 824 728.5 782.0Q783 740 816.5 688.0Q850 636 864.5 579.5Q879 523 879 471Q879 408 855.0 348.5Q831 289 787.5 238.5Q744 188 684.5 150.0Q625 112 555 92Q581 63 616.0 23.5Q651 -16 688.0 -59.5Q725 -103 760.5 -147.5Q796 -192 825 -232Z" fill="black"/>
  </g>
</svg>
