
<svg xmlns="http://www.w3.org/2000/svg" viewBox="0 0 684 824">
  <g transform="translate(-234, -474)">
    <path d="M918 924Q918 840 882 756Q860 695 837.0 652.0Q814 609 798 594Q756 546 660.5 510.0Q565 474 486 474Q376 474 305.0 532.0Q234 590 234 680Q234 749 262.5 848.5Q291 948 346 1076Q398 1193 451.5 1245.5Q505 1298 574 1298Q635 1298 709.5 1255.5Q784 1213 838 1148Q918 1050 918 924ZM786 824Q786 866 696 914Q597 971 558.5 987.5Q520 1004 480 1004Q433 1004 402.5 975.5Q372 947 372 902Q372 843 435.5 808.5Q499 774 610 774Q692 774 739.0 787.5Q786 801 786 824Z" fill="black" />
  </g>
</svg>
