
<svg xmlns="http://www.w3.org/2000/svg" viewBox="0 0 636 1172">
  <g transform="translate(-238, -300)">
    <path d="M874 600 802 300Q734 319 691 407Q655 480 639.5 592.0Q624 704 624 824Q533 800 480 800Q375 800 306.5 855.5Q238 911 238 996Q238 1179 332.5 1325.5Q427 1472 546 1472Q638 1472 674 1420Q714 1363 723.0 1290.0Q732 1217 732 1008Q732 821 762 744Q786 684 874 600ZM604 1098Q586 1212 484 1212Q440 1212 403.0 1188.0Q366 1164 366 1146Q366 1086 510 1086Q556 1086 604 1098Z" fill="black" />
  </g>
</svg>
