<svg xmlns="http://www.w3.org/2000/svg"
     width="160" height="200"
     viewBox="0 0 160 200">
  <g transform="translate(80.0,100.0) scale(0.2372479240806643, -0.2372479240806643) translate(-339.5, -254.5)">
    <path d="M260 100Q203 100 153.5 126.0Q104 152 74.0 201.0Q44 250 44 319Q44 384 72.5 432.5Q101 481 148.0 508.5Q195 536 250 536Q313 536 360.5 506.0Q408 476 435.0 425.5Q462 375 462 313Q462 255 437.5 206.5Q413 158 368.0 129.0Q323 100 260 100ZM255 170Q300 170 327.5 191.5Q355 213 367.5 247.0Q380 281 380 318Q380 381 347.5 423.0Q315 465 255 465Q194 465 159.5 423.5Q125 382 125 314Q125 250 161.0 210.0Q197 170 255 170Z" fill="black"/>
  </g>
</svg>
