<svg xmlns="http://www.w3.org/2000/svg"
     width="160" height="200"
     viewBox="0 0 160 200">
  <g transform="translate(80.0,100.0) scale(0.2372479240806643, -0.2372479240806643) translate(-339.5, -254.5)">
    <path d="M618 -14Q580 15 551.0 36.0Q522 57 482 57Q458 57 438.0 48.5Q418 40 398.0 28.5Q378 17 353.5 8.5Q329 0 295 0Q239 0 191.0 24.0Q143 48 114.0 92.5Q85 137 85 197Q85 262 120.0 310.5Q155 359 213 387L212 390Q203 389 182.5 387.5Q162 386 136 386H63L59 457H463Q423 481 398.5 510.5Q374 540 374 578Q374 622 404.5 649.0Q435 676 483 676Q519 676 550.0 663.0Q581 650 605.5 632.5Q630 615 647 600L609 553Q581 574 555.5 589.5Q530 605 498 605Q479 605 466.5 595.0Q454 585 454 568Q454 544 475.0 523.5Q496 503 529.0 486.0Q562 469 598 457L603 386H500Q385 386 311.0 358.0Q237 330 201.5 285.0Q166 240 166 188Q166 134 200.5 102.5Q235 71 291 71Q321 71 343.5 79.5Q366 88 386.0 99.5Q406 111 427.5 119.5Q449 128 477 128Q515 128 546.5 114.0Q578 100 606.0 78.5Q634 57 659 35Z" fill="black"/>
  </g>
</svg>
