<svg xmlns="http://www.w3.org/2000/svg" 
    viewBox="0 0 1913.0 1857.0" 
    width="1913.0" height="1857.0">
  <path d="M 1865.0,1126.0 L 878.0,952.0 L 878.0,327.0 Q 878.0,266.0 942.0,266.0 L 1444.0,266.0 Q 1494.0,266.0 1522.5,320.0 Q 1551.0,374.0 1575.0,575.0 L 1804.0,501.0 Q 1769.0,226.0 1693.0,142.5 Q 1617.0,59.0 1515.0,59.0 L 866.0,59.0 Q 765.0,59.0 709.0,118.0 Q 653.0,177.0 653.0,268.0 L 653.0,911.0 L 75.0,807.0 L 26.0,1001.0 L 653.0,1116.0 L 653.0,1857.0 L 878.0,1857.0 L 878.0,1157.0 L 1829.0,1325.0 L 1865.0,1126.0" fill="black"/>
</svg>
