<svg xmlns="http://www.w3.org/2000/svg"
     width="160" height="200"
     viewBox="0 0 160 200">
  <g transform="translate(80.0,100.0) scale(0.1156737998843262, -0.1156737998843262) translate(-711.0, -571.5)">
    <path d="M758 -290Q668 -151 611.5 -77.5Q555 -4 480 77Q351 82 272.5 135.5Q194 189 194 270Q194 326 232.0 362.0Q270 398 327 398Q385 398 450.5 354.5Q516 311 574 229Q669 254 717.5 320.5Q766 387 766 482Q766 605 691.5 670.5Q617 736 481 736H227V887H422Q544 887 614.0 938.0Q684 989 684 1081Q684 1171 617.0 1218.5Q550 1266 420 1266H118V1416H415Q552 1416 649.5 1374.5Q747 1333 797.5 1257.0Q848 1181 848 1081Q848 924 716 827V821Q814 778 872.0 682.0Q930 586 930 474Q930 342 854.0 240.0Q778 138 654 102V98Q693 57 766.5 -35.5Q840 -128 891 -204Z" fill="black"/>
  </g>
</svg>
