<svg xmlns="http://www.w3.org/2000/svg"
     width="160" height="200"
     viewBox="0 0 160 200">
  <g transform="translate(80.0,100.0) scale(0.1156737998843262, -0.1156737998843262) translate(-711.0, -571.5)">
    <path d="M397 1416Q351 1238 333.0 1125.0Q315 1012 315 913Q315 712 386.5 605.5Q458 499 585 499Q638 499 689.0 523.0Q740 547 776 591Q710 687 710 794Q710 869 746.0 916.5Q782 964 844 964Q916 964 963.5 902.5Q1011 841 1011 749Q1011 654 953 563Q1037 300 1125.5 116.5Q1214 -67 1314 -200L1186 -293Q1088 -159 987.5 71.5Q887 302 850 446V447Q795 400 725.0 373.5Q655 347 592 347Q462 347 362.0 419.5Q262 492 206.5 622.0Q151 752 151 908Q151 1019 172.5 1155.5Q194 1292 229 1416Z" fill="black"/>
  </g>
</svg>
