<svg xmlns="http://www.w3.org/2000/svg"
     width="160" height="200"
     viewBox="0 0 160 200">
  <g transform="translate(80.0,100.0) scale(0.1156737998843262, -0.1156737998843262) translate(-711.0, -571.5)">
    <path d="M919 1337Q390 613 308 412Q283 352 283 293Q283 185 357.5 119.5Q432 54 547 54Q655 54 747.5 122.5Q840 191 949 371L1086 284Q957 85 827.5 -5.0Q698 -95 549 -95Q432 -95 335.5 -45.0Q239 5 183.5 95.0Q128 185 128 299Q128 413 193.0 543.5Q258 674 403.5 891.0Q549 1108 782 1430Z" fill="black"/>
  </g>
</svg>
