
<svg xmlns="http://www.w3.org/2000/svg" viewBox="0 0 626 1191">
  <g transform="translate(-219, -293)">
    <path d="M845 506 784 293Q684 354 652 498Q626 616 626 917Q558 893 524.0 886.0Q490 879 457 879Q348 879 283.5 924.0Q219 969 219 1053Q219 1115 249 1206Q287 1322 351 1393Q433 1484 544 1484Q627 1484 670 1397Q705 1327 716 1188Q723 1102 723 934Q743 704 777 611Q792 570 845 506ZM618 1092Q618 1183 595 1230Q564 1294 484 1294Q424 1294 368.0 1249.0Q312 1204 312 1165Q312 1123 361.0 1100.0Q410 1077 480 1077Q510 1077 553.0 1083.0Q596 1089 618 1092Z" fill="black" />
  </g>
</svg>
