
<svg xmlns="http://www.w3.org/2000/svg" viewBox="0 0 826 879">
  <g transform="translate(-118, -247)">
    <path d="M532 972Q422 972 350.5 891.0Q279 810 279 688Q279 569 352.5 485.0Q426 401 532 401Q638 401 710.5 484.5Q783 568 783 688Q783 808 712.5 890.0Q642 972 532 972ZM532 1126Q645 1126 740.0 1068.5Q835 1011 889.5 909.0Q944 807 944 687Q944 569 888.5 466.5Q833 364 737.5 305.5Q642 247 532 247Q422 247 326.5 306.0Q231 365 174.5 467.0Q118 569 118 687Q118 805 173.0 907.5Q228 1010 323.0 1068.0Q418 1126 532 1126Z" fill="black" />
  </g>
</svg>
