
<svg xmlns="http://www.w3.org/2000/svg" viewBox="0 0 849 1729">
  <g transform="translate(-109, 293)">
    <path d="M825 -293Q587 49 433 413Q363 415 305.0 450.5Q247 486 214.0 543.0Q181 600 181 659Q181 718 218.0 755.0Q255 792 315 792Q439 792 519 582Q652 624 722.5 714.0Q793 804 793 929Q793 1085 695.5 1185.0Q598 1285 444 1285Q308 1285 158 1212L109 1360Q286 1436 450 1436Q593 1436 710.0 1369.5Q827 1303 892.5 1186.5Q958 1070 958 936Q958 767 857.0 636.0Q756 505 580 443L579 440Q693 203 772.0 70.0Q851 -63 953 -200Z" fill="black" />
  </g>
</svg>
