
<svg xmlns="http://www.w3.org/2000/svg" viewBox="0 0 988 1429">
  <g transform="translate(-108, 13)">
    <path d="M1089 1416Q1096 1379 1096 1333Q1096 1231 1057.5 1138.0Q1019 1045 949.5 955.5Q880 866 715 713Q841 597 893.5 500.5Q946 404 946 305Q946 212 903.0 139.5Q860 67 784.0 27.0Q708 -13 619 -13Q463 -13 365.0 76.5Q267 166 267 309Q267 404 317.5 496.5Q368 589 496 710Q322 858 253.5 940.5Q185 1023 146.5 1110.0Q108 1197 108 1294Q108 1359 118 1416H284Q270 1354 270 1304Q270 1223 302.5 1150.0Q335 1077 394.5 1006.0Q454 935 604 807Q750 939 809.5 1016.0Q869 1093 902.0 1175.0Q935 1257 935 1348L931 1416ZM417 302Q417 227 467.0 182.0Q517 137 604 137Q686 137 741.0 186.5Q796 236 796 312Q796 378 753.5 449.5Q711 521 608 613Q504 514 460.5 441.0Q417 368 417 302Z" fill="black" />
  </g>
</svg>
