
<svg xmlns="http://www.w3.org/2000/svg" viewBox="0 0 1108 1424">
  <g transform="translate(-118, 8)">
    <path d="M980 468Q958 463 929 463Q809 463 721.5 512.0Q634 561 587.0 648.0Q540 735 540 838Q540 975 624.0 1063.5Q708 1152 840 1152Q954 1152 1042.0 1082.5Q1130 1013 1178.0 887.0Q1226 761 1226 605Q1226 423 1163.5 283.0Q1101 143 988.0 67.5Q875 -8 732 -8Q527 -8 388.0 153.5Q249 315 183.5 645.5Q118 976 118 1416H277Q277 994 329.5 707.5Q382 421 484.5 282.5Q587 144 734 144Q883 144 975.5 274.5Q1068 405 1068 611Q1068 722 1037.0 810.5Q1006 899 952.5 949.0Q899 999 837 999Q774 999 736.0 954.5Q698 910 698 834Q698 762 731.5 711.0Q765 660 823.5 633.0Q882 606 952 606L978 608Z" fill="black" />
  </g>
</svg>
