
<svg xmlns="http://www.w3.org/2000/svg" viewBox="0 0 923 1434">
  <g transform="translate(-77, 0)">
    <path d="M179 1434Q200 1340 218.0 1255.0Q236 1170 251 1092Q276 1083 314.0 1076.0Q352 1069 394 1069Q467 1069 508.5 1116.0Q550 1163 550 1259Q550 1298 541.0 1343.5Q532 1389 514 1434H598Q616 1389 625.0 1342.0Q634 1295 634 1251Q634 1207 624.0 1166.5Q614 1126 600 1103Q638 1087 673.0 1078.0Q708 1069 755 1069Q827 1069 871.5 1120.5Q916 1172 916 1272Q916 1357 879 1434H963Q1000 1347 1000 1259Q1000 1195 981.5 1144.0Q963 1093 931.0 1057.0Q899 1021 855.5 1001.5Q812 982 762 982Q706 982 652.5 997.5Q599 1013 550 1042Q518 1011 481.5 996.5Q445 982 394 982Q383 982 368.0 983.5Q353 985 336.5 987.5Q320 990 303.5 993.5Q287 997 274 1001Q285 930 293.0 866.5Q301 803 306.5 736.5Q312 670 315.0 594.0Q318 518 318 424V0Q297 0 276.0 0.5Q255 1 230 1V385Q230 517 223.0 638.5Q216 760 198.5 884.5Q181 1009 151.5 1143.0Q122 1277 77 1434Z" fill="black" />
  </g>
</svg>
