<svg xmlns="http://www.w3.org/2000/svg" 
    viewBox="0 0 1102.0 1401.0" 
    width="1102.0" height="1401.0">
  <path d="M 1030.0,1169.0 Q 948.0,1119.0 841.5,1093.0 Q 735.0,1067.0 602.0,1067.0 Q 536.0,1067.0 474.0,1081.0 Q 412.0,1095.0 383.0,1104.0 L 485.0,925.0 Q 550.0,812.0 580.0,702.5 Q 610.0,593.0 610.0,438.0 L 610.0,10.0 L 444.0,10.0 L 444.0,438.0 Q 444.0,586.0 405.5,690.0 Q 367.0,794.0 299.0,913.0 L 29.0,1386.0 L 201.0,1386.0 Q 246.0,1348.0 359.5,1299.5 Q 473.0,1251.0 600.0,1251.0 Q 743.0,1251.0 850.0,1293.5 Q 957.0,1336.0 1020.0,1382.0 L 1030.0,1382.0 L 1030.0,1169.0" fill="black"/>
</svg>
