<svg xmlns="http://www.w3.org/2000/svg" 
    viewBox="0 0 1102.0 1401.0" 
    width="1102.0" height="1401.0">
  <path d="M 1102.0,1386.0 Q 1086.0,1245.0 1020.0,1156.0 Q 954.0,1067.0 846.0,1067.0 Q 793.0,1067.0 736.0,1095.0 Q 679.0,1123.0 645.0,1183.0 Q 606.0,1128.0 540.5,1097.5 Q 475.0,1067.0 377.0,1067.0 L 457.0,925.0 Q 523.0,809.0 552.0,702.5 Q 581.0,596.0 581.0,438.0 L 581.0,10.0 L 416.0,10.0 L 416.0,438.0 Q 416.0,586.0 377.0,690.0 Q 338.0,794.0 270.0,913.0 L 0.0,1386.0 L 174.0,1386.0 Q 205.0,1338.0 262.5,1295.5 Q 320.0,1253.0 389.0,1253.0 Q 468.0,1253.0 521.5,1295.0 Q 575.0,1337.0 588.0,1386.0 L 698.0,1386.0 Q 713.0,1335.0 754.5,1294.0 Q 796.0,1253.0 842.0,1253.0 Q 888.0,1253.0 923.5,1289.5 Q 959.0,1326.0 969.0,1386.0 L 1102.0,1386.0" fill="black"/>
</svg>
