<svg xmlns="http://www.w3.org/2000/svg" 
    viewBox="0 0 1102.0 1401.0" 
    width="1102.0" height="1401.0">
  <path d="M 1044.0,10.0 L 872.0,10.0 L 780.0,405.0 Q 752.0,527.0 740.5,633.0 Q 729.0,739.0 729.0,876.0 L 729.0,1108.0 Q 699.0,1094.0 643.0,1082.5 Q 587.0,1071.0 514.0,1071.0 Q 396.0,1071.0 262.0,1099.0 Q 128.0,1127.0 55.0,1173.0 L 55.0,1386.0 L 65.0,1386.0 Q 131.0,1339.0 255.0,1297.0 Q 379.0,1255.0 516.0,1255.0 Q 621.0,1255.0 721.5,1291.5 Q 822.0,1328.0 895.0,1390.0 L 895.0,876.0 Q 895.0,739.0 907.5,633.5 Q 920.0,528.0 946.0,422.0 L 1044.0,10.0" fill="black"/>
</svg>
