<svg xmlns="http://www.w3.org/2000/svg" 
    viewBox="0 0 1102.0 1401.0" 
    width="1102.0" height="1401.0">
  <path d="M 1044.0,10.0 L 872.0,10.0 L 780.0,299.0 Q 749.0,394.0 739.0,476.0 Q 729.0,558.0 729.0,684.0 L 729.0,696.0 Q 685.0,641.0 614.5,611.0 Q 544.0,581.0 459.0,581.0 Q 308.0,581.0 197.0,686.0 Q 86.0,791.0 86.0,954.0 Q 86.0,1055.0 119.5,1136.5 Q 153.0,1218.0 211.0,1275.0 Q 267.0,1329.0 343.5,1357.5 Q 420.0,1386.0 500.0,1386.0 Q 575.0,1386.0 646.5,1358.5 Q 718.0,1331.0 773.0,1281.0 Q 829.0,1229.0 862.0,1159.5 Q 895.0,1090.0 895.0,999.0 L 895.0,698.0 Q 895.0,552.0 906.0,479.5 Q 917.0,407.0 946.0,315.0 L 1044.0,10.0 M 727.0,876.0 L 727.0,973.0 Q 727.0,1067.0 659.0,1132.5 Q 591.0,1198.0 502.0,1198.0 Q 393.0,1198.0 323.5,1132.0 Q 254.0,1066.0 254.0,960.0 Q 254.0,878.0 313.5,824.0 Q 373.0,770.0 457.0,770.0 Q 533.0,770.0 608.0,798.5 Q 683.0,827.0 727.0,876.0" fill="black"/>
</svg>
