
<svg xmlns="http://www.w3.org/2000/svg" viewBox="0 0 402 632">
  <g transform="translate(-63, 5)">
    <path d="M387 -5Q366 45 346.5 94.0Q327 143 308 186Q274 174 237 174Q194 174 154.0 190.5Q114 207 88.5 237.5Q63 268 63 310Q63 343 80.0 365.5Q97 388 123.0 399.5Q149 411 176 411Q226 411 265.0 378.0Q304 345 337 292Q360 317 372.0 350.0Q384 383 384 417Q384 483 350.5 519.5Q317 556 264 556Q228 556 200.0 542.5Q172 529 146 503L96 559Q131 594 170.5 610.5Q210 627 259 627Q328 627 374.0 595.5Q420 564 442.5 515.0Q465 466 465 413Q465 353 441.0 303.5Q417 254 376 222Q399 176 420.0 125.0Q441 74 461 27ZM232 245Q256 245 275 251Q253 292 230.5 316.0Q208 340 184 340Q169 340 156.5 331.0Q144 322 144 302Q144 274 169.5 259.5Q195 245 232 245Z" fill="black" />
  </g>
</svg>
