<svg xmlns="http://www.w3.org/2000/svg" 
    viewBox="0 0 1245.0 1734.0" 
    width="1245.0" height="1734.0">
  <path d="M 474.0,1251.0 Q 427.0,1251.0 385.5,1234.5 Q 344.0,1218.0 312.5,1185.0 Q 281.0,1152.0 263.0,1103.0 Q 245.0,1054.0 245.0,989.0 Q 245.0,923.0 264.5,873.5 Q 284.0,824.0 316.5,790.5 Q 349.0,757.0 390.0,740.5 Q 431.0,724.0 475.0,724.0 Q 519.0,724.0 559.5,740.5 Q 600.0,757.0 631.5,790.5 Q 663.0,824.0 682.0,873.5 Q 701.0,923.0 701.0,989.0 Q 701.0,1054.0 683.0,1103.0 Q 665.0,1152.0 634.0,1185.0 Q 603.0,1218.0 561.5,1234.5 Q 520.0,1251.0 474.0,1251.0 M 474.0,1435.0 Q 582.0,1435.0 666.0,1399.5 Q 750.0,1364.0 808.0,1303.0 Q 866.0,1242.0 896.0,1160.5 Q 926.0,1079.0 926.0,988.0 Q 926.0,896.0 894.5,815.0 Q 863.0,734.0 804.5,673.0 Q 746.0,612.0 662.5,576.5 Q 579.0,541.0 475.0,541.0 Q 371.0,541.0 287.0,576.5 Q 203.0,612.0 143.5,673.0 Q 84.0,734.0 52.0,815.0 Q 20.0,896.0 20.0,988.0 Q 20.0,1079.0 50.5,1160.5 Q 81.0,1242.0 139.5,1303.0 Q 198.0,1364.0 282.0,1399.5 Q 366.0,1435.0 474.0,1435.0" fill="black"/>
</svg>
