<svg xmlns="http://www.w3.org/2000/svg" 
    viewBox="0 0 1245.0 1734.0" 
    width="1245.0" height="1734.0">
  <path d="M 249.0,1052.0 Q 198.0,1087.0 155.5,1125.5 Q 113.0,1164.0 83.0,1208.0 Q 53.0,1252.0 36.5,1301.5 Q 20.0,1351.0 20.0,1408.0 Q 20.0,1483.0 47.5,1543.5 Q 75.0,1604.0 124.5,1646.0 Q 174.0,1688.0 242.5,1711.0 Q 311.0,1734.0 393.0,1734.0 Q 472.0,1734.0 540.5,1710.0 Q 609.0,1686.0 658.5,1640.5 Q 708.0,1595.0 736.5,1527.5 Q 765.0,1460.0 765.0,1373.0 Q 765.0,1263.0 740.5,1173.5 Q 716.0,1084.0 673.0,1006.0 Q 630.0,928.0 573.0,857.5 Q 516.0,787.0 450.0,714.0 Q 522.0,651.0 573.5,601.0 Q 625.0,551.0 660.5,510.0 Q 696.0,469.0 717.5,435.0 Q 739.0,401.0 750.5,370.5 Q 762.0,340.0 765.5,310.0 Q 769.0,280.0 769.0,248.0 Q 769.0,194.0 741.5,139.5 Q 714.0,85.0 660.0,20.0 L 485.0,128.0 Q 504.0,158.0 522.5,188.0 Q 541.0,218.0 541.0,253.0 Q 541.0,281.0 530.0,317.5 Q 519.0,354.0 481.0,407.0 Q 443.0,460.0 369.5,534.0 Q 296.0,608.0 172.0,712.0 Q 251.0,791.0 309.0,855.5 Q 367.0,920.0 407.5,975.5 Q 448.0,1031.0 473.5,1079.0 Q 499.0,1127.0 513.0,1173.5 Q 527.0,1220.0 532.0,1267.5 Q 537.0,1315.0 537.0,1368.0 Q 537.0,1419.0 526.0,1454.0 Q 515.0,1489.0 495.5,1510.5 Q 476.0,1532.0 449.5,1541.0 Q 423.0,1550.0 392.0,1550.0 Q 360.0,1550.0 333.0,1539.5 Q 306.0,1529.0 287.0,1509.5 Q 268.0,1490.0 257.5,1463.5 Q 247.0,1437.0 247.0,1405.0 Q 247.0,1373.0 257.0,1343.0 Q 267.0,1313.0 283.5,1286.5 Q 300.0,1260.0 322.0,1237.5 Q 344.0,1215.0 368.0,1197.0 L 249.0,1052.0" fill="black"/>
</svg>
