<svg xmlns="http://www.w3.org/2000/svg" 
    viewBox="0 0 1245.0 1734.0" 
    width="1245.0" height="1734.0">
  <path d="M 731.0,0.0 Q 605.0,180.0 507.5,353.0 Q 410.0,526.0 335.0,701.0 Q 276.0,708.0 229.5,733.5 Q 183.0,759.0 151.0,794.5 Q 119.0,830.0 102.0,872.0 Q 85.0,914.0 85.0,954.0 Q 85.0,988.0 98.0,1015.5 Q 111.0,1043.0 133.0,1061.5 Q 155.0,1080.0 185.0,1090.0 Q 215.0,1100.0 249.0,1100.0 Q 280.0,1100.0 310.0,1090.5 Q 340.0,1081.0 368.0,1058.5 Q 396.0,1036.0 421.5,999.5 Q 447.0,963.0 470.0,909.0 Q 507.0,925.0 546.0,952.5 Q 585.0,980.0 617.0,1020.0 Q 649.0,1060.0 669.0,1112.0 Q 689.0,1164.0 689.0,1229.0 Q 689.0,1300.0 671.0,1359.5 Q 653.0,1419.0 615.5,1462.5 Q 578.0,1506.0 519.5,1530.0 Q 461.0,1554.0 380.0,1554.0 Q 327.0,1554.0 251.0,1533.5 Q 175.0,1513.0 80.0,1466.0 L 20.0,1650.0 Q 82.0,1676.0 136.5,1692.5 Q 191.0,1709.0 237.5,1718.0 Q 284.0,1727.0 321.5,1730.5 Q 359.0,1734.0 386.0,1734.0 Q 528.0,1734.0 628.5,1690.5 Q 729.0,1647.0 793.0,1575.5 Q 857.0,1504.0 887.0,1411.5 Q 917.0,1319.0 917.0,1222.0 Q 917.0,1139.0 889.0,1065.0 Q 861.0,991.0 811.5,929.0 Q 762.0,867.0 692.5,818.5 Q 623.0,770.0 541.0,738.0 Q 580.0,655.0 618.5,580.0 Q 657.0,505.0 699.5,431.0 Q 742.0,357.0 791.5,281.5 Q 841.0,206.0 903.0,123.0 L 731.0,0.0" fill="black"/>
</svg>
