<svg xmlns="http://www.w3.org/2000/svg" 
    viewBox="0 0 1245.0 1734.0" 
    width="1245.0" height="1734.0">
  <path d="M 650.0,2.0 Q 595.0,86.0 556.5,142.0 Q 518.0,198.0 487.5,238.5 Q 457.0,279.0 430.5,310.0 Q 404.0,341.0 373.0,375.0 Q 295.0,380.0 240.0,400.0 Q 185.0,420.0 150.0,448.5 Q 115.0,477.0 99.0,511.0 Q 83.0,545.0 83.0,578.0 Q 83.0,606.0 94.0,632.0 Q 105.0,658.0 126.0,677.0 Q 147.0,696.0 177.5,707.5 Q 208.0,719.0 246.0,719.0 Q 287.0,719.0 324.5,704.5 Q 362.0,690.0 394.5,667.5 Q 427.0,645.0 454.0,617.5 Q 481.0,590.0 501.0,564.0 Q 521.0,571.0 547.0,585.5 Q 573.0,600.0 596.0,625.5 Q 619.0,651.0 634.5,689.0 Q 650.0,727.0 650.0,783.0 Q 650.0,844.0 631.5,887.5 Q 613.0,931.0 580.5,959.0 Q 548.0,987.0 504.5,999.5 Q 461.0,1012.0 410.0,1012.0 L 114.0,1012.0 L 114.0,1192.0 L 353.0,1192.0 Q 416.0,1192.0 457.5,1207.0 Q 499.0,1222.0 524.5,1246.5 Q 550.0,1271.0 560.5,1301.5 Q 571.0,1332.0 571.0,1362.0 Q 571.0,1396.0 561.0,1426.5 Q 551.0,1457.0 527.0,1479.5 Q 503.0,1502.0 463.0,1515.0 Q 423.0,1528.0 362.0,1528.0 L 20.0,1528.0 L 20.0,1708.0 L 357.0,1708.0 Q 476.0,1708.0 560.0,1679.5 Q 644.0,1651.0 697.0,1603.5 Q 750.0,1556.0 774.5,1493.5 Q 799.0,1431.0 799.0,1362.0 Q 799.0,1290.0 767.5,1227.5 Q 736.0,1165.0 673.0,1114.0 Q 722.0,1088.0 760.5,1050.0 Q 799.0,1012.0 825.0,967.5 Q 851.0,923.0 864.5,873.5 Q 878.0,824.0 878.0,775.0 Q 878.0,713.0 857.0,656.0 Q 836.0,599.0 798.5,551.0 Q 761.0,503.0 710.0,467.0 Q 659.0,431.0 598.0,411.0 Q 619.0,387.0 649.0,351.5 Q 679.0,316.0 710.5,276.0 Q 742.0,236.0 773.0,194.5 Q 804.0,153.0 828.0,117.0 L 650.0,2.0" fill="black"/>
</svg>
