<svg xmlns="http://www.w3.org/2000/svg" 
    viewBox="0 0 1245.0 1734.0" 
    width="1245.0" height="1734.0">
  <path d="M 1018.0,1708.0 Q 1024.0,1675.0 1026.5,1651.0 Q 1029.0,1627.0 1029.0,1610.0 Q 1029.0,1517.0 996.0,1434.5 Q 963.0,1352.0 910.5,1277.0 Q 858.0,1202.0 792.0,1134.5 Q 726.0,1067.0 660.0,1006.0 Q 705.0,963.0 745.5,918.5 Q 786.0,874.0 816.0,825.5 Q 846.0,777.0 863.5,724.0 Q 881.0,671.0 881.0,612.0 Q 881.0,534.0 851.5,473.0 Q 822.0,412.0 773.0,371.0 Q 724.0,330.0 660.5,308.5 Q 597.0,287.0 530.0,287.0 Q 444.0,287.0 374.5,312.0 Q 305.0,337.0 256.0,381.0 Q 207.0,425.0 181.0,485.0 Q 155.0,545.0 155.0,616.0 Q 155.0,673.0 172.0,724.0 Q 189.0,775.0 219.0,822.5 Q 249.0,870.0 289.0,914.5 Q 329.0,959.0 374.0,1003.0 Q 306.0,1061.0 239.5,1123.5 Q 173.0,1186.0 119.5,1256.0 Q 66.0,1326.0 33.0,1404.5 Q 0.0,1483.0 0.0,1572.0 Q 0.0,1613.0 4.5,1649.0 Q 9.0,1685.0 13.0,1708.0 L 245.0,1708.0 Q 237.0,1669.0 232.5,1638.5 Q 228.0,1608.0 228.0,1582.0 Q 228.0,1511.0 252.0,1449.5 Q 276.0,1388.0 316.0,1332.5 Q 356.0,1277.0 407.5,1227.0 Q 459.0,1177.0 515.0,1130.0 Q 571.0,1181.0 622.5,1234.0 Q 674.0,1287.0 714.0,1346.5 Q 754.0,1406.0 777.5,1474.5 Q 801.0,1543.0 801.0,1625.0 Q 801.0,1639.0 799.5,1658.0 Q 798.0,1677.0 794.0,1708.0 L 1018.0,1708.0 M 370.0,609.0 Q 370.0,565.0 385.0,537.5 Q 400.0,510.0 422.5,494.0 Q 445.0,478.0 470.5,472.5 Q 496.0,467.0 516.0,467.0 Q 547.0,467.0 574.0,478.0 Q 601.0,489.0 621.5,509.0 Q 642.0,529.0 654.0,557.0 Q 666.0,585.0 666.0,619.0 Q 666.0,690.0 625.5,752.5 Q 585.0,815.0 521.0,875.0 Q 489.0,843.0 461.0,810.5 Q 433.0,778.0 413.0,745.0 Q 393.0,712.0 381.5,678.0 Q 370.0,644.0 370.0,609.0" fill="black"/>
</svg>
