<svg xmlns="http://www.w3.org/2000/svg" 
    viewBox="0 0 1245.0 1734.0" 
    width="1245.0" height="1734.0">
  <path d="M 362.0,1706.0 Q 341.0,1623.0 325.0,1552.5 Q 309.0,1482.0 298.5,1420.5 Q 288.0,1359.0 283.0,1304.5 Q 278.0,1250.0 278.0,1199.0 Q 278.0,1096.0 295.5,1023.5 Q 313.0,951.0 344.0,905.0 Q 375.0,859.0 416.0,838.0 Q 457.0,817.0 504.0,817.0 Q 531.0,817.0 553.5,824.0 Q 576.0,831.0 595.0,842.0 Q 614.0,853.0 628.5,865.0 Q 643.0,877.0 652.0,888.0 Q 618.0,940.0 604.0,990.0 Q 590.0,1040.0 590.0,1084.0 Q 590.0,1123.0 601.0,1156.0 Q 612.0,1189.0 633.0,1213.5 Q 654.0,1238.0 684.5,1252.0 Q 715.0,1266.0 754.0,1266.0 Q 798.0,1266.0 834.5,1248.0 Q 871.0,1230.0 896.5,1199.5 Q 922.0,1169.0 936.0,1128.0 Q 950.0,1087.0 950.0,1041.0 Q 950.0,997.0 935.5,951.0 Q 921.0,905.0 894.0,860.0 Q 925.0,764.0 961.0,667.0 Q 997.0,570.0 1040.0,476.0 Q 1083.0,382.0 1134.0,293.0 Q 1185.0,204.0 1245.0,124.0 L 1075.0,0.0 Q 1039.0,49.0 1004.0,108.5 Q 969.0,168.0 935.5,232.0 Q 902.0,296.0 872.0,361.5 Q 842.0,427.0 816.5,489.0 Q 791.0,551.0 770.5,606.5 Q 750.0,662.0 737.0,705.0 Q 701.0,682.0 666.0,668.5 Q 631.0,655.0 600.5,648.0 Q 570.0,641.0 546.5,639.0 Q 523.0,637.0 510.0,637.0 Q 399.0,637.0 313.0,683.5 Q 227.0,730.0 168.5,807.0 Q 110.0,884.0 80.0,985.0 Q 50.0,1086.0 50.0,1195.0 Q 50.0,1232.0 53.5,1285.0 Q 57.0,1338.0 66.0,1403.5 Q 75.0,1469.0 90.5,1545.5 Q 106.0,1622.0 130.0,1706.0 L 362.0,1706.0" fill="black"/>
</svg>
