<svg xmlns="http://www.w3.org/2000/svg" 
    viewBox="0 0 1245.0 1734.0" 
    width="1245.0" height="1734.0">
  <path d="M 836.0,1011.0 L 552.0,1011.0 Q 497.0,1011.0 459.5,994.5 Q 422.0,978.0 399.0,950.0 Q 376.0,922.0 366.0,886.0 Q 356.0,850.0 356.0,810.0 Q 356.0,756.0 372.5,708.0 Q 389.0,660.0 419.5,625.0 Q 450.0,590.0 494.0,569.5 Q 538.0,549.0 593.0,549.0 Q 602.0,549.0 615.0,549.5 Q 628.0,550.0 642.0,551.5 Q 656.0,553.0 669.5,554.5 Q 683.0,556.0 694.0,559.0 Q 674.0,602.0 665.5,637.5 Q 657.0,673.0 657.0,705.0 Q 657.0,774.0 695.0,814.0 Q 733.0,854.0 805.0,854.0 Q 854.0,854.0 895.5,833.0 Q 937.0,812.0 967.0,778.0 Q 997.0,744.0 1013.5,700.0 Q 1030.0,656.0 1030.0,611.0 Q 1030.0,575.0 1015.5,540.0 Q 1001.0,505.0 965.0,474.0 Q 986.0,434.0 1012.0,390.0 Q 1038.0,346.0 1067.0,300.0 Q 1096.0,254.0 1127.5,208.5 Q 1159.0,163.0 1192.0,121.0 L 1027.0,0.0 Q 989.0,41.0 954.5,89.0 Q 920.0,137.0 888.5,187.5 Q 857.0,238.0 830.5,289.0 Q 804.0,340.0 783.0,387.0 Q 741.0,376.0 693.0,372.5 Q 645.0,369.0 607.0,369.0 Q 502.0,369.0 414.0,404.0 Q 326.0,439.0 262.5,500.0 Q 199.0,561.0 163.5,643.0 Q 128.0,725.0 128.0,819.0 Q 128.0,895.0 158.0,966.0 Q 188.0,1037.0 256.0,1085.0 Q 208.0,1107.0 170.0,1139.5 Q 132.0,1172.0 105.5,1213.5 Q 79.0,1255.0 64.5,1302.5 Q 50.0,1350.0 50.0,1402.0 Q 50.0,1477.0 76.5,1529.0 Q 103.0,1581.0 145.5,1615.0 Q 188.0,1649.0 241.0,1668.0 Q 294.0,1687.0 347.5,1695.5 Q 401.0,1704.0 449.0,1706.0 Q 497.0,1708.0 530.0,1708.0 L 801.0,1708.0 L 801.0,1528.0 L 551.0,1528.0 Q 496.0,1528.0 446.5,1523.5 Q 397.0,1519.0 359.5,1503.5 Q 322.0,1488.0 300.0,1458.5 Q 278.0,1429.0 278.0,1380.0 Q 278.0,1331.0 298.0,1295.5 Q 318.0,1260.0 350.5,1237.0 Q 383.0,1214.0 424.5,1203.0 Q 466.0,1192.0 509.0,1192.0 L 836.0,1192.0 L 836.0,1011.0" fill="black"/>
</svg>
