<svg xmlns="http://www.w3.org/2000/svg" 
    viewBox="0 0 1245.0 1734.0" 
    width="1245.0" height="1734.0">
  <path d="M 831.0,761.0 Q 727.0,770.0 655.0,806.5 Q 583.0,843.0 538.5,895.0 Q 494.0,947.0 474.0,1009.5 Q 454.0,1072.0 454.0,1133.0 Q 454.0,1202.0 476.5,1260.5 Q 499.0,1319.0 541.0,1362.5 Q 583.0,1406.0 642.5,1430.5 Q 702.0,1455.0 776.0,1455.0 Q 883.0,1455.0 964.0,1411.5 Q 1045.0,1368.0 1099.0,1293.0 Q 1153.0,1218.0 1180.5,1117.5 Q 1208.0,1017.0 1208.0,902.0 Q 1208.0,759.0 1166.5,645.5 Q 1125.0,532.0 1053.0,453.0 Q 981.0,374.0 884.5,332.0 Q 788.0,290.0 678.0,290.0 Q 579.0,290.0 497.5,322.5 Q 416.0,355.0 351.5,413.5 Q 287.0,472.0 238.5,554.5 Q 190.0,637.0 157.0,737.0 Q 125.0,835.0 104.5,950.0 Q 84.0,1065.0 72.0,1190.5 Q 60.0,1316.0 55.0,1447.0 Q 50.0,1578.0 50.0,1708.0 L 258.0,1708.0 Q 258.0,1531.0 268.0,1370.5 Q 278.0,1210.0 300.0,1072.5 Q 322.0,935.0 355.5,823.5 Q 389.0,712.0 437.0,633.5 Q 485.0,555.0 547.0,512.5 Q 609.0,470.0 687.0,470.0 Q 755.0,470.0 810.0,500.0 Q 865.0,530.0 904.0,586.0 Q 943.0,642.0 964.0,723.5 Q 985.0,805.0 985.0,908.0 Q 985.0,1002.0 967.5,1071.0 Q 950.0,1140.0 922.0,1185.5 Q 894.0,1231.0 859.0,1253.0 Q 824.0,1275.0 789.0,1275.0 Q 765.0,1275.0 743.5,1267.5 Q 722.0,1260.0 706.0,1243.0 Q 690.0,1226.0 681.0,1198.0 Q 672.0,1170.0 672.0,1129.0 Q 672.0,1082.0 687.5,1048.0 Q 703.0,1014.0 728.5,991.0 Q 754.0,968.0 786.0,954.5 Q 818.0,941.0 852.0,935.0 L 831.0,761.0" fill="black"/>
</svg>
