<svg xmlns="http://www.w3.org/2000/svg" 
    viewBox="0 0 1245.0 1734.0" 
    width="1245.0" height="1734.0">
  <path d="M 888.0,1611.0 Q 735.0,1401.0 630.5,1250.0 Q 526.0,1099.0 459.0,993.0 Q 392.0,887.0 355.0,819.5 Q 318.0,752.0 300.0,709.0 Q 278.0,659.0 278.0,600.0 Q 278.0,544.0 296.5,504.5 Q 315.0,465.0 345.0,439.5 Q 375.0,414.0 413.0,402.0 Q 451.0,390.0 491.0,390.0 Q 548.0,390.0 595.0,407.5 Q 642.0,425.0 684.0,460.5 Q 726.0,496.0 765.5,548.5 Q 805.0,601.0 848.0,672.0 L 1030.0,555.0 Q 978.0,474.0 922.0,410.0 Q 866.0,346.0 801.5,301.5 Q 737.0,257.0 661.5,233.5 Q 586.0,210.0 493.0,210.0 Q 402.0,210.0 321.5,238.0 Q 241.0,266.0 180.5,317.5 Q 120.0,369.0 85.0,442.5 Q 50.0,516.0 50.0,606.0 Q 50.0,659.0 63.0,708.5 Q 76.0,758.0 98.0,808.0 Q 122.0,861.0 166.0,938.0 Q 210.0,1015.0 282.5,1125.5 Q 355.0,1236.0 459.5,1385.5 Q 564.0,1535.0 707.0,1734.0 L 888.0,1611.0" fill="black"/>
</svg>
