<svg xmlns="http://www.w3.org/2000/svg" 
    viewBox="0 0 1245.0 1734.0" 
    width="1245.0" height="1734.0">
  <path d="M 502.0,1155.0 Q 562.0,1190.0 597.5,1240.0 Q 633.0,1290.0 633.0,1361.0 Q 633.0,1398.0 622.5,1433.0 Q 612.0,1468.0 592.0,1495.0 Q 572.0,1522.0 542.0,1538.0 Q 512.0,1554.0 473.0,1554.0 Q 421.0,1554.0 383.5,1535.5 Q 346.0,1517.0 322.0,1486.0 Q 298.0,1455.0 286.5,1415.5 Q 275.0,1376.0 275.0,1333.0 Q 275.0,1278.0 286.0,1225.5 Q 297.0,1173.0 330.0,1111.0 Q 363.0,1049.0 423.5,971.5 Q 484.0,894.0 582.0,790.0 L 703.0,662.0 Q 770.0,590.0 824.0,529.5 Q 878.0,469.0 915.5,416.5 Q 953.0,364.0 973.0,318.5 Q 993.0,273.0 993.0,232.0 Q 993.0,187.0 968.0,134.5 Q 943.0,82.0 886.0,10.0 L 710.0,118.0 Q 729.0,145.0 747.0,178.5 Q 765.0,212.0 765.0,247.0 Q 765.0,291.0 717.0,348.0 Q 669.0,405.0 585.0,492.0 L 448.0,633.0 Q 330.0,754.0 253.0,850.0 Q 176.0,946.0 131.0,1029.5 Q 86.0,1113.0 68.0,1189.0 Q 50.0,1265.0 50.0,1346.0 Q 50.0,1430.0 79.5,1501.0 Q 109.0,1572.0 163.5,1624.0 Q 218.0,1676.0 295.0,1705.0 Q 372.0,1734.0 468.0,1734.0 Q 559.0,1734.0 632.0,1703.5 Q 705.0,1673.0 756.0,1621.5 Q 807.0,1570.0 834.0,1501.0 Q 861.0,1432.0 861.0,1356.0 Q 861.0,1307.0 847.0,1258.5 Q 833.0,1210.0 802.0,1164.0 Q 771.0,1118.0 723.0,1075.5 Q 675.0,1033.0 607.0,997.0 L 502.0,1155.0" fill="black"/>
</svg>
