
<svg xmlns="http://www.w3.org/2000/svg" viewBox="0 0 251 439">
  <g transform="translate(-69, -142)">
    <path d="M93 145Q94 151 96.0 175.0Q98 199 98 226Q98 284 94.0 327.5Q90 371 83.5 410.0Q77 449 69 492Q74 510 84.0 536.5Q94 563 103 581L114 580Q116 574 119.5 561.5Q123 549 125 536Q133 516 153.5 507.5Q174 499 193 499Q226 499 254.5 514.0Q283 529 299 581L320 577Q307 490 275.5 450.0Q244 410 175 410Q154 410 140 415Q142 404 143.0 381.0Q144 358 144 346Q144 285 140.0 238.0Q136 191 113 142Z" fill="black" />
  </g>
</svg>
