
<svg xmlns="http://www.w3.org/2000/svg" viewBox="0 0 318 439">
  <g transform="translate(-69, -142)">
    <path d="M94 145Q95 153 96.5 177.0Q98 201 98 233Q98 277 95.0 312.5Q92 348 86.0 389.5Q80 431 69 492Q74 510 85.0 537.0Q96 564 103 581L115 580Q117 573 120.0 558.0Q123 543 127 525Q142 499 170 499Q197 499 215.0 513.5Q233 528 246 580L267 578Q266 558 263.0 543.0Q260 528 257 514Q263 505 274.5 502.0Q286 499 295 499Q318 499 336.0 514.0Q354 529 367 581L387 579Q380 497 346.5 457.0Q313 417 267 417Q255 417 242.0 420.5Q229 424 217 433Q204 422 188.5 416.0Q173 410 152 410H142Q145 382 145 356Q145 286 140.0 238.5Q135 191 114 142Z" fill="black" />
  </g>
</svg>
