
<svg xmlns="http://www.w3.org/2000/svg" viewBox="0 0 255 452">
  <g transform="translate(-37, -143)">
    <path d="M292 206Q263 181 227.0 162.0Q191 143 156 143Q129 143 103.0 148.5Q77 154 60.5 168.0Q44 182 44 206Q44 219 49.0 237.5Q54 256 72.0 281.0Q90 306 128 339Q88 353 62.5 368.5Q37 384 37 418Q37 447 55.0 469.5Q73 492 93 511Q114 531 147.0 555.5Q180 580 223 595L231 591Q227 578 212.0 554.0Q197 530 184 517Q147 502 123.0 486.5Q99 471 99 458Q99 453 104.5 448.5Q110 444 129 436L179 417Q210 405 210 388Q210 379 204.0 368.0Q198 357 183 343Q154 317 139 299Q116 273 116 258Q116 232 149 226Q185 219 224.0 216.5Q263 214 286 214Z" fill="black" />
  </g>
</svg>
