
<svg xmlns="http://www.w3.org/2000/svg" viewBox="0 0 325 438">
  <g transform="translate(-26, -143)">
    <path d="M26 496Q29 509 41.5 535.5Q54 562 66 581H78Q88 560 104.0 519.5Q120 479 137.5 431.0Q155 383 170.5 338.5Q186 294 193 265H196Q208 297 221.0 331.5Q234 366 250 410Q263 445 278.5 483.0Q294 521 318 581H330Q334 574 338.5 560.5Q343 547 347.0 534.5Q351 522 351 517Q336 486 316.5 443.0Q297 400 276.5 353.0Q256 306 238 262Q197 159 184 143H166Q165 147 158.5 164.0Q152 181 143 206Q119 273 95.5 331.0Q72 389 54.0 431.0Q36 473 26 492Z" fill="black" />
  </g>
</svg>
