
<svg xmlns="http://www.w3.org/2000/svg" viewBox="0 0 325 438">
  <g transform="translate(-26, -143)">
    <path d="M351 228Q348 216 335.0 189.5Q322 163 309 143H298Q288 164 271.5 205.0Q255 246 237.5 293.5Q220 341 205.0 385.0Q190 429 183 456H181L138 342Q127 313 116.5 286.0Q106 259 92.5 225.5Q79 192 59 143H48Q45 151 39.5 164.0Q34 177 30.0 189.5Q26 202 26 207Q41 239 61.0 282.0Q81 325 101.5 372.5Q122 420 140 463Q158 507 172.0 540.0Q186 573 192 581H209Q213 574 219.5 557.5Q226 541 234 518Q259 453 282.0 395.0Q305 337 323.5 294.5Q342 252 351 232Z" fill="black" />
  </g>
</svg>
