<svg xmlns="http://www.w3.org/2000/svg" 
    viewBox="0 0 1078.0 1486.0" 
    width="1078.0" height="1486.0">
  <path d="M 497.0,1206.0 Q 540.0,1206.0 585.0,1185.5 Q 630.0,1165.0 673.0,1127.5 Q 716.0,1090.0 754.5,1037.0 Q 793.0,984.0 821.5,918.5 Q 850.0,853.0 867.0,777.0 Q 884.0,701.0 884.0,617.0 Q 884.0,519.0 854.5,446.5 Q 825.0,374.0 773.0,325.0 Q 721.0,276.0 650.5,252.0 Q 580.0,228.0 499.0,228.0 Q 406.0,228.0 335.0,255.5 Q 264.0,283.0 215.0,332.5 Q 166.0,382.0 141.0,451.0 Q 116.0,520.0 116.0,602.0 Q 116.0,684.0 131.5,760.5 Q 147.0,837.0 174.0,904.0 Q 201.0,971.0 238.0,1027.0 Q 275.0,1083.0 317.0,1122.5 Q 359.0,1162.0 405.0,1184.0 Q 451.0,1206.0 497.0,1206.0 M 495.0,1110.0 Q 460.0,1110.0 424.5,1090.5 Q 389.0,1071.0 356.0,1037.0 Q 323.0,1003.0 294.5,955.5 Q 266.0,908.0 245.0,852.5 Q 224.0,797.0 212.0,735.0 Q 200.0,673.0 200.0,609.0 Q 200.0,472.0 277.0,398.5 Q 354.0,325.0 496.0,325.0 Q 569.0,325.0 625.5,345.5 Q 682.0,366.0 721.0,403.0 Q 760.0,440.0 780.0,492.5 Q 800.0,545.0 800.0,608.0 Q 800.0,680.0 787.0,745.5 Q 774.0,811.0 751.0,866.5 Q 728.0,922.0 698.0,967.0 Q 668.0,1012.0 634.0,1044.0 Q 600.0,1076.0 564.5,1093.0 Q 529.0,1110.0 495.0,1110.0" fill="black"/>
</svg>
