<svg xmlns="http://www.w3.org/2000/svg" 
    viewBox="0 0 1078.0 1486.0" 
    width="1078.0" height="1486.0">
  <path d="M 96.0,1456.0 Q 215.0,1154.0 315.0,837.0 Q 415.0,520.0 504.0,173.0 L 510.0,173.0 Q 598.0,522.0 697.0,840.0 Q 796.0,1158.0 905.0,1456.0 L 1001.0,1456.0 Q 954.0,1325.0 913.5,1208.5 Q 873.0,1092.0 836.5,981.0 Q 800.0,870.0 765.5,761.0 Q 731.0,652.0 696.5,536.0 Q 662.0,420.0 626.5,293.5 Q 591.0,167.0 552.0,22.0 L 456.0,22.0 Q 417.0,170.0 381.5,297.5 Q 346.0,425.0 312.0,541.0 Q 278.0,657.0 243.5,766.0 Q 209.0,875.0 171.5,985.0 Q 134.0,1095.0 91.5,1210.5 Q 49.0,1326.0 0.0,1456.0 L 96.0,1456.0" fill="black"/>
</svg>
