<svg xmlns="http://www.w3.org/2000/svg" 
    viewBox="0 0 1078.0 1486.0" 
    width="1078.0" height="1486.0">
  <path d="M 622.0,1456.0 Q 661.0,1308.0 696.5,1180.5 Q 732.0,1053.0 766.0,937.0 Q 800.0,821.0 834.5,712.0 Q 869.0,603.0 906.5,493.0 Q 944.0,383.0 986.0,267.5 Q 1028.0,152.0 1078.0,22.0 L 982.0,22.0 Q 863.0,323.0 763.0,640.5 Q 663.0,958.0 574.0,1305.0 L 568.0,1305.0 Q 480.0,956.0 381.0,638.0 Q 282.0,320.0 173.0,22.0 L 77.0,22.0 Q 123.0,153.0 164.0,269.5 Q 205.0,386.0 241.5,497.0 Q 278.0,608.0 312.5,717.0 Q 347.0,826.0 381.5,942.0 Q 416.0,1058.0 451.5,1184.0 Q 487.0,1310.0 526.0,1456.0 L 622.0,1456.0" fill="black"/>
</svg>
