<svg xmlns="http://www.w3.org/2000/svg" 
    viewBox="0 0 1055.0 1401.0" 
    width="1055.0" height="1401.0">
  <path d="M 1055.0,1386.0 Q 1037.0,1235.0 968.5,1151.0 Q 900.0,1067.0 799.0,1067.0 Q 667.0,1067.0 598.0,1184.0 Q 520.0,1067.0 350.0,1067.0 L 430.0,925.0 Q 499.0,803.0 527.0,692.0 Q 555.0,581.0 555.0,438.0 L 555.0,10.0 L 424.0,10.0 L 424.0,438.0 Q 424.0,568.0 394.5,674.0 Q 365.0,780.0 289.0,913.0 L 18.0,1386.0 L 147.0,1386.0 Q 238.0,1253.0 363.0,1253.0 Q 501.0,1253.0 541.0,1386.0 L 651.0,1386.0 Q 669.0,1329.0 710.5,1291.0 Q 752.0,1253.0 795.0,1253.0 Q 896.0,1253.0 922.0,1386.0 L 1055.0,1386.0" fill="black"/>
</svg>
