<svg xmlns="http://www.w3.org/2000/svg" 
    viewBox="0 0 1055.0 1401.0" 
    width="1055.0" height="1401.0">
  <path d="M 1008.0,10.0 L 872.0,10.0 L 780.0,299.0 Q 729.0,460.0 729.0,684.0 L 729.0,696.0 Q 686.0,644.0 597.5,612.5 Q 509.0,581.0 422.0,581.0 Q 268.0,581.0 158.5,686.0 Q 49.0,791.0 49.0,954.0 Q 49.0,1150.0 167.5,1268.0 Q 286.0,1386.0 463.0,1386.0 Q 623.0,1386.0 740.5,1276.0 Q 858.0,1166.0 858.0,999.0 L 858.0,698.0 Q 858.0,474.0 909.0,315.0 L 1008.0,10.0 M 727.0,897.0 L 727.0,973.0 Q 727.0,1062.0 644.0,1130.0 Q 561.0,1198.0 465.0,1198.0 Q 350.0,1198.0 265.0,1129.5 Q 180.0,1061.0 180.0,960.0 Q 180.0,883.0 254.5,826.5 Q 329.0,770.0 420.0,770.0 Q 615.0,770.0 727.0,897.0" fill="black"/>
</svg>
