<svg xmlns="http://www.w3.org/2000/svg" 
    viewBox="0 0 708.0 1045.0" 
    width="708.0" height="1045.0">
  <path d="M 506.0,284.0 Q 506.0,246.0 502.0,189.0 Q 498.0,132.0 485.0,46.0 L 436.0,46.0 Q 431.0,190.0 411.0,303.0 Q 391.0,416.0 357.0,510.0 Q 324.0,598.0 281.0,676.0 Q 238.0,754.0 189.0,811.0 Q 197.0,835.0 207.0,862.5 Q 217.0,890.0 228.0,918.0 Q 239.0,946.0 250.0,973.5 Q 261.0,1001.0 270.0,1024.0 Q 321.0,949.0 361.0,868.0 Q 401.0,787.0 436.0,689.0 Q 471.0,591.0 488.5,489.5 Q 506.0,388.0 506.0,284.0" fill="black"/>
</svg>
