<svg xmlns="http://www.w3.org/2000/svg" 
    viewBox="0 0 708.0 1045.0" 
    width="708.0" height="1045.0">
  <path d="M 708.0,1026.0 Q 708.0,859.0 664.0,777.5 Q 620.0,696.0 526.0,696.0 Q 494.0,696.0 460.0,710.0 Q 426.0,724.0 401.0,754.0 Q 378.0,724.0 358.0,707.5 Q 338.0,691.0 315.0,686.0 Q 301.0,681.0 288.0,680.5 Q 275.0,680.0 263.0,679.0 Q 289.0,601.0 305.0,517.0 Q 321.0,433.0 321.0,348.0 Q 321.0,282.0 315.0,208.0 Q 309.0,134.0 296.0,46.0 L 241.0,46.0 Q 242.0,55.0 242.5,69.0 Q 243.0,83.0 244.0,98.0 Q 245.0,113.0 245.5,127.0 Q 246.0,141.0 246.0,150.0 Q 246.0,241.0 229.0,332.5 Q 212.0,424.0 180.5,511.0 Q 149.0,598.0 103.0,679.5 Q 57.0,761.0 0.0,834.0 L 71.0,1022.0 Q 125.0,941.0 170.0,905.5 Q 215.0,870.0 260.0,870.0 Q 318.0,870.0 362.5,909.0 Q 407.0,948.0 435.0,1028.0 L 456.0,1028.0 Q 465.0,965.0 498.5,934.0 Q 532.0,903.0 571.0,903.0 Q 613.0,903.0 643.5,934.5 Q 674.0,966.0 682.0,1029.0 L 708.0,1026.0" fill="black"/>
</svg>
