<svg xmlns="http://www.w3.org/2000/svg" 
    viewBox="0 0 708.0 1045.0" 
    width="708.0" height="1045.0">
  <path d="M 674.0,38.0 Q 615.0,72.0 560.5,130.0 Q 506.0,188.0 458.0,266.0 Q 438.0,299.0 417.5,343.0 Q 397.0,387.0 378.0,437.0 Q 359.0,487.0 342.0,541.0 Q 325.0,595.0 312.0,649.0 Q 280.0,504.0 247.5,397.5 Q 215.0,291.0 178.5,216.5 Q 142.0,142.0 101.0,96.5 Q 60.0,51.0 13.0,29.0 L 48.0,270.0 Q 107.0,318.0 143.5,390.5 Q 180.0,463.0 210.0,558.0 Q 244.0,662.0 268.5,774.0 Q 293.0,886.0 307.0,998.0 L 353.0,998.0 Q 368.0,892.0 401.0,780.5 Q 434.0,669.0 478.0,569.0 Q 520.0,473.0 574.0,402.5 Q 628.0,332.0 689.0,292.0 L 674.0,38.0" fill="black"/>
</svg>
