
<svg xmlns="http://www.w3.org/2000/svg" viewBox="0 0 884 917">
  <g transform="translate(-101, -231)">
    <path d="M544 912Q462 912 411.0 848.0Q360 784 360 691Q360 596 415.0 531.5Q470 467 544 467Q620 467 672.0 532.0Q724 597 724 691Q724 787 672.5 849.5Q621 912 544 912ZM544 1148Q665 1148 767.5 1086.5Q870 1025 927.5 919.5Q985 814 985 691Q985 567 926.0 460.5Q867 354 765.0 292.5Q663 231 544 231Q426 231 323.0 293.0Q220 355 160.5 461.5Q101 568 101 691Q101 814 159.5 920.0Q218 1026 321.0 1087.0Q424 1148 544 1148Z" fill="black" />
  </g>
</svg>
