
<svg xmlns="http://www.w3.org/2000/svg" viewBox="0 0 802 1722">
  <g transform="translate(-97, 283)">
    <path d="M284 749Q97 895 97 1094Q97 1190 145.5 1269.0Q194 1348 279.5 1393.5Q365 1439 466 1439Q655 1439 762.0 1337.5Q869 1236 869 1059Q869 970 836.5 884.0Q804 798 742.5 709.0Q681 620 538 464Q748 277 823.5 175.5Q899 74 899 -22Q899 -137 776 -283L564 -154Q599 -105 617.0 -73.5Q635 -42 635 -17Q635 21 616.5 52.0Q598 83 553.5 131.0Q509 179 419.5 263.0Q330 347 211 452Q308 537 406.5 659.5Q505 782 556.0 884.0Q607 986 607 1054Q607 1123 570.0 1163.0Q533 1203 473 1203Q415 1203 387.0 1171.5Q359 1140 359 1090Q359 998 437 928Z" fill="black" />
  </g>
</svg>
