
<svg xmlns="http://www.w3.org/2000/svg" viewBox="0 0 1037 1431">
  <g transform="translate(-94, 12)">
    <path d="M1117 1419Q1131 1347 1131 1296Q1131 1197 1095.0 1106.0Q1059 1015 993.5 927.5Q928 840 792 713Q896 611 943.0 519.5Q990 428 990 332Q990 232 942.5 153.0Q895 74 811.5 31.0Q728 -12 629 -12Q456 -12 349.5 85.0Q243 182 243 335Q243 433 287.0 520.5Q331 608 438 711Q299 831 233.0 913.0Q167 995 130.5 1081.0Q94 1167 94 1260Q94 1332 112 1419H383Q356 1318 356 1269Q356 1204 382.0 1143.5Q408 1083 456.0 1023.5Q504 964 613 869Q717 965 766.5 1030.5Q816 1096 843.0 1165.0Q870 1234 870 1310Q870 1344 860 1419ZM494 329Q494 280 525.5 250.0Q557 220 614 220Q668 220 704.0 253.5Q740 287 740 338Q740 396 706.5 448.0Q673 500 619 552Q561 495 527.5 441.0Q494 387 494 329Z" fill="black" />
  </g>
</svg>
