
<svg xmlns="http://www.w3.org/2000/svg" viewBox="0 0 1216 1719">
  <g transform="translate(-141, 300)">
    <path d="M495 1419Q440 1204 422.0 1095.5Q404 987 404 902Q404 736 456.0 647.5Q508 559 603 559Q668 559 717 605Q665 697 665 791Q665 884 715.5 940.0Q766 996 846 996Q939 996 998.0 923.5Q1057 851 1057 748Q1057 659 1006 569Q1086 323 1171.5 153.0Q1257 -17 1357 -150L1155 -300Q1063 -175 969.0 17.0Q875 209 819 383Q722 325 610 325Q472 325 365.0 399.5Q258 474 199.5 606.5Q141 739 141 897Q141 1123 225 1419Z" fill="black" />
  </g>
</svg>
