
<svg xmlns="http://www.w3.org/2000/svg" viewBox="0 0 1145 1711">
  <g transform="translate(-132, 292)">
    <path d="M918 691H641Q559 691 515.5 648.0Q472 605 472 524Q472 425 530.0 362.5Q588 300 680 300L726 302Q703 364 703 422Q703 503 744.5 549.0Q786 595 867 595Q931 595 986.5 558.5Q1042 522 1074.5 459.0Q1107 396 1107 331Q1107 249 1052 190Q1142 25 1277 -149L1080 -292Q1016 -223 950.0 -123.0Q884 -23 835 82Q768 67 695 67Q558 67 446.5 127.5Q335 188 272.0 295.5Q209 403 209 533Q209 605 231.0 666.0Q253 727 308 784Q226 833 179.0 913.5Q132 994 132 1095Q132 1253 248.0 1336.0Q364 1419 619 1419H885V1188H640Q498 1188 446.5 1159.5Q395 1131 395 1073Q395 1003 452.5 963.5Q510 924 598 924H918Z" fill="black" />
  </g>
</svg>
