
<svg xmlns="http://www.w3.org/2000/svg" viewBox="0 0 1189 1426">
  <g transform="translate(-105, 7)">
    <path d="M363 1419Q363 831 457.5 528.5Q552 226 738 226Q831 226 883.0 253.5Q935 281 967.5 334.5Q1000 388 1017.0 468.5Q1034 549 1034 665Q1034 780 987.0 858.5Q940 937 876 937Q830 937 804.0 914.0Q778 891 778 828Q778 751 820.5 705.5Q863 660 933 660L943 661V437L911 435Q797 435 708.0 489.0Q619 543 570.0 635.5Q521 728 521 832Q521 981 615.5 1076.5Q710 1172 857 1172Q1055 1172 1174.5 1018.0Q1294 864 1294 613Q1294 318 1151.5 155.5Q1009 -7 756 -7Q537 -7 385.0 152.5Q233 312 169.0 636.0Q105 960 105 1419Z" fill="black" />
  </g>
</svg>
