<svg xmlns="http://www.w3.org/2000/svg" 
    viewBox="0 0 1136.0 1498.0" 
    width="1136.0" height="1498.0">
  <path d="M 439.0,432.0 Q 395.0,432.0 350.0,454.5 Q 305.0,477.0 268.5,513.0 Q 232.0,549.0 209.0,593.0 Q 186.0,637.0 186.0,681.0 Q 186.0,724.0 209.0,769.5 Q 232.0,815.0 268.5,851.5 Q 305.0,888.0 350.0,911.5 Q 395.0,935.0 439.0,935.0 Q 482.0,935.0 526.5,911.5 Q 571.0,888.0 606.5,851.5 Q 642.0,815.0 664.5,769.5 Q 687.0,724.0 687.0,681.0 Q 687.0,637.0 664.5,593.0 Q 642.0,549.0 606.5,513.0 Q 571.0,477.0 526.5,454.5 Q 482.0,432.0 439.0,432.0" fill="black"/>
</svg>
