<svg xmlns="http://www.w3.org/2000/svg" 
    viewBox="0 0 1136.0 1498.0" 
    width="1136.0" height="1498.0">
  <path d="M 779.0,41.0 Q 710.0,20.0 647.0,10.0 Q 584.0,0.0 516.0,0.0 Q 439.0,0.0 364.0,15.5 Q 289.0,31.0 229.5,65.0 Q 170.0,99.0 133.0,153.0 Q 96.0,207.0 96.0,285.0 Q 96.0,330.0 110.5,380.5 Q 125.0,431.0 156.5,488.0 Q 188.0,545.0 239.0,608.5 Q 290.0,672.0 362.0,744.0 Q 292.0,777.0 243.5,809.5 Q 195.0,842.0 165.0,877.0 Q 135.0,912.0 121.5,952.0 Q 108.0,992.0 108.0,1041.0 Q 108.0,1107.0 134.0,1169.0 Q 160.0,1231.0 220.5,1288.5 Q 281.0,1346.0 380.0,1398.5 Q 479.0,1451.0 626.0,1498.0 L 626.0,1241.0 Q 512.0,1206.0 444.0,1177.5 Q 376.0,1149.0 341.0,1126.5 Q 306.0,1104.0 295.5,1087.0 Q 285.0,1070.0 285.0,1059.0 Q 285.0,1038.0 313.0,1013.5 Q 341.0,989.0 391.5,961.0 Q 442.0,933.0 511.0,902.0 Q 580.0,871.0 663.0,837.0 L 663.0,789.0 Q 578.0,717.0 518.0,658.5 Q 458.0,600.0 417.5,554.0 Q 377.0,508.0 353.0,473.0 Q 329.0,438.0 316.5,412.0 Q 304.0,386.0 300.5,369.5 Q 297.0,353.0 297.0,343.0 Q 297.0,312.0 318.5,294.0 Q 340.0,276.0 372.5,267.0 Q 405.0,258.0 443.5,255.5 Q 482.0,253.0 516.0,253.0 Q 555.0,253.0 587.5,255.0 Q 620.0,257.0 650.5,260.5 Q 681.0,264.0 712.0,270.0 Q 743.0,276.0 779.0,285.0 L 779.0,41.0" fill="black"/>
</svg>
