<svg xmlns="http://www.w3.org/2000/svg" 
    viewBox="0 0 1136.0 1498.0" 
    width="1136.0" height="1498.0">
  <path d="M 766.0,24.0 Q 737.0,145.0 716.0,239.5 Q 695.0,334.0 680.0,414.0 Q 665.0,494.0 655.0,565.5 Q 645.0,637.0 638.0,711.0 Q 631.0,785.0 627.0,867.5 Q 623.0,950.0 619.0,1053.0 Q 617.0,1090.0 616.5,1128.5 Q 616.0,1167.0 614.0,1212.0 L 12.0,1212.0 L 12.0,1458.0 L 807.0,1458.0 L 813.0,1260.0 Q 817.0,1120.0 821.0,1012.5 Q 825.0,905.0 831.5,813.5 Q 838.0,722.0 848.5,639.0 Q 859.0,556.0 875.5,465.5 Q 892.0,375.0 916.0,268.5 Q 940.0,162.0 974.0,24.0 L 766.0,24.0" fill="black"/>
</svg>
