<svg xmlns="http://www.w3.org/2000/svg" 
    viewBox="0 0 1136.0 1498.0" 
    width="1136.0" height="1498.0">
  <path d="M 686.0,1466.0 Q 738.0,1274.0 790.0,1093.0 Q 842.0,912.0 897.0,735.0 Q 952.0,558.0 1011.0,381.5 Q 1070.0,205.0 1136.0,24.0 L 925.0,24.0 Q 832.0,278.0 751.5,539.0 Q 671.0,800.0 601.0,1081.0 L 595.0,1081.0 Q 524.0,801.0 443.5,539.0 Q 363.0,277.0 271.0,24.0 L 60.0,24.0 Q 129.0,212.0 190.0,392.0 Q 251.0,572.0 306.0,749.5 Q 361.0,927.0 411.5,1105.0 Q 462.0,1283.0 511.0,1466.0 L 686.0,1466.0" fill="black"/>
</svg>
