<svg xmlns="http://www.w3.org/2000/svg" 
    viewBox="0 0 905.0 1268.0" 
    width="905.0" height="1268.0">
  <path d="M 628.0,294.0 Q 628.0,268.0 625.5,234.0 Q 623.0,200.0 618.5,163.5 Q 614.0,127.0 607.5,90.0 Q 601.0,53.0 593.0,21.0 Q 590.0,5.0 559.0,5.0 Q 527.0,5.0 527.0,21.0 Q 527.0,194.0 508.0,336.0 Q 489.0,478.0 461.0,590.5 Q 433.0,703.0 399.5,787.0 Q 366.0,871.0 338.0,929.5 Q 310.0,988.0 291.0,1022.0 Q 272.0,1056.0 272.0,1067.0 Q 272.0,1094.0 277.5,1126.0 Q 283.0,1158.0 292.0,1185.5 Q 301.0,1213.0 311.5,1232.0 Q 322.0,1251.0 333.0,1251.0 Q 341.0,1251.0 356.0,1230.0 Q 489.0,1019.0 558.5,789.0 Q 628.0,559.0 628.0,294.0" fill="black"/>
</svg>
