<svg xmlns="http://www.w3.org/2000/svg" 
    viewBox="0 0 905.0 1268.0" 
    width="905.0" height="1268.0">
  <path d="M 553.0,655.0 Q 465.0,605.0 334.0,605.0 Q 282.0,605.0 238.5,620.5 Q 195.0,636.0 164.0,667.0 Q 133.0,698.0 116.0,744.0 Q 99.0,790.0 99.0,850.0 Q 99.0,923.0 125.5,995.0 Q 152.0,1067.0 194.0,1124.0 Q 236.0,1181.0 289.0,1216.0 Q 342.0,1251.0 395.0,1251.0 Q 455.0,1251.0 504.0,1217.5 Q 553.0,1184.0 589.0,1123.0 Q 625.0,1062.0 647.5,976.0 Q 670.0,890.0 677.0,784.0 Q 687.0,632.0 707.5,501.0 Q 728.0,370.0 748.5,271.0 Q 769.0,172.0 784.0,110.5 Q 799.0,49.0 799.0,35.0 Q 799.0,20.0 785.5,10.0 Q 772.0,0.0 734.0,0.0 Q 678.0,0.0 671.0,28.0 Q 666.0,36.0 651.0,91.5 Q 636.0,147.0 617.0,233.5 Q 598.0,320.0 580.0,429.5 Q 562.0,539.0 553.0,655.0 M 357.0,763.0 Q 408.0,763.0 452.0,774.5 Q 496.0,786.0 537.0,814.0 Q 529.0,870.0 514.5,919.5 Q 500.0,969.0 477.5,1005.5 Q 455.0,1042.0 424.5,1063.5 Q 394.0,1085.0 355.0,1085.0 Q 323.0,1085.0 294.0,1068.0 Q 265.0,1051.0 243.0,1025.0 Q 221.0,999.0 208.0,969.0 Q 195.0,939.0 195.0,912.0 Q 195.0,883.0 208.0,856.0 Q 221.0,829.0 243.0,808.5 Q 265.0,788.0 294.5,775.5 Q 324.0,763.0 357.0,763.0" fill="black"/>
</svg>
