<svg xmlns="http://www.w3.org/2000/svg" 
    viewBox="0 0 818.0 1189.0" 
    width="818.0" height="1189.0">
  <path d="M 818.0,1032.0 Q 818.0,676.0 614.0,676.0 Q 571.0,676.0 544.5,690.0 Q 518.0,704.0 482.0,748.0 Q 445.0,696.0 418.0,678.0 Q 391.0,660.0 332.0,648.0 Q 358.0,555.0 368.0,493.5 Q 378.0,432.0 378.0,360.0 Q 378.0,273.0 366.0,201.0 Q 354.0,129.0 318.0,0.0 L 264.0,0.0 Q 264.0,153.0 257.0,229.5 Q 250.0,306.0 224.0,402.0 Q 193.0,534.0 149.5,624.5 Q 106.0,715.0 2.0,862.0 L 102.0,1168.0 Q 162.0,1059.0 218.0,1012.5 Q 274.0,966.0 344.0,966.0 Q 417.0,966.0 458.5,1019.5 Q 500.0,1073.0 500.0,1168.0 L 548.0,1168.0 Q 557.0,1086.0 581.5,1052.0 Q 606.0,1018.0 656.0,1018.0 Q 750.0,1018.0 768.0,1168.0 L 810.0,1168.0 Q 813.0,1141.0 815.5,1102.0 Q 818.0,1063.0 818.0,1032.0" fill="black"/>
</svg>
