<svg xmlns="http://www.w3.org/2000/svg"
     width="160" height="200"
     viewBox="0 0 160 200">
  <g transform="translate(80.0,100.0) scale(0.11389521640091116, -0.11389521640091116) translate(-719.5, -578.0)">
    <path d="M804 -300Q558 54 412 391Q340 402 282.0 443.0Q224 484 191.5 544.0Q159 604 159 664Q159 741 211.0 788.0Q263 835 340 835Q413 835 467.0 790.0Q521 745 564 654Q646 693 690.0 760.5Q734 828 734 917Q734 1043 658.0 1124.5Q582 1206 461 1206Q351 1206 159 1113L82 1346Q300 1439 466 1439Q616 1439 737.5 1371.5Q859 1304 928.5 1183.5Q998 1063 998 924Q998 763 907.5 635.0Q817 507 657 437Q762 227 838.0 102.5Q914 -22 1009 -150Z" fill="black"/>
  </g>
</svg>
