<svg xmlns="http://www.w3.org/2000/svg"
     width="160" height="200"
     viewBox="0 0 160 200">
  <g transform="translate(80.0,100.0) scale(0.11389521640091116, -0.11389521640091116) translate(-719.5, -578.0)">
    <path d="M738 -295Q633 -135 580.0 -63.5Q527 8 467 74Q331 84 251.5 147.0Q172 210 172 299Q172 370 223.0 417.5Q274 465 351 465Q416 465 481.5 427.0Q547 389 604 318Q654 340 681.0 386.5Q708 433 708 497Q708 590 653.0 640.5Q598 691 495 691H203V924H440Q531 924 581.5 960.5Q632 997 632 1060Q632 1121 584.0 1154.5Q536 1188 438 1188H101V1419H433Q649 1419 771.5 1323.0Q894 1227 894 1060Q894 926 796 826Q879 770 925.0 679.0Q971 588 971 490Q971 369 908.0 270.5Q845 172 738 122Q856 -18 951 -158Z" fill="black"/>
  </g>
</svg>
