<svg xmlns="http://www.w3.org/2000/svg"
     width="160" height="200"
     viewBox="0 0 160 200">
  <g transform="translate(80.0,100.0) scale(0.11389521640091116, -0.11389521640091116) translate(-719.5, -578.0)">
    <path d="M982 1310Q473 616 387 415Q368 370 368 321Q368 239 422.0 190.5Q476 142 561 142Q646 142 727.0 211.5Q808 281 919 463L1138 326Q998 109 858.5 10.0Q719 -89 563 -89Q438 -89 334.5 -36.0Q231 17 172.5 112.5Q114 208 114 326Q114 443 177.5 571.0Q241 699 395.0 927.5Q549 1156 767 1456Z" fill="black"/>
  </g>
</svg>
