
<svg xmlns="http://www.w3.org/2000/svg" viewBox="0 0 434 590">
  <g transform="translate(-41, 11)">
    <path d="M475 460Q475 422 460.0 397.0Q445 372 422.0 360.5Q399 349 374 349Q347 349 323.0 358.0Q299 367 284 383Q274 365 258.0 355.5Q242 346 222 346Q193 346 170 361Q181 255 188.5 153.5Q196 52 196 9L120 -11L108 -8Q97 122 79.0 270.5Q61 419 41 518L127 579L139 577Q150 513 155 480Q161 460 174.5 450.5Q188 441 205 441Q218 441 227.5 448.0Q237 455 243.5 474.5Q250 494 255 530L318 522Q316 512 314.0 498.5Q312 485 312 475Q312 461 324.0 452.5Q336 444 358 444Q379 444 388.0 453.0Q397 462 397 479Q397 502 379 554L444 579Q459 547 467.0 516.0Q475 485 475 460Z" fill="black" />
  </g>
</svg>
