
<svg xmlns="http://www.w3.org/2000/svg" viewBox="0 0 344 582">
  <g transform="translate(-101, 4)">
    <path d="M445 101 414 13Q388 6 352.5 1.0Q317 -4 277 -4Q190 -4 145.5 26.5Q101 57 101 113Q101 153 124.5 192.5Q148 232 204 273Q157 290 129.5 313.0Q102 336 102 370Q102 410 131.5 452.5Q161 495 220.5 529.0Q280 563 365 578L372 574L353 472Q299 462 264.0 447.0Q229 432 213.0 416.0Q197 400 197 384Q197 372 213.0 361.5Q229 351 263.0 345.0Q297 339 348 339L354 330L334 254Q295 239 264.0 219.0Q233 199 215.5 178.5Q198 158 198 142Q198 95 311 95Q334 95 369.5 99.0Q405 103 410 104L441 107Z" fill="black" />
  </g>
</svg>
