
<svg xmlns="http://www.w3.org/2000/svg" viewBox="0 0 374 591">
  <g transform="translate(-77, 15)">
    <path d="M451 15 364 -15 355 -12Q336 101 320 254Q278 243 241 243Q168 243 122.5 276.5Q77 310 77 375Q77 424 101.5 471.0Q126 518 166.0 547.0Q206 576 250 576Q327 576 363.0 507.5Q399 439 408 327Q413 256 426.0 162.5Q439 69 451 15ZM254 338Q279 338 310 345Q301 415 285.0 447.5Q269 480 239 480Q220 480 204.0 467.0Q188 454 178.5 433.5Q169 413 169 391Q169 362 191.5 350.0Q214 338 254 338Z" fill="black" />
  </g>
</svg>
