
<svg xmlns="http://www.w3.org/2000/svg" viewBox="0 0 882 1137">
  <g transform="translate(-67, -145)">
    <path d="M496 145Q400 145 321.0 172.0Q242 199 185.5 252.5Q129 306 98.0 386.0Q67 466 67 571Q67 682 87.5 778.5Q108 875 142.0 954.0Q176 1033 220.5 1094.0Q265 1155 313.0 1197.0Q361 1239 409.5 1260.5Q458 1282 500 1282Q570 1282 648.5 1239.5Q727 1197 794.0 1112.5Q861 1028 905.0 902.0Q949 776 949 608Q949 495 915.0 409.0Q881 323 820.5 264.0Q760 205 677.0 175.0Q594 145 496 145ZM499 1015Q465 1015 427.0 983.5Q389 952 356.5 896.0Q324 840 302.5 762.5Q281 685 281 594Q281 540 299.0 506.0Q317 472 347.0 452.5Q377 433 416.5 426.0Q456 419 500 419Q570 419 615.5 434.5Q661 450 687.5 474.5Q714 499 724.5 530.0Q735 561 735 592Q735 688 711.0 766.0Q687 844 651.0 899.5Q615 955 574.0 985.0Q533 1015 499 1015Z" fill="black" />
  </g>
</svg>
