<svg xmlns="http://www.w3.org/2000/svg" 
    viewBox="0 0 1275.0 1756.0" 
    width="1275.0" height="1756.0">
  <path d="M 462.0,1212.0 Q 380.0,1212.0 329.0,1148.0 Q 278.0,1084.0 278.0,991.0 Q 278.0,896.0 333.0,831.5 Q 388.0,767.0 462.0,767.0 Q 538.0,767.0 590.0,832.0 Q 642.0,897.0 642.0,991.0 Q 642.0,1087.0 590.5,1149.5 Q 539.0,1212.0 462.0,1212.0 M 462.0,1448.0 Q 583.0,1448.0 685.5,1386.5 Q 788.0,1325.0 845.5,1219.5 Q 903.0,1114.0 903.0,991.0 Q 903.0,867.0 844.0,760.5 Q 785.0,654.0 683.0,592.5 Q 581.0,531.0 462.0,531.0 Q 344.0,531.0 241.0,593.0 Q 138.0,655.0 78.5,761.5 Q 19.0,868.0 19.0,991.0 Q 19.0,1114.0 77.5,1220.0 Q 136.0,1326.0 239.0,1387.0 Q 342.0,1448.0 462.0,1448.0" fill="black"/>
</svg>
