<svg xmlns="http://www.w3.org/2000/svg" 
    viewBox="0 0 1275.0 1756.0" 
    width="1275.0" height="1756.0">
  <path d="M 202.0,1049.0 Q 15.0,1195.0 15.0,1394.0 Q 15.0,1490.0 63.5,1569.0 Q 112.0,1648.0 197.5,1693.5 Q 283.0,1739.0 384.0,1739.0 Q 573.0,1739.0 680.0,1637.5 Q 787.0,1536.0 787.0,1359.0 Q 787.0,1270.0 754.5,1184.0 Q 722.0,1098.0 660.5,1009.0 Q 599.0,920.0 456.0,764.0 Q 666.0,577.0 741.5,475.5 Q 817.0,374.0 817.0,278.0 Q 817.0,163.0 694.0,17.0 L 482.0,146.0 Q 517.0,195.0 535.0,226.5 Q 553.0,258.0 553.0,283.0 Q 553.0,321.0 534.5,352.0 Q 516.0,383.0 471.5,431.0 Q 427.0,479.0 337.5,563.0 Q 248.0,647.0 129.0,752.0 Q 226.0,837.0 324.5,959.5 Q 423.0,1082.0 474.0,1184.0 Q 525.0,1286.0 525.0,1354.0 Q 525.0,1423.0 488.0,1463.0 Q 451.0,1503.0 391.0,1503.0 Q 333.0,1503.0 305.0,1471.5 Q 277.0,1440.0 277.0,1390.0 Q 277.0,1298.0 355.0,1228.0 L 202.0,1049.0" fill="black"/>
</svg>
