<svg xmlns="http://www.w3.org/2000/svg" 
    viewBox="0 0 1275.0 1756.0" 
    width="1275.0" height="1756.0">
  <path d="M 722.0,0.0 Q 476.0,354.0 330.0,691.0 Q 258.0,702.0 200.0,743.0 Q 142.0,784.0 109.5,844.0 Q 77.0,904.0 77.0,964.0 Q 77.0,1041.0 129.0,1088.0 Q 181.0,1135.0 258.0,1135.0 Q 331.0,1135.0 385.0,1090.0 Q 439.0,1045.0 482.0,954.0 Q 564.0,993.0 608.0,1060.5 Q 652.0,1128.0 652.0,1217.0 Q 652.0,1343.0 576.0,1424.5 Q 500.0,1506.0 379.0,1506.0 Q 269.0,1506.0 77.0,1413.0 L 0.0,1646.0 Q 218.0,1739.0 384.0,1739.0 Q 534.0,1739.0 655.5,1671.5 Q 777.0,1604.0 846.5,1483.5 Q 916.0,1363.0 916.0,1224.0 Q 916.0,1063.0 825.5,935.0 Q 735.0,807.0 575.0,737.0 Q 680.0,527.0 756.0,402.5 Q 832.0,278.0 927.0,150.0 L 722.0,0.0" fill="black"/>
</svg>
