<svg xmlns="http://www.w3.org/2000/svg" 
    viewBox="0 0 1275.0 1756.0" 
    width="1275.0" height="1756.0">
  <path d="M 656.0,5.0 Q 551.0,165.0 498.0,236.5 Q 445.0,308.0 385.0,374.0 Q 249.0,384.0 169.5,447.0 Q 90.0,510.0 90.0,599.0 Q 90.0,670.0 141.0,717.5 Q 192.0,765.0 269.0,765.0 Q 334.0,765.0 399.5,727.0 Q 465.0,689.0 522.0,618.0 Q 572.0,640.0 599.0,686.5 Q 626.0,733.0 626.0,797.0 Q 626.0,890.0 571.0,940.5 Q 516.0,991.0 413.0,991.0 L 121.0,991.0 L 121.0,1224.0 L 358.0,1224.0 Q 449.0,1224.0 499.5,1260.5 Q 550.0,1297.0 550.0,1360.0 Q 550.0,1421.0 502.0,1454.5 Q 454.0,1488.0 356.0,1488.0 L 19.0,1488.0 L 19.0,1719.0 L 351.0,1719.0 Q 567.0,1719.0 689.5,1623.0 Q 812.0,1527.0 812.0,1360.0 Q 812.0,1226.0 714.0,1126.0 Q 797.0,1070.0 843.0,979.0 Q 889.0,888.0 889.0,790.0 Q 889.0,669.0 826.0,570.5 Q 763.0,472.0 656.0,422.0 Q 774.0,282.0 869.0,142.0 L 656.0,5.0" fill="black"/>
</svg>
