<svg xmlns="http://www.w3.org/2000/svg" 
    viewBox="0 0 1275.0 1756.0" 
    width="1275.0" height="1756.0">
  <path d="M 1035.0,1719.0 Q 1049.0,1647.0 1049.0,1596.0 Q 1049.0,1497.0 1013.0,1406.0 Q 977.0,1315.0 911.5,1227.5 Q 846.0,1140.0 710.0,1013.0 Q 814.0,911.0 861.0,819.5 Q 908.0,728.0 908.0,632.0 Q 908.0,532.0 860.5,453.0 Q 813.0,374.0 729.5,331.0 Q 646.0,288.0 547.0,288.0 Q 374.0,288.0 267.5,385.0 Q 161.0,482.0 161.0,635.0 Q 161.0,733.0 205.0,820.5 Q 249.0,908.0 356.0,1011.0 Q 217.0,1131.0 151.0,1213.0 Q 85.0,1295.0 48.5,1381.0 Q 12.0,1467.0 12.0,1560.0 Q 12.0,1632.0 30.0,1719.0 L 301.0,1719.0 Q 274.0,1618.0 274.0,1569.0 Q 274.0,1504.0 300.0,1443.5 Q 326.0,1383.0 374.0,1323.5 Q 422.0,1264.0 531.0,1169.0 Q 635.0,1265.0 684.5,1330.5 Q 734.0,1396.0 761.0,1465.0 Q 788.0,1534.0 788.0,1610.0 Q 788.0,1644.0 778.0,1719.0 L 1035.0,1719.0 M 412.0,629.0 Q 412.0,580.0 443.5,550.0 Q 475.0,520.0 532.0,520.0 Q 586.0,520.0 622.0,553.5 Q 658.0,587.0 658.0,638.0 Q 658.0,696.0 624.5,748.0 Q 591.0,800.0 537.0,852.0 Q 479.0,795.0 445.5,741.0 Q 412.0,687.0 412.0,629.0" fill="black"/>
</svg>
