<svg xmlns="http://www.w3.org/2000/svg" 
    viewBox="0 0 1275.0 1756.0" 
    width="1275.0" height="1756.0">
  <path d="M 413.0,1719.0 Q 358.0,1504.0 340.0,1395.5 Q 322.0,1287.0 322.0,1202.0 Q 322.0,1036.0 374.0,947.5 Q 426.0,859.0 521.0,859.0 Q 586.0,859.0 635.0,905.0 Q 583.0,997.0 583.0,1091.0 Q 583.0,1184.0 633.5,1240.0 Q 684.0,1296.0 764.0,1296.0 Q 857.0,1296.0 916.0,1223.5 Q 975.0,1151.0 975.0,1048.0 Q 975.0,959.0 924.0,869.0 Q 1004.0,623.0 1089.5,453.0 Q 1175.0,283.0 1275.0,150.0 L 1073.0,0.0 Q 981.0,125.0 887.0,317.0 Q 793.0,509.0 737.0,683.0 Q 640.0,625.0 528.0,625.0 Q 390.0,625.0 283.0,699.5 Q 176.0,774.0 117.5,906.5 Q 59.0,1039.0 59.0,1197.0 Q 59.0,1423.0 143.0,1719.0 L 413.0,1719.0" fill="black"/>
</svg>
