<svg xmlns="http://www.w3.org/2000/svg" 
    viewBox="0 0 1275.0 1756.0" 
    width="1275.0" height="1756.0">
  <path d="M 836.0,991.0 L 559.0,991.0 Q 477.0,991.0 433.5,948.0 Q 390.0,905.0 390.0,824.0 Q 390.0,725.0 448.0,662.5 Q 506.0,600.0 598.0,600.0 L 644.0,602.0 Q 621.0,664.0 621.0,722.0 Q 621.0,803.0 662.5,849.0 Q 704.0,895.0 785.0,895.0 Q 849.0,895.0 904.5,858.5 Q 960.0,822.0 992.5,759.0 Q 1025.0,696.0 1025.0,631.0 Q 1025.0,549.0 970.0,490.0 Q 1060.0,325.0 1195.0,151.0 L 998.0,8.0 Q 934.0,77.0 868.0,177.0 Q 802.0,277.0 753.0,382.0 Q 686.0,367.0 613.0,367.0 Q 476.0,367.0 364.5,427.5 Q 253.0,488.0 190.0,595.5 Q 127.0,703.0 127.0,833.0 Q 127.0,905.0 149.0,966.0 Q 171.0,1027.0 226.0,1084.0 Q 144.0,1133.0 97.0,1213.5 Q 50.0,1294.0 50.0,1395.0 Q 50.0,1553.0 166.0,1636.0 Q 282.0,1719.0 537.0,1719.0 L 803.0,1719.0 L 803.0,1488.0 L 558.0,1488.0 Q 416.0,1488.0 364.5,1459.5 Q 313.0,1431.0 313.0,1373.0 Q 313.0,1303.0 370.5,1263.5 Q 428.0,1224.0 516.0,1224.0 L 836.0,1224.0 L 836.0,991.0" fill="black"/>
</svg>
