<svg xmlns="http://www.w3.org/2000/svg" 
    viewBox="0 0 1275.0 1756.0" 
    width="1275.0" height="1756.0">
  <path d="M 281.0,1719.0 Q 281.0,1131.0 375.5,828.5 Q 470.0,526.0 656.0,526.0 Q 749.0,526.0 801.0,553.5 Q 853.0,581.0 885.5,634.5 Q 918.0,688.0 935.0,768.5 Q 952.0,849.0 952.0,965.0 Q 952.0,1080.0 905.0,1158.5 Q 858.0,1237.0 794.0,1237.0 Q 748.0,1237.0 722.0,1214.0 Q 696.0,1191.0 696.0,1128.0 Q 696.0,1051.0 738.5,1005.5 Q 781.0,960.0 851.0,960.0 L 861.0,961.0 L 861.0,737.0 L 829.0,735.0 Q 715.0,735.0 626.0,789.0 Q 537.0,843.0 488.0,935.5 Q 439.0,1028.0 439.0,1132.0 Q 439.0,1281.0 533.5,1376.5 Q 628.0,1472.0 775.0,1472.0 Q 973.0,1472.0 1092.5,1318.0 Q 1212.0,1164.0 1212.0,913.0 Q 1212.0,618.0 1069.5,455.5 Q 927.0,293.0 674.0,293.0 Q 455.0,293.0 303.0,452.5 Q 151.0,612.0 87.0,936.0 Q 23.0,1260.0 23.0,1719.0 L 281.0,1719.0" fill="black"/>
</svg>
