<svg xmlns="http://www.w3.org/2000/svg" 
    viewBox="0 0 1275.0 1756.0" 
    width="1275.0" height="1756.0">
  <path d="M 900.0,1610.0 Q 391.0,916.0 305.0,715.0 Q 286.0,670.0 286.0,621.0 Q 286.0,539.0 340.0,490.5 Q 394.0,442.0 479.0,442.0 Q 564.0,442.0 645.0,511.5 Q 726.0,581.0 837.0,763.0 L 1056.0,626.0 Q 916.0,409.0 776.5,310.0 Q 637.0,211.0 481.0,211.0 Q 356.0,211.0 252.5,264.0 Q 149.0,317.0 90.5,412.5 Q 32.0,508.0 32.0,626.0 Q 32.0,743.0 95.5,871.0 Q 159.0,999.0 313.0,1227.5 Q 467.0,1456.0 685.0,1756.0 L 900.0,1610.0" fill="black"/>
</svg>
