<svg xmlns="http://www.w3.org/2000/svg" 
    viewBox="0 0 1275.0 1756.0" 
    width="1275.0" height="1756.0">
  <path d="M 469.0,1179.0 Q 582.0,1250.0 582.0,1348.0 Q 582.0,1412.0 537.5,1457.5 Q 493.0,1503.0 429.0,1503.0 Q 361.0,1503.0 316.0,1452.5 Q 271.0,1402.0 271.0,1332.0 Q 271.0,1276.0 292.0,1219.0 Q 313.0,1162.0 350.0,1119.0 Q 708.0,695.0 775.0,622.0 Q 894.0,491.0 939.0,418.5 Q 984.0,346.0 984.0,282.0 Q 984.0,234.0 955.5,166.0 Q 927.0,98.0 861.0,18.0 L 649.0,145.0 Q 691.0,206.0 704.5,234.0 Q 718.0,262.0 718.0,280.0 Q 718.0,310.0 683.5,359.0 Q 649.0,408.0 559.0,507.0 L 225.0,877.0 Q 106.0,1009.0 58.5,1112.0 Q 11.0,1215.0 11.0,1345.0 Q 11.0,1521.0 122.0,1630.0 Q 233.0,1739.0 422.0,1739.0 Q 555.0,1739.0 650.0,1690.5 Q 745.0,1642.0 795.5,1551.5 Q 846.0,1461.0 846.0,1343.0 Q 846.0,1223.0 773.5,1124.5 Q 701.0,1026.0 566.0,960.0 L 469.0,1179.0" fill="black"/>
</svg>
