
<svg xmlns="http://www.w3.org/2000/svg" viewBox="0 0 662 1250">
  <g transform="translate(-195, -102)">
    <path d="M533 1333Q553 1347 578 1352Q593 1339 595.5 1323.0Q598 1307 598 1285Q598 1268 597.0 1256.5Q596 1245 592.0 1237.0Q588 1229 581.5 1222.5Q575 1216 564 1210Q507 1171 461.0 1136.5Q415 1102 383.0 1074.0Q351 1046 333.5 1026.0Q316 1006 316 995Q316 983 336.0 969.5Q356 956 384.5 942.5Q413 929 444.5 916.0Q476 903 499 892Q521 882 537.5 872.5Q554 863 564.5 851.0Q575 839 580.0 822.5Q585 806 585 782Q585 744 576.5 719.0Q568 694 545 668Q514 631 479.0 592.0Q444 553 414.5 518.5Q385 484 366.0 456.5Q347 429 347 416Q347 398 369.5 380.0Q392 362 429.5 344.5Q467 327 516.0 311.0Q565 295 619.0 281.5Q673 268 728.5 258.0Q784 248 834 243Q857 240 857 216Q857 191 852.0 181.5Q847 172 830 165Q766 138 707.0 120.0Q648 102 609 102Q580 102 539.0 110.0Q498 118 456.0 130.0Q414 142 375.5 156.5Q337 171 313 183Q261 209 237.5 241.5Q214 274 214 316Q214 349 227.0 385.5Q240 422 261.5 459.0Q283 496 310.0 533.0Q337 570 364.5 604.0Q392 638 417.5 668.0Q443 698 462 721Q413 742 365.0 762.0Q317 782 279.5 804.5Q242 827 218.5 854.0Q195 881 195 916Q195 971 226.0 1027.0Q257 1083 306.0 1137.0Q355 1191 415.0 1240.5Q475 1290 533 1333Z" fill="black" />
  </g>
</svg>
