
<svg xmlns="http://www.w3.org/2000/svg" viewBox="0 0 889 1199">
  <g transform="translate(-76, -102)">
    <path d="M518 1301Q556 1301 577.5 1289.5Q599 1278 606 1244L620 1177Q665 950 718.0 776.0Q771 602 820.0 477.0Q869 352 906.0 274.5Q943 197 956 163Q959 154 962.0 145.0Q965 136 965 127Q965 116 948.5 109.0Q932 102 894 102Q853 102 835.0 107.0Q817 112 810 124Q803 135 785.5 172.5Q768 210 743.0 269.5Q718 329 688.5 408.5Q659 488 628.0 581.5Q597 675 567.0 781.0Q537 887 511 1000Q470 824 420.0 671.0Q370 518 325.0 401.5Q280 285 247.0 212.0Q214 139 205 124Q196 110 179.5 106.0Q163 102 131 102Q103 102 89.5 110.0Q76 118 76 127Q76 136 80.0 145.0Q84 154 86 161Q98 192 135.5 269.0Q173 346 221.5 472.0Q270 598 324.0 773.5Q378 949 423 1177L437 1243Q444 1278 462.5 1289.5Q481 1301 518 1301Z" fill="black" />
  </g>
</svg>
