
<svg xmlns="http://www.w3.org/2000/svg" viewBox="0 0 1093 1591">
  <g transform="translate(-113, 0)">
    <path d="M1206 0H422Q297 0 205.0 80.0Q113 160 113 256Q113 338 151.5 402.0Q190 466 258 526L539 772Q540 774 544.5 779.0Q549 784 549 788Q549 791 544.5 794.5Q540 798 537 801L348 948Q267 1013 234.0 1068.5Q201 1124 201 1180Q201 1281 268.5 1343.5Q336 1406 459 1440L1024 1591V1288L545 1167Q534 1165 518.0 1158.0Q502 1151 502 1141Q502 1130 510.5 1121.5Q519 1113 528 1106L739 946Q793 906 831.5 872.0Q870 838 870 809Q870 786 849.5 760.0Q829 734 803 713L475 408Q468 401 458.5 391.0Q449 381 449 375Q449 367 457.0 363.5Q465 360 487 360H1206Z" fill="black" />
  </g>
</svg>
