
<svg xmlns="http://www.w3.org/2000/svg" viewBox="0 0 1159 1286">
  <g transform="translate(-72, 8)">
    <path d="M1045 1013Q1127 898 1179.0 760.0Q1231 622 1231 496Q1231 268 1086.5 130.0Q942 -8 649 -8Q372 -8 222.0 115.5Q72 239 72 494Q72 620 121.0 758.0Q170 896 250 1012Q327 1124 435.0 1201.0Q543 1278 649 1278Q752 1278 856.5 1203.5Q961 1129 1045 1013ZM911 496Q911 636 821.0 786.0Q731 936 649 936Q567 936 479.0 781.0Q391 626 391 496Q391 410 453.5 382.0Q516 354 647 354Q772 354 841.5 382.0Q911 410 911 496Z" fill="black" />
  </g>
</svg>
