<svg xmlns="http://www.w3.org/2000/svg" 
    viewBox="0 0 428.0 568.0" 
    width="428.0" height="568.0">
  <path d="M 404.0,558.0 Q 399.0,469.0 358.5,432.0 Q 318.0,395.0 253.0,395.0 Q 196.0,395.0 140.0,419.0 Q 156.0,305.0 167.0,182.5 Q 178.0,60.0 178.0,10.0 L 144.0,0.0 L 137.0,2.0 Q 126.0,132.0 107.5,284.5 Q 89.0,437.0 69.0,539.0 L 110.0,568.0 L 117.0,566.0 Q 130.0,492.0 133.0,473.0 Q 157.0,459.0 189.0,451.0 Q 221.0,443.0 252.0,443.0 Q 285.0,443.0 307.5,452.0 Q 330.0,461.0 345.5,487.0 Q 361.0,513.0 366.0,562.0 L 404.0,558.0" fill="black"/>
</svg>
