<svg xmlns="http://www.w3.org/2000/svg" 
    viewBox="0 0 428.0 568.0" 
    width="428.0" height="568.0">
  <path d="M 46.0,208.0 Q 46.0,279.0 67.5,341.5 Q 89.0,404.0 128.0,441.5 Q 167.0,479.0 217.0,479.0 Q 266.0,479.0 305.5,441.0 Q 345.0,403.0 367.0,340.5 Q 389.0,278.0 389.0,208.0 Q 389.0,118.0 349.5,62.0 Q 310.0,6.0 217.0,6.0 Q 124.0,6.0 85.0,62.0 Q 46.0,118.0 46.0,208.0 M 341.0,200.0 Q 341.0,256.0 326.5,309.0 Q 312.0,362.0 283.5,396.0 Q 255.0,430.0 216.0,430.0 Q 177.0,430.0 149.0,396.0 Q 121.0,362.0 107.0,309.0 Q 93.0,256.0 93.0,200.0 Q 93.0,138.0 119.0,96.0 Q 145.0,54.0 217.0,54.0 Q 341.0,54.0 341.0,200.0" fill="black"/>
</svg>
