<svg xmlns="http://www.w3.org/2000/svg" 
    viewBox="0 0 428.0 568.0" 
    width="428.0" height="568.0">
  <path d="M 391.0,20.0 L 351.0,2.0 L 343.0,4.0 Q 332.0,62.0 320.5,140.5 Q 309.0,219.0 302.0,283.0 Q 255.0,267.0 207.0,267.0 Q 143.0,267.0 103.0,295.0 Q 63.0,323.0 63.0,382.0 Q 63.0,426.0 83.5,468.0 Q 104.0,510.0 139.0,536.5 Q 174.0,563.0 213.0,563.0 Q 279.0,563.0 309.0,497.5 Q 339.0,432.0 348.0,321.0 Q 354.0,242.0 366.0,162.5 Q 378.0,83.0 391.0,20.0 M 213.0,316.0 Q 234.0,316.0 254.0,320.0 Q 274.0,324.0 297.0,331.0 Q 291.0,386.0 282.0,425.0 Q 273.0,464.0 255.0,488.5 Q 237.0,513.0 208.0,513.0 Q 182.0,513.0 159.5,494.0 Q 137.0,475.0 124.0,445.5 Q 111.0,416.0 111.0,387.0 Q 111.0,349.0 137.5,332.5 Q 164.0,316.0 213.0,316.0" fill="black"/>
</svg>
