<svg xmlns="http://www.w3.org/2000/svg"
     width="160" height="200"
     viewBox="0 0 160 200">
  <g transform="translate(80.0,100.0) scale(0.11534025374855825, -0.11534025374855825) translate(-682.5, -567.0)">
    <path d="M710 -298Q655 -214 616.5 -158.0Q578 -102 547.5 -61.5Q517 -21 490.5 10.0Q464 41 433 75Q355 80 300.0 100.0Q245 120 210.0 148.5Q175 177 159.0 211.0Q143 245 143 278Q143 306 154.0 332.0Q165 358 186.0 377.0Q207 396 237.5 407.5Q268 419 306 419Q347 419 384.5 404.5Q422 390 454.5 367.5Q487 345 514.0 317.5Q541 290 561 264Q581 271 607.0 285.5Q633 300 656.0 325.5Q679 351 694.5 389.0Q710 427 710 483Q710 544 691.5 587.5Q673 631 640.5 659.0Q608 687 564.5 699.5Q521 712 470 712H174V892H413Q476 892 517.5 907.0Q559 922 584.5 946.5Q610 971 620.5 1001.5Q631 1032 631 1062Q631 1096 621.0 1126.5Q611 1157 587.0 1179.5Q563 1202 523.0 1215.0Q483 1228 422 1228H80V1408H417Q536 1408 620.0 1379.5Q704 1351 757.0 1303.5Q810 1256 834.5 1193.5Q859 1131 859 1062Q859 990 827.5 927.5Q796 865 733 814Q782 788 820.5 750.0Q859 712 885.0 667.5Q911 623 924.5 573.5Q938 524 938 475Q938 413 917.0 356.0Q896 299 858.5 251.0Q821 203 770.0 167.0Q719 131 658 111Q679 87 709.0 51.5Q739 16 770.5 -24.0Q802 -64 833.0 -105.5Q864 -147 888 -183Z" fill="black"/>
  </g>
</svg>
