<svg xmlns="http://www.w3.org/2000/svg"
     width="160" height="200"
     viewBox="0 0 160 200">
  <g transform="translate(80.0,100.0) scale(0.11534025374855825, -0.11534025374855825) translate(-682.5, -567.0)">
    <path d="M422 1406Q401 1323 385.0 1252.5Q369 1182 358.5 1120.5Q348 1059 343.0 1004.5Q338 950 338 899Q338 796 355.5 723.5Q373 651 404.0 605.0Q435 559 476.0 538.0Q517 517 564 517Q591 517 613.5 524.0Q636 531 655.0 542.0Q674 553 688.5 565.0Q703 577 712 588Q678 640 664.0 690.0Q650 740 650 784Q650 823 661.0 856.0Q672 889 693.0 913.5Q714 938 744.5 952.0Q775 966 814 966Q858 966 894.5 948.0Q931 930 956.5 899.5Q982 869 996.0 828.0Q1010 787 1010 741Q1010 697 995.5 651.0Q981 605 954 560Q985 464 1021.0 367.0Q1057 270 1100.0 176.0Q1143 82 1194.0 -7.0Q1245 -96 1305 -176L1135 -300Q1099 -251 1064.0 -191.5Q1029 -132 995.5 -68.0Q962 -4 932.0 61.5Q902 127 876.5 189.0Q851 251 830.5 306.5Q810 362 797 405Q761 382 726.0 368.5Q691 355 660.5 348.0Q630 341 606.5 339.0Q583 337 570 337Q459 337 373.0 383.5Q287 430 228.5 507.0Q170 584 140.0 685.0Q110 786 110 895Q110 932 113.5 985.0Q117 1038 126.0 1103.5Q135 1169 150.5 1245.5Q166 1322 190 1406Z" fill="black"/>
  </g>
</svg>
