<svg xmlns="http://www.w3.org/2000/svg"
     width="160" height="200"
     viewBox="0 0 160 200">
  <g transform="translate(80.0,100.0) scale(0.11534025374855825, -0.11534025374855825) translate(-682.5, -567.0)">
    <path d="M562 855Q622 890 657.5 940.0Q693 990 693 1061Q693 1098 682.5 1133.0Q672 1168 652.0 1195.0Q632 1222 602.0 1238.0Q572 1254 533 1254Q481 1254 443.5 1235.5Q406 1217 382.0 1186.0Q358 1155 346.5 1115.5Q335 1076 335 1033Q335 978 346.0 925.5Q357 873 390.0 811.0Q423 749 483.5 671.5Q544 594 642 490L763 362Q830 290 884.0 229.5Q938 169 975.5 116.5Q1013 64 1033.0 18.5Q1053 -27 1053 -68Q1053 -113 1028.0 -165.5Q1003 -218 946 -290L770 -182Q789 -155 807.0 -121.5Q825 -88 825 -53Q825 -9 777.0 48.0Q729 105 645 192L508 333Q390 454 313.0 550.0Q236 646 191.0 729.5Q146 813 128.0 889.0Q110 965 110 1046Q110 1130 139.5 1201.0Q169 1272 223.5 1324.0Q278 1376 355.0 1405.0Q432 1434 528 1434Q619 1434 692.0 1403.5Q765 1373 816.0 1321.5Q867 1270 894.0 1201.0Q921 1132 921 1056Q921 1007 907.0 958.5Q893 910 862.0 864.0Q831 818 783.0 775.5Q735 733 667 697Z" fill="black"/>
  </g>
</svg>
