
<svg xmlns="http://www.w3.org/2000/svg" viewBox="0 0 514 1168">
  <g transform="translate(-300, -293)">
    <path d="M814 495 751 293Q661 293 578 306Q468 323 401 357Q319 398 319 459Q319 516 354 576Q384 627 446 693Q479 728 571 815Q486 847 401 880Q300 925 300 971Q300 1047 374 1147Q431 1224 540 1322Q616 1390 709 1461L678 1269Q567 1228 530 1210Q442 1167 442 1131Q442 1099 517 1066Q587 1039 658 1013Q734 982 734 956Q734 927 666 855Q603 789 540 724Q472 647 472 606Q472 558 609 526Q698 505 814 495Z" fill="black" />
  </g>
</svg>
