<svg xmlns="http://www.w3.org/2000/svg" 
    viewBox="0 0 1136.0 1498.0" 
    width="1136.0" height="1498.0">
  <path d="M 254.0,1458.0 Q 277.0,1364.0 294.5,1283.0 Q 312.0,1202.0 327.0,1124.0 Q 339.0,1122.0 349.5,1121.5 Q 360.0,1121.0 371.0,1121.0 Q 412.0,1121.0 440.0,1131.5 Q 468.0,1142.0 485.0,1161.0 Q 502.0,1180.0 509.5,1205.5 Q 517.0,1231.0 517.0,1260.0 Q 517.0,1308.0 501.5,1360.0 Q 486.0,1412.0 464.0,1458.0 L 665.0,1458.0 Q 689.0,1399.0 700.5,1347.0 Q 712.0,1295.0 712.0,1244.0 Q 712.0,1212.0 707.5,1184.0 Q 703.0,1156.0 695.0,1129.0 Q 715.0,1124.0 732.0,1122.5 Q 749.0,1121.0 765.0,1121.0 Q 806.0,1121.0 833.5,1131.5 Q 861.0,1142.0 878.0,1161.0 Q 895.0,1180.0 902.5,1205.5 Q 910.0,1231.0 910.0,1260.0 Q 910.0,1308.0 895.0,1360.0 Q 880.0,1412.0 858.0,1458.0 L 1058.0,1458.0 Q 1082.0,1398.0 1093.5,1347.0 Q 1105.0,1296.0 1105.0,1242.0 Q 1105.0,1165.0 1082.0,1104.0 Q 1059.0,1043.0 1018.0,1000.0 Q 977.0,957.0 918.5,934.0 Q 860.0,911.0 790.0,911.0 Q 742.0,911.0 691.0,922.0 Q 640.0,933.0 583.0,962.0 Q 545.0,936.0 499.0,924.0 Q 453.0,912.0 405.0,912.0 Q 383.0,912.0 359.0,915.0 Q 372.0,813.0 378.5,707.0 Q 385.0,601.0 385.0,472.0 L 385.0,24.0 L 187.0,24.0 L 187.0,463.0 Q 187.0,547.0 183.5,624.5 Q 180.0,702.0 173.0,778.0 Q 166.0,854.0 154.5,930.5 Q 143.0,1007.0 127.5,1089.5 Q 112.0,1172.0 92.0,1262.5 Q 72.0,1353.0 47.0,1458.0 L 254.0,1458.0" fill="black"/>
</svg>
