<svg xmlns="http://www.w3.org/2000/svg" 
    viewBox="0 0 1136.0 1498.0" 
    width="1136.0" height="1498.0">
  <path d="M 512.0,1294.0 Q 559.0,1294.0 610.0,1275.0 Q 661.0,1256.0 710.5,1218.5 Q 760.0,1181.0 805.0,1125.0 Q 850.0,1069.0 884.0,995.0 Q 918.0,921.0 938.0,828.5 Q 958.0,736.0 958.0,626.0 Q 958.0,518.0 925.0,433.5 Q 892.0,349.0 832.0,291.0 Q 772.0,233.0 689.5,202.5 Q 607.0,172.0 508.0,172.0 Q 410.0,172.0 331.5,199.0 Q 253.0,226.0 197.5,279.0 Q 142.0,332.0 112.0,410.0 Q 82.0,488.0 82.0,589.0 Q 82.0,699.0 102.0,794.0 Q 122.0,889.0 156.0,967.5 Q 190.0,1046.0 234.0,1106.5 Q 278.0,1167.0 326.0,1209.0 Q 374.0,1251.0 422.0,1272.5 Q 470.0,1294.0 512.0,1294.0 M 511.0,1053.0 Q 475.0,1053.0 435.0,1020.0 Q 395.0,987.0 361.0,928.5 Q 327.0,870.0 304.5,789.0 Q 282.0,708.0 282.0,611.0 Q 282.0,554.0 300.5,517.0 Q 319.0,480.0 350.5,458.0 Q 382.0,436.0 424.0,427.5 Q 466.0,419.0 512.0,419.0 Q 583.0,419.0 630.0,435.0 Q 677.0,451.0 705.5,477.0 Q 734.0,503.0 746.0,537.5 Q 758.0,572.0 758.0,609.0 Q 758.0,711.0 732.5,793.0 Q 707.0,875.0 669.5,932.5 Q 632.0,990.0 589.0,1021.5 Q 546.0,1053.0 511.0,1053.0" fill="black"/>
</svg>
