<svg xmlns="http://www.w3.org/2000/svg" 
    viewBox="0 0 1136.0 1498.0" 
    width="1136.0" height="1498.0">
  <path d="M 211.0,1458.0 Q 304.0,1204.0 384.5,942.5 Q 465.0,681.0 534.0,401.0 L 540.0,401.0 Q 612.0,680.0 692.5,942.0 Q 773.0,1204.0 865.0,1458.0 L 1076.0,1458.0 Q 1007.0,1270.0 946.0,1090.0 Q 885.0,910.0 830.0,732.5 Q 775.0,555.0 724.5,377.0 Q 674.0,199.0 625.0,16.0 L 450.0,16.0 Q 398.0,208.0 345.5,389.0 Q 293.0,570.0 238.0,747.0 Q 183.0,924.0 124.0,1100.0 Q 65.0,1276.0 0.0,1458.0 L 211.0,1458.0" fill="black"/>
</svg>
