<svg xmlns="http://www.w3.org/2000/svg" 
    viewBox="0 0 1136.0 1498.0" 
    width="1136.0" height="1498.0">
  <path d="M 820.0,24.0 Q 780.0,116.0 752.5,205.0 Q 725.0,294.0 707.0,377.5 Q 689.0,461.0 678.0,537.0 Q 667.0,613.0 660.0,679.0 Q 601.0,656.0 544.5,643.5 Q 488.0,631.0 432.0,631.0 Q 354.0,631.0 284.5,655.5 Q 215.0,680.0 163.0,729.5 Q 111.0,779.0 80.5,852.0 Q 50.0,925.0 50.0,1023.0 Q 50.0,1114.0 77.5,1195.5 Q 105.0,1277.0 155.0,1338.0 Q 205.0,1399.0 276.0,1435.0 Q 347.0,1471.0 434.0,1471.0 Q 519.0,1471.0 590.0,1431.0 Q 661.0,1391.0 723.0,1298.0 Q 755.0,1248.0 774.0,1199.0 Q 793.0,1150.0 805.0,1095.5 Q 817.0,1041.0 823.5,979.5 Q 830.0,918.0 837.0,843.0 Q 844.0,765.0 854.0,680.0 Q 864.0,595.0 884.0,495.5 Q 904.0,396.0 938.5,279.5 Q 973.0,163.0 1029.0,24.0 L 820.0,24.0 M 639.0,900.0 Q 636.0,930.0 632.5,953.0 Q 629.0,976.0 625.0,996.0 Q 621.0,1016.0 615.5,1033.5 Q 610.0,1051.0 603.0,1070.0 Q 572.0,1145.0 525.0,1186.5 Q 478.0,1228.0 414.0,1228.0 Q 374.0,1228.0 342.0,1211.5 Q 310.0,1195.0 288.0,1168.0 Q 266.0,1141.0 254.0,1106.5 Q 242.0,1072.0 242.0,1036.0 Q 242.0,994.0 258.0,962.0 Q 274.0,930.0 302.5,908.5 Q 331.0,887.0 370.0,876.5 Q 409.0,866.0 454.0,866.0 Q 539.0,866.0 639.0,900.0" fill="black"/>
</svg>
