
<svg xmlns="http://www.w3.org/2000/svg" viewBox="0 0 958 1376">
  <g transform="translate(-123, 0)">
    <path d="M1081 0H909L817 289Q786 384 776.0 466.0Q766 548 766 674V686Q722 631 651.5 601.0Q581 571 496 571Q345 571 234.0 676.0Q123 781 123 944Q123 1045 156.5 1126.5Q190 1208 248 1265Q304 1319 380.5 1347.5Q457 1376 537 1376Q612 1376 683.5 1348.5Q755 1321 810 1271Q866 1219 899.0 1149.5Q932 1080 932 989V688Q932 542 943.0 469.5Q954 397 983 305ZM764 866V963Q764 1057 696.0 1122.5Q628 1188 539 1188Q430 1188 360.5 1122.0Q291 1056 291 950Q291 868 350.5 814.0Q410 760 494 760Q570 760 645.0 788.5Q720 817 764 866Z" fill="black" />
  </g>
</svg>
