<svg xmlns="http://www.w3.org/2000/svg" 
    viewBox="0 0 749.0 1171.0" 
    width="749.0" height="1171.0">
  <path d="M 337.0,786.0 Q 466.0,504.0 466.0,158.0 Q 466.0,71.0 462.0,2.0 L 436.0,2.0 Q 370.0,320.0 332.0,448.5 Q 294.0,577.0 230.0,701.0 Q 166.0,825.0 75.0,950.0 L 102.0,1147.0 Q 199.0,991.0 247.5,958.5 Q 296.0,926.0 397.0,926.0 Q 476.0,926.0 519.0,970.0 Q 562.0,1014.0 575.0,1153.0 Q 581.0,1167.0 593.0,1167.0 Q 607.0,1167.0 614.0,1155.0 Q 618.0,1101.0 618.0,977.0 Q 618.0,884.0 565.0,828.0 Q 512.0,772.0 432.0,772.0 Q 383.0,772.0 337.0,786.0" fill="black"/>
</svg>
