<svg xmlns="http://www.w3.org/2000/svg" 
    viewBox="0 0 749.0 1171.0" 
    width="749.0" height="1171.0">
  <path d="M 438.0,880.0 Q 382.0,772.0 239.0,772.0 Q 352.0,530.0 352.0,309.0 Q 352.0,171.0 321.0,2.0 L 287.0,2.0 Q 287.0,319.0 231.0,481.5 Q 175.0,644.0 0.0,926.0 L 28.0,1118.0 Q 131.0,917.0 291.0,917.0 Q 441.0,917.0 477.0,1155.0 Q 482.0,1168.0 489.0,1168.0 Q 499.0,1168.0 506.0,1155.0 Q 512.0,1022.0 536.5,984.0 Q 561.0,946.0 602.0,946.0 Q 695.0,946.0 715.0,1145.0 Q 721.0,1154.0 728.0,1154.0 Q 736.0,1154.0 743.0,1145.0 Q 749.0,1109.0 749.0,1046.0 Q 749.0,811.0 579.0,811.0 Q 479.0,811.0 438.0,880.0" fill="black"/>
</svg>
