<svg xmlns="http://www.w3.org/2000/svg" 
    viewBox="0 0 749.0 1171.0" 
    width="749.0" height="1171.0">
  <path d="M 639.0,129.0 L 589.0,6.0 Q 468.0,19.0 303.5,86.5 Q 139.0,154.0 139.0,209.0 Q 139.0,321.0 452.0,590.0 Q 139.0,686.0 139.0,774.0 Q 139.0,865.0 248.0,978.5 Q 357.0,1092.0 524.0,1161.0 L 481.0,1024.0 Q 333.0,955.0 237.0,835.0 Q 304.0,777.0 447.0,732.0 Q 557.0,699.0 557.0,661.0 Q 557.0,579.0 522.0,557.0 Q 401.0,479.0 331.5,417.0 Q 262.0,355.0 223.0,282.0 Q 301.0,197.0 639.0,129.0" fill="black"/>
</svg>
