<svg xmlns="http://www.w3.org/2000/svg" 
    viewBox="0 0 913.0 1296.0" 
    width="913.0" height="1296.0">
  <path d="M 559.0,507.0 Q 579.0,490.0 595.0,471.5 Q 611.0,453.0 611.0,430.0 Q 611.0,411.0 599.0,385.5 Q 587.0,360.0 571.0,337.0 L 550.0,308.0 Q 513.0,252.0 470.0,252.0 Q 448.0,252.0 432.5,258.5 Q 417.0,265.0 403.0,278.0 L 352.0,323.0 Q 331.0,342.0 311.5,363.0 Q 292.0,384.0 292.0,407.0 Q 292.0,436.0 304.5,460.0 Q 317.0,484.0 334.0,507.0 L 355.0,537.0 Q 371.0,560.0 389.5,576.0 Q 408.0,592.0 427.0,592.0 Q 453.0,592.0 468.0,582.0 Q 483.0,572.0 505.0,553.0 L 559.0,507.0" fill="black"/>
</svg>
