<svg xmlns="http://www.w3.org/2000/svg" 
    viewBox="0 0 913.0 1296.0" 
    width="913.0" height="1296.0">
  <path d="M 707.0,1261.0 Q 711.0,1276.0 719.0,1281.0 Q 727.0,1286.0 755.0,1286.0 Q 778.0,1286.0 792.0,1280.0 Q 806.0,1274.0 806.0,1260.0 Q 806.0,1155.0 787.0,1073.0 Q 768.0,991.0 731.0,934.5 Q 694.0,878.0 640.5,849.0 Q 587.0,820.0 517.0,820.0 Q 507.0,820.0 497.0,823.0 Q 487.0,826.0 473.0,830.0 Q 504.0,759.0 522.0,695.0 Q 540.0,631.0 550.0,570.5 Q 560.0,510.0 563.0,449.5 Q 566.0,389.0 566.0,325.0 Q 566.0,293.0 563.0,253.0 Q 560.0,213.0 555.0,172.0 Q 550.0,131.0 542.5,93.5 Q 535.0,56.0 525.0,29.0 Q 521.0,17.0 510.0,11.5 Q 499.0,6.0 473.0,6.0 Q 447.0,6.0 436.0,12.0 Q 425.0,18.0 425.0,29.0 Q 425.0,227.0 401.5,378.0 Q 378.0,529.0 343.0,641.0 Q 308.0,753.0 266.5,829.5 Q 225.0,906.0 190.0,955.5 Q 155.0,1005.0 131.5,1031.5 Q 108.0,1058.0 108.0,1069.0 Q 108.0,1099.0 121.0,1137.5 Q 134.0,1176.0 152.5,1210.0 Q 171.0,1244.0 191.0,1267.5 Q 211.0,1291.0 224.0,1291.0 Q 231.0,1291.0 238.5,1282.5 Q 246.0,1274.0 254.0,1262.0 Q 291.0,1208.0 322.5,1170.5 Q 354.0,1133.0 382.5,1109.5 Q 411.0,1086.0 439.5,1075.0 Q 468.0,1064.0 499.0,1064.0 Q 581.0,1064.0 632.5,1111.0 Q 684.0,1158.0 707.0,1261.0" fill="black"/>
</svg>
