<svg xmlns="http://www.w3.org/2000/svg" 
    viewBox="0 0 913.0 1296.0" 
    width="913.0" height="1296.0">
  <path d="M 819.0,1271.0 Q 823.0,1285.0 830.5,1290.5 Q 838.0,1296.0 865.0,1296.0 Q 887.0,1296.0 900.0,1290.5 Q 913.0,1285.0 913.0,1270.0 Q 913.0,1173.0 897.0,1100.0 Q 881.0,1027.0 852.0,978.0 Q 823.0,929.0 783.0,904.5 Q 743.0,880.0 695.0,880.0 Q 652.0,880.0 610.0,893.0 Q 568.0,906.0 532.0,947.0 Q 510.0,901.0 473.0,870.5 Q 436.0,840.0 387.0,828.0 Q 373.0,827.0 359.5,827.0 Q 346.0,827.0 331.0,827.0 Q 350.0,774.0 365.5,724.5 Q 381.0,675.0 392.0,624.5 Q 403.0,574.0 408.5,522.0 Q 414.0,470.0 414.0,413.0 Q 414.0,367.0 412.0,312.0 Q 410.0,257.0 406.5,203.5 Q 403.0,150.0 397.0,103.5 Q 391.0,57.0 382.0,29.0 Q 378.0,17.0 366.0,12.0 Q 354.0,7.0 328.0,7.0 Q 302.0,7.0 291.5,12.5 Q 281.0,18.0 281.0,29.0 Q 281.0,226.0 260.0,376.5 Q 239.0,527.0 208.0,638.5 Q 177.0,750.0 140.5,827.0 Q 104.0,904.0 73.0,953.5 Q 42.0,1003.0 21.0,1029.5 Q 0.0,1056.0 0.0,1067.0 Q 0.0,1097.0 11.5,1136.0 Q 23.0,1175.0 38.5,1209.5 Q 54.0,1244.0 70.5,1267.5 Q 87.0,1291.0 98.0,1291.0 Q 103.0,1291.0 110.0,1282.5 Q 117.0,1274.0 125.0,1261.0 Q 153.0,1212.0 177.0,1176.5 Q 201.0,1141.0 224.0,1118.0 Q 247.0,1095.0 270.5,1084.0 Q 294.0,1073.0 321.0,1073.0 Q 400.0,1073.0 439.5,1116.0 Q 479.0,1159.0 496.0,1260.0 Q 500.0,1274.0 508.5,1280.0 Q 517.0,1286.0 545.0,1286.0 Q 570.0,1286.0 583.5,1280.0 Q 597.0,1274.0 597.0,1259.0 Q 597.0,1218.0 606.0,1192.0 Q 615.0,1166.0 631.0,1151.0 Q 647.0,1136.0 669.5,1130.5 Q 692.0,1125.0 718.0,1125.0 Q 741.0,1125.0 756.5,1135.5 Q 772.0,1146.0 783.5,1165.5 Q 795.0,1185.0 803.0,1212.0 Q 811.0,1239.0 819.0,1271.0" fill="black"/>
</svg>
