<svg xmlns="http://www.w3.org/2000/svg" 
    viewBox="0 0 913.0 1296.0" 
    width="913.0" height="1296.0">
  <path d="M 480.0,1266.0 Q 530.0,1298.0 531.0,1286.0 Q 562.0,1263.0 562.0,1190.0 Q 562.0,1167.0 561.0,1153.0 Q 560.0,1139.0 555.5,1128.5 Q 551.0,1118.0 541.5,1110.0 Q 532.0,1102.0 514.0,1093.0 Q 460.0,1060.0 416.0,1031.5 Q 372.0,1003.0 340.5,980.5 Q 309.0,958.0 292.0,941.0 Q 275.0,924.0 275.0,914.0 Q 275.0,908.0 296.0,897.5 Q 317.0,887.0 345.5,875.0 Q 374.0,863.0 403.0,852.5 Q 432.0,842.0 447.0,836.0 Q 469.0,827.0 486.0,817.5 Q 503.0,808.0 514.5,794.5 Q 526.0,781.0 531.5,762.5 Q 537.0,744.0 537.0,718.0 Q 537.0,696.0 535.5,679.0 Q 534.0,662.0 529.5,647.5 Q 525.0,633.0 517.5,619.0 Q 510.0,605.0 497.0,589.0 Q 470.0,556.0 441.5,524.0 Q 413.0,492.0 389.5,465.0 Q 366.0,438.0 351.0,418.0 Q 336.0,398.0 336.0,389.0 Q 336.0,364.0 376.5,336.5 Q 417.0,309.0 481.5,284.5 Q 546.0,260.0 626.0,239.5 Q 706.0,219.0 785.0,209.0 Q 803.0,207.0 812.5,199.5 Q 822.0,192.0 822.0,172.0 Q 822.0,152.0 820.5,140.0 Q 819.0,128.0 815.0,119.5 Q 811.0,111.0 804.0,106.0 Q 797.0,101.0 786.0,95.0 Q 753.0,74.0 718.0,56.5 Q 683.0,39.0 649.0,26.5 Q 615.0,14.0 584.5,7.0 Q 554.0,0.0 530.0,0.0 Q 499.0,0.0 459.0,8.5 Q 419.0,17.0 378.5,29.0 Q 338.0,41.0 301.0,55.0 Q 264.0,69.0 240.0,81.0 Q 134.0,133.0 134.0,236.0 Q 134.0,282.0 156.5,335.0 Q 179.0,388.0 211.5,439.0 Q 244.0,490.0 279.0,535.0 Q 314.0,580.0 340.0,610.0 Q 294.0,629.0 251.0,648.0 Q 208.0,667.0 174.5,689.5 Q 141.0,712.0 121.0,740.0 Q 101.0,768.0 101.0,805.0 Q 101.0,866.0 135.5,929.0 Q 170.0,992.0 225.0,1052.0 Q 280.0,1112.0 347.0,1166.5 Q 414.0,1221.0 480.0,1266.0" fill="black"/>
</svg>
