<svg xmlns="http://www.w3.org/2000/svg" 
    viewBox="0 0 913.0 1296.0" 
    width="913.0" height="1296.0">
  <path d="M 693.0,534.0 Q 693.0,560.0 682.0,596.5 Q 671.0,633.0 651.5,672.5 Q 632.0,712.0 606.0,751.5 Q 580.0,791.0 549.0,822.0 Q 518.0,853.0 483.5,872.5 Q 449.0,892.0 414.0,892.0 Q 386.0,892.0 361.0,872.5 Q 336.0,853.0 314.5,821.5 Q 293.0,790.0 275.5,751.0 Q 258.0,712.0 245.5,673.5 Q 233.0,635.0 226.5,601.0 Q 220.0,567.0 220.0,546.0 Q 220.0,508.0 230.5,476.0 Q 241.0,444.0 267.0,421.0 Q 293.0,398.0 336.0,385.0 Q 379.0,372.0 445.0,372.0 Q 482.0,372.0 525.5,382.5 Q 569.0,393.0 606.5,413.5 Q 644.0,434.0 668.5,464.0 Q 693.0,494.0 693.0,534.0 M 808.0,632.0 Q 808.0,576.0 799.0,519.0 Q 790.0,462.0 772.5,409.0 Q 755.0,356.0 730.5,310.0 Q 706.0,264.0 675.0,230.0 Q 657.0,211.0 628.0,191.5 Q 599.0,172.0 564.5,156.5 Q 530.0,141.0 492.0,131.5 Q 454.0,122.0 419.0,122.0 Q 345.0,122.0 285.5,137.5 Q 226.0,153.0 184.0,186.5 Q 142.0,220.0 119.0,274.0 Q 96.0,328.0 96.0,406.0 Q 96.0,437.0 101.0,479.0 Q 106.0,521.0 116.0,568.0 Q 126.0,615.0 141.5,665.5 Q 157.0,716.0 177.0,766.0 Q 203.0,831.0 239.0,898.0 Q 275.0,965.0 313.0,1020.0 Q 351.0,1075.0 386.5,1109.5 Q 422.0,1144.0 448.0,1144.0 Q 480.0,1144.0 508.0,1135.5 Q 536.0,1127.0 562.5,1110.0 Q 589.0,1093.0 616.0,1067.5 Q 643.0,1042.0 672.0,1008.0 Q 705.0,970.0 730.5,922.0 Q 756.0,874.0 773.5,823.0 Q 791.0,772.0 799.5,722.5 Q 808.0,673.0 808.0,632.0" fill="black"/>
</svg>
