<svg xmlns="http://www.w3.org/2000/svg" 
    viewBox="0 0 913.0 1296.0" 
    width="913.0" height="1296.0">
  <path d="M 110.0,990.0 Q 85.0,990.0 70.5,1021.5 Q 56.0,1053.0 56.0,1126.0 Q 56.0,1186.0 70.5,1219.5 Q 85.0,1253.0 110.0,1253.0 L 650.0,1253.0 Q 673.0,1253.0 694.0,1234.5 Q 715.0,1216.0 715.0,1183.0 L 715.0,1114.0 Q 715.0,863.0 736.0,671.5 Q 757.0,480.0 781.5,348.0 Q 806.0,216.0 827.0,142.0 Q 848.0,68.0 848.0,51.0 Q 848.0,30.0 831.5,15.5 Q 815.0,1.0 764.0,1.0 Q 726.0,1.0 700.0,9.5 Q 674.0,18.0 669.0,40.0 Q 665.0,53.0 653.5,94.5 Q 642.0,136.0 627.5,201.0 Q 613.0,266.0 597.0,352.0 Q 581.0,438.0 568.0,539.0 Q 555.0,640.0 546.5,754.5 Q 538.0,869.0 538.0,990.0 L 110.0,990.0" fill="black"/>
</svg>
