<svg xmlns="http://www.w3.org/2000/svg" 
    viewBox="0 0 913.0 1296.0" 
    width="913.0" height="1296.0">
  <path d="M 525.0,619.0 Q 490.0,599.0 437.5,588.5 Q 385.0,578.0 313.0,578.0 Q 266.0,578.0 224.0,592.0 Q 182.0,606.0 150.5,637.5 Q 119.0,669.0 100.5,719.5 Q 82.0,770.0 82.0,843.0 Q 82.0,929.0 110.0,1009.5 Q 138.0,1090.0 183.0,1152.0 Q 228.0,1214.0 284.5,1251.0 Q 341.0,1288.0 398.0,1288.0 Q 456.0,1288.0 507.0,1261.0 Q 558.0,1234.0 598.0,1172.5 Q 638.0,1111.0 665.0,1012.0 Q 692.0,913.0 702.0,768.0 Q 712.0,618.0 732.0,491.0 Q 752.0,364.0 772.0,269.5 Q 792.0,175.0 807.0,118.0 Q 822.0,61.0 822.0,51.0 Q 822.0,29.0 805.5,15.0 Q 789.0,1.0 737.0,1.0 Q 698.0,1.0 673.0,9.5 Q 648.0,18.0 643.0,40.0 Q 638.0,52.0 623.0,101.0 Q 608.0,150.0 590.0,227.5 Q 572.0,305.0 554.0,405.0 Q 536.0,505.0 525.0,619.0 M 343.0,799.0 Q 394.0,799.0 430.5,810.5 Q 467.0,822.0 505.0,848.0 Q 498.0,885.0 485.0,923.5 Q 472.0,962.0 452.0,993.0 Q 432.0,1024.0 405.0,1043.5 Q 378.0,1063.0 343.0,1063.0 Q 313.0,1063.0 288.0,1047.0 Q 263.0,1031.0 244.5,1008.5 Q 226.0,986.0 216.0,961.0 Q 206.0,936.0 206.0,918.0 Q 206.0,898.0 217.0,876.5 Q 228.0,855.0 247.0,838.0 Q 266.0,821.0 291.0,810.0 Q 316.0,799.0 343.0,799.0" fill="black"/>
</svg>
