
<svg xmlns="http://www.w3.org/2000/svg" viewBox="0 0 530 684">
  <g transform="translate(-138, -108)">
    <path d="M668 441Q668 381 632 303Q596 225 544 173Q518 147 467.0 127.5Q416 108 347 108Q309 108 272.0 120.0Q235 132 205.0 154.5Q175 177 156.5 210.0Q138 243 138 286Q138 372 216 533Q236 573 263.0 618.5Q290 664 319.5 702.5Q349 741 378.0 766.5Q407 792 430 792Q476 792 515.5 766.0Q555 740 594 692Q619 662 633.5 627.5Q648 593 655.5 559.5Q663 526 665.5 495.0Q668 464 668 441ZM605 339Q605 356 600.0 381.5Q595 407 584.0 436.0Q573 465 555.5 495.0Q538 525 514 551Q469 599 431.0 621.5Q393 644 358 644Q346 644 330.0 627.5Q314 611 297.5 587.5Q281 564 266.0 539.5Q251 515 242 499Q204 434 204 380Q204 352 215.0 329.0Q226 306 251.5 289.5Q277 273 318.5 264.0Q360 255 420 255Q449 255 481.5 261.5Q514 268 541.5 279.5Q569 291 587.0 306.0Q605 321 605 339Z" fill="black" />
  </g>
</svg>
