
<svg xmlns="http://www.w3.org/2000/svg" viewBox="0 0 488 981">
  <g transform="translate(-156, 39)">
    <path d="M644 151 621 -39Q586 -17 560.0 26.0Q534 69 520 127Q505 190 498.0 289.0Q491 388 483 519Q441 490 396.5 479.0Q352 468 305 468Q235 468 195.5 510.0Q156 552 156 623Q156 686 176.0 744.0Q196 802 227.0 846.0Q258 890 295.5 916.0Q333 942 367 942Q397 942 422.0 932.0Q447 922 465.5 899.5Q484 877 495.5 839.5Q507 802 512 747L534 484Q544 369 569.5 281.5Q595 194 644 151ZM464 639Q459 671 447.0 698.5Q435 726 416.5 746.0Q398 766 372.5 777.5Q347 789 314 789Q294 789 275.5 780.0Q257 771 243.0 757.0Q229 743 220.5 725.5Q212 708 212 691Q212 676 223.5 662.5Q235 649 252.5 638.5Q270 628 290.5 622.0Q311 616 330 616Q365 616 400.0 621.5Q435 627 464 639Z" fill="black" />
  </g>
</svg>
