<svg xmlns="http://www.w3.org/2000/svg" 
    viewBox="0 0 913.0 1296.0" 
    width="913.0" height="1296.0">
  <path d="M 649.0,313.0 Q 649.0,287.0 646.0,249.0 Q 643.0,211.0 637.5,170.5 Q 632.0,130.0 624.0,92.5 Q 616.0,55.0 606.0,29.0 Q 599.0,6.0 555.0,6.0 Q 527.0,6.0 516.5,12.0 Q 506.0,18.0 506.0,29.0 Q 506.0,204.0 488.0,346.5 Q 470.0,489.0 443.5,601.0 Q 417.0,713.0 385.5,796.5 Q 354.0,880.0 327.5,939.0 Q 301.0,998.0 283.0,1033.5 Q 265.0,1069.0 265.0,1085.0 Q 265.0,1112.0 275.5,1147.5 Q 286.0,1183.0 301.0,1215.0 Q 316.0,1247.0 332.5,1269.0 Q 349.0,1291.0 361.0,1291.0 Q 366.0,1291.0 374.0,1285.0 Q 382.0,1279.0 392.0,1262.0 Q 465.0,1140.0 514.5,1031.0 Q 564.0,922.0 594.0,811.0 Q 624.0,700.0 636.5,579.0 Q 649.0,458.0 649.0,313.0" fill="black"/>
</svg>
