<svg xmlns="http://www.w3.org/2000/svg" 
    viewBox="0 0 913.0 1296.0" 
    width="913.0" height="1296.0">
  <path d="M 462.0,0.0 Q 416.0,0.0 381.5,13.5 Q 347.0,27.0 341.0,59.0 L 328.0,127.0 Q 289.0,354.0 239.0,528.0 Q 189.0,702.0 141.5,826.5 Q 94.0,951.0 57.0,1028.0 Q 20.0,1105.0 8.0,1138.0 Q 6.0,1144.0 3.0,1154.0 Q 0.0,1164.0 0.0,1178.0 Q 0.0,1192.0 20.5,1202.0 Q 41.0,1212.0 93.0,1212.0 Q 149.0,1212.0 172.5,1205.0 Q 196.0,1198.0 205.0,1180.0 Q 218.0,1158.0 248.5,1096.5 Q 279.0,1035.0 317.0,940.0 Q 355.0,845.0 397.0,718.5 Q 439.0,592.0 474.0,440.0 Q 511.0,592.0 552.0,717.0 Q 593.0,842.0 630.5,936.0 Q 668.0,1030.0 697.0,1091.5 Q 726.0,1153.0 740.0,1179.0 Q 746.0,1189.0 753.0,1195.5 Q 760.0,1202.0 771.5,1206.0 Q 783.0,1210.0 800.0,1211.0 Q 817.0,1212.0 842.0,1212.0 Q 872.0,1212.0 889.0,1202.0 Q 906.0,1192.0 906.0,1178.0 Q 906.0,1164.0 903.0,1154.0 Q 900.0,1144.0 898.0,1138.0 Q 888.0,1114.0 851.5,1038.0 Q 815.0,962.0 767.0,835.0 Q 719.0,708.0 668.0,531.0 Q 617.0,354.0 578.0,128.0 L 566.0,60.0 Q 559.0,28.0 532.5,14.0 Q 506.0,0.0 462.0,0.0" fill="black"/>
</svg>
