<svg xmlns="http://www.w3.org/2000/svg" 
    viewBox="0 0 913.0 1296.0" 
    width="913.0" height="1296.0">
  <path d="M 444.0,1212.0 Q 490.0,1212.0 524.5,1198.5 Q 559.0,1185.0 565.0,1153.0 L 578.0,1085.0 Q 617.0,858.0 667.0,684.0 Q 717.0,510.0 764.5,385.5 Q 812.0,261.0 849.0,184.0 Q 886.0,107.0 898.0,74.0 Q 900.0,69.0 903.0,59.0 Q 906.0,49.0 906.0,34.0 Q 906.0,20.0 885.5,10.0 Q 865.0,0.0 814.0,0.0 Q 757.0,0.0 733.5,7.0 Q 710.0,14.0 702.0,32.0 Q 689.0,54.0 658.5,115.5 Q 628.0,177.0 589.5,272.0 Q 551.0,367.0 509.0,493.5 Q 467.0,620.0 432.0,772.0 Q 395.0,620.0 354.0,495.0 Q 313.0,370.0 276.0,276.0 Q 239.0,182.0 209.5,120.0 Q 180.0,58.0 166.0,33.0 Q 155.0,12.0 134.0,6.0 Q 113.0,0.0 64.0,0.0 Q 34.0,0.0 17.0,10.0 Q 0.0,20.0 0.0,34.0 Q 0.0,49.0 3.0,59.0 Q 6.0,69.0 8.0,75.0 Q 18.0,99.0 54.5,175.0 Q 91.0,251.0 139.0,377.5 Q 187.0,504.0 238.0,681.0 Q 289.0,858.0 328.0,1084.0 L 340.0,1152.0 Q 347.0,1184.0 373.5,1198.0 Q 400.0,1212.0 444.0,1212.0" fill="black"/>
</svg>
