
<svg xmlns="http://www.w3.org/2000/svg" viewBox="0 0 541 723">
  <g transform="translate(-340, -119)">
    <path d="M543 119Q460 119 400.0 170.5Q340 222 340 313Q340 401 376.5 514.5Q413 628 464.5 707.5Q516 787 549.5 814.5Q583 842 639 842Q699 842 759.0 790.5Q819 739 850.0 672.5Q881 606 881 526Q881 453 860.5 359.0Q840 265 820.5 238.5Q801 212 753.5 183.0Q706 154 650.5 136.5Q595 119 543 119ZM576 696Q526 696 479.0 605.5Q432 515 432 455Q432 333 466.5 291.5Q501 250 567 250Q657 250 731.0 310.5Q805 371 805 422Q805 500 742.5 598.0Q680 696 576 696Z" fill="black" />
  </g>
</svg>
