
<svg xmlns="http://www.w3.org/2000/svg" viewBox="0 0 1049 1434">
  <g transform="translate(-40, 0)">
    <path d="M181 1434Q227 1367 275.5 1333.5Q324 1300 387 1300Q456 1300 494.0 1333.5Q532 1367 552 1434H702Q707 1411 716.5 1387.0Q726 1363 740.5 1343.5Q755 1324 775.5 1312.0Q796 1300 824 1300Q876 1300 901.0 1333.5Q926 1367 939 1434H1089Q1080 1359 1057.0 1303.5Q1034 1248 1000.0 1211.5Q966 1175 922.5 1157.5Q879 1140 828 1140Q695 1140 626 1257Q548 1140 380 1140L486 969Q511 928 537.0 879.5Q563 831 584.5 771.5Q606 712 619.5 640.0Q633 568 633 479V0H483V479Q483 563 470.5 629.0Q458 695 436.0 750.5Q414 806 385.5 855.5Q357 905 326 957L40 1434Z" fill="black" />
  </g>
</svg>
