
<svg xmlns="http://www.w3.org/2000/svg" viewBox="0 0 971 1444">
  <g transform="translate(-90, 0)">
    <path d="M1061 0H907L815 295Q804 329 794.5 365.0Q785 401 778.0 442.5Q771 484 766.5 531.5Q762 579 762 636V752Q726 723 682 700Q644 680 594.0 664.5Q544 649 485 649Q407 649 335.5 677.5Q264 706 209.5 756.0Q155 806 122.5 874.0Q90 942 90 1022Q90 1115 120.5 1192.5Q151 1270 205.5 1326.0Q260 1382 336.5 1413.0Q413 1444 506 1444Q586 1444 659.5 1415.5Q733 1387 789.0 1337.0Q845 1287 878.5 1218.0Q912 1149 912 1067V636Q912 555 924.0 477.0Q936 399 963 312ZM762 965V1041Q762 1088 742.0 1132.0Q722 1176 687.5 1209.5Q653 1243 606.5 1263.5Q560 1284 508 1284Q451 1284 402.0 1264.5Q353 1245 317.0 1210.5Q281 1176 260.5 1129.5Q240 1083 240 1028Q240 985 257.0 945.5Q274 906 306.0 875.5Q338 845 382.5 827.0Q427 809 483 809Q517 809 547.0 815.5Q577 822 603.0 833.0Q629 844 650.5 858.0Q672 872 690 887Q731 921 762 965Z" fill="black" />
  </g>
</svg>
