<svg xmlns="http://www.w3.org/2000/svg" 
    viewBox="0 0 1102.0 1401.0" 
    width="1102.0" height="1401.0">
  <path d="M 1036.0,10.0 L 319.0,10.0 Q 233.0,10.0 171.5,61.0 Q 110.0,112.0 110.0,178.0 Q 110.0,237.0 137.5,285.5 Q 165.0,334.0 217.0,385.0 L 473.0,631.0 Q 484.0,643.0 492.0,654.0 Q 500.0,665.0 500.0,682.0 Q 500.0,698.0 489.0,711.5 Q 478.0,725.0 457.0,743.0 L 315.0,866.0 Q 260.0,914.0 222.0,959.0 Q 184.0,1004.0 184.0,1065.0 Q 184.0,1116.0 204.5,1154.5 Q 225.0,1193.0 267.0,1223.0 Q 305.0,1250.0 359.5,1269.0 Q 414.0,1288.0 473.0,1304.0 L 833.0,1401.0 L 833.0,1237.0 L 508.0,1153.0 Q 443.0,1136.0 418.0,1120.0 Q 393.0,1104.0 393.0,1075.0 Q 393.0,1048.0 415.0,1025.5 Q 437.0,1003.0 459.0,985.0 L 600.0,864.0 Q 637.0,833.0 658.5,792.0 Q 680.0,751.0 680.0,708.0 Q 680.0,655.0 658.0,608.5 Q 636.0,562.0 586.0,514.0 L 358.0,293.0 Q 340.0,275.0 329.5,258.5 Q 319.0,242.0 319.0,229.0 Q 319.0,212.0 331.0,203.0 Q 343.0,194.0 377.0,194.0 L 1036.0,194.0 L 1036.0,10.0" fill="black"/>
</svg>
