<svg xmlns="http://www.w3.org/2000/svg" 
    viewBox="0 0 1102.0 1401.0" 
    width="1102.0" height="1401.0">
  <path d="M 895.0,874.0 Q 968.0,772.0 1014.5,649.0 Q 1061.0,526.0 1061.0,416.0 Q 1061.0,221.0 925.0,110.5 Q 789.0,0.0 547.0,0.0 Q 307.0,0.0 171.0,101.5 Q 35.0,203.0 35.0,413.0 Q 35.0,524.0 79.0,647.0 Q 123.0,770.0 194.0,874.0 Q 264.0,975.0 358.5,1043.5 Q 453.0,1112.0 547.0,1112.0 Q 638.0,1112.0 730.0,1044.0 Q 822.0,976.0 895.0,874.0 M 895.0,416.0 Q 895.0,586.0 772.5,754.5 Q 650.0,923.0 547.0,923.0 Q 443.0,923.0 322.0,751.5 Q 201.0,580.0 201.0,416.0 Q 201.0,294.0 282.0,241.0 Q 363.0,188.0 545.0,188.0 Q 720.0,188.0 807.5,241.5 Q 895.0,295.0 895.0,416.0" fill="black"/>
</svg>
