
<svg xmlns="http://www.w3.org/2000/svg" viewBox="0 0 906 894">
  <g transform="translate(-80, -241)">
    <path d="M534 951Q487 951 445.5 934.5Q404 918 372.5 885.0Q341 852 323.0 803.0Q305 754 305 689Q305 623 324.5 573.5Q344 524 376.5 490.5Q409 457 450.0 440.5Q491 424 535 424Q579 424 619.5 440.5Q660 457 691.5 490.5Q723 524 742.0 573.5Q761 623 761 689Q761 754 743.0 803.0Q725 852 694.0 885.0Q663 918 621.5 934.5Q580 951 534 951ZM534 1135Q642 1135 726.0 1099.5Q810 1064 868.0 1003.0Q926 942 956.0 860.5Q986 779 986 688Q986 596 954.5 515.0Q923 434 864.5 373.0Q806 312 722.5 276.5Q639 241 535 241Q431 241 347.0 276.5Q263 312 203.5 373.0Q144 434 112.0 515.0Q80 596 80 688Q80 779 110.5 860.5Q141 942 199.5 1003.0Q258 1064 342.0 1099.5Q426 1135 534 1135Z" fill="black" />
  </g>
</svg>
