
<svg xmlns="http://www.w3.org/2000/svg" viewBox="0 0 897 1734">
  <g transform="translate(-80, 300)">
    <path d="M791 -300Q665 -120 567.5 53.0Q470 226 395 401Q336 408 289.5 433.5Q243 459 211.0 494.5Q179 530 162.0 572.0Q145 614 145 654Q145 688 158.0 715.5Q171 743 193.0 761.5Q215 780 245.0 790.0Q275 800 309 800Q340 800 370.0 790.5Q400 781 428.0 758.5Q456 736 481.5 699.5Q507 663 530 609Q567 625 606.0 652.5Q645 680 677.0 720.0Q709 760 729.0 812.0Q749 864 749 929Q749 1000 731.0 1059.5Q713 1119 675.5 1162.5Q638 1206 579.5 1230.0Q521 1254 440 1254Q387 1254 311.0 1233.5Q235 1213 140 1166L80 1350Q142 1376 196.5 1392.5Q251 1409 297.5 1418.0Q344 1427 381.5 1430.5Q419 1434 446 1434Q588 1434 688.5 1390.5Q789 1347 853.0 1275.5Q917 1204 947.0 1111.5Q977 1019 977 922Q977 839 949.0 765.0Q921 691 871.5 629.0Q822 567 752.5 518.5Q683 470 601 438Q640 355 678.5 280.0Q717 205 759.5 131.0Q802 57 851.5 -18.5Q901 -94 963 -177Z" fill="black" />
  </g>
</svg>
