
<svg xmlns="http://www.w3.org/2000/svg" viewBox="0 0 1029 1421">
  <g transform="translate(-60, 13)">
    <path d="M1078 1408Q1084 1375 1086.5 1351.0Q1089 1327 1089 1310Q1089 1217 1056.0 1134.5Q1023 1052 970.5 977.0Q918 902 852.0 834.5Q786 767 720 706Q765 663 805.5 618.5Q846 574 876.0 525.5Q906 477 923.5 424.0Q941 371 941 312Q941 234 911.5 173.0Q882 112 833.0 71.0Q784 30 720.5 8.5Q657 -13 590 -13Q504 -13 434.5 12.0Q365 37 316.0 81.0Q267 125 241.0 185.0Q215 245 215 316Q215 373 232.0 424.0Q249 475 279.0 522.5Q309 570 349.0 614.5Q389 659 434 703Q366 761 299.5 823.5Q233 886 179.5 956.0Q126 1026 93.0 1104.5Q60 1183 60 1272Q60 1313 64.5 1349.0Q69 1385 73 1408H305Q297 1369 292.5 1338.5Q288 1308 288 1282Q288 1211 312.0 1149.5Q336 1088 376.0 1032.5Q416 977 467.5 927.0Q519 877 575 830Q631 881 682.5 934.0Q734 987 774.0 1046.5Q814 1106 837.5 1174.5Q861 1243 861 1325Q861 1339 859.5 1358.0Q858 1377 854 1408ZM430 309Q430 265 445.0 237.5Q460 210 482.5 194.0Q505 178 530.5 172.5Q556 167 576 167Q607 167 634.0 178.0Q661 189 681.5 209.0Q702 229 714.0 257.0Q726 285 726 319Q726 390 685.5 452.5Q645 515 581 575Q549 543 521.0 510.5Q493 478 473.0 445.0Q453 412 441.5 378.0Q430 344 430 309Z" fill="black" />
  </g>
</svg>
