
<svg xmlns="http://www.w3.org/2000/svg" viewBox="0 0 1142 1708">
  <g transform="translate(-110, 300)">
    <path d="M896 711H612Q557 711 519.5 694.5Q482 678 459.0 650.0Q436 622 426.0 586.0Q416 550 416 510Q416 456 432.5 408.0Q449 360 479.5 325.0Q510 290 554.0 269.5Q598 249 653 249Q662 249 675.0 249.5Q688 250 702.0 251.5Q716 253 729.5 254.5Q743 256 754 259Q734 302 725.5 337.5Q717 373 717 405Q717 474 755.0 514.0Q793 554 865 554Q914 554 955.5 533.0Q997 512 1027.0 478.0Q1057 444 1073.5 400.0Q1090 356 1090 311Q1090 275 1075.5 240.0Q1061 205 1025 174Q1046 134 1072.0 90.0Q1098 46 1127.0 0.0Q1156 -46 1187.5 -91.5Q1219 -137 1252 -179L1087 -300Q1049 -259 1014.5 -211.0Q980 -163 948.5 -112.5Q917 -62 890.5 -11.0Q864 40 843 87Q801 76 753.0 72.5Q705 69 667 69Q562 69 474.0 104.0Q386 139 322.5 200.0Q259 261 223.5 343.0Q188 425 188 519Q188 595 218.0 666.0Q248 737 316 785Q268 807 230.0 839.5Q192 872 165.5 913.5Q139 955 124.5 1002.5Q110 1050 110 1102Q110 1177 136.5 1229.0Q163 1281 205.5 1315.0Q248 1349 301.0 1368.0Q354 1387 407.5 1395.5Q461 1404 509.0 1406.0Q557 1408 590 1408H861V1228H611Q556 1228 506.5 1223.5Q457 1219 419.5 1203.5Q382 1188 360.0 1158.5Q338 1129 338 1080Q338 1031 358.0 995.5Q378 960 410.5 937.0Q443 914 484.5 903.0Q526 892 569 892H896Z" fill="black" />
  </g>
</svg>
