
<svg xmlns="http://www.w3.org/2000/svg" viewBox="0 0 980 1524">
  <g transform="translate(-110, 90)">
    <path d="M948 1311Q795 1101 690.5 950.0Q586 799 519.0 693.0Q452 587 415.0 519.5Q378 452 360 409Q338 359 338 300Q338 244 356.5 204.5Q375 165 405.0 139.5Q435 114 473.0 102.0Q511 90 551 90Q608 90 655.0 107.5Q702 125 744.0 160.5Q786 196 825.5 248.5Q865 301 908 372L1090 255Q1038 174 982.0 110.0Q926 46 861.5 1.5Q797 -43 721.5 -66.5Q646 -90 553 -90Q462 -90 381.5 -62.0Q301 -34 240.5 17.5Q180 69 145.0 142.5Q110 216 110 306Q110 359 123.0 408.5Q136 458 158 508Q182 561 226.0 638.0Q270 715 342.5 825.5Q415 936 519.5 1085.5Q624 1235 767 1434Z" fill="black" />
  </g>
</svg>
