<svg xmlns="http://www.w3.org/2000/svg" 
    viewBox="0 0 1099.0 1486.0" 
    width="1099.0" height="1486.0">
  <path d="M 760.0,22.0 Q 732.0,135.0 711.0,232.5 Q 690.0,330.0 674.5,420.0 Q 659.0,510.0 648.0,596.5 Q 637.0,683.0 629.5,775.0 Q 622.0,867.0 617.0,969.0 Q 612.0,1071.0 609.0,1191.0 L 605.0,1324.0 L 0.0,1324.0 L 0.0,1456.0 L 726.0,1456.0 L 733.0,1222.0 Q 737.0,1088.0 742.0,980.0 Q 747.0,872.0 755.0,778.0 Q 763.0,684.0 774.0,598.0 Q 785.0,512.0 801.0,423.0 Q 817.0,334.0 838.5,236.5 Q 860.0,139.0 889.0,22.0 L 760.0,22.0" fill="black"/>
</svg>
