
<svg xmlns="http://www.w3.org/2000/svg" viewBox="0 0 330 573">
  <g transform="translate(-96, 4)">
    <path d="M426 83 401 12Q376 5 340.0 0.5Q304 -4 264 -4Q184 -4 140.0 24.5Q96 53 96 105Q96 149 121.0 189.5Q146 230 207 273Q158 287 127.0 309.5Q96 332 96 368Q96 406 125.0 447.0Q154 488 212.0 521.5Q270 555 352 569L357 566L342 486Q284 475 246.0 457.5Q208 440 190.5 420.5Q173 401 173 383Q173 362 215.0 349.0Q257 336 332 336L337 327L319 259Q275 242 242.0 218.0Q209 194 191.5 170.0Q174 146 174 128Q174 74 294 74Q315 74 355.0 78.5Q395 83 424 87Z" fill="black" />
  </g>
</svg>
