
<svg xmlns="http://www.w3.org/2000/svg" viewBox="0 0 356 583">
  <g transform="translate(-76, 16)">
    <path d="M432 14 362 -16 354 -14Q331 123 315 264Q273 253 236 253Q165 253 120.5 283.5Q76 314 76 378Q76 425 99.5 469.0Q123 513 161.0 540.0Q199 567 239 567Q313 567 346.5 500.0Q380 433 389 321Q395 246 406.5 163.5Q418 81 432 14ZM247 330Q279 330 308 338Q299 416 282.0 452.0Q265 488 230 488Q208 488 190.0 473.5Q172 459 161.5 436.0Q151 413 151 388Q151 356 176.0 343.0Q201 330 247 330Z" fill="black" />
  </g>
</svg>
