
<svg xmlns="http://www.w3.org/2000/svg" viewBox="0 0 708 983">
  <g transform="translate(-48, 0)">
    <path d="M756 980Q756 813 712.0 731.5Q668 650 574 650Q542 650 508.0 664.0Q474 678 449 708Q426 678 406.0 661.5Q386 645 363 640Q349 635 336.0 634.5Q323 634 311 633Q337 555 353.0 471.0Q369 387 369 302Q369 236 363.0 162.0Q357 88 344 0H289Q290 9 290.5 23.0Q291 37 292.0 52.0Q293 67 293.5 81.0Q294 95 294 104Q294 195 277.0 286.5Q260 378 228.5 465.0Q197 552 151.0 633.5Q105 715 48 788L119 976Q173 895 218.0 859.5Q263 824 308 824Q366 824 410.5 863.0Q455 902 483 982H504Q513 919 546.5 888.0Q580 857 619 857Q661 857 691.5 888.5Q722 920 730 983Z" fill="black" />
  </g>
</svg>
