
<svg xmlns="http://www.w3.org/2000/svg" viewBox="0 0 560 717">
  <g transform="translate(-124, -103)">
    <path d="M602 356Q602 369 595.0 390.0Q588 411 574.5 436.0Q561 461 542.0 487.5Q523 514 500 538Q483 556 463.0 571.5Q443 587 422.5 598.0Q402 609 382.5 615.5Q363 622 347 622Q337 622 323.0 608.5Q309 595 295.0 576.5Q281 558 268.5 537.5Q256 517 249 503Q233 473 224.0 447.0Q215 421 215 401Q215 381 226.5 363.5Q238 346 262.0 333.5Q286 321 324.0 313.5Q362 306 415 306Q440 306 472.5 310.0Q505 314 533.5 320.5Q562 327 582.0 336.0Q602 345 602 356ZM684 453Q684 386 648 308Q609 223 561 175Q546 161 523.0 148.0Q500 135 471.5 125.0Q443 115 410.5 109.0Q378 103 345 103Q298 103 257.5 115.0Q217 127 187.5 151.5Q158 176 141.0 212.5Q124 249 124 297Q124 343 143.0 409.0Q162 475 200 555Q220 597 249.0 644.0Q278 691 309.0 730.0Q340 769 370.5 794.5Q401 820 425 820Q469 820 519.5 791.5Q570 763 609 713Q634 682 648.5 646.5Q663 611 671.0 576.0Q679 541 681.5 509.0Q684 477 684 453Z" fill="black" />
  </g>
</svg>
