
<svg xmlns="http://www.w3.org/2000/svg" viewBox="0 0 594 963">
  <g transform="translate(-109, -8)">
    <path d="M661 8Q591 63 544.0 138.0Q497 213 483 297Q477 333 473.0 374.0Q469 415 466.5 464.0Q464 513 463.0 572.5Q462 632 461 707Q411 696 371.0 691.5Q331 687 298 687Q214 687 163 714Q149 721 139.0 730.0Q129 739 122.5 754.5Q116 770 112.5 793.0Q109 816 109 852Q109 872 111.5 901.0Q114 930 119 971H142Q167 926 215.5 903.5Q264 881 351 881Q429 881 562 924Q555 863 552.0 815.5Q549 768 547 726Q546 710 546.0 694.5Q546 679 546 667Q546 604 552.5 541.5Q559 479 576.0 421.0Q593 363 623.5 311.0Q654 259 703 218Z" fill="black" />
  </g>
</svg>
