
<svg xmlns="http://www.w3.org/2000/svg" viewBox="0 0 835 1187">
  <g transform="translate(-129, -293)">
    <path d="M964 1379Q964 1254 916.5 1188.0Q869 1122 770 1122Q713 1122 671.0 1140.0Q629 1158 609 1195Q575 1139 523.0 1110.5Q471 1082 398 1082Q435 1009 451 970Q480 899 495.5 819.0Q511 739 511 626Q511 563 505.5 504.5Q500 446 476 293H436Q436 513 408.0 654.0Q380 795 312 928Q260 1029 129 1222L202 1459Q254 1373 314 1329Q381 1280 463 1280Q548 1280 596 1338Q637 1388 653 1480H685Q693 1388 721.0 1351.0Q749 1314 801 1314Q906 1314 926 1480H959Q959 1458 961.5 1421.5Q964 1385 964 1379Z" fill="black" />
  </g>
</svg>
