<svg xmlns="http://www.w3.org/2000/svg" 
    viewBox="0 0 1150.0 1740.0" 
    width="1150.0" height="1740.0">
  <path d="M 423.0,1317.0 Q 354.0,1317.0 296.0,1291.0 Q 238.0,1265.0 196.0,1220.0 Q 154.0,1175.0 130.0,1114.0 Q 106.0,1053.0 106.0,982.0 Q 106.0,910.0 131.5,847.5 Q 157.0,785.0 200.5,738.0 Q 244.0,691.0 301.5,664.0 Q 359.0,637.0 423.0,637.0 Q 487.0,637.0 544.5,664.0 Q 602.0,691.0 644.5,738.0 Q 687.0,785.0 712.0,847.5 Q 737.0,910.0 737.0,982.0 Q 737.0,1053.0 713.5,1114.0 Q 690.0,1175.0 648.0,1220.0 Q 606.0,1265.0 548.5,1291.0 Q 491.0,1317.0 423.0,1317.0 M 423.0,1402.0 Q 510.0,1402.0 584.5,1370.0 Q 659.0,1338.0 714.5,1281.5 Q 770.0,1225.0 801.5,1148.0 Q 833.0,1071.0 833.0,981.0 Q 833.0,891.0 800.0,812.5 Q 767.0,734.0 711.0,676.0 Q 655.0,618.0 580.5,585.0 Q 506.0,552.0 423.0,552.0 Q 341.0,552.0 266.0,585.0 Q 191.0,618.0 134.0,676.0 Q 77.0,734.0 43.5,812.5 Q 10.0,891.0 10.0,981.0 Q 10.0,1071.0 42.0,1148.0 Q 74.0,1225.0 130.0,1281.5 Q 186.0,1338.0 261.5,1370.0 Q 337.0,1402.0 423.0,1402.0" fill="black"/>
</svg>
