<svg xmlns="http://www.w3.org/2000/svg" 
    viewBox="0 0 1150.0 1740.0" 
    width="1150.0" height="1740.0">
  <path d="M 171.0,1138.0 Q 135.0,1166.0 103.5,1198.0 Q 72.0,1230.0 49.0,1268.0 Q 26.0,1306.0 13.0,1350.0 Q 0.0,1394.0 0.0,1445.0 Q 0.0,1515.0 24.0,1570.0 Q 48.0,1625.0 88.5,1662.5 Q 129.0,1700.0 182.5,1720.0 Q 236.0,1740.0 296.0,1740.0 Q 357.0,1740.0 414.0,1719.5 Q 471.0,1699.0 514.0,1657.5 Q 557.0,1616.0 583.0,1552.5 Q 609.0,1489.0 609.0,1402.0 Q 609.0,1312.0 576.0,1225.5 Q 543.0,1139.0 488.0,1055.0 Q 433.0,971.0 361.0,888.0 Q 289.0,805.0 211.0,721.0 Q 335.0,613.0 420.0,531.5 Q 505.0,450.0 556.5,386.5 Q 608.0,323.0 630.5,271.5 Q 653.0,220.0 653.0,171.0 Q 653.0,125.0 634.5,83.5 Q 616.0,42.0 584.0,0.0 L 511.0,48.0 Q 534.0,83.0 545.5,112.0 Q 557.0,141.0 557.0,176.0 Q 557.0,200.0 553.5,221.5 Q 550.0,243.0 535.0,270.5 Q 520.0,298.0 490.5,334.0 Q 461.0,370.0 409.0,422.0 Q 357.0,474.0 278.5,546.0 Q 200.0,618.0 89.0,717.0 Q 215.0,845.0 297.0,942.5 Q 379.0,1040.0 427.0,1119.0 Q 475.0,1198.0 494.0,1264.5 Q 513.0,1331.0 513.0,1397.0 Q 513.0,1469.0 495.0,1518.0 Q 477.0,1567.0 448.0,1597.5 Q 419.0,1628.0 381.5,1641.5 Q 344.0,1655.0 305.0,1655.0 Q 260.0,1655.0 221.5,1639.5 Q 183.0,1624.0 155.5,1595.5 Q 128.0,1567.0 112.0,1527.5 Q 96.0,1488.0 96.0,1441.0 Q 96.0,1364.0 131.5,1307.0 Q 167.0,1250.0 220.0,1208.0 L 171.0,1138.0" fill="black"/>
</svg>
