<svg xmlns="http://www.w3.org/2000/svg" 
    viewBox="0 0 1150.0 1740.0" 
    width="1150.0" height="1740.0">
  <path d="M 700.0,11.0 Q 640.0,97.0 588.0,181.0 Q 536.0,265.0 489.0,351.5 Q 442.0,438.0 398.0,530.0 Q 354.0,622.0 311.0,723.0 Q 251.0,725.0 204.0,746.5 Q 157.0,768.0 125.0,801.0 Q 93.0,834.0 76.5,873.5 Q 60.0,913.0 60.0,951.0 Q 60.0,1002.0 90.0,1030.0 Q 120.0,1058.0 163.0,1058.0 Q 187.0,1058.0 211.5,1046.0 Q 236.0,1034.0 261.5,1006.5 Q 287.0,979.0 312.5,933.5 Q 338.0,888.0 363.0,821.0 Q 421.0,836.0 482.0,869.0 Q 543.0,902.0 592.5,954.5 Q 642.0,1007.0 673.5,1078.0 Q 705.0,1149.0 705.0,1239.0 Q 705.0,1329.0 681.0,1405.0 Q 657.0,1481.0 608.0,1536.5 Q 559.0,1592.0 484.5,1623.5 Q 410.0,1655.0 310.0,1655.0 Q 251.0,1655.0 178.0,1644.5 Q 105.0,1634.0 30.0,1603.0 L 0.0,1683.0 Q 52.0,1703.0 99.0,1714.5 Q 146.0,1726.0 186.5,1731.5 Q 227.0,1737.0 260.0,1738.5 Q 293.0,1740.0 317.0,1740.0 Q 440.0,1740.0 531.0,1699.5 Q 622.0,1659.0 682.0,1591.0 Q 742.0,1523.0 771.0,1434.0 Q 800.0,1345.0 800.0,1247.0 Q 800.0,1158.0 774.5,1079.0 Q 749.0,1000.0 698.0,935.0 Q 647.0,870.0 571.0,820.5 Q 495.0,771.0 394.0,742.0 Q 441.0,640.0 482.0,554.5 Q 523.0,469.0 566.0,389.5 Q 609.0,310.0 659.0,231.5 Q 709.0,153.0 774.0,64.0 L 700.0,11.0" fill="black"/>
</svg>
