<svg xmlns="http://www.w3.org/2000/svg" 
    viewBox="0 0 1150.0 1740.0" 
    width="1150.0" height="1740.0">
  <path d="M 668.0,0.0 Q 621.0,70.0 586.5,118.5 Q 552.0,167.0 520.0,206.0 Q 488.0,245.0 454.5,281.5 Q 421.0,318.0 378.0,364.0 Q 302.0,367.0 248.0,384.0 Q 194.0,401.0 159.5,425.0 Q 125.0,449.0 109.0,478.0 Q 93.0,507.0 93.0,536.0 Q 93.0,556.0 100.0,574.5 Q 107.0,593.0 120.5,607.0 Q 134.0,621.0 152.5,629.5 Q 171.0,638.0 195.0,638.0 Q 229.0,638.0 264.0,620.0 Q 299.0,602.0 331.0,574.5 Q 363.0,547.0 391.5,514.0 Q 420.0,481.0 441.0,451.0 Q 462.0,456.0 489.5,466.0 Q 517.0,476.0 546.0,492.0 Q 575.0,508.0 603.5,531.5 Q 632.0,555.0 654.0,588.0 Q 676.0,621.0 689.5,664.0 Q 703.0,707.0 703.0,762.0 Q 703.0,844.0 676.5,903.0 Q 650.0,962.0 603.5,999.5 Q 557.0,1037.0 494.5,1055.0 Q 432.0,1073.0 360.0,1073.0 L 117.0,1073.0 L 117.0,1156.0 L 296.0,1156.0 Q 388.0,1156.0 449.5,1178.0 Q 511.0,1200.0 548.0,1234.5 Q 585.0,1269.0 600.5,1312.5 Q 616.0,1356.0 616.0,1399.0 Q 616.0,1448.0 599.0,1491.0 Q 582.0,1534.0 544.0,1565.0 Q 506.0,1596.0 444.5,1614.0 Q 383.0,1632.0 294.0,1632.0 L 0.0,1632.0 L 0.0,1716.0 L 289.0,1716.0 Q 400.0,1716.0 479.5,1691.0 Q 559.0,1666.0 610.5,1622.5 Q 662.0,1579.0 686.5,1521.5 Q 711.0,1464.0 711.0,1399.0 Q 711.0,1362.0 700.0,1323.5 Q 689.0,1285.0 665.0,1249.0 Q 641.0,1213.0 603.5,1182.0 Q 566.0,1151.0 514.0,1129.0 Q 594.0,1106.0 648.5,1064.0 Q 703.0,1022.0 736.5,970.0 Q 770.0,918.0 784.5,861.5 Q 799.0,805.0 799.0,753.0 Q 799.0,690.0 775.0,630.5 Q 751.0,571.0 707.5,520.5 Q 664.0,470.0 604.5,432.0 Q 545.0,394.0 475.0,374.0 Q 501.0,345.0 536.0,305.5 Q 571.0,266.0 608.0,222.5 Q 645.0,179.0 680.5,134.5 Q 716.0,90.0 745.0,50.0 L 668.0,0.0" fill="black"/>
</svg>
