<svg xmlns="http://www.w3.org/2000/svg" 
    viewBox="0 0 1150.0 1740.0" 
    width="1150.0" height="1740.0">
  <path d="M 922.0,1716.0 Q 924.0,1701.0 924.5,1691.0 Q 925.0,1681.0 925.0,1668.0 Q 925.0,1569.0 892.0,1477.0 Q 859.0,1385.0 804.0,1300.5 Q 749.0,1216.0 678.0,1139.0 Q 607.0,1062.0 532.0,992.0 Q 586.0,943.0 634.0,892.5 Q 682.0,842.0 718.5,788.0 Q 755.0,734.0 776.5,676.5 Q 798.0,619.0 798.0,557.0 Q 798.0,483.0 773.0,427.5 Q 748.0,372.0 704.5,334.0 Q 661.0,296.0 602.0,277.0 Q 543.0,258.0 474.0,258.0 Q 389.0,258.0 327.5,280.5 Q 266.0,303.0 226.0,343.0 Q 186.0,383.0 166.5,439.0 Q 147.0,495.0 147.0,561.0 Q 147.0,621.0 168.0,676.5 Q 189.0,732.0 225.0,785.0 Q 261.0,838.0 309.0,889.0 Q 357.0,940.0 411.0,990.0 Q 334.0,1056.0 262.0,1128.0 Q 190.0,1200.0 134.0,1279.5 Q 78.0,1359.0 44.0,1445.5 Q 10.0,1532.0 10.0,1627.0 Q 10.0,1657.0 12.0,1677.0 Q 14.0,1697.0 16.0,1716.0 L 110.0,1716.0 Q 106.0,1693.0 104.5,1676.0 Q 103.0,1659.0 103.0,1638.0 Q 103.0,1549.0 132.0,1469.5 Q 161.0,1390.0 211.5,1316.5 Q 262.0,1243.0 328.5,1175.0 Q 395.0,1107.0 470.0,1043.0 Q 543.0,1109.0 609.0,1181.0 Q 675.0,1253.0 724.0,1332.5 Q 773.0,1412.0 802.0,1499.5 Q 831.0,1587.0 831.0,1685.0 Q 831.0,1693.0 831.0,1699.0 Q 831.0,1705.0 830.0,1716.0 L 922.0,1716.0 M 231.0,554.0 Q 231.0,488.0 256.0,447.0 Q 281.0,406.0 317.5,383.0 Q 354.0,360.0 395.5,351.5 Q 437.0,343.0 470.0,343.0 Q 520.0,343.0 564.5,359.0 Q 609.0,375.0 642.0,404.0 Q 675.0,433.0 694.5,473.5 Q 714.0,514.0 714.0,564.0 Q 714.0,612.0 695.5,659.0 Q 677.0,706.0 645.0,752.0 Q 613.0,798.0 569.0,844.0 Q 525.0,890.0 474.0,936.0 Q 422.0,886.0 377.5,837.5 Q 333.0,789.0 300.5,741.5 Q 268.0,694.0 249.5,647.0 Q 231.0,600.0 231.0,554.0" fill="black"/>
</svg>
