<svg xmlns="http://www.w3.org/2000/svg" 
    viewBox="0 0 1150.0 1740.0" 
    width="1150.0" height="1740.0">
  <path d="M 194.0,1716.0 Q 174.0,1638.0 159.5,1571.0 Q 145.0,1504.0 135.5,1444.0 Q 126.0,1384.0 121.0,1329.0 Q 116.0,1274.0 116.0,1222.0 Q 116.0,1093.0 138.5,1002.5 Q 161.0,912.0 202.0,855.0 Q 243.0,798.0 299.5,771.5 Q 356.0,745.0 424.0,745.0 Q 472.0,745.0 512.5,760.0 Q 553.0,775.0 585.0,796.0 Q 617.0,817.0 639.5,839.5 Q 662.0,862.0 674.0,877.0 Q 632.0,937.0 614.5,993.5 Q 597.0,1050.0 597.0,1095.0 Q 597.0,1158.0 624.0,1199.5 Q 651.0,1241.0 700.0,1241.0 Q 731.0,1241.0 756.5,1225.5 Q 782.0,1210.0 800.0,1183.5 Q 818.0,1157.0 828.0,1122.0 Q 838.0,1087.0 838.0,1047.0 Q 838.0,1000.0 824.5,955.0 Q 811.0,910.0 778.0,858.0 Q 812.0,750.0 852.5,642.5 Q 893.0,535.0 939.5,432.5 Q 986.0,330.0 1038.5,234.0 Q 1091.0,138.0 1150.0,53.0 L 1073.0,0.0 Q 1037.0,53.0 999.5,120.0 Q 962.0,187.0 926.5,259.5 Q 891.0,332.0 858.5,407.0 Q 826.0,482.0 798.5,552.5 Q 771.0,623.0 750.5,684.0 Q 730.0,745.0 719.0,790.0 Q 666.0,744.0 620.0,718.0 Q 574.0,692.0 535.5,679.0 Q 497.0,666.0 466.0,663.0 Q 435.0,660.0 412.0,660.0 Q 308.0,660.0 234.0,706.0 Q 160.0,752.0 112.5,829.0 Q 65.0,906.0 42.5,1006.5 Q 20.0,1107.0 20.0,1217.0 Q 20.0,1298.0 35.0,1425.0 Q 50.0,1552.0 94.0,1716.0 L 194.0,1716.0" fill="black"/>
</svg>
