<svg xmlns="http://www.w3.org/2000/svg" 
    viewBox="0 0 1150.0 1740.0" 
    width="1150.0" height="1740.0">
  <path d="M 717.0,1073.0 L 497.0,1073.0 Q 414.0,1073.0 358.0,1049.5 Q 302.0,1026.0 267.0,987.0 Q 232.0,948.0 217.0,897.5 Q 202.0,847.0 202.0,792.0 Q 202.0,721.0 225.5,659.0 Q 249.0,597.0 293.5,550.5 Q 338.0,504.0 401.0,477.0 Q 464.0,450.0 542.0,450.0 Q 577.0,450.0 625.0,458.0 Q 673.0,466.0 727.0,485.0 Q 697.0,547.0 683.0,590.0 Q 669.0,633.0 669.0,667.0 Q 669.0,719.0 691.0,748.0 Q 713.0,777.0 755.0,777.0 Q 792.0,777.0 823.0,758.5 Q 854.0,740.0 876.5,710.0 Q 899.0,680.0 911.5,642.0 Q 924.0,604.0 924.0,564.0 Q 924.0,528.0 904.5,497.5 Q 885.0,467.0 840.0,432.0 Q 889.0,334.0 951.5,234.5 Q 1014.0,135.0 1083.0,54.0 L 1012.0,0.0 Q 982.0,37.0 947.5,86.0 Q 913.0,135.0 880.0,188.0 Q 847.0,241.0 817.0,295.5 Q 787.0,350.0 766.0,397.0 Q 699.0,377.0 650.0,367.5 Q 601.0,358.0 558.0,358.0 Q 459.0,358.0 376.0,392.5 Q 293.0,427.0 233.0,487.0 Q 173.0,547.0 139.5,627.5 Q 106.0,708.0 106.0,801.0 Q 106.0,841.0 114.0,881.0 Q 122.0,921.0 140.5,959.5 Q 159.0,998.0 190.0,1033.0 Q 221.0,1068.0 268.0,1098.0 Q 192.0,1122.0 144.0,1155.5 Q 96.0,1189.0 68.5,1229.5 Q 41.0,1270.0 30.5,1317.5 Q 20.0,1365.0 20.0,1419.0 Q 20.0,1489.0 45.0,1538.0 Q 70.0,1587.0 110.0,1620.0 Q 150.0,1653.0 200.0,1672.0 Q 250.0,1691.0 300.5,1701.0 Q 351.0,1711.0 396.5,1713.5 Q 442.0,1716.0 473.0,1716.0 L 679.0,1716.0 L 679.0,1632.0 L 496.0,1632.0 Q 419.0,1632.0 350.0,1624.0 Q 281.0,1616.0 229.0,1592.5 Q 177.0,1569.0 146.5,1525.5 Q 116.0,1482.0 116.0,1411.0 Q 116.0,1343.0 144.5,1294.5 Q 173.0,1246.0 220.0,1215.0 Q 267.0,1184.0 327.0,1170.0 Q 387.0,1156.0 449.0,1156.0 L 717.0,1156.0 L 717.0,1073.0" fill="black"/>
</svg>
