<svg xmlns="http://www.w3.org/2000/svg" 
    viewBox="0 0 1150.0 1740.0" 
    width="1150.0" height="1740.0">
  <path d="M 825.0,772.0 Q 725.0,773.0 654.0,807.0 Q 583.0,841.0 537.5,893.5 Q 492.0,946.0 471.0,1011.0 Q 450.0,1076.0 450.0,1138.0 Q 450.0,1202.0 471.0,1255.5 Q 492.0,1309.0 530.0,1348.0 Q 568.0,1387.0 621.0,1408.5 Q 674.0,1430.0 737.0,1430.0 Q 825.0,1430.0 895.0,1389.0 Q 965.0,1348.0 1014.5,1275.5 Q 1064.0,1203.0 1090.5,1104.0 Q 1117.0,1005.0 1117.0,889.0 Q 1117.0,744.0 1081.0,627.0 Q 1045.0,510.0 981.0,428.0 Q 917.0,346.0 828.5,302.0 Q 740.0,258.0 635.0,258.0 Q 543.0,258.0 467.5,289.5 Q 392.0,321.0 331.5,379.0 Q 271.0,437.0 224.5,520.0 Q 178.0,603.0 145.0,705.0 Q 112.0,807.0 88.5,927.0 Q 65.0,1047.0 50.0,1177.5 Q 35.0,1308.0 27.5,1444.5 Q 20.0,1581.0 20.0,1716.0 L 110.0,1716.0 Q 111.0,1569.0 118.0,1430.5 Q 125.0,1292.0 140.0,1166.0 Q 155.0,1040.0 178.5,928.5 Q 202.0,817.0 234.0,725.0 Q 264.0,639.0 304.5,569.0 Q 345.0,499.0 396.0,449.0 Q 447.0,399.0 507.5,371.5 Q 568.0,344.0 638.0,344.0 Q 729.0,344.0 800.0,387.5 Q 871.0,431.0 920.0,506.0 Q 969.0,581.0 995.0,681.5 Q 1021.0,782.0 1021.0,896.0 Q 1021.0,1002.0 996.0,1085.5 Q 971.0,1169.0 930.5,1226.5 Q 890.0,1284.0 838.5,1314.5 Q 787.0,1345.0 734.0,1345.0 Q 704.0,1345.0 670.5,1335.0 Q 637.0,1325.0 609.0,1301.0 Q 581.0,1277.0 563.0,1236.0 Q 545.0,1195.0 545.0,1133.0 Q 545.0,1062.0 571.5,1012.0 Q 598.0,962.0 639.0,929.0 Q 680.0,896.0 729.5,878.5 Q 779.0,861.0 825.0,857.0 L 825.0,772.0" fill="black"/>
</svg>
