<svg xmlns="http://www.w3.org/2000/svg" 
    viewBox="0 0 1150.0 1740.0" 
    width="1150.0" height="1740.0">
  <path d="M 779.0,1677.0 Q 624.0,1464.0 514.0,1303.5 Q 404.0,1143.0 329.0,1026.0 Q 254.0,909.0 210.5,830.5 Q 167.0,752.0 146.0,702.0 Q 132.0,668.0 124.0,631.0 Q 116.0,594.0 116.0,561.0 Q 116.0,485.0 144.5,430.5 Q 173.0,376.0 219.0,341.0 Q 265.0,306.0 322.5,289.5 Q 380.0,273.0 438.0,273.0 Q 504.0,273.0 565.0,297.0 Q 626.0,321.0 681.5,364.0 Q 737.0,407.0 786.5,465.0 Q 836.0,523.0 880.0,591.0 L 961.0,542.0 Q 910.0,466.0 853.5,401.0 Q 797.0,336.0 733.0,288.5 Q 669.0,241.0 596.5,214.0 Q 524.0,187.0 440.0,187.0 Q 356.0,187.0 280.0,213.0 Q 204.0,239.0 146.0,287.5 Q 88.0,336.0 54.0,405.5 Q 20.0,475.0 20.0,563.0 Q 20.0,617.0 34.0,668.0 Q 48.0,719.0 69.0,766.0 Q 94.0,823.0 142.5,907.0 Q 191.0,991.0 267.5,1108.0 Q 344.0,1225.0 451.0,1379.0 Q 558.0,1533.0 701.0,1731.0 L 779.0,1677.0" fill="black"/>
</svg>
