<svg xmlns="http://www.w3.org/2000/svg" 
    viewBox="0 0 1150.0 1740.0" 
    width="1150.0" height="1740.0">
  <path d="M 474.0,1106.0 Q 549.0,1152.0 594.5,1223.0 Q 640.0,1294.0 640.0,1386.0 Q 640.0,1438.0 624.0,1487.0 Q 608.0,1536.0 576.0,1573.0 Q 544.0,1610.0 496.5,1632.5 Q 449.0,1655.0 386.0,1655.0 Q 316.0,1655.0 265.0,1632.0 Q 214.0,1609.0 181.0,1569.0 Q 148.0,1529.0 132.0,1476.5 Q 116.0,1424.0 116.0,1366.0 Q 116.0,1302.0 144.0,1237.5 Q 172.0,1173.0 226.5,1098.0 Q 281.0,1023.0 361.5,934.0 Q 442.0,845.0 548.0,733.0 Q 644.0,631.0 718.5,549.0 Q 793.0,467.0 843.5,400.0 Q 894.0,333.0 920.5,278.0 Q 947.0,223.0 947.0,175.0 Q 947.0,137.0 932.0,92.5 Q 917.0,48.0 884.0,0.0 L 806.0,50.0 Q 823.0,76.0 837.0,106.5 Q 851.0,137.0 851.0,173.0 Q 851.0,212.0 830.5,255.0 Q 810.0,298.0 768.5,351.5 Q 727.0,405.0 664.0,473.5 Q 601.0,542.0 515.0,634.0 Q 393.0,764.0 300.5,865.5 Q 208.0,967.0 145.5,1053.5 Q 83.0,1140.0 51.5,1218.0 Q 20.0,1296.0 20.0,1380.0 Q 20.0,1461.0 47.0,1527.5 Q 74.0,1594.0 122.0,1641.0 Q 170.0,1688.0 235.5,1714.0 Q 301.0,1740.0 378.0,1740.0 Q 461.0,1740.0 527.0,1711.5 Q 593.0,1683.0 639.5,1634.0 Q 686.0,1585.0 710.5,1519.5 Q 735.0,1454.0 735.0,1381.0 Q 735.0,1331.0 723.0,1282.0 Q 711.0,1233.0 684.0,1188.0 Q 657.0,1143.0 614.0,1104.0 Q 571.0,1065.0 509.0,1034.0 L 474.0,1106.0" fill="black"/>
</svg>
