
<svg xmlns="http://www.w3.org/2000/svg" viewBox="0 0 633 1486">
  <g transform="translate(-154, 22)">
    <path d="M619 757Q515 683 444.5 619.0Q374 555 330.5 498.0Q287 441 268.5 389.0Q250 337 250 289Q250 182 331.0 128.0Q412 74 557 74Q624 74 677.5 83.0Q731 92 787 107V21Q667 -22 537 -22Q457 -22 387.5 -1.0Q318 20 266.5 59.0Q215 98 185.5 152.5Q156 207 156 274Q156 326 175.5 385.5Q195 445 234.0 506.5Q273 568 332.5 629.0Q392 690 473 745Q303 807 228.5 883.0Q154 959 154 1044Q154 1101 180.0 1156.5Q206 1212 262.5 1265.0Q319 1318 406.5 1368.0Q494 1418 617 1464V1364Q511 1322 438.5 1279.5Q366 1237 321.5 1197.0Q277 1157 257.5 1120.5Q238 1084 238 1055Q238 980 333.5 909.0Q429 838 619 776Z" fill="black" />
  </g>
</svg>
