
<svg xmlns="http://www.w3.org/2000/svg" viewBox="0 0 768 978">
  <g transform="translate(-116, -206)">
    <path d="M497 1184Q540 1184 585.0 1163.5Q630 1143 673.0 1105.5Q716 1068 754.5 1015.0Q793 962 821.5 896.5Q850 831 867.0 755.0Q884 679 884 595Q884 497 854.5 424.5Q825 352 773.0 303.0Q721 254 650.5 230.0Q580 206 499 206Q406 206 335.0 233.5Q264 261 215.0 310.5Q166 360 141.0 429.0Q116 498 116 580Q116 662 131.5 738.5Q147 815 174.0 882.0Q201 949 238.0 1005.0Q275 1061 317.0 1100.5Q359 1140 405.0 1162.0Q451 1184 497 1184ZM495 1088Q460 1088 424.5 1068.5Q389 1049 356.0 1015.0Q323 981 294.5 933.5Q266 886 245.0 830.5Q224 775 212.0 713.0Q200 651 200 587Q200 450 277.0 376.5Q354 303 496 303Q569 303 625.5 323.5Q682 344 721.0 381.0Q760 418 780.0 470.5Q800 523 800 586Q800 658 787.0 723.5Q774 789 751.0 844.5Q728 900 698.0 945.0Q668 990 634.0 1022.0Q600 1054 564.5 1071.0Q529 1088 495 1088Z" fill="black" />
  </g>
</svg>
