
<svg xmlns="http://www.w3.org/2000/svg" viewBox="0 0 847 1448">
  <g transform="translate(-77, 0)">
    <path d="M830 0Q803 94 783.0 181.0Q763 268 747.5 357.5Q732 447 720.5 543.5Q709 640 700 754Q672 739 644.5 727.5Q617 716 588.0 708.5Q559 701 526.5 697.0Q494 693 457 693Q377 693 307.5 719.0Q238 745 187.0 792.5Q136 840 106.5 907.0Q77 974 77 1056Q77 1130 104.0 1200.5Q131 1271 176.5 1326.0Q222 1381 282.5 1414.5Q343 1448 411 1448Q479 1448 546.5 1409.0Q614 1370 664 1297Q685 1265 703.5 1225.5Q722 1186 737.0 1132.5Q752 1079 762.0 1009.0Q772 939 777 847Q786 730 798.0 627.0Q810 524 827.0 423.5Q844 323 867.5 220.0Q891 117 924 0ZM693 844Q691 901 684.5 954.5Q678 1008 668.0 1055.0Q658 1102 644.5 1140.5Q631 1179 616 1206Q576 1276 523.5 1314.0Q471 1352 408 1352Q359 1352 314.0 1326.0Q269 1300 235.0 1258.0Q201 1216 181.0 1163.5Q161 1111 161 1058Q161 996 184.0 946.0Q207 896 247.0 860.0Q287 824 340.5 804.5Q394 785 454 785Q529 785 585.0 800.5Q641 816 693 844Z" fill="black" />
  </g>
</svg>
