
<svg xmlns="http://www.w3.org/2000/svg" viewBox="0 0 1239 1489">
  <g transform="translate(-27, 0)">
    <path d="M1266 1489Q1243 1272 1160.0 1164.5Q1077 1057 948 1057Q899 1057 845.5 1082.5Q792 1108 750 1165Q716 1121 664.5 1097.5Q613 1074 586 1069L629 1001Q702 886 732.0 767.5Q762 649 762 485V0H483V485Q483 621 446.0 720.0Q409 819 344 932L27 1489H317Q361 1427 404.5 1391.5Q448 1356 504 1356Q559 1356 600.0 1389.5Q641 1423 657 1489H842Q860 1428 886.5 1392.0Q913 1356 944 1356Q973 1356 992.5 1386.0Q1012 1416 1024 1489Z" fill="black" />
  </g>
</svg>
