
<svg xmlns="http://www.w3.org/2000/svg" viewBox="0 0 1092 1489">
  <g transform="translate(-182, 0)">
    <path d="M1274 0H983L879 330Q846 432 835.5 508.5Q825 585 825 623V633Q792 615 740.5 598.5Q689 582 621 582Q437 582 309.5 707.5Q182 833 182 1022Q182 1137 221.5 1221.5Q261 1306 328 1368Q392 1427 475.5 1458.0Q559 1489 641 1489Q730 1489 810.5 1459.0Q891 1429 958 1371Q1027 1311 1065.5 1229.0Q1104 1147 1104 1047V729Q1104 636 1116.5 548.0Q1129 460 1155 379ZM823 911V1006Q823 1100 768.5 1164.5Q714 1229 643 1229Q556 1229 499.0 1170.0Q442 1111 442 1022Q442 942 497.5 892.0Q553 842 618 842Q674 842 728.5 861.5Q783 881 823 911Z" fill="black" />
  </g>
</svg>
