
<svg xmlns="http://www.w3.org/2000/svg" viewBox="0 0 267 374">
  <g transform="translate(-48, -158)">
    <path d="M197 532Q225 532 252.0 509.5Q279 487 297.0 448.0Q315 409 315 357Q315 259 277.0 208.5Q239 158 156 158Q106 158 77.0 186.0Q48 214 48 260Q48 298 59.0 340.0Q70 382 95 433Q143 532 197 532ZM274 310Q274 335 259.0 365.5Q244 396 222.0 418.5Q200 441 178 441Q159 441 143.5 425.0Q128 409 117.0 385.5Q106 362 100.5 340.5Q95 319 95 308Q95 279 116.0 264.0Q137 249 175 249Q198 249 220.5 254.0Q243 259 258.5 272.5Q274 286 274 310Z" fill="black" />
  </g>
</svg>
