
<svg xmlns="http://www.w3.org/2000/svg" viewBox="0 0 263 433">
  <g transform="translate(-20, -143)">
    <path d="M264 569Q263 561 263.0 541.5Q263 522 263 492Q263 423 266.0 377.0Q269 331 276 284Q278 271 280.0 255.0Q282 239 283 229Q278 212 268.5 186.0Q259 160 252 143H238Q234 158 229.0 189.0Q224 220 220.5 257.5Q217 295 217 327Q217 371 218.5 406.0Q220 441 223 474Q205 464 181.5 458.5Q158 453 139 453Q114 453 86.0 459.0Q58 465 40 478Q29 486 24.5 492.0Q20 498 20 511Q20 517 22.5 536.0Q25 555 32 574L42 576Q63 554 91.0 545.5Q119 537 153 537Q173 537 200.5 545.0Q228 553 247 573Z" fill="black" />
  </g>
</svg>
