
<svg xmlns="http://www.w3.org/2000/svg" viewBox="0 0 219 438">
  <g transform="translate(-32, -143)">
    <path d="M207 143Q202 159 198.0 192.0Q194 225 191.5 268.0Q189 311 188 356Q174 341 155.5 334.0Q137 327 119 327Q82 327 57.0 347.5Q32 368 32 411Q32 435 39.0 464.5Q46 494 60.5 520.5Q75 547 96.5 564.0Q118 581 147 581Q182 581 199.5 560.5Q217 540 224.0 497.5Q231 455 234 388Q235 372 237.5 342.5Q240 313 244 284Q246 270 248.0 256.0Q250 242 251 229Q246 212 236.5 186.0Q227 160 220 143ZM136 408Q153 408 166.5 411.0Q180 414 186 418Q184 503 129 503Q107 503 91.5 484.5Q76 466 76 449Q76 428 93.5 418.0Q111 408 136 408Z" fill="black" />
  </g>
</svg>
