
<svg xmlns="http://www.w3.org/2000/svg" viewBox="0 0 341 1225">
  <g transform="translate(-349, -107)">
    <path d="M690 387Q690 334 682.0 262.5Q674 191 659 119Q657 107 634 107Q610 107 610 119Q610 291 590.5 433.0Q571 575 542.0 687.5Q513 800 479.5 884.5Q446 969 417.0 1027.5Q388 1086 368.5 1118.5Q349 1151 349 1160Q349 1187 352.0 1217.0Q355 1247 360.5 1272.5Q366 1298 373.5 1315.0Q381 1332 391 1332Q396 1332 400.0 1327.0Q404 1322 409 1315Q472 1219 524.0 1109.0Q576 999 612.5 880.5Q649 762 669.5 637.5Q690 513 690 387Z" fill="black" />
  </g>
</svg>
