
<svg xmlns="http://www.w3.org/2000/svg" viewBox="0 0 902 1249">
  <g transform="translate(-72, -107)">
    <path d="M926 1343Q928 1356 950 1356Q974 1356 974 1340Q974 1271 959.0 1216.0Q944 1161 915.5 1123.0Q887 1085 847.0 1064.5Q807 1044 757 1044Q719 1044 683.5 1061.0Q648 1078 618 1121Q602 1096 582.0 1075.0Q562 1054 535.5 1038.5Q509 1023 475.5 1014.5Q442 1006 400 1006Q379 1006 359.5 1009.0Q340 1012 317 1018Q348 952 376.0 877.5Q404 803 425.0 725.5Q446 648 458.0 569.5Q470 491 470 417Q470 377 469.0 343.0Q468 309 465.0 275.0Q462 241 457.0 203.0Q452 165 445 118Q443 107 420 107Q396 107 396 118Q396 310 372.0 461.0Q348 612 312.0 727.5Q276 843 234.0 925.0Q192 1007 156.0 1061.0Q120 1115 96.0 1143.5Q72 1172 72 1181Q72 1205 78.5 1231.5Q85 1258 94.5 1280.5Q104 1303 114.0 1317.5Q124 1332 130 1332Q134 1332 138.0 1326.5Q142 1321 147 1315Q219 1218 283.5 1175.5Q348 1133 409 1133Q449 1133 478.5 1141.5Q508 1150 530.0 1172.0Q552 1194 568.0 1230.0Q584 1266 596 1322Q598 1334 619 1334Q648 1334 648 1318Q655 1274 665.0 1245.5Q675 1217 691.0 1200.0Q707 1183 729.0 1176.0Q751 1169 781 1169Q826 1169 866.0 1209.5Q906 1250 926 1343Z" fill="black" />
  </g>
</svg>
