
<svg xmlns="http://www.w3.org/2000/svg" viewBox="0 0 679 1231">
  <g transform="translate(-180, -102)">
    <path d="M641 777Q590 748 535.5 735.0Q481 722 418 722Q363 722 319.0 738.5Q275 755 244.0 785.5Q213 816 196.5 859.5Q180 903 180 957Q180 1024 205.5 1091.0Q231 1158 271.5 1212.0Q312 1266 363.5 1299.5Q415 1333 466 1333Q528 1333 575.5 1296.5Q623 1260 657.0 1199.0Q691 1138 710.5 1059.0Q730 980 736 895Q747 742 767.5 609.5Q788 477 808.5 375.5Q829 274 844.0 209.5Q859 145 859 129Q859 118 846.5 110.0Q834 102 805 102Q783 102 772.5 108.0Q762 114 758 124Q755 128 747.0 156.5Q739 185 728.0 231.5Q717 278 704.0 340.0Q691 402 679.0 473.0Q667 544 657.0 621.5Q647 699 641 777ZM437 846Q489 846 536.5 857.5Q584 869 627 898Q618 965 602.5 1020.0Q587 1075 563.5 1115.0Q540 1155 508.0 1177.0Q476 1199 434 1199Q401 1199 369.5 1181.5Q338 1164 314.0 1136.5Q290 1109 275.5 1076.0Q261 1043 261 1012Q261 977 274.5 947.0Q288 917 312.0 894.5Q336 872 368.0 859.0Q400 846 437 846Z" fill="black" />
  </g>
</svg>
