
<svg xmlns="http://www.w3.org/2000/svg" viewBox="0 0 659 1486">
  <g transform="translate(-98, 22)">
    <path d="M615 787Q531 709 472.0 645.5Q413 582 373.0 530.5Q333 479 310.0 439.0Q287 399 275.0 369.5Q263 340 259.5 319.5Q256 299 256 287Q256 245 277.5 218.5Q299 192 334.5 177.5Q370 163 414.0 158.0Q458 153 503 153Q578 153 638.5 162.5Q699 172 757 187V22Q631 -22 489 -22Q418 -22 348.5 -7.5Q279 7 223.0 39.0Q167 71 132.5 121.5Q98 172 98 243Q98 284 111.5 336.5Q125 389 158.0 452.0Q191 515 246.5 588.5Q302 662 386 745Q306 782 252.5 816.0Q199 850 167.5 884.5Q136 919 123.0 955.5Q110 992 110 1034Q110 1088 132.0 1144.5Q154 1201 208.5 1256.5Q263 1312 354.0 1364.5Q445 1417 583 1464V1288Q468 1252 400.5 1217.0Q333 1182 298.5 1150.5Q264 1119 254.0 1093.5Q244 1068 244 1052Q244 1028 259.5 1007.5Q275 987 316.0 960.5Q357 934 429.0 898.0Q501 862 615 806Z" fill="black" />
  </g>
</svg>
