
<svg xmlns="http://www.w3.org/2000/svg" viewBox="0 0 953 1448">
  <g transform="translate(-34, 0)">
    <path d="M987 0H828Q787 97 760.0 191.5Q733 286 715.0 374.5Q697 463 686.5 544.5Q676 626 668 698Q542 639 422 639Q342 639 271.5 665.0Q201 691 148.5 739.5Q96 788 65.0 859.0Q34 930 34 1020Q34 1100 59.5 1177.0Q85 1254 133.0 1314.0Q181 1374 251.0 1411.0Q321 1448 411 1448Q499 1448 569.5 1407.5Q640 1367 700 1273Q732 1222 751.0 1172.5Q770 1123 781.0 1068.5Q792 1014 798.0 952.5Q804 891 810 818Q817 736 827.0 645.5Q837 555 856.0 453.5Q875 352 906.0 239.0Q937 126 987 0ZM654 850Q650 892 646.0 925.0Q642 958 637.0 986.0Q632 1014 625.0 1039.0Q618 1064 608 1090Q573 1178 517.5 1226.5Q462 1275 393 1275Q349 1275 311.5 1256.0Q274 1237 246.5 1205.0Q219 1173 203.0 1129.0Q187 1085 187 1036Q187 981 207.0 938.0Q227 895 262.0 865.0Q297 835 345.5 819.5Q394 804 451 804Q499 804 550.5 815.5Q602 827 654 850Z" fill="black" />
  </g>
</svg>
