<svg xmlns="http://www.w3.org/2000/svg"
     width="160" height="200"
     viewBox="0 0 160 200">
  <g transform="translate(80.0,100.0) scale(0.13212147086249706, -0.13212147086249706) translate(-702.4965986394558, -645.0)">
    <path d="M945 714Q945 558 833.0 447.5Q721 337 562 337Q404 337 292.0 447.5Q180 558 180 714Q180 870 292.0 981.0Q404 1092 562 1092Q720 1092 832.5 981.0Q945 870 945 714ZM768 715Q768 799 708.0 858.0Q648 917 563 917Q478 917 417.5 858.0Q357 799 357 715Q357 631 417.5 571.5Q478 512 563 512Q648 512 708.0 571.5Q768 631 768 715Z" fill="black"/>
  </g>
</svg>
