<svg xmlns="http://www.w3.org/2000/svg"
     width="160" height="200"
     viewBox="0 0 160 200">
  <g transform="translate(80.0,100.0) scale(0.13212147086249706, -0.13212147086249706) translate(-702.4965986394558, -645.0)">
    <path d="M924 534Q924 378 814 295Q709 214 521 214L673 51L544 -40L133 417L261 508Q364 357 518 357Q748 357 748 534Q748 626 670 674Q602 714 493 714H401V874Q442 874 493 875Q689 877 689 1021Q689 1095 639.0 1144.0Q589 1193 519 1193Q418 1193 286 1103L180 1229Q326 1360 516 1360Q668 1360 766 1270Q868 1176 868 1023Q868 943 829 891Q804 856 730 804Q924 709 924 534Z" fill="black"/>
  </g>
</svg>
