<svg xmlns="http://www.w3.org/2000/svg"
     width="160" height="200"
     viewBox="0 0 160 200">
  <g transform="translate(80.0,100.0) scale(0.13212147086249706, -0.13212147086249706) translate(-702.4965986394558, -645.0)">
    <path d="M1151 375Q1151 165 826 -40L770 129Q831 158 907 230Q1001 319 1001 381Q1001 507 921 636Q837 584 806 570Q710 528 600 528Q434 528 298 649Q158 774 158 936Q158 1093 252 1217Q319 1305 409 1352L481 1192Q438 1153 394 1114Q334 1042 334 934Q334 820 433 749Q515 689 603 689Q738 689 840 768Q737 880 737 961Q737 1038 797.5 1097.0Q858 1156 942 1156Q1022 1156 1086.0 1091.0Q1150 1026 1150 950Q1150 829 1044 725Q1121 597 1142 498Q1151 458 1151 375ZM1013 951Q1013 1016 942 1016Q876 1016 876 952Q876 898 945 835Q1013 889 1013 951Z" fill="black"/>
  </g>
</svg>
