
<svg xmlns="http://www.w3.org/2000/svg" viewBox="0 0 954 1434">
  <g transform="translate(-72, 0)">
    <path d="M203 1434Q224 1341 242.0 1258.5Q260 1176 275 1099Q298 1091 326.5 1087.0Q355 1083 384 1083Q463 1083 501.5 1132.0Q540 1181 540 1265Q540 1306 531.0 1349.0Q522 1392 504 1434H625Q643 1389 652.0 1343.5Q661 1298 661 1255Q661 1212 652.0 1173.5Q643 1135 628 1108Q662 1096 692.5 1089.5Q723 1083 758 1083Q831 1083 868.0 1134.5Q905 1186 905 1272Q905 1356 869 1434H989Q1026 1347 1026 1259Q1026 1196 1008.0 1143.5Q990 1091 957.0 1053.5Q924 1016 877.5 995.0Q831 974 773 974Q722 974 669.5 987.5Q617 1001 563 1030Q497 974 400 974Q379 974 350.5 978.0Q322 982 298 988Q309 919 317.0 853.5Q325 788 330.5 718.0Q336 648 339.0 570.5Q342 493 342 401V0H220V378Q220 518 212.0 642.5Q204 767 186.5 891.0Q169 1015 141.0 1147.0Q113 1279 72 1434Z" fill="black" />
  </g>
</svg>
