
<svg xmlns="http://www.w3.org/2000/svg" viewBox="0 0 900 1448">
  <g transform="translate(-55, 0)">
    <path d="M829 0Q795 96 771.0 186.5Q747 277 730.5 366.0Q714 455 703.5 544.0Q693 633 684 726Q624 696 565.5 681.0Q507 666 439 666Q359 666 289.5 692.0Q220 718 167.5 766.0Q115 814 85.0 883.0Q55 952 55 1038Q55 1115 81.0 1188.5Q107 1262 154.0 1320.0Q201 1378 266.5 1413.0Q332 1448 411 1448Q489 1448 558.0 1408.5Q627 1369 682 1285Q709 1244 727.5 1199.0Q746 1154 759.0 1100.0Q772 1046 780.0 980.5Q788 915 793 832Q801 733 812.0 636.0Q823 539 841.0 438.0Q859 337 886.5 229.0Q914 121 955 0ZM673 847Q667 947 652.5 1020.5Q638 1094 612 1148Q574 1227 520.0 1270.0Q466 1313 400 1313Q354 1313 313.0 1290.5Q272 1268 241.0 1231.0Q210 1194 192.0 1146.0Q174 1098 174 1047Q174 988 195.5 941.5Q217 895 254.5 862.0Q292 829 342.5 811.5Q393 794 452 794Q514 794 567.5 807.5Q621 821 673 847Z" fill="black" />
  </g>
</svg>
