<svg xmlns="http://www.w3.org/2000/svg" 
    viewBox="0 0 902.0 1254.0" 
    width="902.0" height="1254.0">
  <path d="M 528.0,463.0 Q 545.0,447.0 558.0,431.0 Q 571.0,415.0 571.0,396.0 Q 571.0,385.0 565.0,371.0 Q 559.0,357.0 543.0,335.0 L 527.0,313.0 Q 514.0,295.0 499.0,283.0 Q 484.0,271.0 466.0,271.0 Q 455.0,271.0 441.0,275.5 Q 427.0,280.0 413.0,294.0 L 373.0,329.0 Q 352.0,349.0 338.5,366.5 Q 325.0,384.0 325.0,401.0 Q 325.0,426.0 356.0,471.0 L 371.0,494.0 Q 381.0,508.0 395.0,519.0 Q 409.0,530.0 426.0,530.0 Q 441.0,530.0 456.5,522.0 Q 472.0,514.0 486.0,501.0 L 528.0,463.0" fill="black"/>
</svg>
