<svg xmlns="http://www.w3.org/2000/svg" 
    viewBox="0 0 902.0 1254.0" 
    width="902.0" height="1254.0">
  <path d="M 854.0,1241.0 Q 856.0,1254.0 878.0,1254.0 Q 902.0,1254.0 902.0,1238.0 Q 902.0,1169.0 887.0,1114.0 Q 872.0,1059.0 843.5,1021.0 Q 815.0,983.0 775.0,962.5 Q 735.0,942.0 685.0,942.0 Q 647.0,942.0 611.5,959.0 Q 576.0,976.0 546.0,1019.0 Q 530.0,994.0 510.0,973.0 Q 490.0,952.0 463.5,936.5 Q 437.0,921.0 403.5,912.5 Q 370.0,904.0 328.0,904.0 Q 307.0,904.0 287.5,907.0 Q 268.0,910.0 245.0,916.0 Q 276.0,850.0 304.0,775.5 Q 332.0,701.0 353.0,623.5 Q 374.0,546.0 386.0,467.5 Q 398.0,389.0 398.0,315.0 Q 398.0,275.0 397.0,241.0 Q 396.0,207.0 393.0,173.0 Q 390.0,139.0 385.0,101.0 Q 380.0,63.0 373.0,16.0 Q 371.0,5.0 348.0,5.0 Q 324.0,5.0 324.0,16.0 Q 324.0,208.0 300.0,359.0 Q 276.0,510.0 240.0,625.5 Q 204.0,741.0 162.0,823.0 Q 120.0,905.0 84.0,959.0 Q 48.0,1013.0 24.0,1041.5 Q 0.0,1070.0 0.0,1079.0 Q 0.0,1103.0 6.5,1129.5 Q 13.0,1156.0 22.5,1178.5 Q 32.0,1201.0 42.0,1215.5 Q 52.0,1230.0 58.0,1230.0 Q 62.0,1230.0 66.0,1224.5 Q 70.0,1219.0 75.0,1213.0 Q 147.0,1116.0 211.5,1073.5 Q 276.0,1031.0 337.0,1031.0 Q 377.0,1031.0 406.5,1039.5 Q 436.0,1048.0 458.0,1070.0 Q 480.0,1092.0 496.0,1128.0 Q 512.0,1164.0 524.0,1220.0 Q 526.0,1232.0 547.0,1232.0 Q 576.0,1232.0 576.0,1216.0 Q 583.0,1172.0 593.0,1143.5 Q 603.0,1115.0 619.0,1098.0 Q 635.0,1081.0 657.0,1074.0 Q 679.0,1067.0 709.0,1067.0 Q 754.0,1067.0 794.0,1107.5 Q 834.0,1148.0 854.0,1241.0" fill="black"/>
</svg>
