<svg xmlns="http://www.w3.org/2000/svg" 
    viewBox="0 0 902.0 1254.0" 
    width="902.0" height="1254.0">
  <path d="M 454.0,1213.0 Q 470.0,1225.0 481.0,1227.5 Q 492.0,1230.0 498.0,1224.5 Q 504.0,1219.0 506.5,1207.0 Q 509.0,1195.0 509.0,1179.0 Q 509.0,1152.0 503.0,1139.5 Q 497.0,1127.0 483.0,1116.0 Q 424.0,1074.0 377.0,1036.0 Q 330.0,998.0 297.5,968.0 Q 265.0,938.0 247.5,916.0 Q 230.0,894.0 230.0,883.0 Q 230.0,868.0 249.5,853.0 Q 269.0,838.0 297.5,823.5 Q 326.0,809.0 359.0,794.5 Q 392.0,780.0 419.0,767.0 Q 441.0,756.0 457.0,746.5 Q 473.0,737.0 483.0,725.5 Q 493.0,714.0 497.5,698.5 Q 502.0,683.0 502.0,660.0 Q 502.0,625.0 492.5,601.5 Q 483.0,578.0 463.0,555.0 Q 429.0,516.0 390.5,473.0 Q 352.0,430.0 319.5,391.0 Q 287.0,352.0 265.5,321.0 Q 244.0,290.0 245.0,275.0 Q 245.0,257.0 269.0,238.5 Q 293.0,220.0 333.5,203.0 Q 374.0,186.0 426.0,170.0 Q 478.0,154.0 534.5,141.0 Q 591.0,128.0 647.5,118.5 Q 704.0,109.0 752.0,105.0 Q 768.0,104.0 768.0,84.0 Q 768.0,67.0 764.0,59.0 Q 760.0,51.0 746.0,47.0 Q 683.0,27.0 630.0,13.5 Q 577.0,0.0 543.0,0.0 Q 514.0,0.0 473.0,8.0 Q 432.0,16.0 389.0,28.0 Q 346.0,40.0 307.0,54.5 Q 268.0,69.0 244.0,81.0 Q 193.0,107.0 171.0,136.0 Q 149.0,165.0 149.0,203.0 Q 149.0,254.0 180.0,312.0 Q 211.0,370.0 254.0,427.0 Q 297.0,484.0 343.0,535.5 Q 389.0,587.0 419.0,625.0 Q 368.0,647.0 317.5,667.5 Q 267.0,688.0 227.0,710.5 Q 187.0,733.0 162.0,759.0 Q 137.0,785.0 137.0,820.0 Q 137.0,871.0 166.0,923.5 Q 195.0,976.0 241.0,1026.5 Q 287.0,1077.0 343.5,1124.0 Q 400.0,1171.0 454.0,1213.0" fill="black"/>
</svg>
