<svg xmlns="http://www.w3.org/2000/svg" 
    viewBox="0 0 902.0 1254.0" 
    width="902.0" height="1254.0">
  <path d="M 128.0,1055.0 Q 108.0,1055.0 99.0,1072.5 Q 90.0,1090.0 90.0,1121.0 Q 90.0,1150.0 99.0,1167.0 Q 108.0,1184.0 128.0,1184.0 L 616.0,1184.0 Q 646.0,1184.0 659.5,1167.5 Q 673.0,1151.0 673.0,1119.0 L 673.0,1054.0 Q 673.0,836.0 693.5,654.5 Q 714.0,473.0 739.0,338.5 Q 764.0,204.0 784.5,123.0 Q 805.0,42.0 805.0,26.0 Q 805.0,15.0 792.5,7.5 Q 780.0,0.0 751.0,0.0 Q 728.0,0.0 718.0,5.5 Q 708.0,11.0 704.0,21.0 Q 701.0,28.0 690.5,73.0 Q 680.0,118.0 666.0,191.5 Q 652.0,265.0 636.5,362.5 Q 621.0,460.0 608.0,572.5 Q 595.0,685.0 586.5,808.0 Q 578.0,931.0 578.0,1055.0 L 128.0,1055.0" fill="black"/>
</svg>
