<svg xmlns="http://www.w3.org/2000/svg" 
    viewBox="0 0 902.0 1254.0" 
    width="902.0" height="1254.0">
  <path d="M 446.0,0.0 Q 413.0,0.0 398.5,11.0 Q 384.0,22.0 377.0,57.0 L 362.0,123.0 Q 314.0,349.0 259.0,523.5 Q 204.0,698.0 155.0,823.0 Q 106.0,948.0 68.5,1026.0 Q 31.0,1104.0 18.0,1139.0 Q 14.0,1150.0 11.0,1158.0 Q 8.0,1166.0 8.0,1172.0 Q 8.0,1181.0 21.5,1187.0 Q 35.0,1193.0 67.0,1193.0 Q 99.0,1193.0 115.0,1189.0 Q 131.0,1185.0 136.0,1176.0 Q 142.0,1167.0 160.5,1126.5 Q 179.0,1086.0 205.0,1020.5 Q 231.0,955.0 263.0,867.5 Q 295.0,780.0 328.0,678.0 Q 361.0,576.0 393.0,461.5 Q 425.0,347.0 451.0,228.0 Q 480.0,354.0 514.5,471.5 Q 549.0,589.0 584.0,692.0 Q 619.0,795.0 652.5,881.5 Q 686.0,968.0 712.5,1031.5 Q 739.0,1095.0 757.0,1132.5 Q 775.0,1170.0 779.0,1176.0 Q 787.0,1187.0 800.5,1190.0 Q 814.0,1193.0 838.0,1193.0 Q 864.0,1193.0 876.0,1186.0 Q 888.0,1179.0 888.0,1172.0 Q 888.0,1166.0 883.5,1157.5 Q 879.0,1149.0 877.0,1142.0 Q 863.0,1108.0 825.5,1030.0 Q 788.0,952.0 738.5,826.5 Q 689.0,701.0 633.5,526.0 Q 578.0,351.0 530.0,123.0 L 516.0,57.0 Q 509.0,22.0 494.5,11.0 Q 480.0,0.0 446.0,0.0" fill="black"/>
</svg>
