<svg xmlns="http://www.w3.org/2000/svg" 
    viewBox="0 0 1913.0 1857.0" 
    width="1913.0" height="1857.0">
  <path d="M 1913.0,770.0 L 1786.0,579.0 Q 1527.0,633.0 1263.0,770.0 L 1263.0,694.0 L 657.0,694.0 L 657.0,780.0 Q 378.0,630.0 127.0,579.0 L 0.0,770.0 Q 373.0,821.0 673.0,1003.0 L 348.0,1003.0 L 348.0,1136.0 L 802.0,1136.0 L 802.0,1093.0 Q 821.0,1108.0 854.0,1136.0 L 854.0,1413.0 L 309.0,1413.0 L 309.0,1114.0 L 102.0,1114.0 L 102.0,1571.0 L 854.0,1571.0 L 854.0,1642.0 L 211.0,1642.0 L 211.0,1802.0 L 1673.0,1802.0 L 1673.0,1642.0 L 1063.0,1642.0 L 1063.0,1571.0 L 1802.0,1571.0 L 1802.0,1114.0 L 1595.0,1114.0 L 1595.0,1413.0 L 1061.0,1413.0 L 1061.0,1128.0 L 1114.0,1083.0 L 1114.0,1136.0 L 1548.0,1136.0 L 1548.0,1003.0 L 1231.0,1003.0 Q 1534.0,821.0 1913.0,770.0 M 1118.0,854.0 Q 1033.0,906.0 952.0,972.0 Q 871.0,908.0 784.0,854.0 L 1118.0,854.0 M 1548.0,1208.0 L 1114.0,1208.0 L 1114.0,1341.0 L 1548.0,1341.0 L 1548.0,1208.0 M 802.0,1208.0 L 348.0,1208.0 L 348.0,1341.0 L 802.0,1341.0 L 802.0,1208.0 M 1525.0,323.0 Q 1525.0,225.0 1467.5,165.5 Q 1410.0,106.0 1302.0,106.0 L 1292.0,106.0 Q 1232.0,106.0 1134.0,116.0 L 1081.0,325.0 Q 1194.0,309.0 1271.0,309.0 Q 1319.0,309.0 1319.0,358.0 L 1319.0,463.0 L 884.0,463.0 L 884.0,16.0 L 682.0,18.0 L 682.0,463.0 L 344.0,463.0 L 344.0,620.0 L 1525.0,620.0 L 1525.0,323.0" fill="black"/>
</svg>
