<svg xmlns="http://www.w3.org/2000/svg" 
    viewBox="0 0 1913.0 1857.0" 
    width="1913.0" height="1857.0">
  <path d="M 1757.0,8.0 L 1548.0,8.0 L 1548.0,168.0 L 366.0,168.0 L 366.0,8.0 L 157.0,8.0 L 157.0,1712.0 L 1757.0,1712.0 L 1757.0,8.0 M 1548.0,377.0 L 1548.0,837.0 Q 1506.0,651.0 1358.0,651.0 L 1231.0,651.0 Q 1150.0,651.0 1096.0,701.5 Q 1042.0,752.0 1042.0,827.0 L 1042.0,1503.0 L 846.0,1503.0 L 846.0,1263.0 Q 846.0,951.0 768.5,794.5 Q 691.0,638.0 544.0,510.0 L 383.0,663.0 Q 505.0,763.0 567.5,881.0 Q 630.0,999.0 630.0,1226.0 L 630.0,1503.0 L 366.0,1503.0 L 366.0,377.0 L 1548.0,377.0 M 1548.0,1032.0 L 1548.0,1503.0 L 1247.0,1503.0 L 1247.0,915.0 Q 1247.0,858.0 1284.0,858.0 Q 1353.0,858.0 1366.0,1095.0 L 1548.0,1032.0" fill="black"/>
</svg>
