<svg xmlns="http://www.w3.org/2000/svg" 
    viewBox="0 0 1913.0 1857.0" 
    width="1913.0" height="1857.0">
  <path d="M 1894.0,471.0 Q 1863.0,205.0 1806.5,122.0 Q 1750.0,39.0 1622.0,39.0 L 1401.0,39.0 Q 1179.0,39.0 1179.0,268.0 L 1179.0,288.0 Q 1195.0,741.0 1233.0,1226.0 L 864.0,1226.0 Q 865.0,747.0 695.5,471.5 Q 526.0,196.0 170.0,0.0 L 0.0,137.0 Q 359.0,349.0 502.5,591.0 Q 646.0,833.0 649.0,1226.0 L 104.0,1226.0 L 104.0,1437.0 L 649.0,1437.0 L 649.0,1853.0 L 864.0,1853.0 L 864.0,1437.0 L 1468.0,1437.0 Q 1392.0,543.0 1392.0,303.0 Q 1392.0,247.0 1446.0,247.0 L 1593.0,247.0 Q 1618.0,247.0 1636.0,263.0 Q 1654.0,279.0 1669.5,366.0 Q 1685.0,453.0 1689.0,538.0 L 1894.0,471.0" fill="black"/>
</svg>
