
<svg xmlns="http://www.w3.org/2000/svg" viewBox="0 0 520 965">
  <g transform="translate(-198, -14)">
    <path d="M718 130Q696 112 669.5 91.5Q643 71 617.0 54.0Q591 37 567.5 25.5Q544 14 529 14Q507 14 475.0 20.0Q443 26 409.5 35.0Q376 44 345.5 55.0Q315 66 297 75Q224 112 224 170Q224 211 256 267Q272 295 312.0 344.0Q352 393 416 465Q377 482 338.5 499.5Q300 517 268.5 536.0Q237 555 217.5 576.0Q198 597 198 621Q198 667 229.5 716.0Q261 765 308.0 812.5Q355 860 410.5 903.0Q466 946 513 979L475 848Q398 800 358.0 768.0Q318 736 318 715Q318 697 355 675Q396 652 431.0 637.0Q466 622 509 603Q552 584 552 567Q552 551 508 501Q485 476 467.5 456.5Q450 437 433.5 418.0Q417 399 400.0 379.0Q383 359 361 332Q318 280 318 263Q318 250 332.0 238.0Q346 226 373 212Q405 194 448.0 181.0Q491 168 537 160Z" fill="black" />
  </g>
</svg>
