
<svg xmlns="http://www.w3.org/2000/svg" viewBox="0 0 568 934">
  <g transform="translate(-118, -16)">
    <path d="M686 179 652 16Q591 64 554.5 129.5Q518 195 504 274Q497 314 492.5 360.5Q488 407 486.0 463.5Q484 520 482.5 589.0Q481 658 480 743Q422 729 379.5 723.5Q337 718 300 718Q212 718 166 743Q154 749 145.0 757.0Q136 765 130.0 777.5Q124 790 121.0 809.5Q118 829 118 858Q118 877 119.5 900.0Q121 923 125 950H144Q195 856 355 856Q438 856 555 893Q549 837 546.0 789.5Q543 742 543 694Q543 623 546.0 550.0Q549 477 562.5 409.0Q576 341 605.0 282.0Q634 223 686 179Z" fill="black" />
  </g>
</svg>
