<svg xmlns="http://www.w3.org/2000/svg" 
    viewBox="0 0 902.0 1254.0" 
    width="902.0" height="1254.0">
  <path d="M 618.0,285.0 Q 618.0,232.0 610.0,160.5 Q 602.0,89.0 587.0,17.0 Q 585.0,5.0 562.0,5.0 Q 538.0,5.0 538.0,17.0 Q 538.0,189.0 518.5,331.0 Q 499.0,473.0 470.0,585.5 Q 441.0,698.0 407.5,782.5 Q 374.0,867.0 345.0,925.5 Q 316.0,984.0 296.5,1016.5 Q 277.0,1049.0 277.0,1058.0 Q 277.0,1085.0 280.0,1115.0 Q 283.0,1145.0 288.5,1170.5 Q 294.0,1196.0 301.5,1213.0 Q 309.0,1230.0 319.0,1230.0 Q 324.0,1230.0 328.0,1225.0 Q 332.0,1220.0 337.0,1213.0 Q 400.0,1117.0 452.0,1007.0 Q 504.0,897.0 540.5,778.5 Q 577.0,660.0 597.5,535.5 Q 618.0,411.0 618.0,285.0" fill="black"/>
</svg>
