<svg xmlns="http://www.w3.org/2000/svg" 
    viewBox="0 0 902.0 1254.0" 
    width="902.0" height="1254.0">
  <path d="M 727.0,1220.0 Q 729.0,1233.0 753.0,1233.0 Q 777.0,1233.0 777.0,1216.0 Q 777.0,1145.0 759.0,1086.5 Q 741.0,1028.0 706.0,986.5 Q 671.0,945.0 618.0,922.0 Q 565.0,899.0 495.0,899.0 Q 460.0,899.0 387.0,917.0 Q 427.0,832.0 457.5,753.0 Q 488.0,674.0 508.0,597.5 Q 528.0,521.0 538.0,445.0 Q 548.0,369.0 548.0,290.0 Q 548.0,229.0 540.5,160.0 Q 533.0,91.0 517.0,17.0 Q 515.0,5.0 493.0,5.0 Q 468.0,5.0 468.0,17.0 Q 468.0,207.0 442.0,357.5 Q 416.0,508.0 377.5,623.5 Q 339.0,739.0 293.5,821.5 Q 248.0,904.0 209.5,958.5 Q 171.0,1013.0 145.0,1042.0 Q 119.0,1071.0 119.0,1080.0 Q 119.0,1104.0 127.0,1130.5 Q 135.0,1157.0 146.5,1179.5 Q 158.0,1202.0 169.5,1216.5 Q 181.0,1231.0 188.0,1231.0 Q 192.0,1231.0 195.5,1226.0 Q 199.0,1221.0 207.0,1213.0 Q 252.0,1160.0 290.5,1124.5 Q 329.0,1089.0 364.5,1067.0 Q 400.0,1045.0 434.0,1036.0 Q 468.0,1027.0 505.0,1027.0 Q 550.0,1027.0 586.0,1037.5 Q 622.0,1048.0 649.0,1071.0 Q 676.0,1094.0 695.0,1130.5 Q 714.0,1167.0 727.0,1220.0" fill="black"/>
</svg>
