<svg xmlns="http://www.w3.org/2000/svg" 
    viewBox="0 0 902.0 1254.0" 
    width="902.0" height="1254.0">
  <path d="M 701.0,466.0 Q 701.0,559.0 675.5,642.5 Q 650.0,726.0 610.0,788.0 Q 570.0,850.0 521.0,886.5 Q 472.0,923.0 426.0,923.0 Q 405.0,923.0 381.0,900.5 Q 357.0,878.0 333.0,842.0 Q 309.0,806.0 287.0,760.5 Q 265.0,715.0 247.5,668.5 Q 230.0,622.0 220.0,578.5 Q 210.0,535.0 210.0,504.0 Q 210.0,456.0 221.0,415.0 Q 232.0,374.0 259.5,344.0 Q 287.0,314.0 333.0,297.0 Q 379.0,280.0 449.0,280.0 Q 492.0,280.0 536.5,295.5 Q 581.0,311.0 617.5,337.0 Q 654.0,363.0 677.5,396.5 Q 701.0,430.0 701.0,466.0 M 778.0,566.0 Q 778.0,522.0 769.5,475.5 Q 761.0,429.0 746.0,385.5 Q 731.0,342.0 711.5,305.0 Q 692.0,268.0 670.0,244.0 Q 653.0,225.0 626.0,207.5 Q 599.0,190.0 566.5,176.5 Q 534.0,163.0 498.0,155.0 Q 462.0,147.0 426.0,147.0 Q 355.0,147.0 298.5,163.0 Q 242.0,179.0 201.5,211.5 Q 161.0,244.0 139.5,292.0 Q 118.0,340.0 118.0,404.0 Q 118.0,463.0 134.5,539.5 Q 151.0,616.0 193.0,725.0 Q 216.0,784.0 247.5,843.0 Q 279.0,902.0 313.0,948.5 Q 347.0,995.0 381.5,1024.0 Q 416.0,1053.0 446.0,1053.0 Q 507.0,1053.0 560.0,1016.5 Q 613.0,980.0 665.0,911.0 Q 699.0,869.0 720.5,822.0 Q 742.0,775.0 755.0,728.5 Q 768.0,682.0 773.0,639.5 Q 778.0,597.0 778.0,566.0" fill="black"/>
</svg>
