<svg xmlns="http://www.w3.org/2000/svg" 
    viewBox="0 0 902.0 1254.0" 
    width="902.0" height="1254.0">
  <path d="M 450.0,1193.0 Q 483.0,1193.0 497.5,1182.0 Q 512.0,1171.0 519.0,1136.0 L 534.0,1070.0 Q 582.0,843.0 637.0,669.0 Q 692.0,495.0 741.0,370.0 Q 790.0,245.0 827.5,166.5 Q 865.0,88.0 878.0,54.0 Q 882.0,43.0 885.0,35.0 Q 888.0,27.0 888.0,21.0 Q 888.0,12.0 874.5,6.0 Q 861.0,0.0 829.0,0.0 Q 797.0,0.0 781.0,4.0 Q 765.0,8.0 760.0,17.0 Q 754.0,26.0 735.5,66.5 Q 717.0,107.0 691.0,172.5 Q 665.0,238.0 633.0,325.5 Q 601.0,413.0 568.0,515.0 Q 535.0,617.0 503.0,731.5 Q 471.0,846.0 445.0,965.0 Q 416.0,839.0 381.5,721.5 Q 347.0,604.0 312.0,501.0 Q 277.0,398.0 243.5,311.5 Q 210.0,225.0 183.5,161.5 Q 157.0,98.0 139.0,60.5 Q 121.0,23.0 117.0,17.0 Q 109.0,6.0 95.5,3.0 Q 82.0,0.0 58.0,0.0 Q 32.0,0.0 20.0,7.0 Q 8.0,14.0 8.0,21.0 Q 8.0,27.0 12.5,35.5 Q 17.0,44.0 19.0,51.0 Q 32.0,85.0 70.0,163.0 Q 108.0,241.0 157.5,366.5 Q 207.0,492.0 262.5,667.0 Q 318.0,842.0 366.0,1070.0 L 380.0,1136.0 Q 383.0,1154.0 388.0,1165.0 Q 393.0,1176.0 401.0,1182.0 Q 409.0,1188.0 421.0,1190.5 Q 433.0,1193.0 450.0,1193.0" fill="black"/>
</svg>
