<svg xmlns="http://www.w3.org/2000/svg" 
    viewBox="0 0 902.0 1254.0" 
    width="902.0" height="1254.0">
  <path d="M 569.0,675.0 Q 518.0,646.0 463.5,633.0 Q 409.0,620.0 346.0,620.0 Q 291.0,620.0 247.0,636.5 Q 203.0,653.0 172.0,683.5 Q 141.0,714.0 124.5,757.5 Q 108.0,801.0 108.0,855.0 Q 108.0,922.0 133.5,989.0 Q 159.0,1056.0 199.5,1110.0 Q 240.0,1164.0 291.5,1197.5 Q 343.0,1231.0 394.0,1231.0 Q 456.0,1231.0 503.5,1194.5 Q 551.0,1158.0 585.0,1097.0 Q 619.0,1036.0 638.5,957.0 Q 658.0,878.0 664.0,793.0 Q 675.0,640.0 695.5,507.5 Q 716.0,375.0 736.5,273.5 Q 757.0,172.0 772.0,107.5 Q 787.0,43.0 787.0,27.0 Q 787.0,16.0 774.5,8.0 Q 762.0,0.0 733.0,0.0 Q 711.0,0.0 700.5,6.0 Q 690.0,12.0 686.0,22.0 Q 683.0,26.0 675.0,54.5 Q 667.0,83.0 656.0,129.5 Q 645.0,176.0 632.0,238.0 Q 619.0,300.0 607.0,371.0 Q 595.0,442.0 585.0,519.5 Q 575.0,597.0 569.0,675.0 M 365.0,744.0 Q 417.0,744.0 464.5,755.5 Q 512.0,767.0 555.0,796.0 Q 546.0,863.0 530.5,918.0 Q 515.0,973.0 491.5,1013.0 Q 468.0,1053.0 436.0,1075.0 Q 404.0,1097.0 362.0,1097.0 Q 329.0,1097.0 297.5,1079.5 Q 266.0,1062.0 242.0,1034.5 Q 218.0,1007.0 203.5,974.0 Q 189.0,941.0 189.0,910.0 Q 189.0,875.0 202.5,845.0 Q 216.0,815.0 240.0,792.5 Q 264.0,770.0 296.0,757.0 Q 328.0,744.0 365.0,744.0" fill="black"/>
</svg>
