
<svg xmlns="http://www.w3.org/2000/svg" viewBox="0 0 371 568">
  <g transform="translate(-59, 11)">
    <path d="M430 453Q430 410 405.0 384.5Q380 359 340 359Q315 359 293.5 368.0Q272 377 261 394Q244 356 197 356Q161 356 134 379Q148 268 158.0 156.5Q168 45 168 -1L134 -11L127 -9Q116 121 97.5 273.5Q79 426 59 528L100 557L107 555Q115 515 126 438Q137 422 153.5 413.0Q170 404 189 404Q208 404 218.5 414.0Q229 424 235.0 448.5Q241 473 247 524L288 518Q288 513 287.0 506.5Q286 500 285 493Q284 487 282.0 471.5Q280 456 280 449Q280 429 293.5 418.0Q307 407 333 407Q388 407 388 458Q388 488 368 540L403 556Q417 527 423.5 500.5Q430 474 430 453Z" fill="black" />
  </g>
</svg>
