
<svg xmlns="http://www.w3.org/2000/svg" viewBox="0 0 328 561">
  <g transform="translate(-79, 9)">
    <path d="M407 9 367 -9 359 -7Q348 51 336.5 129.5Q325 208 318 272Q271 256 223 256Q159 256 119.0 284.0Q79 312 79 371Q79 415 99.5 457.0Q120 499 155.0 525.5Q190 552 229 552Q295 552 325.0 486.5Q355 421 364 310Q370 231 382.0 151.5Q394 72 407 9ZM229 305Q250 305 270.0 309.0Q290 313 313 320Q307 375 298.0 414.0Q289 453 271.0 477.5Q253 502 224 502Q198 502 175.5 483.0Q153 464 140.0 434.5Q127 405 127 376Q127 338 153.5 321.5Q180 305 229 305Z" fill="black" />
  </g>
</svg>
