<svg xmlns="http://www.w3.org/2000/svg" 
    viewBox="0 0 837.0 1191.0" 
    width="837.0" height="1191.0">
  <path d="M 835.0,1086.0 Q 835.0,961.0 787.5,895.0 Q 740.0,829.0 641.0,829.0 Q 584.0,829.0 542.0,847.0 Q 500.0,865.0 480.0,902.0 Q 446.0,846.0 394.0,817.5 Q 342.0,789.0 269.0,789.0 Q 306.0,716.0 322.0,677.0 Q 351.0,606.0 366.5,526.0 Q 382.0,446.0 382.0,333.0 Q 382.0,270.0 376.5,211.5 Q 371.0,153.0 347.0,0.0 L 307.0,0.0 Q 307.0,220.0 279.0,361.0 Q 251.0,502.0 183.0,635.0 Q 131.0,736.0 0.0,929.0 L 73.0,1166.0 Q 125.0,1080.0 185.0,1036.0 Q 252.0,987.0 334.0,987.0 Q 419.0,987.0 467.0,1045.0 Q 508.0,1095.0 524.0,1187.0 L 556.0,1187.0 Q 564.0,1095.0 592.0,1058.0 Q 620.0,1021.0 672.0,1021.0 Q 777.0,1021.0 797.0,1187.0 L 830.0,1187.0 Q 830.0,1165.0 832.5,1128.5 Q 835.0,1092.0 835.0,1086.0" fill="black"/>
</svg>
