<svg xmlns="http://www.w3.org/2000/svg" 
    viewBox="0 0 837.0 1191.0" 
    width="837.0" height="1191.0">
  <path d="M 716.0,213.0 L 655.0,0.0 Q 555.0,61.0 523.0,205.0 Q 497.0,323.0 497.0,624.0 Q 429.0,600.0 395.0,593.0 Q 361.0,586.0 328.0,586.0 Q 219.0,586.0 154.5,631.0 Q 90.0,676.0 90.0,760.0 Q 90.0,822.0 120.0,913.0 Q 158.0,1029.0 222.0,1100.0 Q 304.0,1191.0 415.0,1191.0 Q 498.0,1191.0 541.0,1104.0 Q 576.0,1034.0 587.0,895.0 Q 594.0,809.0 594.0,641.0 Q 614.0,411.0 648.0,318.0 Q 663.0,277.0 716.0,213.0 M 489.0,799.0 Q 489.0,890.0 466.0,937.0 Q 435.0,1001.0 355.0,1001.0 Q 295.0,1001.0 239.0,956.0 Q 183.0,911.0 183.0,872.0 Q 183.0,830.0 232.0,807.0 Q 281.0,784.0 351.0,784.0 Q 381.0,784.0 424.0,790.0 Q 467.0,796.0 489.0,799.0" fill="black"/>
</svg>
