<svg xmlns="http://www.w3.org/2000/svg" 
    viewBox="0 0 461.0 587.0" 
    width="461.0" height="587.0">
  <path d="M 445.0,476.0 Q 445.0,445.0 432.0,422.0 Q 419.0,399.0 396.5,386.5 Q 374.0,374.0 347.0,374.0 Q 322.0,374.0 300.0,382.5 Q 278.0,391.0 266.0,406.0 Q 257.0,389.0 241.0,380.0 Q 225.0,371.0 207.0,371.0 Q 173.0,371.0 149.0,390.0 Q 162.0,281.0 171.0,172.5 Q 180.0,64.0 180.0,21.0 L 120.0,5.0 L 110.0,7.0 Q 99.0,139.0 80.5,289.5 Q 62.0,440.0 43.0,539.0 L 110.0,587.0 L 120.0,585.0 Q 125.0,561.0 133.0,510.0 L 137.0,485.0 Q 143.0,466.0 157.0,457.0 Q 171.0,448.0 188.0,448.0 Q 202.0,448.0 211.5,455.5 Q 221.0,463.0 228.0,483.5 Q 235.0,504.0 241.0,543.0 L 299.0,535.0 Q 298.0,531.0 295.0,512.0 Q 292.0,493.0 292.0,485.0 Q 292.0,470.0 304.5,460.5 Q 317.0,451.0 340.0,451.0 Q 361.0,451.0 370.5,460.5 Q 380.0,470.0 380.0,489.0 Q 380.0,514.0 361.0,566.0 L 416.0,586.0 Q 431.0,555.0 438.0,526.5 Q 445.0,498.0 445.0,476.0" fill="black"/>
</svg>
