<svg xmlns="http://www.w3.org/2000/svg" 
    viewBox="0 0 461.0 587.0" 
    width="461.0" height="587.0">
  <path d="M 421.0,30.0 L 351.0,0.0 L 343.0,2.0 Q 320.0,139.0 304.0,280.0 Q 262.0,269.0 225.0,269.0 Q 154.0,269.0 109.5,299.5 Q 65.0,330.0 65.0,394.0 Q 65.0,441.0 88.5,485.0 Q 112.0,529.0 150.0,556.0 Q 188.0,583.0 228.0,583.0 Q 302.0,583.0 335.5,516.0 Q 369.0,449.0 378.0,337.0 Q 384.0,262.0 395.5,179.5 Q 407.0,97.0 421.0,30.0 M 236.0,346.0 Q 268.0,346.0 297.0,354.0 Q 288.0,432.0 271.0,468.0 Q 254.0,504.0 219.0,504.0 Q 197.0,504.0 179.0,489.5 Q 161.0,475.0 150.5,452.0 Q 140.0,429.0 140.0,404.0 Q 140.0,372.0 165.0,359.0 Q 190.0,346.0 236.0,346.0" fill="black"/>
</svg>
