<svg xmlns="http://www.w3.org/2000/svg" 
    viewBox="0 0 1288.0 1599.0" 
    width="1288.0" height="1599.0">
  <path d="M 1258.0,1497.0 Q 1235.0,1280.0 1152.0,1172.5 Q 1069.0,1065.0 940.0,1065.0 Q 891.0,1065.0 837.5,1090.5 Q 784.0,1116.0 742.0,1173.0 Q 708.0,1129.0 656.5,1105.5 Q 605.0,1082.0 578.0,1077.0 L 621.0,1009.0 Q 694.0,894.0 724.0,775.5 Q 754.0,657.0 754.0,493.0 L 754.0,8.0 L 475.0,8.0 L 475.0,493.0 Q 475.0,629.0 438.0,728.0 Q 401.0,827.0 336.0,940.0 L 19.0,1497.0 L 309.0,1497.0 Q 353.0,1435.0 396.5,1399.5 Q 440.0,1364.0 496.0,1364.0 Q 551.0,1364.0 592.0,1397.5 Q 633.0,1431.0 649.0,1497.0 L 834.0,1497.0 Q 852.0,1436.0 878.5,1400.0 Q 905.0,1364.0 936.0,1364.0 Q 965.0,1364.0 984.5,1394.0 Q 1004.0,1424.0 1016.0,1497.0 L 1258.0,1497.0" fill="black"/>
</svg>
