<svg xmlns="http://www.w3.org/2000/svg" 
    viewBox="0 0 1288.0 1599.0" 
    width="1288.0" height="1599.0">
  <path d="M 1198.0,8.0 L 414.0,8.0 Q 289.0,8.0 197.0,88.0 Q 105.0,168.0 105.0,264.0 Q 105.0,346.0 143.5,410.0 Q 182.0,474.0 250.0,534.0 L 531.0,780.0 Q 532.0,782.0 536.5,787.0 Q 541.0,792.0 541.0,796.0 Q 541.0,799.0 536.5,802.5 Q 532.0,806.0 529.0,809.0 L 340.0,956.0 Q 259.0,1021.0 226.0,1076.5 Q 193.0,1132.0 193.0,1188.0 Q 193.0,1289.0 260.5,1351.5 Q 328.0,1414.0 451.0,1448.0 L 1016.0,1599.0 L 1016.0,1296.0 L 537.0,1175.0 Q 526.0,1173.0 510.0,1166.0 Q 494.0,1159.0 494.0,1149.0 Q 494.0,1138.0 502.5,1129.5 Q 511.0,1121.0 520.0,1114.0 L 731.0,954.0 Q 785.0,914.0 823.5,880.0 Q 862.0,846.0 862.0,817.0 Q 862.0,794.0 841.5,768.0 Q 821.0,742.0 795.0,721.0 L 467.0,416.0 Q 460.0,409.0 450.5,399.0 Q 441.0,389.0 441.0,383.0 Q 441.0,375.0 449.0,371.5 Q 457.0,368.0 479.0,368.0 L 1198.0,368.0 L 1198.0,8.0" fill="black"/>
</svg>
