<svg xmlns="http://www.w3.org/2000/svg" 
    viewBox="0 0 1288.0 1599.0" 
    width="1288.0" height="1599.0">
  <path d="M 1145.0,8.0 L 856.0,8.0 L 754.0,448.0 Q 726.0,573.0 714.5,682.0 Q 703.0,791.0 703.0,932.0 L 703.0,1087.0 Q 662.0,1079.0 603.5,1074.0 Q 545.0,1069.0 504.0,1069.0 Q 378.0,1069.0 241.0,1098.5 Q 104.0,1128.0 29.0,1181.0 L 29.0,1497.0 L 39.0,1497.0 Q 110.0,1447.0 245.0,1406.5 Q 380.0,1366.0 506.0,1366.0 Q 630.0,1366.0 764.5,1406.0 Q 899.0,1446.0 981.0,1497.0 L 981.0,932.0 Q 981.0,807.0 992.5,702.0 Q 1004.0,597.0 1030.0,491.0 L 1145.0,8.0" fill="black"/>
</svg>
