<svg xmlns="http://www.w3.org/2000/svg" 
    viewBox="0 0 749.0 1171.0" 
    width="749.0" height="1171.0">
  <path d="M 299.0,125.0 Q 216.0,125.0 156.0,176.5 Q 96.0,228.0 96.0,319.0 Q 96.0,407.0 132.5,520.5 Q 169.0,634.0 220.5,713.5 Q 272.0,793.0 305.5,820.5 Q 339.0,848.0 395.0,848.0 Q 455.0,848.0 515.0,796.5 Q 575.0,745.0 606.0,678.5 Q 637.0,612.0 637.0,532.0 Q 637.0,459.0 616.5,365.0 Q 596.0,271.0 576.5,244.5 Q 557.0,218.0 509.5,189.0 Q 462.0,160.0 406.5,142.5 Q 351.0,125.0 299.0,125.0 M 332.0,702.0 Q 282.0,702.0 235.0,611.5 Q 188.0,521.0 188.0,461.0 Q 188.0,339.0 222.5,297.5 Q 257.0,256.0 323.0,256.0 Q 413.0,256.0 487.0,316.5 Q 561.0,377.0 561.0,428.0 Q 561.0,506.0 498.5,604.0 Q 436.0,702.0 332.0,702.0" fill="black"/>
</svg>
