<svg xmlns="http://www.w3.org/2000/svg" 
    viewBox="0 0 749.0 1171.0" 
    width="749.0" height="1171.0">
  <path d="M 634.0,139.0 L 591.0,0.0 Q 545.0,29.0 512.0,86.0 Q 479.0,143.0 460.5,232.5 Q 442.0,322.0 442.0,620.0 Q 342.0,584.0 278.0,584.0 Q 51.0,584.0 51.0,756.0 Q 51.0,868.0 131.5,1017.5 Q 212.0,1167.0 364.0,1167.0 Q 516.0,1167.0 522.0,830.0 L 522.0,639.0 Q 522.0,544.0 548.5,370.5 Q 575.0,197.0 634.0,139.0 M 432.0,727.0 Q 432.0,948.0 399.5,992.0 Q 367.0,1036.0 313.0,1036.0 Q 261.0,1036.0 199.0,970.0 Q 137.0,904.0 137.0,850.0 Q 137.0,708.0 296.0,708.0 Q 377.0,708.0 432.0,727.0" fill="black"/>
</svg>
