<svg xmlns="http://www.w3.org/2000/svg" 
    viewBox="0 0 513.0 603.0" 
    width="513.0" height="603.0">
  <path d="M 478.0,579.0 Q 476.0,468.0 427.0,413.5 Q 378.0,359.0 295.0,359.0 Q 242.0,359.0 196.0,379.0 Q 207.0,278.0 213.5,177.5 Q 220.0,77.0 220.0,27.0 L 123.0,2.0 L 110.0,6.0 Q 98.0,139.0 79.5,283.0 Q 61.0,427.0 41.0,524.0 L 153.0,603.0 L 167.0,601.0 Q 171.0,580.0 177.0,537.0 L 181.0,512.0 Q 202.0,498.0 227.5,491.0 Q 253.0,484.0 281.0,484.0 Q 314.0,484.0 335.5,492.5 Q 357.0,501.0 371.0,524.5 Q 385.0,548.0 389.0,593.0 L 478.0,579.0" fill="black"/>
</svg>
