<svg xmlns="http://www.w3.org/2000/svg" 
    viewBox="0 0 513.0 603.0" 
    width="513.0" height="603.0">
  <path d="M 493.0,472.0 Q 493.0,426.0 475.5,399.0 Q 458.0,372.0 434.0,361.0 Q 410.0,350.0 387.0,350.0 Q 357.0,350.0 330.5,359.5 Q 304.0,369.0 286.0,386.0 Q 276.0,367.0 259.5,357.0 Q 243.0,347.0 221.0,347.0 Q 196.0,347.0 174.0,358.0 Q 184.0,258.0 190.0,165.0 Q 196.0,72.0 196.0,27.0 L 99.0,2.0 L 86.0,6.0 Q 74.0,139.0 55.5,283.0 Q 37.0,427.0 17.0,524.0 L 129.0,603.0 L 143.0,601.0 Q 154.0,538.0 159.0,499.0 Q 165.0,482.0 178.0,473.5 Q 191.0,465.0 205.0,465.0 Q 223.0,465.0 235.0,482.5 Q 247.0,500.0 253.0,548.0 L 320.0,540.0 Q 319.0,533.0 317.5,520.5 Q 316.0,508.0 316.0,496.0 Q 316.0,482.0 328.0,475.0 Q 340.0,468.0 361.0,468.0 Q 381.0,468.0 389.5,476.0 Q 398.0,484.0 398.0,500.0 Q 398.0,513.0 393.0,533.0 Q 388.0,553.0 381.0,573.0 L 459.0,603.0 Q 475.0,569.0 484.0,535.0 Q 493.0,501.0 493.0,472.0" fill="black"/>
</svg>
