<svg xmlns="http://www.w3.org/2000/svg" 
    viewBox="0 0 513.0 603.0" 
    width="513.0" height="603.0">
  <path d="M 462.0,138.0 L 423.0,27.0 Q 398.0,19.0 363.0,14.0 Q 328.0,9.0 286.0,9.0 Q 190.0,9.0 145.0,42.5 Q 100.0,76.0 100.0,137.0 Q 100.0,214.0 193.0,286.0 Q 148.0,305.0 125.0,329.5 Q 102.0,354.0 102.0,386.0 Q 102.0,429.0 132.0,473.0 Q 162.0,517.0 224.0,552.0 Q 286.0,587.0 375.0,602.0 L 383.0,597.0 L 361.0,467.0 Q 312.0,459.0 280.5,447.5 Q 249.0,436.0 235.0,423.0 Q 221.0,410.0 221.0,398.0 Q 221.0,388.0 234.0,378.5 Q 247.0,369.0 279.0,363.0 Q 311.0,357.0 362.0,357.0 L 369.0,348.0 L 347.0,261.0 Q 296.0,244.0 259.0,218.5 Q 222.0,193.0 222.0,172.0 Q 222.0,154.0 248.0,144.5 Q 274.0,135.0 325.0,135.0 Q 350.0,135.0 416.0,141.0 Q 430.0,143.0 456.0,145.0 L 462.0,138.0" fill="black"/>
</svg>
