<svg xmlns="http://www.w3.org/2000/svg" 
    viewBox="0 0 513.0 603.0" 
    width="513.0" height="603.0">
  <path d="M 55.0,221.0 Q 55.0,288.0 81.0,352.0 Q 107.0,416.0 154.0,456.0 Q 201.0,496.0 261.0,496.0 Q 319.0,496.0 365.5,460.5 Q 412.0,425.0 438.0,363.0 Q 464.0,301.0 464.0,225.0 Q 464.0,128.0 417.5,68.0 Q 371.0,8.0 261.0,8.0 Q 148.0,8.0 101.5,63.5 Q 55.0,119.0 55.0,221.0 M 345.0,217.0 Q 345.0,257.0 335.0,292.5 Q 325.0,328.0 306.0,349.5 Q 287.0,371.0 261.0,371.0 Q 235.0,371.0 215.0,349.0 Q 195.0,327.0 184.5,291.5 Q 174.0,256.0 174.0,217.0 Q 174.0,181.0 193.0,157.0 Q 212.0,133.0 261.0,133.0 Q 308.0,133.0 326.5,157.0 Q 345.0,181.0 345.0,217.0" fill="black"/>
</svg>
