<svg xmlns="http://www.w3.org/2000/svg" 
    viewBox="0 0 1143.0 1502.0" 
    width="1143.0" height="1502.0">
  <path d="M 442.0,427.0 Q 397.0,427.0 351.0,450.0 Q 305.0,473.0 267.5,510.0 Q 230.0,547.0 206.5,592.0 Q 183.0,637.0 183.0,682.0 Q 183.0,727.0 206.5,773.0 Q 230.0,819.0 267.5,856.5 Q 305.0,894.0 351.0,918.0 Q 397.0,942.0 442.0,942.0 Q 487.0,942.0 532.0,918.0 Q 577.0,894.0 613.5,856.5 Q 650.0,819.0 673.0,773.0 Q 696.0,727.0 696.0,682.0 Q 696.0,637.0 673.0,592.0 Q 650.0,547.0 613.5,510.0 Q 577.0,473.0 532.0,450.0 Q 487.0,427.0 442.0,427.0" fill="black"/>
</svg>
