<svg xmlns="http://www.w3.org/2000/svg" 
    viewBox="0 0 1143.0 1502.0" 
    width="1143.0" height="1502.0">
  <path d="M 267.0,1459.0 Q 290.0,1365.0 308.0,1283.0 Q 326.0,1201.0 340.0,1123.0 Q 349.0,1122.0 357.5,1122.0 Q 366.0,1122.0 374.0,1122.0 Q 414.0,1122.0 441.5,1131.5 Q 469.0,1141.0 485.5,1158.5 Q 502.0,1176.0 509.0,1199.0 Q 516.0,1222.0 516.0,1249.0 Q 516.0,1300.0 498.5,1355.5 Q 481.0,1411.0 458.0,1459.0 L 673.0,1459.0 Q 699.0,1396.0 711.5,1341.0 Q 724.0,1286.0 724.0,1232.0 Q 724.0,1203.0 720.5,1178.0 Q 717.0,1153.0 712.0,1127.0 Q 729.0,1124.0 743.0,1123.0 Q 757.0,1122.0 770.0,1122.0 Q 810.0,1122.0 837.5,1131.5 Q 865.0,1141.0 881.5,1158.5 Q 898.0,1176.0 905.0,1199.0 Q 912.0,1222.0 912.0,1249.0 Q 912.0,1300.0 894.5,1355.5 Q 877.0,1411.0 854.0,1459.0 L 1069.0,1459.0 Q 1095.0,1393.0 1107.5,1340.0 Q 1120.0,1287.0 1120.0,1230.0 Q 1120.0,1149.0 1096.0,1085.0 Q 1072.0,1021.0 1029.0,976.5 Q 986.0,932.0 926.5,909.0 Q 867.0,886.0 796.0,886.0 Q 748.0,886.0 697.0,897.0 Q 646.0,908.0 589.0,937.0 Q 551.0,911.0 504.0,899.0 Q 457.0,887.0 409.0,887.0 Q 400.0,887.0 392.0,887.0 Q 384.0,887.0 376.0,888.0 Q 386.0,797.0 391.0,702.5 Q 396.0,608.0 396.0,496.0 L 396.0,25.0 L 183.0,25.0 L 183.0,487.0 Q 183.0,566.0 179.5,640.0 Q 176.0,714.0 169.0,787.0 Q 162.0,860.0 151.5,934.5 Q 141.0,1009.0 125.5,1090.5 Q 110.0,1172.0 90.0,1263.0 Q 70.0,1354.0 45.0,1459.0 L 267.0,1459.0" fill="black"/>
</svg>
