<svg xmlns="http://www.w3.org/2000/svg" 
    viewBox="0 0 1143.0 1502.0" 
    width="1143.0" height="1502.0">
  <path d="M 783.0,41.0 Q 712.0,20.0 649.5,10.0 Q 587.0,0.0 521.0,0.0 Q 442.0,0.0 365.0,15.5 Q 288.0,31.0 227.5,66.0 Q 167.0,101.0 129.5,156.5 Q 92.0,212.0 92.0,292.0 Q 92.0,339.0 106.5,388.5 Q 121.0,438.0 152.5,493.0 Q 184.0,548.0 232.5,608.5 Q 281.0,669.0 350.0,737.0 Q 284.0,769.0 237.0,800.5 Q 190.0,832.0 160.5,867.5 Q 131.0,903.0 117.5,944.0 Q 104.0,985.0 104.0,1036.0 Q 104.0,1106.0 131.0,1170.0 Q 158.0,1234.0 220.5,1292.0 Q 283.0,1350.0 385.0,1402.5 Q 487.0,1455.0 636.0,1502.0 L 636.0,1219.0 Q 522.0,1185.0 454.5,1158.5 Q 387.0,1132.0 351.5,1112.0 Q 316.0,1092.0 305.5,1078.0 Q 295.0,1064.0 295.0,1055.0 Q 295.0,1034.0 327.5,1008.5 Q 360.0,983.0 413.0,954.5 Q 466.0,926.0 534.5,897.0 Q 603.0,868.0 675.0,841.0 L 675.0,783.0 Q 590.0,713.0 529.5,657.0 Q 469.0,601.0 428.5,556.0 Q 388.0,511.0 363.5,477.5 Q 339.0,444.0 326.5,419.5 Q 314.0,395.0 310.5,379.5 Q 307.0,364.0 307.0,355.0 Q 307.0,328.0 328.5,313.0 Q 350.0,298.0 381.5,290.5 Q 413.0,283.0 449.5,281.5 Q 486.0,280.0 516.0,280.0 Q 556.0,280.0 588.0,281.5 Q 620.0,283.0 650.5,286.5 Q 681.0,290.0 712.5,296.0 Q 744.0,302.0 783.0,311.0 L 783.0,41.0" fill="black"/>
</svg>
