<svg xmlns="http://www.w3.org/2000/svg" 
    viewBox="0 0 1143.0 1502.0" 
    width="1143.0" height="1502.0">
  <path d="M 767.0,25.0 Q 735.0,159.0 713.0,261.0 Q 691.0,363.0 675.5,449.0 Q 660.0,535.0 650.5,612.5 Q 641.0,690.0 634.5,774.5 Q 628.0,859.0 624.0,958.0 Q 620.0,1057.0 616.0,1187.0 L 5.0,1187.0 L 5.0,1459.0 L 823.0,1459.0 L 829.0,1261.0 Q 833.0,1121.0 837.0,1013.5 Q 841.0,906.0 847.5,814.5 Q 854.0,723.0 864.5,640.0 Q 875.0,557.0 891.5,466.5 Q 908.0,376.0 932.0,269.5 Q 956.0,163.0 990.0,25.0 L 767.0,25.0" fill="black"/>
</svg>
