<svg xmlns="http://www.w3.org/2000/svg" 
    viewBox="0 0 1143.0 1502.0" 
    width="1143.0" height="1502.0">
  <path d="M 595.0,1049.0 Q 527.0,780.0 448.5,526.5 Q 370.0,273.0 280.0,25.0 L 52.0,25.0 Q 123.0,217.0 184.0,398.5 Q 245.0,580.0 300.5,757.0 Q 356.0,934.0 406.5,1110.5 Q 457.0,1287.0 506.0,1470.0 L 690.0,1470.0 Q 742.0,1279.0 794.0,1099.0 Q 846.0,919.0 901.0,742.0 Q 956.0,565.0 1016.0,388.0 Q 1076.0,211.0 1143.0,25.0 L 915.0,25.0 Q 824.0,273.0 746.0,525.5 Q 668.0,778.0 601.0,1049.0 L 595.0,1049.0" fill="black"/>
</svg>
