<svg xmlns="http://www.w3.org/2000/svg" 
    viewBox="0 0 1143.0 1502.0" 
    width="1143.0" height="1502.0">
  <path d="M 813.0,25.0 Q 773.0,116.0 746.0,203.0 Q 719.0,290.0 700.5,371.5 Q 682.0,453.0 671.0,527.0 Q 660.0,601.0 653.0,666.0 Q 539.0,622.0 432.0,622.0 Q 354.0,622.0 284.5,646.5 Q 215.0,671.0 163.5,720.0 Q 112.0,769.0 81.5,843.0 Q 51.0,917.0 51.0,1017.0 Q 51.0,1112.0 79.0,1195.0 Q 107.0,1278.0 158.0,1339.5 Q 209.0,1401.0 280.5,1436.5 Q 352.0,1472.0 438.0,1472.0 Q 523.0,1472.0 594.0,1432.0 Q 665.0,1392.0 727.0,1299.0 Q 759.0,1250.0 778.5,1201.0 Q 798.0,1152.0 809.5,1097.5 Q 821.0,1043.0 828.0,981.0 Q 835.0,919.0 842.0,844.0 Q 849.0,768.0 859.0,684.5 Q 869.0,601.0 889.5,502.5 Q 910.0,404.0 945.5,286.5 Q 981.0,169.0 1039.0,25.0 L 813.0,25.0 M 597.0,1057.0 Q 568.0,1126.0 523.5,1165.5 Q 479.0,1205.0 417.0,1205.0 Q 378.0,1205.0 348.0,1189.5 Q 318.0,1174.0 298.0,1148.5 Q 278.0,1123.0 267.5,1091.5 Q 257.0,1060.0 257.0,1029.0 Q 257.0,991.0 272.0,963.0 Q 287.0,935.0 313.0,916.5 Q 339.0,898.0 374.5,889.0 Q 410.0,880.0 451.0,880.0 Q 491.0,880.0 537.0,888.0 Q 583.0,896.0 630.0,910.0 Q 624.0,961.0 617.0,992.5 Q 610.0,1024.0 597.0,1057.0" fill="black"/>
</svg>
