
<svg xmlns="http://www.w3.org/2000/svg" viewBox="0 0 1075 1434">
  <g transform="translate(-33, 0)">
    <path d="M255 1434Q278 1340 296.0 1258.0Q314 1176 328 1098Q337 1097 345.5 1097.0Q354 1097 362 1097Q402 1097 429.5 1106.5Q457 1116 473.5 1133.5Q490 1151 497.0 1174.0Q504 1197 504 1224Q504 1275 486.5 1330.5Q469 1386 446 1434H661Q687 1371 699.5 1316.0Q712 1261 712 1207Q712 1178 708.5 1153.0Q705 1128 700 1102Q717 1099 731.0 1098.0Q745 1097 758 1097Q798 1097 825.5 1106.5Q853 1116 869.5 1133.5Q886 1151 893.0 1174.0Q900 1197 900 1224Q900 1275 882.5 1330.5Q865 1386 842 1434H1057Q1083 1368 1095.5 1315.0Q1108 1262 1108 1205Q1108 1124 1084.0 1060.0Q1060 996 1017.0 951.5Q974 907 914.5 884.0Q855 861 784 861Q736 861 685.0 872.0Q634 883 577 912Q539 886 492.0 874.0Q445 862 397 862Q388 862 380.0 862.0Q372 862 364 863Q374 772 379.0 677.5Q384 583 384 471V0H171V462Q171 541 167.5 615.0Q164 689 157.0 762.0Q150 835 139.5 909.5Q129 984 113.5 1065.5Q98 1147 78.0 1238.0Q58 1329 33 1434Z" fill="black" />
  </g>
</svg>
