
<svg xmlns="http://www.w3.org/2000/svg" viewBox="0 0 691 1502">
  <g transform="translate(-80, 25)">
    <path d="M771 16Q700 -5 637.5 -15.0Q575 -25 509 -25Q430 -25 353.0 -9.5Q276 6 215.5 41.0Q155 76 117.5 131.5Q80 187 80 267Q80 314 94.5 363.5Q109 413 140.5 468.0Q172 523 220.5 583.5Q269 644 338 712Q272 744 225.0 775.5Q178 807 148.5 842.5Q119 878 105.5 919.0Q92 960 92 1011Q92 1081 119.0 1145.0Q146 1209 208.5 1267.0Q271 1325 373.0 1377.5Q475 1430 624 1477V1194Q510 1160 442.5 1133.5Q375 1107 339.5 1087.0Q304 1067 293.5 1053.0Q283 1039 283 1030Q283 1009 315.5 983.5Q348 958 401.0 929.5Q454 901 522.5 872.0Q591 843 663 816V758Q578 688 517.5 632.0Q457 576 416.5 531.0Q376 486 351.5 452.5Q327 419 314.5 394.5Q302 370 298.5 354.5Q295 339 295 330Q295 303 316.5 288.0Q338 273 369.5 265.5Q401 258 437.5 256.5Q474 255 504 255Q544 255 576.0 256.5Q608 258 638.5 261.5Q669 265 700.5 271.0Q732 277 771 286Z" fill="black" />
  </g>
</svg>
