
<svg xmlns="http://www.w3.org/2000/svg" viewBox="0 0 988 1447">
  <g transform="translate(-39, 0)">
    <path d="M801 0Q761 91 734.0 178.0Q707 265 688.5 346.5Q670 428 659.0 502.0Q648 576 641 641Q527 597 420 597Q342 597 272.5 621.5Q203 646 151.5 695.0Q100 744 69.5 818.0Q39 892 39 992Q39 1087 67.0 1170.0Q95 1253 146.0 1314.5Q197 1376 268.5 1411.5Q340 1447 426 1447Q511 1447 582.0 1407.0Q653 1367 715 1274Q747 1225 766.5 1176.0Q786 1127 797.5 1072.5Q809 1018 816.0 956.0Q823 894 830 819Q837 743 847.0 659.5Q857 576 877.5 477.5Q898 379 933.5 261.5Q969 144 1027 0ZM585 1032Q556 1101 511.5 1140.5Q467 1180 405 1180Q366 1180 336.0 1164.5Q306 1149 286.0 1123.5Q266 1098 255.5 1066.5Q245 1035 245 1004Q245 966 260.0 938.0Q275 910 301.0 891.5Q327 873 362.5 864.0Q398 855 439 855Q479 855 525.0 863.0Q571 871 618 885Q612 936 605.0 967.5Q598 999 585 1032Z" fill="black" />
  </g>
</svg>
