<svg xmlns="http://www.w3.org/2000/svg" 
    viewBox="0 0 513.0 603.0" 
    width="513.0" height="603.0">
  <path d="M 467.0,30.0 L 360.0,0.0 L 349.0,4.0 Q 335.0,106.0 318.0,254.0 Q 281.0,244.0 240.0,244.0 Q 191.0,244.0 153.0,260.0 Q 115.0,276.0 93.0,307.0 Q 71.0,338.0 71.0,383.0 Q 71.0,435.0 97.0,486.0 Q 123.0,537.0 166.5,569.0 Q 210.0,601.0 258.0,601.0 Q 339.0,601.0 377.0,530.5 Q 415.0,460.0 424.0,348.0 Q 430.0,282.0 444.5,175.5 Q 459.0,69.0 467.0,30.0 M 257.0,361.0 Q 270.0,361.0 305.0,366.0 Q 297.0,427.0 282.5,455.0 Q 268.0,483.0 243.0,483.0 Q 227.0,483.0 214.0,471.5 Q 201.0,460.0 193.5,442.5 Q 186.0,425.0 186.0,407.0 Q 186.0,361.0 257.0,361.0" fill="black"/>
</svg>
