
<svg xmlns="http://www.w3.org/2000/svg" viewBox="0 0 816 1168">
  <g transform="translate(-158, -293)">
    <path d="M974 1325Q974 969 770 969Q727 969 700.5 983.0Q674 997 638 1041Q601 989 574.0 971.0Q547 953 488 941Q514 848 524.0 786.5Q534 725 534 653Q534 566 522.0 494.0Q510 422 474 293H420Q420 446 413.0 522.5Q406 599 380 695Q349 827 305.5 917.5Q262 1008 158 1155L258 1461Q318 1352 374.0 1305.5Q430 1259 500 1259Q573 1259 614.5 1312.5Q656 1366 656 1461H704Q713 1379 737.5 1345.0Q762 1311 812 1311Q906 1311 924 1461H966Q969 1434 971.5 1395.0Q974 1356 974 1325Z" fill="black" />
  </g>
</svg>
