<svg xmlns="http://www.w3.org/2000/svg" 
    viewBox="0 0 1078.0 1486.0" 
    width="1078.0" height="1486.0">
  <path d="M 425.0,520.0 Q 399.0,520.0 372.0,534.5 Q 345.0,549.0 322.5,572.5 Q 300.0,596.0 285.5,624.5 Q 271.0,653.0 271.0,680.0 Q 271.0,708.0 285.5,737.0 Q 300.0,766.0 322.5,790.0 Q 345.0,814.0 372.0,829.0 Q 399.0,844.0 425.0,844.0 Q 450.0,844.0 477.0,829.0 Q 504.0,814.0 525.5,790.0 Q 547.0,766.0 561.0,737.0 Q 575.0,708.0 575.0,680.0 Q 575.0,653.0 561.0,624.5 Q 547.0,596.0 525.5,572.5 Q 504.0,549.0 477.0,534.5 Q 450.0,520.0 425.0,520.0" fill="black"/>
</svg>
