<svg xmlns="http://www.w3.org/2000/svg" 
    viewBox="0 0 1078.0 1486.0" 
    width="1078.0" height="1486.0">
  <path d="M 179.0,1456.0 Q 200.0,1362.0 218.0,1277.0 Q 236.0,1192.0 251.0,1114.0 Q 276.0,1105.0 314.0,1098.0 Q 352.0,1091.0 394.0,1091.0 Q 467.0,1091.0 508.5,1138.0 Q 550.0,1185.0 550.0,1281.0 Q 550.0,1320.0 541.0,1365.5 Q 532.0,1411.0 514.0,1456.0 L 598.0,1456.0 Q 616.0,1411.0 625.0,1364.0 Q 634.0,1317.0 634.0,1273.0 Q 634.0,1229.0 624.0,1188.5 Q 614.0,1148.0 600.0,1125.0 Q 638.0,1109.0 673.0,1100.0 Q 708.0,1091.0 755.0,1091.0 Q 827.0,1091.0 871.5,1142.5 Q 916.0,1194.0 916.0,1294.0 Q 916.0,1379.0 879.0,1456.0 L 963.0,1456.0 Q 1000.0,1369.0 1000.0,1281.0 Q 1000.0,1217.0 981.5,1166.0 Q 963.0,1115.0 931.0,1079.0 Q 899.0,1043.0 855.5,1023.5 Q 812.0,1004.0 762.0,1004.0 Q 706.0,1004.0 652.5,1019.5 Q 599.0,1035.0 550.0,1064.0 Q 518.0,1033.0 481.5,1018.5 Q 445.0,1004.0 394.0,1004.0 Q 383.0,1004.0 368.0,1005.5 Q 353.0,1007.0 336.5,1009.5 Q 320.0,1012.0 303.5,1015.5 Q 287.0,1019.0 274.0,1023.0 Q 285.0,952.0 293.0,888.5 Q 301.0,825.0 306.5,758.5 Q 312.0,692.0 315.0,616.0 Q 318.0,540.0 318.0,446.0 L 318.0,22.0 Q 297.0,22.0 276.0,22.5 Q 255.0,23.0 230.0,23.0 L 230.0,407.0 Q 230.0,539.0 223.0,660.5 Q 216.0,782.0 198.5,906.5 Q 181.0,1031.0 151.5,1165.0 Q 122.0,1299.0 77.0,1456.0 L 179.0,1456.0" fill="black"/>
</svg>
