<svg xmlns="http://www.w3.org/2000/svg" 
    viewBox="0 0 1078.0 1486.0" 
    width="1078.0" height="1486.0">
  <path d="M 619.0,779.0 Q 515.0,705.0 444.5,641.0 Q 374.0,577.0 330.5,520.0 Q 287.0,463.0 268.5,411.0 Q 250.0,359.0 250.0,311.0 Q 250.0,204.0 331.0,150.0 Q 412.0,96.0 557.0,96.0 Q 624.0,96.0 677.5,105.0 Q 731.0,114.0 787.0,129.0 L 787.0,43.0 Q 667.0,0.0 537.0,0.0 Q 457.0,0.0 387.5,21.0 Q 318.0,42.0 266.5,81.0 Q 215.0,120.0 185.5,174.5 Q 156.0,229.0 156.0,296.0 Q 156.0,348.0 175.5,407.5 Q 195.0,467.0 234.0,528.5 Q 273.0,590.0 332.5,651.0 Q 392.0,712.0 473.0,767.0 Q 303.0,829.0 228.5,905.0 Q 154.0,981.0 154.0,1066.0 Q 154.0,1123.0 180.0,1178.5 Q 206.0,1234.0 262.5,1287.0 Q 319.0,1340.0 406.5,1390.0 Q 494.0,1440.0 617.0,1486.0 L 617.0,1386.0 Q 511.0,1344.0 438.5,1301.5 Q 366.0,1259.0 321.5,1219.0 Q 277.0,1179.0 257.5,1142.5 Q 238.0,1106.0 238.0,1077.0 Q 238.0,1002.0 333.5,931.0 Q 429.0,860.0 619.0,798.0 L 619.0,779.0" fill="black"/>
</svg>
