<svg xmlns="http://www.w3.org/2000/svg" 
    viewBox="0 0 1078.0 1486.0" 
    width="1078.0" height="1486.0">
  <path d="M 830.0,22.0 Q 803.0,116.0 783.0,203.0 Q 763.0,290.0 747.5,379.5 Q 732.0,469.0 720.5,565.5 Q 709.0,662.0 700.0,776.0 Q 672.0,761.0 644.5,749.5 Q 617.0,738.0 588.0,730.5 Q 559.0,723.0 526.5,719.0 Q 494.0,715.0 457.0,715.0 Q 377.0,715.0 307.5,741.0 Q 238.0,767.0 187.0,814.5 Q 136.0,862.0 106.5,929.0 Q 77.0,996.0 77.0,1078.0 Q 77.0,1152.0 104.0,1222.5 Q 131.0,1293.0 176.5,1348.0 Q 222.0,1403.0 282.5,1436.5 Q 343.0,1470.0 411.0,1470.0 Q 479.0,1470.0 546.5,1431.0 Q 614.0,1392.0 664.0,1319.0 Q 685.0,1287.0 703.5,1247.5 Q 722.0,1208.0 737.0,1154.5 Q 752.0,1101.0 762.0,1031.0 Q 772.0,961.0 777.0,869.0 Q 786.0,752.0 798.0,649.0 Q 810.0,546.0 827.0,445.5 Q 844.0,345.0 867.5,242.0 Q 891.0,139.0 924.0,22.0 L 830.0,22.0 M 693.0,866.0 Q 691.0,923.0 684.5,976.5 Q 678.0,1030.0 668.0,1077.0 Q 658.0,1124.0 644.5,1162.5 Q 631.0,1201.0 616.0,1228.0 Q 576.0,1298.0 523.5,1336.0 Q 471.0,1374.0 408.0,1374.0 Q 359.0,1374.0 314.0,1348.0 Q 269.0,1322.0 235.0,1280.0 Q 201.0,1238.0 181.0,1185.5 Q 161.0,1133.0 161.0,1080.0 Q 161.0,1018.0 184.0,968.0 Q 207.0,918.0 247.0,882.0 Q 287.0,846.0 340.5,826.5 Q 394.0,807.0 454.0,807.0 Q 529.0,807.0 585.0,822.5 Q 641.0,838.0 693.0,866.0" fill="black"/>
</svg>
