<svg xmlns="http://www.w3.org/2000/svg" 
    viewBox="0 0 1206.0 1729.0" 
    width="1206.0" height="1729.0">
  <path d="M 424.0,1265.0 Q 314.0,1265.0 242.5,1184.0 Q 171.0,1103.0 171.0,981.0 Q 171.0,862.0 244.5,778.0 Q 318.0,694.0 424.0,694.0 Q 530.0,694.0 602.5,777.5 Q 675.0,861.0 675.0,981.0 Q 675.0,1101.0 604.5,1183.0 Q 534.0,1265.0 424.0,1265.0 M 424.0,1419.0 Q 537.0,1419.0 632.0,1361.5 Q 727.0,1304.0 781.5,1202.0 Q 836.0,1100.0 836.0,980.0 Q 836.0,862.0 780.5,759.5 Q 725.0,657.0 629.5,598.5 Q 534.0,540.0 424.0,540.0 Q 314.0,540.0 218.5,599.0 Q 123.0,658.0 66.5,760.0 Q 10.0,862.0 10.0,980.0 Q 10.0,1098.0 65.0,1200.5 Q 120.0,1303.0 215.0,1361.0 Q 310.0,1419.0 424.0,1419.0" fill="black"/>
</svg>
