<svg xmlns="http://www.w3.org/2000/svg" 
    viewBox="0 0 1206.0 1729.0" 
    width="1206.0" height="1729.0">
  <path d="M 259.0,1052.0 Q 30.0,1195.0 30.0,1410.0 Q 30.0,1501.0 70.0,1574.0 Q 110.0,1647.0 184.0,1688.0 Q 258.0,1729.0 343.0,1729.0 Q 434.0,1729.0 510.0,1685.0 Q 586.0,1641.0 629.5,1559.0 Q 673.0,1477.0 673.0,1373.0 Q 673.0,1278.0 637.0,1186.0 Q 601.0,1094.0 534.0,998.0 Q 467.0,902.0 311.0,735.0 Q 551.0,525.0 633.0,420.0 Q 715.0,315.0 715.0,221.0 Q 715.0,115.0 629.0,11.0 L 494.0,93.0 Q 522.0,132.0 536.0,161.5 Q 550.0,191.0 550.0,226.0 Q 550.0,270.0 529.0,307.5 Q 508.0,345.0 453.0,403.5 Q 398.0,462.0 307.5,546.5 Q 217.0,631.0 100.0,734.0 Q 257.0,891.0 343.5,998.5 Q 430.0,1106.0 469.5,1191.5 Q 509.0,1277.0 509.0,1368.0 Q 509.0,1467.0 466.5,1521.0 Q 424.0,1575.0 351.0,1575.0 Q 282.0,1575.0 237.5,1527.0 Q 193.0,1479.0 193.0,1406.0 Q 193.0,1340.0 233.0,1277.5 Q 273.0,1215.0 344.0,1171.0 L 259.0,1052.0" fill="black"/>
</svg>
