<svg xmlns="http://www.w3.org/2000/svg" 
    viewBox="0 0 1206.0 1729.0" 
    width="1206.0" height="1729.0">
  <path d="M 717.0,0.0 Q 479.0,342.0 325.0,706.0 Q 255.0,708.0 197.0,743.5 Q 139.0,779.0 106.0,836.0 Q 73.0,893.0 73.0,952.0 Q 73.0,1011.0 110.0,1048.0 Q 147.0,1085.0 207.0,1085.0 Q 331.0,1085.0 411.0,875.0 Q 544.0,917.0 614.5,1007.0 Q 685.0,1097.0 685.0,1222.0 Q 685.0,1378.0 587.5,1478.0 Q 490.0,1578.0 336.0,1578.0 Q 200.0,1578.0 50.0,1505.0 L 1.0,1653.0 Q 178.0,1729.0 342.0,1729.0 Q 485.0,1729.0 602.0,1662.5 Q 719.0,1596.0 784.5,1479.5 Q 850.0,1363.0 850.0,1229.0 Q 850.0,1060.0 749.0,929.0 Q 648.0,798.0 472.0,736.0 L 471.0,733.0 Q 585.0,496.0 664.0,363.0 Q 743.0,230.0 845.0,93.0 L 717.0,0.0" fill="black"/>
</svg>
