<svg xmlns="http://www.w3.org/2000/svg" 
    viewBox="0 0 1206.0 1729.0" 
    width="1206.0" height="1729.0">
  <path d="M 650.0,3.0 Q 560.0,142.0 503.5,215.5 Q 447.0,289.0 372.0,370.0 Q 243.0,375.0 164.5,428.5 Q 86.0,482.0 86.0,563.0 Q 86.0,619.0 124.0,655.0 Q 162.0,691.0 219.0,691.0 Q 277.0,691.0 342.5,647.5 Q 408.0,604.0 466.0,522.0 Q 561.0,547.0 609.5,613.5 Q 658.0,680.0 658.0,775.0 Q 658.0,898.0 583.5,963.5 Q 509.0,1029.0 373.0,1029.0 L 119.0,1029.0 L 119.0,1180.0 L 314.0,1180.0 Q 436.0,1180.0 506.0,1231.0 Q 576.0,1282.0 576.0,1374.0 Q 576.0,1464.0 509.0,1511.5 Q 442.0,1559.0 312.0,1559.0 L 10.0,1559.0 L 10.0,1709.0 L 307.0,1709.0 Q 444.0,1709.0 541.5,1667.5 Q 639.0,1626.0 689.5,1550.0 Q 740.0,1474.0 740.0,1374.0 Q 740.0,1217.0 608.0,1120.0 L 608.0,1114.0 Q 706.0,1071.0 764.0,975.0 Q 822.0,879.0 822.0,767.0 Q 822.0,635.0 746.0,533.0 Q 670.0,431.0 546.0,395.0 L 546.0,391.0 Q 585.0,350.0 658.5,257.5 Q 732.0,165.0 783.0,89.0 L 650.0,3.0" fill="black"/>
</svg>
