<svg xmlns="http://www.w3.org/2000/svg" 
    viewBox="0 0 1206.0 1729.0" 
    width="1206.0" height="1729.0">
  <path d="M 981.0,1709.0 Q 988.0,1672.0 988.0,1626.0 Q 988.0,1524.0 949.5,1431.0 Q 911.0,1338.0 841.5,1248.5 Q 772.0,1159.0 607.0,1006.0 Q 733.0,890.0 785.5,793.5 Q 838.0,697.0 838.0,598.0 Q 838.0,505.0 795.0,432.5 Q 752.0,360.0 676.0,320.0 Q 600.0,280.0 511.0,280.0 Q 355.0,280.0 257.0,369.5 Q 159.0,459.0 159.0,602.0 Q 159.0,697.0 209.5,789.5 Q 260.0,882.0 388.0,1003.0 Q 214.0,1151.0 145.5,1233.5 Q 77.0,1316.0 38.5,1403.0 Q 0.0,1490.0 0.0,1587.0 Q 0.0,1652.0 10.0,1709.0 L 176.0,1709.0 Q 162.0,1647.0 162.0,1597.0 Q 162.0,1516.0 194.5,1443.0 Q 227.0,1370.0 286.5,1299.0 Q 346.0,1228.0 496.0,1100.0 Q 642.0,1232.0 701.5,1309.0 Q 761.0,1386.0 794.0,1468.0 Q 827.0,1550.0 827.0,1641.0 L 823.0,1709.0 L 981.0,1709.0 M 309.0,595.0 Q 309.0,520.0 359.0,475.0 Q 409.0,430.0 496.0,430.0 Q 578.0,430.0 633.0,479.5 Q 688.0,529.0 688.0,605.0 Q 688.0,671.0 645.5,742.5 Q 603.0,814.0 500.0,906.0 Q 396.0,807.0 352.5,734.0 Q 309.0,661.0 309.0,595.0" fill="black"/>
</svg>
