<svg xmlns="http://www.w3.org/2000/svg" 
    viewBox="0 0 1206.0 1729.0" 
    width="1206.0" height="1729.0">
  <path d="M 289.0,1709.0 Q 243.0,1531.0 225.0,1418.0 Q 207.0,1305.0 207.0,1206.0 Q 207.0,1005.0 278.5,898.5 Q 350.0,792.0 477.0,792.0 Q 530.0,792.0 581.0,816.0 Q 632.0,840.0 668.0,884.0 Q 602.0,980.0 602.0,1087.0 Q 602.0,1162.0 638.0,1209.5 Q 674.0,1257.0 736.0,1257.0 Q 808.0,1257.0 855.5,1195.5 Q 903.0,1134.0 903.0,1042.0 Q 903.0,947.0 845.0,856.0 Q 929.0,593.0 1017.5,409.5 Q 1106.0,226.0 1206.0,93.0 L 1078.0,0.0 Q 980.0,134.0 879.5,364.5 Q 779.0,595.0 742.0,739.0 L 742.0,740.0 Q 687.0,693.0 617.0,666.5 Q 547.0,640.0 484.0,640.0 Q 354.0,640.0 254.0,712.5 Q 154.0,785.0 98.5,915.0 Q 43.0,1045.0 43.0,1201.0 Q 43.0,1312.0 64.5,1448.5 Q 86.0,1585.0 121.0,1709.0 L 289.0,1709.0" fill="black"/>
</svg>
