<svg xmlns="http://www.w3.org/2000/svg" 
    viewBox="0 0 1206.0 1729.0" 
    width="1206.0" height="1729.0">
  <path d="M 757.0,1029.0 L 520.0,1029.0 Q 405.0,1029.0 343.0,970.5 Q 281.0,912.0 281.0,803.0 Q 281.0,677.0 359.5,596.0 Q 438.0,515.0 562.0,515.0 Q 631.0,515.0 686.0,534.0 Q 644.0,620.0 644.0,694.0 Q 644.0,757.0 674.0,793.5 Q 704.0,830.0 761.0,830.0 Q 843.0,830.0 900.5,758.5 Q 958.0,687.0 958.0,597.0 Q 958.0,510.0 889.0,457.0 Q 976.0,284.0 1122.0,95.0 L 997.0,3.0 Q 934.0,71.0 872.0,177.0 Q 810.0,283.0 763.0,392.0 Q 667.0,364.0 577.0,364.0 Q 449.0,364.0 342.5,422.5 Q 236.0,481.0 176.5,584.0 Q 117.0,687.0 117.0,812.0 Q 117.0,893.0 147.0,960.5 Q 177.0,1028.0 252.0,1088.0 L 252.0,1094.0 Q 153.0,1132.0 94.5,1216.0 Q 36.0,1300.0 36.0,1411.0 Q 36.0,1488.0 65.5,1542.0 Q 95.0,1596.0 145.0,1631.5 Q 195.0,1667.0 279.5,1688.0 Q 364.0,1709.0 497.0,1709.0 L 721.0,1709.0 L 721.0,1559.0 L 519.0,1559.0 Q 393.0,1559.0 330.0,1542.0 Q 267.0,1525.0 233.5,1488.0 Q 200.0,1451.0 200.0,1388.0 Q 200.0,1294.0 275.0,1237.0 Q 350.0,1180.0 475.0,1180.0 L 757.0,1180.0 L 757.0,1029.0" fill="black"/>
</svg>
