<svg xmlns="http://www.w3.org/2000/svg" 
    viewBox="0 0 1206.0 1729.0" 
    width="1206.0" height="1729.0">
  <path d="M 872.0,761.0 Q 850.0,756.0 821.0,756.0 Q 701.0,756.0 613.5,805.0 Q 526.0,854.0 479.0,941.0 Q 432.0,1028.0 432.0,1131.0 Q 432.0,1268.0 516.0,1356.5 Q 600.0,1445.0 732.0,1445.0 Q 846.0,1445.0 934.0,1375.5 Q 1022.0,1306.0 1070.0,1180.0 Q 1118.0,1054.0 1118.0,898.0 Q 1118.0,716.0 1055.5,576.0 Q 993.0,436.0 880.0,360.5 Q 767.0,285.0 624.0,285.0 Q 419.0,285.0 280.0,446.5 Q 141.0,608.0 75.5,938.5 Q 10.0,1269.0 10.0,1709.0 L 169.0,1709.0 Q 169.0,1287.0 221.5,1000.5 Q 274.0,714.0 376.5,575.5 Q 479.0,437.0 626.0,437.0 Q 775.0,437.0 867.5,567.5 Q 960.0,698.0 960.0,904.0 Q 960.0,1015.0 929.0,1103.5 Q 898.0,1192.0 844.5,1242.0 Q 791.0,1292.0 729.0,1292.0 Q 666.0,1292.0 628.0,1247.5 Q 590.0,1203.0 590.0,1127.0 Q 590.0,1055.0 623.5,1004.0 Q 657.0,953.0 715.5,926.0 Q 774.0,899.0 844.0,899.0 L 870.0,901.0 L 872.0,761.0" fill="black"/>
</svg>
