<svg xmlns="http://www.w3.org/2000/svg" 
    viewBox="0 0 1206.0 1729.0" 
    width="1206.0" height="1729.0">
  <path d="M 811.0,1630.0 Q 282.0,906.0 200.0,705.0 Q 175.0,645.0 175.0,586.0 Q 175.0,478.0 249.5,412.5 Q 324.0,347.0 439.0,347.0 Q 547.0,347.0 639.5,415.5 Q 732.0,484.0 841.0,664.0 L 978.0,577.0 Q 849.0,378.0 719.5,288.0 Q 590.0,198.0 441.0,198.0 Q 324.0,198.0 227.5,248.0 Q 131.0,298.0 75.5,388.0 Q 20.0,478.0 20.0,592.0 Q 20.0,706.0 85.0,836.5 Q 150.0,967.0 295.5,1184.0 Q 441.0,1401.0 674.0,1723.0 L 811.0,1630.0" fill="black"/>
</svg>
