<svg xmlns="http://www.w3.org/2000/svg" 
    viewBox="0 0 1206.0 1729.0" 
    width="1206.0" height="1729.0">
  <path d="M 389.0,1111.0 Q 586.0,1195.0 586.0,1361.0 Q 586.0,1457.0 530.5,1516.0 Q 475.0,1575.0 386.0,1575.0 Q 290.0,1575.0 230.5,1509.0 Q 171.0,1443.0 171.0,1344.0 Q 171.0,1280.0 199.0,1217.0 Q 227.0,1154.0 294.0,1070.0 Q 361.0,986.0 565.0,770.0 Q 773.0,549.0 834.0,472.5 Q 895.0,396.0 923.0,338.0 Q 951.0,280.0 951.0,225.0 Q 951.0,118.0 865.0,11.0 L 730.0,93.0 Q 784.0,171.0 784.0,223.0 Q 784.0,257.0 763.5,296.5 Q 743.0,336.0 701.0,388.5 Q 659.0,441.0 479.0,632.0 Q 243.0,882.0 163.0,987.0 Q 83.0,1092.0 46.5,1180.0 Q 10.0,1268.0 10.0,1358.0 Q 10.0,1523.0 113.5,1626.0 Q 217.0,1729.0 379.0,1729.0 Q 486.0,1729.0 571.0,1680.5 Q 656.0,1632.0 703.5,1545.5 Q 751.0,1459.0 751.0,1356.0 Q 751.0,1226.0 674.5,1127.5 Q 598.0,1029.0 454.0,975.0 L 389.0,1111.0" fill="black"/>
</svg>
