<svg xmlns="http://www.w3.org/2000/svg" 
    viewBox="0 0 837.0 1191.0" 
    width="837.0" height="1191.0">
  <path d="M 672.0,1014.0 Q 672.0,904.0 620.0,838.0 Q 563.0,766.0 459.0,766.0 Q 446.0,766.0 390.0,774.0 Q 428.0,694.0 444.0,647.0 Q 471.0,568.0 485.0,462.0 Q 499.0,356.0 499.0,178.0 Q 499.0,147.0 497.0,76.5 Q 495.0,6.0 495.0,0.0 L 465.0,0.0 Q 389.0,323.0 364.0,408.0 Q 316.0,574.0 250.5,697.5 Q 185.0,821.0 54.0,985.0 L 120.0,1187.0 Q 187.0,1092.0 239.0,1046.0 Q 334.0,962.0 440.0,962.0 Q 552.0,962.0 595.0,1037.0 Q 619.0,1078.0 632.0,1185.0 L 664.0,1187.0 Q 668.0,1152.0 670.0,1105.5 Q 672.0,1059.0 672.0,1014.0" fill="black"/>
</svg>
