<svg xmlns="http://www.w3.org/2000/svg" 
    viewBox="0 0 837.0 1191.0" 
    width="837.0" height="1191.0">
  <path d="M 710.0,255.0 L 672.0,27.0 Q 607.0,70.0 574.0,107.0 Q 518.0,168.0 489.0,259.0 Q 453.0,370.0 453.0,533.0 Q 453.0,591.0 458.0,652.0 Q 459.0,669.0 480.0,851.0 Q 432.0,842.0 409.0,838.0 Q 335.0,824.0 288.0,824.0 Q 132.0,824.0 84.0,856.0 Q 46.0,881.0 46.0,959.0 Q 46.0,992.0 49.0,1058.0 Q 52.0,1124.0 52.0,1158.0 L 88.0,1162.0 Q 112.0,1107.0 134.0,1089.0 Q 180.0,1052.0 286.0,1052.0 Q 365.0,1052.0 464.0,1071.0 Q 486.0,1075.0 571.0,1094.0 Q 554.0,991.0 547.0,940.0 Q 535.0,853.0 535.0,788.0 Q 535.0,627.0 563.0,517.0 Q 585.0,430.0 631.0,358.0 Q 647.0,333.0 710.0,255.0" fill="black"/>
</svg>
