<svg xmlns="http://www.w3.org/2000/svg" 
    viewBox="0 0 484.0 594.0" 
    width="484.0" height="594.0">
  <path d="M 55.0,218.0 Q 55.0,287.0 79.5,350.0 Q 104.0,413.0 148.5,452.5 Q 193.0,492.0 249.0,492.0 Q 305.0,492.0 349.0,455.0 Q 393.0,418.0 417.5,355.5 Q 442.0,293.0 442.0,220.0 Q 442.0,125.0 398.0,67.5 Q 354.0,10.0 249.0,10.0 Q 144.0,10.0 99.5,65.5 Q 55.0,121.0 55.0,218.0 M 347.0,209.0 Q 347.0,256.0 335.5,298.5 Q 324.0,341.0 302.5,367.5 Q 281.0,394.0 250.0,394.0 Q 219.0,394.0 196.5,367.5 Q 174.0,341.0 162.0,298.5 Q 150.0,256.0 150.0,209.0 Q 150.0,167.0 171.0,138.0 Q 192.0,109.0 249.0,109.0 Q 347.0,109.0 347.0,209.0" fill="black"/>
</svg>
