<svg xmlns="http://www.w3.org/2000/svg" 
    viewBox="0 0 484.0 594.0" 
    width="484.0" height="594.0">
  <path d="M 442.0,30.0 L 355.0,0.0 L 346.0,3.0 Q 327.0,116.0 311.0,269.0 Q 269.0,258.0 232.0,258.0 Q 159.0,258.0 113.5,291.5 Q 68.0,325.0 68.0,390.0 Q 68.0,439.0 92.5,486.0 Q 117.0,533.0 157.0,562.0 Q 197.0,591.0 241.0,591.0 Q 318.0,591.0 354.0,522.5 Q 390.0,454.0 399.0,342.0 Q 404.0,271.0 417.0,177.5 Q 430.0,84.0 442.0,30.0 M 245.0,353.0 Q 270.0,353.0 301.0,360.0 Q 292.0,430.0 276.0,462.5 Q 260.0,495.0 230.0,495.0 Q 211.0,495.0 195.0,482.0 Q 179.0,469.0 169.5,448.5 Q 160.0,428.0 160.0,406.0 Q 160.0,377.0 182.5,365.0 Q 205.0,353.0 245.0,353.0" fill="black"/>
</svg>
