
<svg xmlns="http://www.w3.org/2000/svg" viewBox="0 0 839 1338">
  <g transform="translate(-206, 9)">
    <path d="M703 844Q653 791 574 773Q650 611 650 368Q650 209 628.0 100.0Q606 -9 564 -9Q518 -9 518 46Q518 267 444.5 480.0Q371 693 206 959L259 1329Q364 1126 420.0 1069.5Q476 1013 551 1013Q611 1013 641.0 1048.0Q671 1083 707 1219Q718 1262 749 1262Q790 1262 804 1152Q817 1042 862 1042Q916 1042 929 1145Q938 1218 953.5 1233.5Q969 1249 994 1249Q1045 1249 1045 1096Q1045 804 838 804Q760 804 703 844Z" fill="black" />
  </g>
</svg>
