<svg xmlns="http://www.w3.org/2000/svg" 
    viewBox="0 0 428.0 568.0" 
    width="428.0" height="568.0">
  <path d="M 414.0,464.0 Q 414.0,421.0 389.0,395.5 Q 364.0,370.0 324.0,370.0 Q 299.0,370.0 277.5,379.0 Q 256.0,388.0 245.0,405.0 Q 228.0,367.0 181.0,367.0 Q 145.0,367.0 118.0,390.0 Q 132.0,279.0 142.0,167.5 Q 152.0,56.0 152.0,10.0 L 118.0,0.0 L 111.0,2.0 Q 100.0,132.0 81.5,284.5 Q 63.0,437.0 43.0,539.0 L 84.0,568.0 L 91.0,566.0 Q 99.0,526.0 110.0,449.0 Q 121.0,433.0 137.5,424.0 Q 154.0,415.0 173.0,415.0 Q 192.0,415.0 202.5,425.0 Q 213.0,435.0 219.0,459.5 Q 225.0,484.0 231.0,535.0 L 272.0,529.0 Q 272.0,524.0 271.0,517.5 Q 270.0,511.0 269.0,504.0 Q 268.0,498.0 266.0,482.5 Q 264.0,467.0 264.0,460.0 Q 264.0,440.0 277.5,429.0 Q 291.0,418.0 317.0,418.0 Q 372.0,418.0 372.0,469.0 Q 372.0,499.0 352.0,551.0 L 387.0,567.0 Q 401.0,538.0 407.5,511.5 Q 414.0,485.0 414.0,464.0" fill="black"/>
</svg>
