<svg xmlns="http://www.w3.org/2000/svg" 
    viewBox="0 0 428.0 568.0" 
    width="428.0" height="568.0">
  <path d="M 394.0,69.0 L 379.0,25.0 Q 355.0,17.0 315.5,12.0 Q 276.0,7.0 241.0,7.0 Q 168.0,7.0 124.5,35.0 Q 81.0,63.0 81.0,115.0 Q 81.0,155.0 110.0,196.5 Q 139.0,238.0 210.0,282.0 Q 149.0,295.0 114.0,317.5 Q 79.0,340.0 79.0,375.0 Q 79.0,408.0 106.5,445.0 Q 134.0,482.0 189.5,514.5 Q 245.0,547.0 324.0,566.0 L 329.0,563.0 L 319.0,513.0 Q 253.0,496.0 209.5,472.0 Q 166.0,448.0 146.0,424.5 Q 126.0,401.0 126.0,382.0 Q 126.0,364.0 152.5,349.5 Q 179.0,335.0 220.0,326.5 Q 261.0,318.0 302.0,318.0 L 307.0,312.0 L 296.0,277.0 Q 244.0,256.0 206.0,230.0 Q 168.0,204.0 147.5,176.5 Q 127.0,149.0 127.0,124.0 Q 127.0,88.0 162.5,71.0 Q 198.0,54.0 258.0,54.0 Q 285.0,54.0 321.0,59.5 Q 357.0,65.0 392.0,73.0 L 394.0,69.0" fill="black"/>
</svg>
