<svg xmlns="http://www.w3.org/2000/svg" 
    viewBox="0 0 1120.0 1486.0" 
    width="1120.0" height="1486.0">
  <path d="M 436.0,450.0 Q 395.0,450.0 354.0,470.5 Q 313.0,491.0 278.5,524.5 Q 244.0,558.0 223.0,598.5 Q 202.0,639.0 202.0,680.0 Q 202.0,720.0 223.5,761.5 Q 245.0,803.0 279.0,837.0 Q 313.0,871.0 354.0,892.5 Q 395.0,914.0 436.0,914.0 Q 477.0,914.0 517.5,893.0 Q 558.0,872.0 591.5,837.5 Q 625.0,803.0 645.5,762.0 Q 666.0,721.0 666.0,680.0 Q 666.0,639.0 645.5,598.5 Q 625.0,558.0 591.5,524.5 Q 558.0,491.0 517.5,470.5 Q 477.0,450.0 436.0,450.0" fill="black"/>
</svg>
