<svg xmlns="http://www.w3.org/2000/svg" 
    viewBox="0 0 1120.0 1486.0" 
    width="1120.0" height="1486.0">
  <path d="M 767.0,22.0 Q 743.0,124.0 724.5,207.0 Q 706.0,290.0 692.0,361.0 Q 678.0,432.0 667.5,494.0 Q 657.0,556.0 650.0,616.5 Q 643.0,677.0 637.5,738.5 Q 632.0,800.0 628.5,870.5 Q 625.0,941.0 622.0,1023.0 Q 619.0,1105.0 616.0,1206.0 L 613.0,1289.0 L 0.0,1289.0 L 0.0,1456.0 L 764.0,1456.0 L 770.0,1258.0 Q 774.0,1118.0 778.0,1010.5 Q 782.0,903.0 788.5,811.5 Q 795.0,720.0 805.0,637.0 Q 815.0,554.0 831.5,463.5 Q 848.0,373.0 872.5,266.5 Q 897.0,160.0 931.0,22.0 L 767.0,22.0" fill="black"/>
</svg>
