<svg xmlns="http://www.w3.org/2000/svg" 
    viewBox="0 0 1120.0 1486.0" 
    width="1120.0" height="1486.0">
  <path d="M 1004.0,22.0 L 845.0,22.0 Q 804.0,119.0 777.0,213.5 Q 750.0,308.0 732.0,396.5 Q 714.0,485.0 703.5,566.5 Q 693.0,648.0 685.0,720.0 Q 559.0,661.0 439.0,661.0 Q 359.0,661.0 288.5,687.0 Q 218.0,713.0 165.5,761.5 Q 113.0,810.0 82.0,881.0 Q 51.0,952.0 51.0,1042.0 Q 51.0,1122.0 76.5,1199.0 Q 102.0,1276.0 150.0,1336.0 Q 198.0,1396.0 268.0,1433.0 Q 338.0,1470.0 428.0,1470.0 Q 516.0,1470.0 586.5,1429.5 Q 657.0,1389.0 717.0,1295.0 Q 749.0,1244.0 768.0,1194.5 Q 787.0,1145.0 798.0,1090.5 Q 809.0,1036.0 815.0,974.5 Q 821.0,913.0 827.0,840.0 Q 834.0,758.0 844.0,667.5 Q 854.0,577.0 873.0,475.5 Q 892.0,374.0 923.0,261.0 Q 954.0,148.0 1004.0,22.0 M 671.0,872.0 Q 667.0,914.0 663.0,947.0 Q 659.0,980.0 654.0,1008.0 Q 649.0,1036.0 642.0,1061.0 Q 635.0,1086.0 625.0,1112.0 Q 590.0,1200.0 534.5,1248.5 Q 479.0,1297.0 410.0,1297.0 Q 366.0,1297.0 328.5,1278.0 Q 291.0,1259.0 263.5,1227.0 Q 236.0,1195.0 220.0,1151.0 Q 204.0,1107.0 204.0,1058.0 Q 204.0,1003.0 224.0,960.0 Q 244.0,917.0 279.0,887.0 Q 314.0,857.0 362.5,841.5 Q 411.0,826.0 468.0,826.0 Q 516.0,826.0 567.5,837.5 Q 619.0,849.0 671.0,872.0" fill="black"/>
</svg>
