
<svg xmlns="http://www.w3.org/2000/svg" viewBox="0 0 476 601">
  <g transform="translate(-24, 11)">
    <path d="M500 459Q500 413 482.5 386.0Q465 359 441.0 348.0Q417 337 394 337Q364 337 337.5 346.5Q311 356 293 373Q283 354 266.5 344.0Q250 334 228 334Q203 334 181 345Q191 245 197.0 152.0Q203 59 203 14L106 -11L93 -7Q81 126 62.5 270.0Q44 414 24 511L136 590L150 588Q161 525 166 486Q172 469 185.0 460.5Q198 452 212 452Q230 452 242.0 469.5Q254 487 260 535L327 527Q326 520 324.5 507.5Q323 495 323 483Q323 469 335.0 462.0Q347 455 368 455Q388 455 396.5 463.0Q405 471 405 487Q405 500 400.0 520.0Q395 540 388 560L466 590Q482 556 491.0 522.0Q500 488 500 459Z" fill="black" />
  </g>
</svg>
