
<svg xmlns="http://www.w3.org/2000/svg" viewBox="0 0 362 593">
  <g transform="translate(-107, 4)">
    <path d="M469 125 430 14Q405 6 370.0 1.0Q335 -4 293 -4Q197 -4 152.0 29.5Q107 63 107 124Q107 201 200 273Q155 292 132.0 316.5Q109 341 109 373Q109 416 139.0 460.0Q169 504 231.0 539.0Q293 574 382 589L390 584L368 454Q319 446 287.5 434.5Q256 423 242.0 410.0Q228 397 228 385Q228 375 241.0 365.5Q254 356 286.0 350.0Q318 344 369 344L376 335L354 248Q303 231 266.0 205.5Q229 180 229 159Q229 141 255.0 131.5Q281 122 332 122Q357 122 423 128Q437 130 463 132Z" fill="black" />
  </g>
</svg>
