
<svg xmlns="http://www.w3.org/2000/svg" viewBox="0 0 409 488">
  <g transform="translate(-62, 5)">
    <path d="M62 208Q62 275 88.0 339.0Q114 403 161.0 443.0Q208 483 268 483Q326 483 372.5 447.5Q419 412 445.0 350.0Q471 288 471 212Q471 115 424.5 55.0Q378 -5 268 -5Q155 -5 108.5 50.5Q62 106 62 208ZM352 204Q352 244 342.0 279.5Q332 315 313.0 336.5Q294 358 268 358Q242 358 222.0 336.0Q202 314 191.5 278.5Q181 243 181 204Q181 168 200.0 144.0Q219 120 268 120Q315 120 333.5 144.0Q352 168 352 204Z" fill="black" />
  </g>
</svg>
