
<svg xmlns="http://www.w3.org/2000/svg" viewBox="0 0 396 601">
  <g transform="translate(-78, 13)">
    <path d="M474 17 367 -13 356 -9Q342 93 325 241Q288 231 247 231Q198 231 160.0 247.0Q122 263 100.0 294.0Q78 325 78 370Q78 422 104.0 473.0Q130 524 173.5 556.0Q217 588 265 588Q346 588 384.0 517.5Q422 447 431 335Q437 269 451.5 162.5Q466 56 474 17ZM264 348Q277 348 312 353Q304 414 289.5 442.0Q275 470 250 470Q234 470 221.0 458.5Q208 447 200.5 429.5Q193 412 193 394Q193 348 264 348Z" fill="black" />
  </g>
</svg>
