
<svg xmlns="http://www.w3.org/2000/svg" viewBox="0 0 664 1135">
  <g transform="translate(-175, -320)">
    <path d="M839 548 801 320Q736 363 703 400Q647 461 618 552Q582 663 582 826Q582 884 587 945Q588 962 609 1144Q561 1135 538 1131Q464 1117 417 1117Q261 1117 213 1149Q175 1174 175 1252Q175 1285 178.0 1351.0Q181 1417 181 1451L217 1455Q241 1400 263 1382Q309 1345 415 1345Q494 1345 593 1364Q615 1368 700 1387Q683 1284 676 1233Q664 1146 664 1081Q664 920 692 810Q714 723 760 651Q776 626 839 548Z" fill="black" />
  </g>
</svg>
