
<svg xmlns="http://www.w3.org/2000/svg" viewBox="0 0 980 1434">
  <g transform="translate(-77, 0)">
    <path d="M1057 1245Q973 1194 871.5 1168.5Q770 1143 638 1143Q613 1143 581.0 1146.0Q549 1149 515.0 1154.5Q481 1160 448.0 1168.5Q415 1177 388 1188L523 969Q548 928 574.0 879.5Q600 831 621.5 771.5Q643 712 656.5 640.0Q670 568 670 479V0H520V479Q520 563 507.5 629.0Q495 695 473.0 750.5Q451 806 422.5 855.5Q394 905 363 957L77 1434H218Q315 1365 424.0 1334.0Q533 1303 636 1303Q756 1303 855.5 1335.5Q955 1368 1046 1434H1057Z" fill="black" />
  </g>
</svg>
