
<svg xmlns="http://www.w3.org/2000/svg" viewBox="0 0 925 1434">
  <g transform="translate(-117, 0)">
    <path d="M1042 0H326Q287 0 249.5 11.0Q212 22 182.5 43.5Q153 65 135.0 96.5Q117 128 117 168Q117 270 219 369L473 612Q500 639 500 659Q500 679 457 721L319 854Q300 873 280.5 895.5Q261 918 245.5 944.5Q230 971 220.0 1000.5Q210 1030 210 1063Q210 1119 229.5 1160.0Q249 1201 284.0 1231.5Q319 1262 369.0 1284.5Q419 1307 479 1325L840 1434V1278L456 1162Q403 1146 381.5 1123.5Q360 1101 360 1074Q360 1055 375.5 1031.0Q391 1007 435 964L575 827Q615 788 632.5 747.0Q650 706 650 671Q650 645 645.0 622.0Q640 599 629.0 576.5Q618 554 600.0 531.5Q582 509 556 484L346 283Q326 265 316.5 245.0Q307 225 307 212Q307 186 328.0 173.0Q349 160 378 160H1042Z" fill="black" />
  </g>
</svg>
