
<svg xmlns="http://www.w3.org/2000/svg" viewBox="0 0 964 1120">
  <g transform="translate(-72, 20)">
    <path d="M553 1100Q624 1100 687.0 1065.5Q750 1031 804.0 974.0Q858 917 901.0 844.0Q944 771 974.0 693.5Q1004 616 1020.0 541.0Q1036 466 1036 406Q1036 298 1000.0 218.0Q964 138 899.5 85.0Q835 32 746.5 6.0Q658 -20 553 -20Q437 -20 347.5 9.5Q258 39 197.0 94.0Q136 149 104.0 228.0Q72 307 72 406Q72 467 88.0 542.0Q104 617 133.5 694.0Q163 771 206.0 844.0Q249 917 302.5 974.0Q356 1031 419.0 1065.5Q482 1100 553 1100ZM553 140Q645 140 708.5 159.0Q772 178 811.5 213.0Q851 248 868.5 297.0Q886 346 886 406Q886 448 875.0 504.0Q864 560 843.5 619.5Q823 679 793.5 736.5Q764 794 727.0 839.0Q690 884 646.0 912.0Q602 940 553 940Q503 940 459.5 912.5Q416 885 379.0 839.5Q342 794 313.0 736.5Q284 679 264.0 620.0Q244 561 233.0 504.5Q222 448 222 406Q222 346 239.5 297.0Q257 248 296.0 213.0Q335 178 398.0 159.0Q461 140 553 140Z" fill="black" />
  </g>
</svg>
