<svg xmlns="http://www.w3.org/2000/svg" 
    viewBox="0 0 839.0 1445.0" 
    width="839.0" height="1445.0">
  <path d="M 497.0,926.0 Q 447.0,873.0 368.0,855.0 Q 444.0,693.0 444.0,450.0 Q 444.0,291.0 422.0,182.0 Q 400.0,73.0 358.0,73.0 Q 312.0,73.0 312.0,128.0 Q 312.0,349.0 238.5,562.0 Q 165.0,775.0 0.0,1041.0 L 53.0,1411.0 Q 158.0,1208.0 214.0,1151.5 Q 270.0,1095.0 345.0,1095.0 Q 405.0,1095.0 435.0,1130.0 Q 465.0,1165.0 501.0,1301.0 Q 512.0,1344.0 543.0,1344.0 Q 584.0,1344.0 598.0,1234.0 Q 611.0,1124.0 656.0,1124.0 Q 710.0,1124.0 723.0,1227.0 Q 732.0,1300.0 747.5,1315.5 Q 763.0,1331.0 788.0,1331.0 Q 839.0,1331.0 839.0,1178.0 Q 839.0,886.0 632.0,886.0 Q 554.0,886.0 497.0,926.0" fill="black"/>
</svg>
