<svg xmlns="http://www.w3.org/2000/svg" 
    viewBox="0 0 839.0 1445.0" 
    width="839.0" height="1445.0">
  <path d="M 743.0,295.0 L 656.0,78.0 Q 521.0,94.0 321.5,180.5 Q 122.0,267.0 122.0,336.0 Q 122.0,448.0 359.0,632.0 Q 401.0,664.0 424.0,686.0 Q 122.0,813.0 122.0,902.0 Q 122.0,1029.0 264.5,1155.5 Q 407.0,1282.0 639.0,1376.0 L 564.0,1142.0 Q 401.0,1067.0 321.0,987.0 Q 642.0,854.0 642.0,788.0 Q 642.0,732.0 603.0,679.5 Q 564.0,627.0 446.0,532.0 Q 356.0,459.0 325.0,419.0 Q 434.0,348.0 743.0,295.0" fill="black"/>
</svg>
