<svg xmlns="http://www.w3.org/2000/svg" 
    viewBox="0 0 839.0 1445.0" 
    width="839.0" height="1445.0">
  <path d="M 335.0,141.0 Q 227.0,141.0 154.5,210.5 Q 82.0,280.0 81.0,388.0 Q 81.0,550.0 192.0,758.5 Q 303.0,967.0 432.0,967.0 Q 554.0,967.0 639.5,846.5 Q 725.0,726.0 725.0,601.0 Q 725.0,141.0 335.0,141.0 M 372.0,736.0 Q 332.0,736.0 295.0,662.0 Q 258.0,588.0 258.0,523.0 Q 258.0,454.0 285.0,408.5 Q 312.0,363.0 354.0,363.0 Q 432.0,363.0 503.5,411.0 Q 575.0,459.0 574.0,500.0 Q 575.0,585.0 513.5,660.5 Q 452.0,736.0 372.0,736.0" fill="black"/>
</svg>
