<svg xmlns="http://www.w3.org/2000/svg" 
    viewBox="0 0 839.0 1445.0" 
    width="839.0" height="1445.0">
  <path d="M 713.0,216.0 L 639.0,0.0 Q 441.0,144.0 441.0,461.0 Q 441.0,557.0 449.0,633.0 Q 383.0,609.0 308.0,609.0 Q 196.0,609.0 112.0,661.0 Q 28.0,713.0 28.0,832.0 Q 28.0,996.0 133.5,1145.5 Q 239.0,1295.0 393.0,1295.0 Q 588.0,1295.0 588.0,926.0 Q 588.0,888.0 586.0,827.0 Q 584.0,766.0 584.0,748.0 Q 584.0,342.0 713.0,216.0 M 453.0,828.0 Q 453.0,1002.0 423.0,1039.0 Q 393.0,1076.0 342.0,1076.0 Q 297.0,1076.0 243.0,1034.5 Q 189.0,993.0 189.0,926.0 Q 189.0,870.0 211.0,839.0 Q 233.0,808.0 326.0,808.0 Q 423.0,808.0 453.0,828.0" fill="black"/>
</svg>
