
<svg xmlns="http://www.w3.org/2000/svg" viewBox="0 0 356 1246">
  <g transform="translate(-343, -107)">
    <path d="M699 396Q699 370 696.5 336.0Q694 302 689.5 265.5Q685 229 678.5 192.0Q672 155 664 123Q661 107 630 107Q598 107 598 123Q598 296 579.0 438.0Q560 580 532.0 692.5Q504 805 470.5 889.0Q437 973 409.0 1031.5Q381 1090 362.0 1124.0Q343 1158 343 1169Q343 1196 348.5 1228.0Q354 1260 363.0 1287.5Q372 1315 382.5 1334.0Q393 1353 404 1353Q412 1353 427 1332Q560 1121 629.5 891.0Q699 661 699 396Z" fill="black" />
  </g>
</svg>
