
<svg xmlns="http://www.w3.org/2000/svg" viewBox="0 0 672 1247">
  <g transform="translate(-186, -107)">
    <path d="M791 1336Q793 1344 800.0 1348.5Q807 1353 824 1353Q858 1353 858 1333Q858 1250 840.0 1183.0Q822 1116 786.0 1069.5Q750 1023 696.5 998.0Q643 973 573 973Q558 973 537.0 977.0Q516 981 487 988Q524 908 550.5 834.5Q577 761 593.5 690.0Q610 619 617.5 548.5Q625 478 625 404Q625 373 623.0 337.5Q621 302 616.5 265.5Q612 229 605.5 192.5Q599 156 590 123Q587 107 557 107Q539 107 531.5 111.0Q524 115 524 123Q524 316 499.0 466.5Q474 617 436.5 731.5Q399 846 355.0 926.5Q311 1007 273.5 1059.5Q236 1112 211.0 1140.5Q186 1169 186 1178Q186 1204 196.0 1235.0Q206 1266 219.5 1292.5Q233 1319 247.5 1336.5Q262 1354 271 1354Q276 1354 281.0 1347.5Q286 1341 294 1332Q336 1279 372.0 1242.5Q408 1206 441.0 1183.5Q474 1161 506.0 1151.0Q538 1141 573 1141Q661 1141 713.5 1186.5Q766 1232 791 1336Z" fill="black" />
  </g>
</svg>
