
<svg xmlns="http://www.w3.org/2000/svg" viewBox="0 0 905 1263">
  <g transform="translate(-71, -107)">
    <path d="M913 1353Q915 1361 921.5 1365.5Q928 1370 944 1370Q976 1370 976 1351Q976 1272 960.5 1211.0Q945 1150 916.5 1108.0Q888 1066 848.0 1044.0Q808 1022 759 1022Q719 1022 681.5 1038.0Q644 1054 612 1096Q583 1048 537.0 1016.0Q491 984 419 979Q400 979 382.5 981.0Q365 983 345 987Q372 925 396.0 859.5Q420 794 437.0 726.0Q454 658 464.0 588.5Q474 519 474 451Q474 366 468.5 285.0Q463 204 447 122Q445 114 437.0 110.5Q429 107 412 107Q380 107 380 122Q380 316 357.0 466.5Q334 617 300.0 731.5Q266 846 225.5 926.0Q185 1006 151.0 1058.5Q117 1111 94.0 1139.0Q71 1167 71 1176Q71 1202 79.5 1233.0Q88 1264 99.0 1290.5Q110 1317 122.0 1335.0Q134 1353 142 1353Q147 1353 152.5 1346.5Q158 1340 163 1331Q229 1234 286.0 1190.5Q343 1147 402 1147Q442 1147 471.5 1156.5Q501 1166 522.5 1187.5Q544 1209 559.0 1245.0Q574 1281 585 1335Q588 1352 617 1352Q654 1352 654 1333Q658 1290 668.0 1262.5Q678 1235 694.0 1218.5Q710 1202 732.0 1195.5Q754 1189 783 1189Q828 1189 861.0 1229.0Q894 1269 913 1353Z" fill="black" />
  </g>
</svg>
