
<svg xmlns="http://www.w3.org/2000/svg" viewBox="0 0 678 946">
  <g transform="translate(-181, -240)">
    <path d="M769 591Q769 666 744.0 741.0Q719 816 679.0 877.0Q639 938 589.5 976.0Q540 1014 492 1014Q469 1014 444.5 992.5Q420 971 397.0 936.5Q374 902 353.5 859.0Q333 816 317.5 772.0Q302 728 293.0 688.0Q284 648 284 620Q284 575 295.0 537.5Q306 500 333.0 472.5Q360 445 405.0 429.5Q450 414 518 414Q559 414 603.5 427.5Q648 441 684.5 465.0Q721 489 745.0 521.5Q769 554 769 591ZM859 690Q859 642 850.5 592.0Q842 542 826.0 495.5Q810 449 788.5 409.0Q767 369 742 341Q725 322 697.5 304.0Q670 286 636.5 271.5Q603 257 566.5 248.5Q530 240 494 240Q422 240 364.5 256.0Q307 272 266.0 305.0Q225 338 203.0 388.0Q181 438 181 506Q181 566 198.5 650.5Q216 735 258 841Q282 902 315.0 963.5Q348 1025 383.5 1074.5Q419 1124 454.0 1155.0Q489 1186 517 1186Q580 1186 632.0 1150.5Q684 1115 738 1046Q772 1006 795.0 958.5Q818 911 832.0 863.0Q846 815 852.5 770.0Q859 725 859 690Z" fill="black" />
  </g>
</svg>
