
<svg xmlns="http://www.w3.org/2000/svg" viewBox="0 0 741 1207">
  <g transform="translate(-149, -102)">
    <path d="M193 1134Q149 1134 149 1224Q149 1264 160.0 1286.5Q171 1309 193 1309H698Q726 1309 742.0 1292.0Q758 1275 758 1243V1177Q758 947 778.5 762.0Q799 577 824.0 443.0Q849 309 869.5 230.5Q890 152 890 136Q890 122 876.5 112.0Q863 102 826 102Q770 102 763 129Q759 138 748.5 182.0Q738 226 723.5 296.5Q709 367 693.5 460.5Q678 554 665.0 662.5Q652 771 643.5 891.0Q635 1011 635 1134Z" fill="black" />
  </g>
</svg>
