
<svg xmlns="http://www.w3.org/2000/svg" viewBox="0 0 889 1199">
  <g transform="translate(-76, -102)">
    <path d="M522 102Q484 102 463.0 113.5Q442 125 435 159L421 226Q376 452 322.5 626.5Q269 801 220.5 926.0Q172 1051 135.0 1128.5Q98 1206 85 1240Q82 1249 79.0 1258.0Q76 1267 76 1276Q76 1287 92.0 1294.0Q108 1301 146 1301Q188 1301 206.0 1296.0Q224 1291 230 1279Q237 1268 255.0 1230.5Q273 1193 297.5 1133.5Q322 1074 352.0 994.5Q382 915 413.0 821.5Q444 728 474.5 622.0Q505 516 530 403Q571 579 621.0 732.0Q671 885 716.0 1001.5Q761 1118 794.0 1191.0Q827 1264 836 1279Q845 1293 861.0 1297.0Q877 1301 910 1301Q938 1301 951.5 1293.0Q965 1285 965 1276Q965 1267 961.0 1258.0Q957 1249 955 1242Q943 1211 905.5 1134.0Q868 1057 819.0 931.0Q770 805 716.0 629.5Q662 454 617 226L604 160Q597 125 578.5 113.5Q560 102 522 102Z" fill="black" />
  </g>
</svg>
