
<svg xmlns="http://www.w3.org/2000/svg" viewBox="0 0 700 1251">
  <g transform="translate(-170, -102)">
    <path d="M624 757Q536 707 405 707Q353 707 309.5 722.5Q266 738 235.0 769.0Q204 800 187.0 846.0Q170 892 170 952Q170 1025 196.5 1097.0Q223 1169 265.0 1226.0Q307 1283 360.0 1318.0Q413 1353 466 1353Q526 1353 575.0 1319.5Q624 1286 660.0 1225.0Q696 1164 718.5 1078.0Q741 992 748 886Q758 734 778.5 603.0Q799 472 819.5 373.0Q840 274 855.0 212.5Q870 151 870 137Q870 122 856.5 112.0Q843 102 805 102Q749 102 742 130Q737 138 722.0 193.5Q707 249 688.0 335.5Q669 422 651.0 531.5Q633 641 624 757ZM428 865Q479 865 523.0 876.5Q567 888 608 916Q600 972 585.5 1021.5Q571 1071 548.5 1107.5Q526 1144 495.5 1165.5Q465 1187 426 1187Q394 1187 365.0 1170.0Q336 1153 314.0 1127.0Q292 1101 279.0 1071.0Q266 1041 266 1014Q266 985 279.0 958.0Q292 931 314.0 910.5Q336 890 365.5 877.5Q395 865 428 865Z" fill="black" />
  </g>
</svg>
