<svg xmlns="http://www.w3.org/2000/svg" 
    viewBox="0 0 1049.0 1464.0" 
    width="1049.0" height="1464.0">
  <path d="M 513.0,1120.0 Q 584.0,1120.0 647.0,1085.5 Q 710.0,1051.0 764.0,994.0 Q 818.0,937.0 861.0,864.0 Q 904.0,791.0 934.0,713.5 Q 964.0,636.0 980.0,561.0 Q 996.0,486.0 996.0,426.0 Q 996.0,318.0 960.0,238.0 Q 924.0,158.0 859.5,105.0 Q 795.0,52.0 706.5,26.0 Q 618.0,0.0 513.0,0.0 Q 397.0,0.0 307.5,29.5 Q 218.0,59.0 157.0,114.0 Q 96.0,169.0 64.0,248.0 Q 32.0,327.0 32.0,426.0 Q 32.0,487.0 48.0,562.0 Q 64.0,637.0 93.5,714.0 Q 123.0,791.0 166.0,864.0 Q 209.0,937.0 262.5,994.0 Q 316.0,1051.0 379.0,1085.5 Q 442.0,1120.0 513.0,1120.0 M 513.0,160.0 Q 605.0,160.0 668.5,179.0 Q 732.0,198.0 771.5,233.0 Q 811.0,268.0 828.5,317.0 Q 846.0,366.0 846.0,426.0 Q 846.0,468.0 835.0,524.0 Q 824.0,580.0 803.5,639.5 Q 783.0,699.0 753.5,756.5 Q 724.0,814.0 687.0,859.0 Q 650.0,904.0 606.0,932.0 Q 562.0,960.0 513.0,960.0 Q 463.0,960.0 419.5,932.5 Q 376.0,905.0 339.0,859.5 Q 302.0,814.0 273.0,756.5 Q 244.0,699.0 224.0,640.0 Q 204.0,581.0 193.0,524.5 Q 182.0,468.0 182.0,426.0 Q 182.0,366.0 199.5,317.0 Q 217.0,268.0 256.0,233.0 Q 295.0,198.0 358.0,179.0 Q 421.0,160.0 513.0,160.0" fill="black"/>
</svg>
