<svg xmlns="http://www.w3.org/2000/svg" 
    viewBox="0 0 1049.0 1464.0" 
    width="1049.0" height="1464.0">
  <path d="M 1019.0,20.0 L 865.0,20.0 L 773.0,415.0 Q 747.0,524.0 733.5,645.5 Q 720.0,767.0 720.0,886.0 L 720.0,1208.0 Q 684.0,1195.0 643.0,1184.0 Q 608.0,1175.0 561.0,1167.5 Q 514.0,1160.0 460.0,1160.0 Q 327.0,1160.0 223.5,1185.0 Q 120.0,1210.0 32.0,1261.0 L 32.0,1454.0 L 42.0,1454.0 Q 138.0,1388.0 239.5,1354.0 Q 341.0,1320.0 462.0,1320.0 Q 516.0,1320.0 571.0,1328.5 Q 626.0,1337.0 679.0,1353.5 Q 732.0,1370.0 780.5,1395.0 Q 829.0,1420.0 870.0,1454.0 L 870.0,886.0 Q 870.0,646.0 921.0,432.0 L 1019.0,20.0" fill="black"/>
</svg>
