<svg xmlns="http://www.w3.org/2000/svg" 
    viewBox="0 0 1049.0 1464.0" 
    width="1049.0" height="1464.0">
  <path d="M 1021.0,20.0 L 867.0,20.0 L 775.0,315.0 Q 764.0,349.0 754.5,385.0 Q 745.0,421.0 738.0,462.5 Q 731.0,504.0 726.5,551.5 Q 722.0,599.0 722.0,656.0 L 722.0,772.0 Q 686.0,743.0 642.0,720.0 Q 604.0,700.0 554.0,684.5 Q 504.0,669.0 445.0,669.0 Q 367.0,669.0 295.5,697.5 Q 224.0,726.0 169.5,776.0 Q 115.0,826.0 82.5,894.0 Q 50.0,962.0 50.0,1042.0 Q 50.0,1135.0 80.5,1212.5 Q 111.0,1290.0 165.5,1346.0 Q 220.0,1402.0 296.5,1433.0 Q 373.0,1464.0 466.0,1464.0 Q 546.0,1464.0 619.5,1435.5 Q 693.0,1407.0 749.0,1357.0 Q 805.0,1307.0 838.5,1238.0 Q 872.0,1169.0 872.0,1087.0 L 872.0,656.0 Q 872.0,575.0 884.0,497.0 Q 896.0,419.0 923.0,332.0 L 1021.0,20.0 M 722.0,985.0 L 722.0,1061.0 Q 722.0,1108.0 702.0,1152.0 Q 682.0,1196.0 647.5,1229.5 Q 613.0,1263.0 566.5,1283.5 Q 520.0,1304.0 468.0,1304.0 Q 411.0,1304.0 362.0,1284.5 Q 313.0,1265.0 277.0,1230.5 Q 241.0,1196.0 220.5,1149.5 Q 200.0,1103.0 200.0,1048.0 Q 200.0,1005.0 217.0,965.5 Q 234.0,926.0 266.0,895.5 Q 298.0,865.0 342.5,847.0 Q 387.0,829.0 443.0,829.0 Q 477.0,829.0 507.0,835.5 Q 537.0,842.0 563.0,853.0 Q 589.0,864.0 610.5,878.0 Q 632.0,892.0 650.0,907.0 Q 691.0,941.0 722.0,985.0" fill="black"/>
</svg>
