<svg xmlns="http://www.w3.org/2000/svg"
     width="160" height="200"
     viewBox="0 0 160 200">
  <g transform="translate(80.0,100.0) scale(0.11494252873563218, -0.11494252873563218) translate(-655.0, -588.0)">
    <path d="M1002 1434Q1004 1419 1004.5 1409.0Q1005 1399 1005 1386Q1005 1287 972.0 1195.0Q939 1103 884.0 1018.5Q829 934 758.0 857.0Q687 780 612 710Q666 661 714.0 610.5Q762 560 798.5 506.0Q835 452 856.5 394.5Q878 337 878 275Q878 201 853.0 145.5Q828 90 784.5 52.0Q741 14 682.0 -5.0Q623 -24 554 -24Q469 -24 407.5 -1.5Q346 21 306.0 61.0Q266 101 246.5 157.0Q227 213 227 279Q227 339 248.0 394.5Q269 450 305.0 503.0Q341 556 389.0 607.0Q437 658 491 708Q414 774 342.0 846.0Q270 918 214.0 997.5Q158 1077 124.0 1163.5Q90 1250 90 1345Q90 1375 92.0 1395.0Q94 1415 96 1434H190Q186 1411 184.5 1394.0Q183 1377 183 1356Q183 1267 212.0 1187.5Q241 1108 291.5 1034.5Q342 961 408.5 893.0Q475 825 550 761Q623 827 689.0 899.0Q755 971 804.0 1050.5Q853 1130 882.0 1217.5Q911 1305 911 1403Q911 1411 911.0 1417.0Q911 1423 910 1434ZM311 272Q311 206 336.0 165.0Q361 124 397.5 101.0Q434 78 475.5 69.5Q517 61 550 61Q600 61 644.5 77.0Q689 93 722.0 122.0Q755 151 774.5 191.5Q794 232 794 282Q794 330 775.5 377.0Q757 424 725.0 470.0Q693 516 649.0 562.0Q605 608 554 654Q502 604 457.5 555.5Q413 507 380.5 459.5Q348 412 329.5 365.0Q311 318 311 272Z" fill="black"/>
  </g>
</svg>
