
<svg xmlns="http://www.w3.org/2000/svg" viewBox="0 0 526 1158">
  <g transform="translate(-301, -296)">
    <path d="M827 584 745 296Q521 331 483 342Q341 384 341 474Q341 547 372 602Q408 667 533 798Q455 819 417 835Q301 884 301 944Q301 1029 412.0 1170.0Q523 1311 703 1454L667 1208Q606 1194 560.5 1169.5Q515 1145 515 1124Q515 1109 563.5 1083.0Q612 1057 683 1034Q735 1015 752.0 1004.5Q769 994 769 980Q769 949 700.5 883.5Q632 818 582.5 753.5Q533 689 533 666Q533 632 680 605Q729 596 827 584Z" fill="black" />
  </g>
</svg>
