
<svg xmlns="http://www.w3.org/2000/svg" viewBox="0 0 660 1164">
  <g transform="translate(-213, -306)">
    <path d="M873 630 821 306Q683 401 641.0 498.0Q599 595 599 804Q599 882 606.0 952.5Q613 1023 617 1070Q552 1057 508.0 1051.5Q464 1046 429 1046Q313 1046 267 1076Q213 1111 213 1208Q213 1252 218 1399Q218 1425 221 1470H269Q281 1396 315.5 1376.0Q350 1356 465 1356Q518 1356 559.5 1361.5Q601 1367 731 1392Q705 1292 697.0 1241.5Q689 1191 689 1116Q689 956 719 867Q757 755 873 630Z" fill="black" />
  </g>
</svg>
