<svg xmlns="http://www.w3.org/2000/svg" 
    viewBox="0 0 484.0 594.0" 
    width="484.0" height="594.0">
  <path d="M 455.0,575.0 Q 451.0,475.0 405.0,428.5 Q 359.0,382.0 283.0,382.0 Q 226.0,382.0 177.0,405.0 Q 190.0,297.0 198.5,185.0 Q 207.0,73.0 207.0,24.0 L 131.0,4.0 L 119.0,7.0 Q 108.0,137.0 90.0,285.5 Q 72.0,434.0 52.0,533.0 L 138.0,594.0 L 150.0,592.0 Q 155.0,570.0 160.0,534.0 L 164.0,511.0 Q 186.0,496.0 215.0,488.0 Q 244.0,480.0 274.0,480.0 Q 306.0,480.0 327.5,488.0 Q 349.0,496.0 363.0,519.0 Q 377.0,542.0 382.0,584.0 L 455.0,575.0" fill="black"/>
</svg>
