<svg xmlns="http://www.w3.org/2000/svg" 
    viewBox="0 0 484.0 594.0" 
    width="484.0" height="594.0">
  <path d="M 466.0,475.0 Q 466.0,437.0 451.0,412.0 Q 436.0,387.0 413.0,375.5 Q 390.0,364.0 365.0,364.0 Q 338.0,364.0 314.0,373.0 Q 290.0,382.0 275.0,398.0 Q 265.0,380.0 249.0,370.5 Q 233.0,361.0 213.0,361.0 Q 184.0,361.0 161.0,376.0 Q 172.0,270.0 179.5,168.5 Q 187.0,67.0 187.0,24.0 L 111.0,4.0 L 99.0,7.0 Q 88.0,137.0 70.0,285.5 Q 52.0,434.0 32.0,533.0 L 118.0,594.0 L 130.0,592.0 Q 141.0,528.0 146.0,495.0 Q 152.0,475.0 165.5,465.5 Q 179.0,456.0 196.0,456.0 Q 209.0,456.0 218.5,463.0 Q 228.0,470.0 234.5,489.5 Q 241.0,509.0 246.0,545.0 L 309.0,537.0 Q 307.0,527.0 305.0,513.5 Q 303.0,500.0 303.0,490.0 Q 303.0,476.0 315.0,467.5 Q 327.0,459.0 349.0,459.0 Q 370.0,459.0 379.0,468.0 Q 388.0,477.0 388.0,494.0 Q 388.0,517.0 370.0,569.0 L 435.0,594.0 Q 450.0,562.0 458.0,531.0 Q 466.0,500.0 466.0,475.0" fill="black"/>
</svg>
