<svg xmlns="http://www.w3.org/2000/svg" 
    viewBox="0 0 484.0 594.0" 
    width="484.0" height="594.0">
  <path d="M 436.0,116.0 L 405.0,28.0 Q 379.0,21.0 343.5,16.0 Q 308.0,11.0 268.0,11.0 Q 181.0,11.0 136.5,41.5 Q 92.0,72.0 92.0,128.0 Q 92.0,168.0 115.5,207.5 Q 139.0,247.0 195.0,288.0 Q 148.0,305.0 120.5,328.0 Q 93.0,351.0 93.0,385.0 Q 93.0,425.0 122.5,467.5 Q 152.0,510.0 211.5,544.0 Q 271.0,578.0 356.0,593.0 L 363.0,589.0 L 344.0,487.0 Q 290.0,477.0 255.0,462.0 Q 220.0,447.0 204.0,431.0 Q 188.0,415.0 188.0,399.0 Q 188.0,387.0 204.0,376.5 Q 220.0,366.0 254.0,360.0 Q 288.0,354.0 339.0,354.0 L 345.0,345.0 L 325.0,269.0 Q 286.0,254.0 255.0,234.0 Q 224.0,214.0 206.5,193.5 Q 189.0,173.0 189.0,157.0 Q 189.0,110.0 302.0,110.0 Q 325.0,110.0 360.5,114.0 Q 396.0,118.0 401.0,119.0 L 432.0,122.0 L 436.0,116.0" fill="black"/>
</svg>
