<svg xmlns="http://www.w3.org/2000/svg"
     width="160" height="200"
     viewBox="0 0 160 200">
  <g transform="translate(80.0,100.0) scale(0.2372479240806643, -0.2372479240806643) translate(-339.5, -254.5)">
    <path d="M338 0V328Q318 318 297.0 314.0Q276 310 252 310Q207 310 167.0 331.0Q127 352 102.5 389.0Q78 426 78 473Q78 518 99.5 552.5Q121 587 158.5 607.0Q196 627 243 627Q326 627 372.5 574.0Q419 521 419 432V0ZM247 381Q276 381 297.5 389.5Q319 398 338 417V449Q338 496 316.5 526.0Q295 556 248 556Q207 556 183.0 531.0Q159 506 159 468Q159 426 186.0 403.5Q213 381 247 381Z" fill="black"/>
  </g>
</svg>
