<svg xmlns="http://www.w3.org/2000/svg"
     width="160" height="200"
     viewBox="0 0 160 200">
  <g transform="translate(80.0,100.0) scale(0.2372479240806643, -0.2372479240806643) translate(-339.5, -254.5)">
    <path d="M378 -138Q347 -58 313 3Q297 -1 281.5 -3.0Q266 -5 249 -5Q195 -5 149.5 12.0Q104 29 76.5 59.5Q49 90 49 130Q49 171 76.0 197.5Q103 224 149 224Q208 224 256.0 187.0Q304 150 341 94Q360 108 371.0 129.0Q382 150 382 178Q382 216 360.0 248.5Q338 281 296 311Q249 295 202 288L181 354Q267 371 311.0 396.5Q355 422 355 480Q355 511 334.5 536.0Q314 561 269 561Q235 561 207.5 547.5Q180 534 147 512L111 570Q146 595 182.0 611.0Q218 627 263 627Q316 627 355.0 606.0Q394 585 415.0 549.0Q436 513 436 468Q436 423 415.0 392.0Q394 361 359 340Q408 302 435.5 260.0Q463 218 463 168Q463 122 439.5 87.5Q416 53 379 30Q398 -4 414.0 -40.0Q430 -76 443 -111ZM244 66Q251 66 258.5 66.5Q266 67 273 68Q246 106 217.0 127.0Q188 148 159 148Q145 148 137.0 140.0Q129 132 129 120Q129 102 145.5 90.0Q162 78 188.5 72.0Q215 66 244 66Z" fill="black"/>
  </g>
</svg>
