<svg xmlns="http://www.w3.org/2000/svg"
     width="160" height="200"
     viewBox="0 0 160 200">
  <g transform="translate(80.0,100.0) scale(0.2372479240806643, -0.2372479240806643) translate(-339.5, -254.5)">
    <path d="M281 -5Q239 -5 204.5 14.5Q170 34 150.0 68.5Q130 103 130 147Q130 202 158.0 256.0Q186 310 238 371Q199 416 146.5 468.5Q94 521 32 579L85 627Q139 575 190.5 523.5Q242 472 285 423Q329 467 383.0 518.0Q437 569 501 627L554 567Q484 507 429.0 458.0Q374 409 333 366Q377 310 403.0 255.5Q429 201 429 148Q429 104 409.5 69.5Q390 35 356.5 15.0Q323 -5 281 -5ZM276 66Q308 66 328.0 90.0Q348 114 348 153Q348 191 332.0 230.0Q316 269 285 312Q211 223 211 143Q211 109 229.0 87.5Q247 66 276 66Z" fill="black"/>
  </g>
</svg>
