<svg xmlns="http://www.w3.org/2000/svg"
     width="160" height="200"
     viewBox="0 0 160 200">
  <g transform="translate(80.0,100.0) scale(0.2372479240806643, -0.2372479240806643) translate(-339.5, -254.5)">
    <path d="M409 -167Q377 -134 342.5 -93.0Q308 -52 285 -4Q223 -2 173.5 23.0Q124 48 96.0 92.0Q68 136 68 193Q68 237 88.0 273.5Q108 310 145 335Q123 359 106.5 390.5Q90 422 90 460Q90 541 155.5 584.0Q221 627 345 627L351 556Q275 556 236.0 539.0Q197 522 184.0 497.0Q171 472 171 446Q171 400 199 366Q234 380 276.5 388.0Q319 396 367 396L377 316Q271 316 210.0 282.0Q149 248 149 183Q149 130 183.5 102.0Q218 74 262 67Q259 85 259 103Q259 159 293.0 193.5Q327 228 377 228Q414 228 440.0 212.5Q466 197 480.0 172.5Q494 148 494 121Q494 75 455.5 44.0Q417 13 361 1Q378 -33 404.5 -63.5Q431 -94 459 -123ZM341 70Q371 75 392.5 88.0Q414 101 414 126Q414 139 404.5 148.0Q395 157 382 157Q363 157 351.5 139.5Q340 122 340 93Q340 87 340.0 81.0Q340 75 341 70Z" fill="black"/>
  </g>
</svg>
