<svg xmlns="http://www.w3.org/2000/svg"
     width="160" height="200"
     viewBox="0 0 160 200">
  <g transform="translate(80.0,100.0) scale(0.2372479240806643, -0.2372479240806643) translate(-339.5, -254.5)">
    <path d="M330 -5Q245 -5 183.5 32.0Q122 69 82.0 127.0Q42 185 20 249L83 273Q118 182 176.0 125.0Q234 68 325 68Q381 68 425.0 95.5Q469 123 494.0 174.0Q519 225 519 295Q519 345 506.0 387.0Q493 429 471 462Q460 431 440.5 401.5Q421 372 390.0 353.0Q359 334 313 334Q270 334 232.0 355.0Q194 376 171.0 410.0Q148 444 148 483Q148 542 190.0 584.5Q232 627 309 627Q373 627 426.5 598.5Q480 570 519.5 521.5Q559 473 580.5 413.0Q602 353 602 290Q602 207 568.5 140.0Q535 73 474.0 34.0Q413 -5 330 -5ZM308 405Q340 405 360.0 422.5Q380 440 392.0 467.0Q404 494 412 524Q390 539 364.5 547.5Q339 556 313 556Q273 556 251.0 534.0Q229 512 229 479Q229 448 250.5 426.5Q272 405 308 405Z" fill="black"/>
  </g>
</svg>
