
<svg xmlns="http://www.w3.org/2000/svg" viewBox="0 0 876 1122">
  <g transform="translate(-70, -148)">
    <path d="M500 1270Q547 1270 598.0 1251.0Q649 1232 698.5 1194.5Q748 1157 793.0 1101.0Q838 1045 872.0 971.0Q906 897 926.0 804.5Q946 712 946 602Q946 494 913.0 409.5Q880 325 820.0 267.0Q760 209 677.5 178.5Q595 148 496 148Q398 148 319.5 175.0Q241 202 185.5 255.0Q130 308 100.0 386.0Q70 464 70 565Q70 675 90.0 770.0Q110 865 144.0 943.5Q178 1022 222.0 1082.5Q266 1143 314.0 1185.0Q362 1227 410.0 1248.5Q458 1270 500 1270ZM499 1029Q463 1029 423.0 996.0Q383 963 349.0 904.5Q315 846 292.5 765.0Q270 684 270 587Q270 530 288.5 493.0Q307 456 338.5 434.0Q370 412 412.0 403.5Q454 395 500 395Q571 395 618.0 411.0Q665 427 693.5 453.0Q722 479 734.0 513.5Q746 548 746 585Q746 687 720.5 769.0Q695 851 657.5 908.5Q620 966 577.0 997.5Q534 1029 499 1029Z" fill="black" />
  </g>
</svg>
