<svg xmlns="http://www.w3.org/2000/svg" 
    viewBox="0 0 461.0 587.0" 
    width="461.0" height="587.0">
  <path d="M 436.0,571.0 Q 430.0,480.0 386.5,439.5 Q 343.0,399.0 273.0,399.0 Q 212.0,399.0 162.0,425.0 Q 176.0,310.0 186.5,189.0 Q 197.0,68.0 197.0,21.0 L 137.0,5.0 L 127.0,7.0 Q 116.0,139.0 97.5,289.5 Q 79.0,440.0 60.0,539.0 L 127.0,587.0 L 137.0,585.0 Q 148.0,525.0 150.0,511.0 Q 173.0,495.0 205.0,486.0 Q 237.0,477.0 269.0,477.0 Q 300.0,477.0 321.0,485.0 Q 342.0,493.0 356.0,515.0 Q 370.0,537.0 376.0,577.0 L 436.0,571.0" fill="black"/>
</svg>
