<svg xmlns="http://www.w3.org/2000/svg" 
    viewBox="0 0 461.0 587.0" 
    width="461.0" height="587.0">
  <path d="M 415.0,99.0 L 390.0,28.0 Q 365.0,21.0 329.0,16.5 Q 293.0,12.0 253.0,12.0 Q 173.0,12.0 129.0,40.5 Q 85.0,69.0 85.0,121.0 Q 85.0,165.0 110.0,205.5 Q 135.0,246.0 196.0,289.0 Q 147.0,303.0 116.0,325.5 Q 85.0,348.0 85.0,384.0 Q 85.0,422.0 114.0,463.0 Q 143.0,504.0 201.0,537.5 Q 259.0,571.0 341.0,585.0 L 346.0,582.0 L 331.0,502.0 Q 273.0,491.0 235.0,473.5 Q 197.0,456.0 179.5,436.5 Q 162.0,417.0 162.0,399.0 Q 162.0,378.0 204.0,365.0 Q 246.0,352.0 321.0,352.0 L 326.0,343.0 L 308.0,275.0 Q 264.0,258.0 231.0,234.0 Q 198.0,210.0 180.5,186.0 Q 163.0,162.0 163.0,144.0 Q 163.0,90.0 283.0,90.0 Q 304.0,90.0 344.0,94.5 Q 384.0,99.0 413.0,103.0 L 415.0,99.0" fill="black"/>
</svg>
