<svg xmlns="http://www.w3.org/2000/svg" 
    viewBox="0 0 461.0 587.0" 
    width="461.0" height="587.0">
  <path d="M 55.0,216.0 Q 55.0,286.0 78.5,349.0 Q 102.0,412.0 144.0,450.5 Q 186.0,489.0 240.0,489.0 Q 294.0,489.0 336.0,450.5 Q 378.0,412.0 401.5,349.0 Q 425.0,286.0 425.0,216.0 Q 425.0,123.0 382.5,67.0 Q 340.0,11.0 240.0,11.0 Q 55.0,11.0 55.0,216.0 M 349.0,203.0 Q 349.0,255.0 336.5,302.5 Q 324.0,350.0 299.5,380.5 Q 275.0,411.0 240.0,411.0 Q 205.0,411.0 180.5,380.5 Q 156.0,350.0 143.5,302.5 Q 131.0,255.0 131.0,203.0 Q 131.0,155.0 154.0,122.0 Q 177.0,89.0 240.0,89.0 Q 303.0,89.0 326.0,122.0 Q 349.0,155.0 349.0,203.0" fill="black"/>
</svg>
