<svg xmlns="http://www.w3.org/2000/svg" 
    viewBox="0 0 1120.0 1486.0" 
    width="1120.0" height="1486.0">
  <path d="M 220.0,1456.0 Q 241.0,1365.0 259.0,1284.5 Q 277.0,1204.0 292.0,1128.0 Q 313.0,1123.0 332.0,1121.0 Q 351.0,1119.0 368.0,1119.0 Q 410.0,1119.0 439.5,1133.0 Q 469.0,1147.0 488.0,1171.0 Q 507.0,1195.0 515.5,1226.5 Q 524.0,1258.0 524.0,1294.0 Q 524.0,1378.0 488.0,1456.0 L 645.0,1456.0 Q 681.0,1367.0 681.0,1281.0 Q 681.0,1200.0 650.0,1136.0 Q 679.0,1127.0 705.0,1123.0 Q 731.0,1119.0 754.0,1119.0 Q 796.0,1119.0 825.5,1133.0 Q 855.0,1147.0 874.0,1171.0 Q 893.0,1195.0 901.5,1226.5 Q 910.0,1258.0 910.0,1294.0 Q 910.0,1378.0 874.0,1456.0 L 1031.0,1456.0 Q 1067.0,1367.0 1067.0,1281.0 Q 1067.0,1219.0 1048.0,1165.5 Q 1029.0,1112.0 992.0,1072.5 Q 955.0,1033.0 901.0,1010.5 Q 847.0,988.0 777.0,988.0 Q 732.0,988.0 680.5,1000.0 Q 629.0,1012.0 569.0,1040.0 Q 498.0,989.0 399.0,989.0 Q 358.0,989.0 315.0,998.0 Q 326.0,931.0 334.0,863.0 Q 342.0,795.0 347.5,722.5 Q 353.0,650.0 356.0,570.5 Q 359.0,491.0 359.0,401.0 L 359.0,22.0 L 203.0,22.0 L 203.0,393.0 Q 203.0,541.0 194.5,668.5 Q 186.0,796.0 168.5,920.0 Q 151.0,1044.0 124.0,1173.5 Q 97.0,1303.0 60.0,1456.0 L 220.0,1456.0" fill="black"/>
</svg>
