<svg xmlns="http://www.w3.org/2000/svg" 
    viewBox="0 0 1120.0 1486.0" 
    width="1120.0" height="1486.0">
  <path d="M 632.0,809.0 Q 548.0,731.0 489.0,667.5 Q 430.0,604.0 390.0,552.5 Q 350.0,501.0 327.0,461.0 Q 304.0,421.0 292.0,391.5 Q 280.0,362.0 276.5,341.5 Q 273.0,321.0 273.0,309.0 Q 273.0,267.0 294.5,240.5 Q 316.0,214.0 351.5,199.5 Q 387.0,185.0 431.0,180.0 Q 475.0,175.0 520.0,175.0 Q 595.0,175.0 655.5,184.5 Q 716.0,194.0 774.0,209.0 L 774.0,44.0 Q 648.0,0.0 506.0,0.0 Q 435.0,0.0 365.5,14.5 Q 296.0,29.0 240.0,61.0 Q 184.0,93.0 149.5,143.5 Q 115.0,194.0 115.0,265.0 Q 115.0,306.0 128.5,358.5 Q 142.0,411.0 175.0,474.0 Q 208.0,537.0 263.5,610.5 Q 319.0,684.0 403.0,767.0 Q 323.0,804.0 269.5,838.0 Q 216.0,872.0 184.5,906.5 Q 153.0,941.0 140.0,977.5 Q 127.0,1014.0 127.0,1056.0 Q 127.0,1110.0 149.0,1166.5 Q 171.0,1223.0 225.5,1278.5 Q 280.0,1334.0 371.0,1386.5 Q 462.0,1439.0 600.0,1486.0 L 600.0,1310.0 Q 485.0,1274.0 417.5,1239.0 Q 350.0,1204.0 315.5,1172.5 Q 281.0,1141.0 271.0,1115.5 Q 261.0,1090.0 261.0,1074.0 Q 261.0,1050.0 276.5,1029.5 Q 292.0,1009.0 333.0,982.5 Q 374.0,956.0 446.0,920.0 Q 518.0,884.0 632.0,828.0 L 632.0,809.0" fill="black"/>
</svg>
