<svg xmlns="http://www.w3.org/2000/svg" 
    viewBox="0 0 1120.0 1486.0" 
    width="1120.0" height="1486.0">
  <path d="M 517.0,1256.0 Q 588.0,1256.0 665.5,1213.5 Q 743.0,1171.0 807.0,1088.5 Q 871.0,1006.0 912.5,885.0 Q 954.0,764.0 954.0,608.0 Q 954.0,512.0 923.5,432.5 Q 893.0,353.0 836.0,296.5 Q 779.0,240.0 697.0,209.0 Q 615.0,178.0 512.0,178.0 Q 411.0,178.0 333.5,206.0 Q 256.0,234.0 203.0,285.0 Q 150.0,336.0 123.0,408.0 Q 96.0,480.0 96.0,569.0 Q 96.0,674.0 115.5,765.5 Q 135.0,857.0 167.5,933.5 Q 200.0,1010.0 243.0,1070.0 Q 286.0,1130.0 333.0,1171.0 Q 380.0,1212.0 427.5,1234.0 Q 475.0,1256.0 517.0,1256.0 M 515.0,1094.0 Q 475.0,1094.0 429.0,1057.0 Q 383.0,1020.0 344.0,953.5 Q 305.0,887.0 279.0,793.5 Q 253.0,700.0 253.0,588.0 Q 253.0,523.0 274.0,477.0 Q 295.0,431.0 331.0,402.0 Q 367.0,373.0 414.5,360.0 Q 462.0,347.0 516.0,347.0 Q 590.0,347.0 643.0,364.0 Q 696.0,381.0 730.5,412.0 Q 765.0,443.0 781.0,487.0 Q 797.0,531.0 797.0,586.0 Q 797.0,705.0 767.5,799.5 Q 738.0,894.0 695.0,959.5 Q 652.0,1025.0 603.0,1059.5 Q 554.0,1094.0 515.0,1094.0" fill="black"/>
</svg>
