<svg xmlns="http://www.w3.org/2000/svg" 
    viewBox="0 0 708.0 1045.0" 
    width="708.0" height="1045.0">
  <path d="M 586.0,1009.0 Q 586.0,927.0 577.5,861.0 Q 569.0,795.0 549.0,749.0 Q 529.0,703.0 495.0,678.0 Q 461.0,653.0 410.0,653.0 Q 390.0,653.0 343.0,664.0 Q 381.0,562.0 405.5,462.0 Q 430.0,362.0 430.0,268.0 Q 430.0,223.0 427.0,169.0 Q 424.0,115.0 418.0,46.0 L 363.0,46.0 Q 352.0,182.0 325.0,296.0 Q 298.0,410.0 256.0,507.0 Q 217.0,600.0 168.5,685.5 Q 120.0,771.0 56.0,852.0 L 133.0,1021.0 Q 200.0,936.0 260.0,898.0 Q 320.0,860.0 381.0,860.0 Q 449.0,860.0 495.5,897.0 Q 542.0,934.0 561.0,1009.0 L 586.0,1009.0" fill="black"/>
</svg>
