<svg xmlns="http://www.w3.org/2000/svg" 
    viewBox="0 0 708.0 1045.0" 
    width="708.0" height="1045.0">
  <path d="M 697.0,223.0 Q 676.0,202.0 653.0,179.5 Q 630.0,157.0 607.5,136.5 Q 585.0,116.0 563.5,99.0 Q 542.0,82.0 523.0,72.0 Q 509.0,64.0 495.5,61.5 Q 482.0,59.0 471.0,59.0 Q 449.0,59.0 416.5,65.5 Q 384.0,72.0 351.0,81.5 Q 318.0,91.0 288.0,101.5 Q 258.0,112.0 240.0,121.0 Q 201.0,141.0 177.0,166.0 Q 153.0,191.0 153.0,232.0 Q 153.0,258.0 166.0,290.5 Q 179.0,323.0 195.0,348.0 Q 210.0,373.0 242.5,415.0 Q 275.0,457.0 320.0,509.0 Q 285.0,524.0 252.5,540.5 Q 220.0,557.0 194.0,576.5 Q 168.0,596.0 152.5,619.5 Q 137.0,643.0 137.0,671.0 Q 137.0,722.0 169.5,774.0 Q 202.0,826.0 252.0,875.0 Q 302.0,924.0 361.5,967.5 Q 421.0,1011.0 476.0,1045.0 L 442.0,864.0 Q 412.0,849.0 384.5,834.5 Q 357.0,820.0 336.0,807.0 Q 315.0,794.0 303.0,783.5 Q 291.0,773.0 291.0,766.0 Q 291.0,758.0 302.5,748.5 Q 314.0,739.0 331.0,729.5 Q 348.0,720.0 367.0,711.0 Q 386.0,702.0 402.0,696.0 Q 420.0,688.0 439.5,680.0 Q 459.0,672.0 474.5,662.5 Q 490.0,653.0 500.0,641.5 Q 510.0,630.0 510.0,614.0 Q 510.0,609.0 506.0,601.0 Q 502.0,593.0 496.0,584.0 Q 490.0,575.0 482.5,565.5 Q 475.0,556.0 468.0,549.0 Q 448.0,527.0 432.5,509.5 Q 417.0,492.0 401.5,474.0 Q 386.0,456.0 368.5,436.5 Q 351.0,417.0 329.0,390.0 Q 323.0,383.0 316.0,374.0 Q 309.0,365.0 303.0,357.0 Q 297.0,349.0 293.0,342.0 Q 289.0,335.0 289.0,332.0 Q 289.0,324.0 304.5,314.5 Q 320.0,305.0 337.0,298.0 Q 370.0,284.0 408.0,275.5 Q 446.0,267.0 482.0,260.0 Q 512.0,254.0 538.5,249.0 Q 565.0,244.0 590.5,239.5 Q 616.0,235.0 642.0,231.0 Q 668.0,227.0 697.0,223.0" fill="black"/>
</svg>
