<svg xmlns="http://www.w3.org/2000/svg" 
    viewBox="0 0 708.0 1045.0" 
    width="708.0" height="1045.0">
  <path d="M 554.0,402.0 Q 554.0,415.0 547.0,436.0 Q 540.0,457.0 526.5,482.0 Q 513.0,507.0 494.0,533.5 Q 475.0,560.0 452.0,584.0 Q 435.0,602.0 415.0,617.5 Q 395.0,633.0 374.5,644.0 Q 354.0,655.0 334.5,661.5 Q 315.0,668.0 299.0,668.0 Q 289.0,668.0 275.0,654.5 Q 261.0,641.0 247.0,622.5 Q 233.0,604.0 220.5,583.5 Q 208.0,563.0 201.0,549.0 Q 185.0,519.0 176.0,493.0 Q 167.0,467.0 167.0,447.0 Q 167.0,427.0 178.5,409.5 Q 190.0,392.0 214.0,379.5 Q 238.0,367.0 276.0,359.5 Q 314.0,352.0 367.0,352.0 Q 392.0,352.0 424.5,356.0 Q 457.0,360.0 485.5,366.5 Q 514.0,373.0 534.0,382.0 Q 554.0,391.0 554.0,402.0 M 636.0,499.0 Q 636.0,432.0 600.0,354.0 Q 561.0,269.0 513.0,221.0 Q 498.0,207.0 475.0,194.0 Q 452.0,181.0 423.5,171.0 Q 395.0,161.0 362.5,155.0 Q 330.0,149.0 297.0,149.0 Q 250.0,149.0 209.5,161.0 Q 169.0,173.0 139.5,197.5 Q 110.0,222.0 93.0,258.5 Q 76.0,295.0 76.0,343.0 Q 76.0,389.0 95.0,455.0 Q 114.0,521.0 152.0,601.0 Q 172.0,643.0 201.0,690.0 Q 230.0,737.0 261.0,776.0 Q 292.0,815.0 322.5,840.5 Q 353.0,866.0 377.0,866.0 Q 421.0,866.0 471.5,837.5 Q 522.0,809.0 561.0,759.0 Q 586.0,728.0 600.5,692.5 Q 615.0,657.0 623.0,622.0 Q 631.0,587.0 633.5,555.0 Q 636.0,523.0 636.0,499.0" fill="black"/>
</svg>
