<svg xmlns="http://www.w3.org/2000/svg" 
    viewBox="0 0 708.0 1045.0" 
    width="708.0" height="1045.0">
  <path d="M 613.0,54.0 Q 543.0,109.0 496.0,184.0 Q 449.0,259.0 435.0,343.0 Q 429.0,379.0 425.0,420.0 Q 421.0,461.0 418.5,510.0 Q 416.0,559.0 415.0,618.5 Q 414.0,678.0 413.0,753.0 Q 363.0,742.0 323.0,737.5 Q 283.0,733.0 250.0,733.0 Q 166.0,733.0 115.0,760.0 Q 101.0,767.0 91.0,776.0 Q 81.0,785.0 74.5,800.5 Q 68.0,816.0 64.5,839.0 Q 61.0,862.0 61.0,898.0 Q 61.0,918.0 63.5,947.0 Q 66.0,976.0 71.0,1017.0 L 94.0,1017.0 Q 119.0,972.0 167.5,949.5 Q 216.0,927.0 303.0,927.0 Q 381.0,927.0 514.0,970.0 Q 507.0,909.0 504.0,861.5 Q 501.0,814.0 499.0,772.0 Q 498.0,756.0 498.0,740.5 Q 498.0,725.0 498.0,713.0 Q 498.0,650.0 504.5,587.5 Q 511.0,525.0 528.0,467.0 Q 545.0,409.0 575.5,357.0 Q 606.0,305.0 655.0,264.0 L 613.0,54.0" fill="black"/>
</svg>
