<svg xmlns="http://www.w3.org/2000/svg" 
    viewBox="0 0 708.0 1045.0" 
    width="708.0" height="1045.0">
  <path d="M 654.0,774.0 Q 595.0,725.0 558.5,652.5 Q 522.0,580.0 492.0,486.0 Q 458.0,378.0 432.5,268.0 Q 407.0,158.0 393.0,46.0 L 342.0,46.0 Q 328.0,152.0 296.5,263.0 Q 265.0,374.0 223.0,475.0 Q 183.0,572.0 128.5,642.0 Q 74.0,712.0 14.0,752.0 L 28.0,1007.0 Q 86.0,974.0 141.5,916.0 Q 197.0,858.0 244.0,777.0 Q 263.0,744.0 284.5,698.0 Q 306.0,652.0 326.0,599.5 Q 346.0,547.0 363.0,490.5 Q 380.0,434.0 391.0,380.0 Q 420.0,525.0 452.0,634.0 Q 484.0,743.0 520.5,820.0 Q 557.0,897.0 599.0,944.5 Q 641.0,992.0 689.0,1015.0 L 654.0,774.0" fill="black"/>
</svg>
