<svg xmlns="http://www.w3.org/2000/svg" 
    viewBox="0 0 708.0 1045.0" 
    width="708.0" height="1045.0">
  <path d="M 281.0,693.0 Q 309.0,693.0 341.5,698.5 Q 374.0,704.0 397.0,711.0 Q 393.0,730.0 382.0,748.5 Q 371.0,767.0 354.5,781.5 Q 338.0,796.0 316.5,805.0 Q 295.0,814.0 269.0,814.0 Q 248.0,814.0 230.5,806.0 Q 213.0,798.0 200.5,786.5 Q 188.0,775.0 181.5,762.0 Q 175.0,749.0 175.0,738.0 Q 175.0,730.0 184.5,722.0 Q 194.0,714.0 209.0,707.5 Q 224.0,701.0 243.0,697.0 Q 262.0,693.0 281.0,693.0 M 574.0,0.0 Q 529.0,29.0 497.5,78.0 Q 466.0,127.0 451.0,191.0 Q 445.0,217.0 440.0,244.0 Q 435.0,271.0 431.0,302.5 Q 427.0,334.0 424.5,371.5 Q 422.0,409.0 419.0,456.0 Q 418.0,473.0 417.5,496.0 Q 417.0,519.0 416.0,534.0 Q 377.0,511.0 338.5,502.0 Q 300.0,493.0 260.0,493.0 Q 185.0,493.0 143.0,541.5 Q 101.0,590.0 101.0,673.0 Q 101.0,740.0 121.5,800.5 Q 142.0,861.0 174.0,907.5 Q 206.0,954.0 244.5,981.5 Q 283.0,1009.0 319.0,1009.0 Q 352.0,1009.0 378.0,998.5 Q 404.0,988.0 423.5,963.5 Q 443.0,939.0 455.5,898.0 Q 468.0,857.0 473.0,796.0 Q 478.0,730.0 482.5,668.0 Q 487.0,606.0 495.0,543.0 Q 501.0,495.0 509.5,449.0 Q 518.0,403.0 531.0,363.0 Q 544.0,323.0 561.5,290.5 Q 579.0,258.0 602.0,238.0 L 574.0,0.0" fill="black"/>
</svg>
