<svg xmlns="http://www.w3.org/2000/svg" 
    viewBox="0 0 1288.0 1599.0" 
    width="1288.0" height="1599.0">
  <path d="M 1182.0,1184.0 Q 1109.0,1134.0 1005.5,1108.5 Q 902.0,1083.0 764.0,1083.0 Q 717.0,1083.0 651.5,1093.5 Q 586.0,1104.0 559.0,1120.0 L 629.0,1009.0 Q 704.0,888.0 733.0,774.0 Q 762.0,660.0 762.0,493.0 L 762.0,8.0 L 484.0,8.0 L 484.0,493.0 Q 484.0,629.0 446.5,728.0 Q 409.0,827.0 344.0,940.0 L 27.0,1497.0 L 318.0,1497.0 Q 360.0,1463.0 480.5,1421.5 Q 601.0,1380.0 764.0,1380.0 Q 892.0,1380.0 1001.0,1414.0 Q 1110.0,1448.0 1174.0,1493.0 L 1182.0,1493.0 L 1182.0,1184.0" fill="black"/>
</svg>
