<svg xmlns="http://www.w3.org/2000/svg" 
    viewBox="0 0 1288.0 1599.0" 
    width="1288.0" height="1599.0">
  <path d="M 1037.0,1021.0 Q 1119.0,906.0 1171.0,768.0 Q 1223.0,630.0 1223.0,504.0 Q 1223.0,276.0 1078.5,138.0 Q 934.0,0.0 641.0,0.0 Q 364.0,0.0 214.0,123.5 Q 64.0,247.0 64.0,502.0 Q 64.0,628.0 113.0,766.0 Q 162.0,904.0 242.0,1020.0 Q 319.0,1132.0 427.0,1209.0 Q 535.0,1286.0 641.0,1286.0 Q 744.0,1286.0 848.5,1211.5 Q 953.0,1137.0 1037.0,1021.0 M 903.0,504.0 Q 903.0,644.0 813.0,794.0 Q 723.0,944.0 641.0,944.0 Q 559.0,944.0 471.0,789.0 Q 383.0,634.0 383.0,504.0 Q 383.0,418.0 445.5,390.0 Q 508.0,362.0 639.0,362.0 Q 764.0,362.0 833.5,390.0 Q 903.0,418.0 903.0,504.0" fill="black"/>
</svg>
