<svg xmlns="http://www.w3.org/2000/svg" 
    viewBox="0 0 1288.0 1599.0" 
    width="1288.0" height="1599.0">
  <path d="M 1266.0,8.0 L 975.0,8.0 L 871.0,338.0 Q 838.0,440.0 827.5,516.5 Q 817.0,593.0 817.0,631.0 L 817.0,641.0 Q 784.0,623.0 732.5,606.5 Q 681.0,590.0 613.0,590.0 Q 429.0,590.0 301.5,715.5 Q 174.0,841.0 174.0,1030.0 Q 174.0,1145.0 213.5,1229.5 Q 253.0,1314.0 320.0,1376.0 Q 384.0,1435.0 467.5,1466.0 Q 551.0,1497.0 633.0,1497.0 Q 722.0,1497.0 802.5,1467.0 Q 883.0,1437.0 950.0,1379.0 Q 1019.0,1319.0 1057.5,1237.0 Q 1096.0,1155.0 1096.0,1055.0 L 1096.0,737.0 Q 1096.0,644.0 1108.5,556.0 Q 1121.0,468.0 1147.0,387.0 L 1266.0,8.0 M 815.0,919.0 L 815.0,1014.0 Q 815.0,1108.0 760.5,1172.5 Q 706.0,1237.0 635.0,1237.0 Q 548.0,1237.0 491.0,1178.0 Q 434.0,1119.0 434.0,1030.0 Q 434.0,950.0 489.5,900.0 Q 545.0,850.0 610.0,850.0 Q 666.0,850.0 720.5,869.5 Q 775.0,889.0 815.0,919.0" fill="black"/>
</svg>
