
<svg xmlns="http://www.w3.org/2000/svg" viewBox="0 0 315 559">
  <g transform="translate(-95, 4)">
    <path d="M410 58 395 14Q371 6 331.5 1.0Q292 -4 257 -4Q184 -4 140.5 24.0Q97 52 97 104Q97 144 126.0 185.5Q155 227 226 271Q165 284 130.0 306.5Q95 329 95 364Q95 397 122.5 434.0Q150 471 205.5 503.5Q261 536 340 555L345 552L335 502Q269 485 225.5 461.0Q182 437 162.0 413.5Q142 390 142 371Q142 353 168.5 338.5Q195 324 236.0 315.5Q277 307 318 307L323 301L312 266Q260 245 222.0 219.0Q184 193 163.5 165.5Q143 138 143 113Q143 77 178.5 60.0Q214 43 274 43Q301 43 337.0 48.5Q373 54 408 62Z" fill="black" />
  </g>
</svg>
