<svg xmlns="http://www.w3.org/2000/svg" 
    viewBox="0 0 1143.0 1502.0" 
    width="1143.0" height="1502.0">
  <path d="M 508.0,170.0 Q 412.0,170.0 333.0,197.0 Q 254.0,224.0 197.5,277.5 Q 141.0,331.0 110.0,411.0 Q 79.0,491.0 79.0,596.0 Q 79.0,707.0 99.5,803.5 Q 120.0,900.0 154.0,979.0 Q 188.0,1058.0 232.5,1119.0 Q 277.0,1180.0 325.0,1222.0 Q 373.0,1264.0 421.5,1285.5 Q 470.0,1307.0 512.0,1307.0 Q 582.0,1307.0 660.5,1264.5 Q 739.0,1222.0 806.0,1137.5 Q 873.0,1053.0 917.0,927.0 Q 961.0,801.0 961.0,633.0 Q 961.0,520.0 927.0,434.0 Q 893.0,348.0 832.5,289.0 Q 772.0,230.0 689.0,200.0 Q 606.0,170.0 508.0,170.0 M 511.0,1040.0 Q 477.0,1040.0 439.0,1008.5 Q 401.0,977.0 368.5,921.0 Q 336.0,865.0 314.5,787.5 Q 293.0,710.0 293.0,619.0 Q 293.0,565.0 311.0,531.0 Q 329.0,497.0 359.0,477.5 Q 389.0,458.0 428.5,451.0 Q 468.0,444.0 512.0,444.0 Q 582.0,444.0 627.5,459.5 Q 673.0,475.0 699.5,499.5 Q 726.0,524.0 736.5,555.0 Q 747.0,586.0 747.0,617.0 Q 747.0,713.0 723.0,791.0 Q 699.0,869.0 663.0,924.5 Q 627.0,980.0 586.0,1010.0 Q 545.0,1040.0 511.0,1040.0" fill="black"/>
</svg>
