<svg xmlns="http://www.w3.org/2000/svg" 
    viewBox="0 0 1143.0 1502.0" 
    width="1143.0" height="1502.0">
  <path d="M 548.0,435.0 Q 616.0,704.0 694.5,957.5 Q 773.0,1211.0 863.0,1459.0 L 1091.0,1459.0 Q 1020.0,1267.0 959.0,1085.5 Q 898.0,904.0 842.5,727.0 Q 787.0,550.0 736.5,373.5 Q 686.0,197.0 637.0,14.0 L 453.0,14.0 Q 401.0,205.0 349.0,385.0 Q 297.0,565.0 242.0,742.0 Q 187.0,919.0 127.0,1096.0 Q 67.0,1273.0 0.0,1459.0 L 228.0,1459.0 Q 319.0,1211.0 397.0,958.5 Q 475.0,706.0 542.0,435.0 L 548.0,435.0" fill="black"/>
</svg>
