
<svg xmlns="http://www.w3.org/2000/svg" viewBox="0 0 1854 1763">
  <g transform="translate(-94, 131)">
    <path d="M1948 590 1878 471Q1676 513 1386 641V559H647V643Q433 539 162 471L94 590Q343 629 587.0 742.5Q831 856 961 995V1294H342V1057H211V1407H961V1516H313V1632H1724V1518H1087V1409H1837V1057H1708V1294H1087V1022L1126 991Q1120 979 1100 963Q1480 644 1948 590ZM1309 678Q1133 773 1016 874Q889 772 711 678ZM1608 1116 1225 1114V1217H1608ZM797 1116 432 1114V1217H797ZM1632 924H1225V1026H1632ZM799 924H410V1026H799ZM1612 135Q1612 -27 1442 -27H1253L1223 88H1423Q1483 88 1483 152V301H971V-131H842V299H373V420H1612Z" fill="black" />
  </g>
</svg>
