<svg xmlns="http://www.w3.org/2000/svg" 
    viewBox="0 0 639.0 843.0" 
    width="639.0" height="843.0">
  <path d="M 240.0,267.0 Q 183.0,267.0 133.5,293.0 Q 84.0,319.0 54.0,368.0 Q 24.0,417.0 24.0,486.0 Q 24.0,551.0 52.5,599.5 Q 81.0,648.0 128.0,675.5 Q 175.0,703.0 230.0,703.0 Q 293.0,703.0 340.5,673.0 Q 388.0,643.0 415.0,592.5 Q 442.0,542.0 442.0,480.0 Q 442.0,422.0 417.5,373.5 Q 393.0,325.0 348.0,296.0 Q 303.0,267.0 240.0,267.0 M 235.0,337.0 Q 280.0,337.0 307.5,358.5 Q 335.0,380.0 347.5,414.0 Q 360.0,448.0 360.0,485.0 Q 360.0,548.0 327.5,590.0 Q 295.0,632.0 235.0,632.0 Q 174.0,632.0 139.5,590.5 Q 105.0,549.0 105.0,481.0 Q 105.0,417.0 141.0,377.0 Q 177.0,337.0 235.0,337.0" fill="black"/>
</svg>
