<svg xmlns="http://www.w3.org/2000/svg" 
    viewBox="0 0 639.0 843.0" 
    width="639.0" height="843.0">
  <path d="M 318.0,167.0 L 318.0,495.0 Q 298.0,485.0 277.0,481.0 Q 256.0,477.0 232.0,477.0 Q 187.0,477.0 147.0,498.0 Q 107.0,519.0 82.5,556.0 Q 58.0,593.0 58.0,640.0 Q 58.0,685.0 79.5,719.5 Q 101.0,754.0 138.5,774.0 Q 176.0,794.0 223.0,794.0 Q 306.0,794.0 352.5,741.0 Q 399.0,688.0 399.0,599.0 L 399.0,167.0 L 318.0,167.0 M 227.0,548.0 Q 256.0,548.0 277.5,556.5 Q 299.0,565.0 318.0,584.0 L 318.0,616.0 Q 318.0,663.0 296.5,693.0 Q 275.0,723.0 228.0,723.0 Q 187.0,723.0 163.0,698.0 Q 139.0,673.0 139.0,635.0 Q 139.0,593.0 166.0,570.5 Q 193.0,548.0 227.0,548.0" fill="black"/>
</svg>
