<svg xmlns="http://www.w3.org/2000/svg" 
    viewBox="0 0 639.0 843.0" 
    width="639.0" height="843.0">
  <path d="M 367.0,162.0 Q 346.0,212.0 326.5,261.0 Q 307.0,310.0 288.0,353.0 Q 254.0,341.0 217.0,341.0 Q 174.0,341.0 134.0,357.5 Q 94.0,374.0 68.5,404.5 Q 43.0,435.0 43.0,477.0 Q 43.0,510.0 60.0,532.5 Q 77.0,555.0 103.0,566.5 Q 129.0,578.0 156.0,578.0 Q 206.0,578.0 245.0,545.0 Q 284.0,512.0 317.0,459.0 Q 340.0,484.0 352.0,517.0 Q 364.0,550.0 364.0,584.0 Q 364.0,650.0 330.5,686.5 Q 297.0,723.0 244.0,723.0 Q 208.0,723.0 180.0,709.5 Q 152.0,696.0 126.0,670.0 L 76.0,726.0 Q 111.0,761.0 150.5,777.5 Q 190.0,794.0 239.0,794.0 Q 308.0,794.0 354.0,762.5 Q 400.0,731.0 422.5,682.0 Q 445.0,633.0 445.0,580.0 Q 445.0,520.0 421.0,470.5 Q 397.0,421.0 356.0,389.0 Q 379.0,343.0 400.0,292.0 Q 421.0,241.0 441.0,194.0 L 367.0,162.0 M 212.0,412.0 Q 236.0,412.0 255.0,418.0 Q 233.0,459.0 210.5,483.0 Q 188.0,507.0 164.0,507.0 Q 149.0,507.0 136.5,498.0 Q 124.0,489.0 124.0,469.0 Q 124.0,441.0 149.5,426.5 Q 175.0,412.0 212.0,412.0" fill="black"/>
</svg>
