<svg xmlns="http://www.w3.org/2000/svg" 
    viewBox="0 0 639.0 843.0" 
    width="639.0" height="843.0">
  <path d="M 358.0,29.0 Q 327.0,109.0 293.0,170.0 Q 277.0,166.0 261.5,164.0 Q 246.0,162.0 229.0,162.0 Q 175.0,162.0 129.5,179.0 Q 84.0,196.0 56.5,226.5 Q 29.0,257.0 29.0,297.0 Q 29.0,338.0 56.0,364.5 Q 83.0,391.0 129.0,391.0 Q 188.0,391.0 236.0,354.0 Q 284.0,317.0 321.0,261.0 Q 340.0,275.0 351.0,296.0 Q 362.0,317.0 362.0,345.0 Q 362.0,383.0 340.0,415.5 Q 318.0,448.0 276.0,478.0 Q 229.0,462.0 182.0,455.0 L 161.0,521.0 Q 247.0,538.0 291.0,563.5 Q 335.0,589.0 335.0,647.0 Q 335.0,678.0 314.5,703.0 Q 294.0,728.0 249.0,728.0 Q 215.0,728.0 187.5,714.5 Q 160.0,701.0 127.0,679.0 L 91.0,737.0 Q 126.0,762.0 162.0,778.0 Q 198.0,794.0 243.0,794.0 Q 296.0,794.0 335.0,773.0 Q 374.0,752.0 395.0,716.0 Q 416.0,680.0 416.0,635.0 Q 416.0,590.0 395.0,559.0 Q 374.0,528.0 339.0,507.0 Q 388.0,469.0 415.5,427.0 Q 443.0,385.0 443.0,335.0 Q 443.0,289.0 419.5,254.5 Q 396.0,220.0 359.0,197.0 Q 378.0,163.0 394.0,127.0 Q 410.0,91.0 423.0,56.0 L 358.0,29.0 M 224.0,233.0 Q 231.0,233.0 238.5,233.5 Q 246.0,234.0 253.0,235.0 Q 226.0,273.0 197.0,294.0 Q 168.0,315.0 139.0,315.0 Q 125.0,315.0 117.0,307.0 Q 109.0,299.0 109.0,287.0 Q 109.0,269.0 125.5,257.0 Q 142.0,245.0 168.5,239.0 Q 195.0,233.0 224.0,233.0" fill="black"/>
</svg>
