<svg xmlns="http://www.w3.org/2000/svg" 
    viewBox="0 0 639.0 843.0" 
    width="639.0" height="843.0">
  <path d="M 261.0,162.0 Q 219.0,162.0 184.5,181.5 Q 150.0,201.0 130.0,235.5 Q 110.0,270.0 110.0,314.0 Q 110.0,369.0 138.0,423.0 Q 166.0,477.0 218.0,538.0 Q 179.0,583.0 126.5,635.5 Q 74.0,688.0 12.0,746.0 L 65.0,794.0 Q 119.0,742.0 170.5,690.5 Q 222.0,639.0 265.0,590.0 Q 309.0,634.0 363.0,685.0 Q 417.0,736.0 481.0,794.0 L 534.0,734.0 Q 464.0,674.0 409.0,625.0 Q 354.0,576.0 313.0,533.0 Q 357.0,477.0 383.0,422.5 Q 409.0,368.0 409.0,315.0 Q 409.0,271.0 389.5,236.5 Q 370.0,202.0 336.5,182.0 Q 303.0,162.0 261.0,162.0 M 256.0,233.0 Q 288.0,233.0 308.0,257.0 Q 328.0,281.0 328.0,320.0 Q 328.0,358.0 312.0,397.0 Q 296.0,436.0 265.0,479.0 Q 191.0,390.0 191.0,310.0 Q 191.0,276.0 209.0,254.5 Q 227.0,233.0 256.0,233.0" fill="black"/>
</svg>
