<svg xmlns="http://www.w3.org/2000/svg" 
    viewBox="0 0 639.0 843.0" 
    width="639.0" height="843.0">
  <path d="M 374.0,167.0 L 374.0,425.0 Q 349.0,394.0 316.5,381.5 Q 284.0,369.0 251.0,369.0 Q 187.0,369.0 148.5,398.5 Q 110.0,428.0 90.5,483.5 Q 71.0,539.0 64.5,616.0 Q 58.0,693.0 58.0,789.0 L 139.0,789.0 Q 139.0,668.0 145.0,591.0 Q 151.0,514.0 174.0,476.5 Q 197.0,439.0 246.0,439.0 Q 299.0,439.0 325.5,482.0 Q 352.0,525.0 362.5,603.5 Q 373.0,682.0 379.0,789.0 L 454.0,789.0 L 454.0,167.0 L 374.0,167.0" fill="black"/>
</svg>
