<svg xmlns="http://www.w3.org/2000/svg" 
    viewBox="0 0 639.0 843.0" 
    width="639.0" height="843.0">
  <path d="M 389.0,0.0 Q 357.0,33.0 322.5,74.0 Q 288.0,115.0 265.0,163.0 Q 203.0,165.0 153.5,190.0 Q 104.0,215.0 76.0,259.0 Q 48.0,303.0 48.0,360.0 Q 48.0,404.0 68.0,440.5 Q 88.0,477.0 125.0,502.0 Q 103.0,526.0 86.5,557.5 Q 70.0,589.0 70.0,627.0 Q 70.0,708.0 135.5,751.0 Q 201.0,794.0 325.0,794.0 L 331.0,723.0 Q 255.0,723.0 216.0,706.0 Q 177.0,689.0 164.0,664.0 Q 151.0,639.0 151.0,613.0 Q 151.0,567.0 179.0,533.0 Q 214.0,547.0 256.5,555.0 Q 299.0,563.0 347.0,563.0 L 357.0,483.0 Q 251.0,483.0 190.0,449.0 Q 129.0,415.0 129.0,350.0 Q 129.0,297.0 163.5,269.0 Q 198.0,241.0 242.0,234.0 Q 239.0,252.0 239.0,270.0 Q 239.0,326.0 273.0,360.5 Q 307.0,395.0 357.0,395.0 Q 394.0,395.0 420.0,379.5 Q 446.0,364.0 460.0,339.5 Q 474.0,315.0 474.0,288.0 Q 474.0,242.0 435.5,211.0 Q 397.0,180.0 341.0,168.0 Q 358.0,134.0 384.5,103.5 Q 411.0,73.0 439.0,44.0 L 389.0,0.0 M 321.0,237.0 Q 351.0,242.0 372.5,255.0 Q 394.0,268.0 394.0,293.0 Q 394.0,306.0 384.5,315.0 Q 375.0,324.0 362.0,324.0 Q 343.0,324.0 331.5,306.5 Q 320.0,289.0 320.0,260.0 Q 320.0,254.0 320.0,248.0 Q 320.0,242.0 321.0,237.0" fill="black"/>
</svg>
