<svg xmlns="http://www.w3.org/2000/svg" 
    viewBox="0 0 639.0 843.0" 
    width="639.0" height="843.0">
  <path d="M 310.0,162.0 Q 225.0,162.0 163.5,199.0 Q 102.0,236.0 62.0,294.0 Q 22.0,352.0 0.0,416.0 L 63.0,440.0 Q 98.0,349.0 156.0,292.0 Q 214.0,235.0 305.0,235.0 Q 361.0,235.0 405.0,262.5 Q 449.0,290.0 474.0,341.0 Q 499.0,392.0 499.0,462.0 Q 499.0,512.0 486.0,554.0 Q 473.0,596.0 451.0,629.0 Q 440.0,598.0 420.5,568.5 Q 401.0,539.0 370.0,520.0 Q 339.0,501.0 293.0,501.0 Q 250.0,501.0 212.0,522.0 Q 174.0,543.0 151.0,577.0 Q 128.0,611.0 128.0,650.0 Q 128.0,709.0 170.0,751.5 Q 212.0,794.0 289.0,794.0 Q 353.0,794.0 406.5,765.5 Q 460.0,737.0 499.5,688.5 Q 539.0,640.0 560.5,580.0 Q 582.0,520.0 582.0,457.0 Q 582.0,374.0 548.5,307.0 Q 515.0,240.0 454.0,201.0 Q 393.0,162.0 310.0,162.0 M 288.0,572.0 Q 320.0,572.0 340.0,589.5 Q 360.0,607.0 372.0,634.0 Q 384.0,661.0 392.0,691.0 Q 370.0,706.0 344.5,714.5 Q 319.0,723.0 293.0,723.0 Q 253.0,723.0 231.0,701.0 Q 209.0,679.0 209.0,646.0 Q 209.0,615.0 230.5,593.5 Q 252.0,572.0 288.0,572.0" fill="black"/>
</svg>
