<svg xmlns="http://www.w3.org/2000/svg" 
    viewBox="0 0 639.0 843.0" 
    width="639.0" height="843.0">
  <path d="M 598.0,153.0 Q 560.0,182.0 531.0,203.0 Q 502.0,224.0 462.0,224.0 Q 438.0,224.0 418.0,215.5 Q 398.0,207.0 378.0,195.5 Q 358.0,184.0 333.5,175.5 Q 309.0,167.0 275.0,167.0 Q 219.0,167.0 171.0,191.0 Q 123.0,215.0 94.0,259.5 Q 65.0,304.0 65.0,364.0 Q 65.0,429.0 100.0,477.5 Q 135.0,526.0 193.0,554.0 L 192.0,557.0 Q 183.0,556.0 162.5,554.5 Q 142.0,553.0 116.0,553.0 L 43.0,553.0 L 39.0,624.0 L 578.0,624.0 L 583.0,553.0 L 480.0,553.0 Q 365.0,553.0 291.0,525.0 Q 217.0,497.0 181.5,452.0 Q 146.0,407.0 146.0,355.0 Q 146.0,301.0 180.5,269.5 Q 215.0,238.0 271.0,238.0 Q 301.0,238.0 323.5,246.5 Q 346.0,255.0 366.0,266.5 Q 386.0,278.0 407.5,286.5 Q 429.0,295.0 457.0,295.0 Q 495.0,295.0 526.5,281.0 Q 558.0,267.0 586.0,245.5 Q 614.0,224.0 639.0,202.0 L 598.0,153.0" fill="black"/>
</svg>
