<svg xmlns="http://www.w3.org/2000/svg" 
    viewBox="0 0 639.0 843.0" 
    width="639.0" height="843.0">
  <path d="M 598.0,153.0 Q 560.0,182.0 531.0,203.0 Q 502.0,224.0 462.0,224.0 Q 438.0,224.0 418.0,215.5 Q 398.0,207.0 378.0,195.5 Q 358.0,184.0 333.5,175.5 Q 309.0,167.0 275.0,167.0 Q 219.0,167.0 171.0,191.0 Q 123.0,215.0 94.0,259.5 Q 65.0,304.0 65.0,364.0 Q 65.0,429.0 100.0,477.5 Q 135.0,526.0 193.0,554.0 L 192.0,557.0 Q 183.0,556.0 162.5,554.5 Q 142.0,553.0 116.0,553.0 L 43.0,553.0 L 39.0,624.0 L 443.0,624.0 Q 403.0,648.0 378.5,677.5 Q 354.0,707.0 354.0,745.0 Q 354.0,789.0 384.5,816.0 Q 415.0,843.0 463.0,843.0 Q 499.0,843.0 530.0,830.0 Q 561.0,817.0 585.5,799.5 Q 610.0,782.0 627.0,767.0 L 589.0,720.0 Q 561.0,741.0 535.5,756.5 Q 510.0,772.0 478.0,772.0 Q 459.0,772.0 446.5,762.0 Q 434.0,752.0 434.0,735.0 Q 434.0,711.0 455.0,690.5 Q 476.0,670.0 509.0,653.0 Q 542.0,636.0 578.0,624.0 L 583.0,553.0 L 480.0,553.0 Q 365.0,553.0 291.0,525.0 Q 217.0,497.0 181.5,452.0 Q 146.0,407.0 146.0,355.0 Q 146.0,301.0 180.5,269.5 Q 215.0,238.0 271.0,238.0 Q 301.0,238.0 323.5,246.5 Q 346.0,255.0 366.0,266.5 Q 386.0,278.0 407.5,286.5 Q 429.0,295.0 457.0,295.0 Q 495.0,295.0 526.5,281.0 Q 558.0,267.0 586.0,245.5 Q 614.0,224.0 639.0,202.0 L 598.0,153.0" fill="black"/>
</svg>
