<svg xmlns="http://www.w3.org/2000/svg"
     width="160" height="200"
     viewBox="0 0 160 200">
  <g transform="translate(80.0,100.0) scale(0.1156737998843262, -0.1156737998843262) translate(-711.0, -571.5)">
    <path d="M367 759Q138 902 138 1117Q138 1208 178.0 1281.0Q218 1354 292.0 1395.0Q366 1436 451 1436Q542 1436 618.0 1392.0Q694 1348 737.5 1266.0Q781 1184 781 1080Q781 985 745.0 893.0Q709 801 642.0 705.0Q575 609 419 442Q659 232 741.0 127.0Q823 22 823 -72Q823 -178 737 -282L602 -200Q630 -161 644.0 -131.5Q658 -102 658 -67Q658 -23 637.0 14.5Q616 52 561.0 110.5Q506 169 415.5 253.5Q325 338 208 441Q365 598 451.5 705.5Q538 813 577.5 898.5Q617 984 617 1075Q617 1174 574.5 1228.0Q532 1282 459 1282Q390 1282 345.5 1234.0Q301 1186 301 1113Q301 1047 341.0 984.5Q381 922 452 878Z" fill="black"/>
  </g>
</svg>
