<svg xmlns="http://www.w3.org/2000/svg"
     width="160" height="200"
     viewBox="0 0 160 200">
  <g transform="translate(80.0,100.0) scale(0.1156737998843262, -0.1156737998843262) translate(-711.0, -571.5)">
    <path d="M865 736H628Q513 736 451.0 677.5Q389 619 389 510Q389 384 467.5 303.0Q546 222 670 222Q739 222 794 241Q752 327 752 401Q752 464 782.0 500.5Q812 537 869 537Q951 537 1008.5 465.5Q1066 394 1066 304Q1066 217 997 164Q1084 -9 1230 -198L1105 -290Q1042 -222 980.0 -116.0Q918 -10 871 99Q775 71 685 71Q557 71 450.5 129.5Q344 188 284.5 291.0Q225 394 225 519Q225 600 255.0 667.5Q285 735 360 795V801Q261 839 202.5 923.0Q144 1007 144 1118Q144 1195 173.5 1249.0Q203 1303 253.0 1338.5Q303 1374 387.5 1395.0Q472 1416 605 1416H829V1266H627Q501 1266 438.0 1249.0Q375 1232 341.5 1195.0Q308 1158 308 1095Q308 1001 383.0 944.0Q458 887 583 887H865Z" fill="black"/>
  </g>
</svg>
