<svg xmlns="http://www.w3.org/2000/svg"
     width="160" height="200"
     viewBox="0 0 160 200">
  <g transform="translate(80.0,100.0) scale(0.1156737998843262, -0.1156737998843262) translate(-711.0, -571.5)">
    <path d="M497 818Q694 902 694 1068Q694 1164 638.5 1223.0Q583 1282 494 1282Q398 1282 338.5 1216.0Q279 1150 279 1051Q279 987 307.0 924.0Q335 861 402.0 777.0Q469 693 673 477Q881 256 942.0 179.5Q1003 103 1031.0 45.0Q1059 -13 1059 -68Q1059 -175 973 -282L838 -200Q892 -122 892 -70Q892 -36 871.5 3.5Q851 43 809.0 95.5Q767 148 587 339Q351 589 271.0 694.0Q191 799 154.5 887.0Q118 975 118 1065Q118 1230 221.5 1333.0Q325 1436 487 1436Q594 1436 679.0 1387.5Q764 1339 811.5 1252.5Q859 1166 859 1063Q859 933 782.5 834.5Q706 736 562 682Z" fill="black"/>
  </g>
</svg>
