<svg xmlns="http://www.w3.org/2000/svg" 
    viewBox="0 0 692.0 1018.0" 
    width="692.0" height="1018.0">
  <path d="M 692.0,998.0 Q 692.0,718.0 514.0,718.0 Q 442.0,718.0 396.0,782.0 Q 328.0,692.0 259.0,692.0 Q 238.0,692.0 225.0,695.0 Q 291.0,516.0 291.0,322.0 Q 291.0,256.0 285.0,186.5 Q 279.0,117.0 268.0,39.0 L 242.0,39.0 Q 245.0,78.0 245.0,115.0 Q 245.0,314.0 181.5,491.5 Q 118.0,669.0 0.0,818.0 L 49.0,989.0 Q 152.0,835.0 250.0,835.0 Q 378.0,835.0 437.0,1000.0 L 448.0,1000.0 Q 466.0,870.0 561.0,870.0 Q 658.0,870.0 674.0,1000.0 L 692.0,998.0" fill="black"/>
</svg>
