<svg xmlns="http://www.w3.org/2000/svg" 
    viewBox="0 0 692.0 1018.0" 
    width="692.0" height="1018.0">
  <path d="M 669.0,169.0 Q 647.0,151.0 620.5,130.5 Q 594.0,110.0 568.0,93.0 Q 542.0,76.0 518.5,64.5 Q 495.0,53.0 480.0,53.0 Q 458.0,53.0 426.0,59.0 Q 394.0,65.0 360.5,74.0 Q 327.0,83.0 296.5,94.0 Q 266.0,105.0 248.0,114.0 Q 175.0,151.0 175.0,209.0 Q 175.0,250.0 207.0,306.0 Q 223.0,334.0 263.0,383.0 Q 303.0,432.0 367.0,504.0 Q 328.0,521.0 289.5,538.5 Q 251.0,556.0 219.5,575.0 Q 188.0,594.0 168.5,615.0 Q 149.0,636.0 149.0,660.0 Q 149.0,706.0 180.5,755.0 Q 212.0,804.0 259.0,851.5 Q 306.0,899.0 361.5,942.0 Q 417.0,985.0 464.0,1018.0 L 426.0,887.0 Q 349.0,839.0 309.0,807.0 Q 269.0,775.0 269.0,754.0 Q 269.0,736.0 306.0,714.0 Q 347.0,691.0 382.0,676.0 Q 417.0,661.0 460.0,642.0 Q 503.0,623.0 503.0,606.0 Q 503.0,590.0 459.0,540.0 Q 436.0,515.0 418.5,495.5 Q 401.0,476.0 384.5,457.0 Q 368.0,438.0 351.0,418.0 Q 334.0,398.0 312.0,371.0 Q 269.0,319.0 269.0,302.0 Q 269.0,289.0 283.0,277.0 Q 297.0,265.0 324.0,251.0 Q 356.0,233.0 399.0,220.0 Q 442.0,207.0 488.0,199.0 L 669.0,169.0" fill="black"/>
</svg>
