<svg xmlns="http://www.w3.org/2000/svg" 
    viewBox="0 0 692.0 1018.0" 
    width="692.0" height="1018.0">
  <path d="M 637.0,218.0 L 603.0,55.0 Q 542.0,103.0 505.5,168.5 Q 469.0,234.0 455.0,313.0 Q 448.0,353.0 443.5,399.5 Q 439.0,446.0 437.0,502.5 Q 435.0,559.0 433.5,628.0 Q 432.0,697.0 431.0,782.0 Q 373.0,768.0 330.5,762.5 Q 288.0,757.0 251.0,757.0 Q 163.0,757.0 117.0,782.0 Q 105.0,788.0 96.0,796.0 Q 87.0,804.0 81.0,816.5 Q 75.0,829.0 72.0,848.5 Q 69.0,868.0 69.0,897.0 Q 69.0,916.0 70.5,939.0 Q 72.0,962.0 76.0,989.0 L 95.0,989.0 Q 146.0,895.0 306.0,895.0 Q 389.0,895.0 506.0,932.0 Q 500.0,876.0 497.0,828.5 Q 494.0,781.0 494.0,733.0 Q 494.0,662.0 497.0,589.0 Q 500.0,516.0 513.5,448.0 Q 527.0,380.0 556.0,321.0 Q 585.0,262.0 637.0,218.0" fill="black"/>
</svg>
