<svg xmlns="http://www.w3.org/2000/svg" 
    viewBox="0 0 692.0 1018.0" 
    width="692.0" height="1018.0">
  <path d="M 679.0,242.0 L 667.0,38.0 Q 616.0,67.0 565.5,121.0 Q 515.0,175.0 470.0,253.0 Q 446.0,293.0 422.0,344.5 Q 398.0,396.0 375.5,453.5 Q 353.0,511.0 334.5,574.0 Q 316.0,637.0 304.0,700.0 Q 271.0,535.0 238.0,417.5 Q 205.0,300.0 170.0,221.0 Q 135.0,142.0 96.5,97.5 Q 58.0,53.0 14.0,32.0 L 41.0,218.0 Q 100.0,267.0 139.0,346.5 Q 178.0,426.0 212.0,532.0 Q 247.0,641.0 272.5,753.0 Q 298.0,865.0 311.0,969.0 L 345.0,969.0 Q 359.0,867.0 388.0,757.5 Q 417.0,648.0 462.0,541.0 Q 508.0,432.0 564.0,356.5 Q 620.0,281.0 679.0,242.0" fill="black"/>
</svg>
