<svg xmlns="http://www.w3.org/2000/svg" 
    viewBox="0 0 692.0 1018.0" 
    width="692.0" height="1018.0">
  <path d="M 595.0,190.0 L 572.0,0.0 Q 537.0,22.0 511.0,65.0 Q 485.0,108.0 471.0,166.0 Q 456.0,229.0 449.0,328.0 Q 442.0,427.0 434.0,558.0 Q 392.0,529.0 347.5,518.0 Q 303.0,507.0 256.0,507.0 Q 186.0,507.0 146.5,549.0 Q 107.0,591.0 107.0,662.0 Q 107.0,725.0 127.0,783.0 Q 147.0,841.0 178.0,885.0 Q 209.0,929.0 246.5,955.0 Q 284.0,981.0 318.0,981.0 Q 348.0,981.0 373.0,971.0 Q 398.0,961.0 416.5,938.5 Q 435.0,916.0 446.5,878.5 Q 458.0,841.0 463.0,786.0 L 485.0,523.0 Q 495.0,408.0 520.5,320.5 Q 546.0,233.0 595.0,190.0 M 415.0,678.0 Q 410.0,710.0 398.0,737.5 Q 386.0,765.0 367.5,785.0 Q 349.0,805.0 323.5,816.5 Q 298.0,828.0 265.0,828.0 Q 245.0,828.0 226.5,819.0 Q 208.0,810.0 194.0,796.0 Q 180.0,782.0 171.5,764.5 Q 163.0,747.0 163.0,730.0 Q 163.0,715.0 174.5,701.5 Q 186.0,688.0 203.5,677.5 Q 221.0,667.0 241.5,661.0 Q 262.0,655.0 281.0,655.0 Q 316.0,655.0 351.0,660.5 Q 386.0,666.0 415.0,678.0" fill="black"/>
</svg>
