<svg xmlns="http://www.w3.org/2000/svg" 
    viewBox="0 0 692.0 1018.0" 
    width="692.0" height="1018.0">
  <path d="M 571.0,981.0 Q 571.0,910.0 560.5,853.0 Q 550.0,796.0 528.0,756.0 Q 506.0,716.0 471.5,694.5 Q 437.0,673.0 388.0,673.0 Q 364.0,673.0 318.0,684.0 Q 417.0,448.0 417.0,238.0 Q 417.0,194.0 414.5,145.0 Q 412.0,96.0 407.0,39.0 L 377.0,39.0 Q 367.0,169.0 342.5,284.0 Q 318.0,399.0 276.0,501.0 Q 234.0,604.0 185.5,689.0 Q 137.0,774.0 77.0,849.0 L 130.0,992.0 Q 262.0,825.0 376.0,825.0 Q 515.0,825.0 553.0,981.0 L 571.0,981.0" fill="black"/>
</svg>
