<svg xmlns="http://www.w3.org/2000/svg" 
    viewBox="0 0 692.0 1018.0" 
    width="692.0" height="1018.0">
  <path d="M 619.0,480.0 Q 619.0,420.0 583.0,342.0 Q 547.0,264.0 495.0,212.0 Q 469.0,186.0 418.0,166.5 Q 367.0,147.0 298.0,147.0 Q 260.0,147.0 223.0,159.0 Q 186.0,171.0 156.0,193.5 Q 126.0,216.0 107.5,249.0 Q 89.0,282.0 89.0,325.0 Q 89.0,411.0 167.0,572.0 Q 187.0,612.0 214.0,657.5 Q 241.0,703.0 270.5,741.5 Q 300.0,780.0 329.0,805.5 Q 358.0,831.0 381.0,831.0 Q 427.0,831.0 466.5,805.0 Q 506.0,779.0 545.0,731.0 Q 570.0,701.0 584.5,666.5 Q 599.0,632.0 606.5,598.5 Q 614.0,565.0 616.5,534.0 Q 619.0,503.0 619.0,480.0 M 556.0,378.0 Q 556.0,395.0 551.0,420.5 Q 546.0,446.0 535.0,475.0 Q 524.0,504.0 506.5,534.0 Q 489.0,564.0 465.0,590.0 Q 420.0,638.0 382.0,660.5 Q 344.0,683.0 309.0,683.0 Q 297.0,683.0 281.0,666.5 Q 265.0,650.0 248.5,626.5 Q 232.0,603.0 217.0,578.5 Q 202.0,554.0 193.0,538.0 Q 155.0,473.0 155.0,419.0 Q 155.0,391.0 166.0,368.0 Q 177.0,345.0 202.5,328.5 Q 228.0,312.0 269.5,303.0 Q 311.0,294.0 371.0,294.0 Q 400.0,294.0 432.5,300.5 Q 465.0,307.0 492.5,318.5 Q 520.0,330.0 538.0,345.0 Q 556.0,360.0 556.0,378.0" fill="black"/>
</svg>
