<svg xmlns="http://www.w3.org/2000/svg" 
    viewBox="0 0 692.0 1018.0" 
    width="692.0" height="1018.0">
  <path d="M 652.0,790.0 Q 593.0,741.0 554.0,661.5 Q 515.0,582.0 481.0,476.0 Q 446.0,367.0 420.5,255.0 Q 395.0,143.0 382.0,39.0 L 348.0,39.0 Q 334.0,141.0 305.0,250.5 Q 276.0,360.0 231.0,467.0 Q 185.0,576.0 129.0,651.5 Q 73.0,727.0 14.0,766.0 L 26.0,970.0 Q 77.0,941.0 127.5,887.0 Q 178.0,833.0 223.0,755.0 Q 247.0,714.0 271.0,663.0 Q 295.0,612.0 317.5,554.5 Q 340.0,497.0 358.5,434.0 Q 377.0,371.0 389.0,308.0 Q 422.0,473.0 455.0,590.5 Q 488.0,708.0 523.0,786.5 Q 558.0,865.0 596.5,910.0 Q 635.0,955.0 679.0,976.0 L 652.0,790.0" fill="black"/>
</svg>
