
<svg xmlns="http://www.w3.org/2000/svg" viewBox="0 0 913 1289">
  <g transform="translate(-68, -108)">
    <path d="M887 1372Q891 1386 898.5 1391.5Q906 1397 933 1397Q955 1397 968.0 1391.5Q981 1386 981 1371Q981 1274 965.0 1201.0Q949 1128 920.0 1079.0Q891 1030 851.0 1005.5Q811 981 763 981Q720 981 678.0 994.0Q636 1007 600 1048Q578 1002 541.0 971.5Q504 941 455 929Q441 928 427.5 928.0Q414 928 399 928Q418 875 433.5 825.5Q449 776 460.0 725.5Q471 675 476.5 623.0Q482 571 482 514Q482 468 480.0 413.0Q478 358 474.5 304.5Q471 251 465.0 204.5Q459 158 450 130Q446 118 434.0 113.0Q422 108 396 108Q370 108 359.5 113.5Q349 119 349 130Q349 327 328.0 477.5Q307 628 276.0 739.5Q245 851 208.5 928.0Q172 1005 141.0 1054.5Q110 1104 89.0 1130.5Q68 1157 68 1168Q68 1198 79.5 1237.0Q91 1276 106.5 1310.5Q122 1345 138.5 1368.5Q155 1392 166 1392Q171 1392 178.0 1383.5Q185 1375 193 1362Q221 1313 245.0 1277.5Q269 1242 292.0 1219.0Q315 1196 338.5 1185.0Q362 1174 389 1174Q468 1174 507.5 1217.0Q547 1260 564 1361Q568 1375 576.5 1381.0Q585 1387 613 1387Q638 1387 651.5 1381.0Q665 1375 665 1360Q665 1319 674.0 1293.0Q683 1267 699.0 1252.0Q715 1237 737.5 1231.5Q760 1226 786 1226Q809 1226 824.5 1236.5Q840 1247 851.5 1266.5Q863 1286 871.0 1313.0Q879 1340 887 1372Z" fill="black" />
  </g>
</svg>
