
<svg xmlns="http://www.w3.org/2000/svg" viewBox="0 0 712 1022">
  <g transform="translate(-164, -223)">
    <path d="M761 635Q761 661 750.0 697.5Q739 734 719.5 773.5Q700 813 674.0 852.5Q648 892 617.0 923.0Q586 954 551.5 973.5Q517 993 482 993Q454 993 429.0 973.5Q404 954 382.5 922.5Q361 891 343.5 852.0Q326 813 313.5 774.5Q301 736 294.5 702.0Q288 668 288 647Q288 609 298.5 577.0Q309 545 335.0 522.0Q361 499 404.0 486.0Q447 473 513 473Q550 473 593.5 483.5Q637 494 674.5 514.5Q712 535 736.5 565.0Q761 595 761 635ZM876 733Q876 677 867.0 620.0Q858 563 840.5 510.0Q823 457 798.5 411.0Q774 365 743 331Q725 312 696.0 292.5Q667 273 632.5 257.5Q598 242 560.0 232.5Q522 223 487 223Q413 223 353.5 238.5Q294 254 252.0 287.5Q210 321 187.0 375.0Q164 429 164 507Q164 538 169.0 580.0Q174 622 184.0 669.0Q194 716 209.5 766.5Q225 817 245 867Q271 932 307.0 999.0Q343 1066 381.0 1121.0Q419 1176 454.5 1210.5Q490 1245 516 1245Q548 1245 576.0 1236.5Q604 1228 630.5 1211.0Q657 1194 684.0 1168.5Q711 1143 740 1109Q773 1071 798.5 1023.0Q824 975 841.5 924.0Q859 873 867.5 823.5Q876 774 876 733Z" fill="black" />
  </g>
</svg>
