
<svg xmlns="http://www.w3.org/2000/svg" viewBox="0 0 740 1287">
  <g transform="translate(-150, -102)">
    <path d="M593 720Q558 700 505.5 689.5Q453 679 381 679Q334 679 292.0 693.0Q250 707 218.5 738.5Q187 770 168.5 820.5Q150 871 150 944Q150 1030 178.0 1110.5Q206 1191 251.0 1253.0Q296 1315 352.5 1352.0Q409 1389 466 1389Q524 1389 575.0 1362.0Q626 1335 666.0 1273.5Q706 1212 733.0 1113.0Q760 1014 770 869Q780 719 800.0 592.0Q820 465 840.0 370.5Q860 276 875.0 219.0Q890 162 890 152Q890 130 873.5 116.0Q857 102 805 102Q766 102 741.0 110.5Q716 119 711 141Q706 153 691.0 202.0Q676 251 658.0 328.5Q640 406 622.0 506.0Q604 606 593 720ZM411 900Q462 900 498.5 911.5Q535 923 573 949Q566 986 553.0 1024.5Q540 1063 520.0 1094.0Q500 1125 473.0 1144.5Q446 1164 411 1164Q381 1164 356.0 1148.0Q331 1132 312.5 1109.5Q294 1087 284.0 1062.0Q274 1037 274 1019Q274 999 285.0 977.5Q296 956 315.0 939.0Q334 922 359.0 911.0Q384 900 411 900Z" fill="black" />
  </g>
</svg>
