
<svg xmlns="http://www.w3.org/2000/svg" viewBox="0 0 1102 1376">
  <g transform="translate(-37, 0)">
    <path d="M1139 1376Q1123 1235 1057.0 1146.0Q991 1057 883 1057Q830 1057 773.0 1085.0Q716 1113 682 1173Q643 1118 577.5 1087.5Q512 1057 414 1057L494 915Q560 799 589.0 692.5Q618 586 618 428V0H453V428Q453 576 414.0 680.0Q375 784 307 903L37 1376H211Q242 1328 299.5 1285.5Q357 1243 426 1243Q505 1243 558.5 1285.0Q612 1327 625 1376H735Q750 1325 791.5 1284.0Q833 1243 879 1243Q925 1243 960.5 1279.5Q996 1316 1006 1376Z" fill="black" />
  </g>
</svg>
