
<svg xmlns="http://www.w3.org/2000/svg" viewBox="0 0 926 1391">
  <g transform="translate(-147, 0)">
    <path d="M1073 0H356Q270 0 208.5 51.0Q147 102 147 168Q147 227 174.5 275.5Q202 324 254 375L510 621Q521 633 529.0 644.0Q537 655 537 672Q537 688 526.0 701.5Q515 715 494 733L352 856Q297 904 259.0 949.0Q221 994 221 1055Q221 1106 241.5 1144.5Q262 1183 304 1213Q342 1240 396.5 1259.0Q451 1278 510 1294L870 1391V1227L545 1143Q480 1126 455.0 1110.0Q430 1094 430 1065Q430 1038 452.0 1015.5Q474 993 496 975L637 854Q674 823 695.5 782.0Q717 741 717 698Q717 645 695.0 598.5Q673 552 623 504L395 283Q377 265 366.5 248.5Q356 232 356 219Q356 202 368.0 193.0Q380 184 414 184H1073Z" fill="black" />
  </g>
</svg>
