
<svg xmlns="http://www.w3.org/2000/svg" viewBox="0 0 1026 1112">
  <g transform="translate(-72, 10)">
    <path d="M932 864Q1005 762 1051.5 639.0Q1098 516 1098 406Q1098 211 962.0 100.5Q826 -10 584 -10Q344 -10 208.0 91.5Q72 193 72 403Q72 514 116.0 637.0Q160 760 231 864Q301 965 395.5 1033.5Q490 1102 584 1102Q675 1102 767.0 1034.0Q859 966 932 864ZM932 406Q932 576 809.5 744.5Q687 913 584 913Q480 913 359.0 741.5Q238 570 238 406Q238 284 319.0 231.0Q400 178 582 178Q757 178 844.5 231.5Q932 285 932 406Z" fill="black" />
  </g>
</svg>
