
<svg xmlns="http://www.w3.org/2000/svg" viewBox="0 0 823 850">
  <g transform="translate(-90, -270)">
    <path d="M503 1035Q434 1035 376.0 1009.0Q318 983 276.0 938.0Q234 893 210.0 832.0Q186 771 186 700Q186 628 211.5 565.5Q237 503 280.5 456.0Q324 409 381.5 382.0Q439 355 503 355Q567 355 624.5 382.0Q682 409 724.5 456.0Q767 503 792.0 565.5Q817 628 817 700Q817 771 793.5 832.0Q770 893 728.0 938.0Q686 983 628.5 1009.0Q571 1035 503 1035ZM503 1120Q590 1120 664.5 1088.0Q739 1056 794.5 999.5Q850 943 881.5 866.0Q913 789 913 699Q913 609 880.0 530.5Q847 452 791.0 394.0Q735 336 660.5 303.0Q586 270 503 270Q421 270 346.0 303.0Q271 336 214.0 394.0Q157 452 123.5 530.5Q90 609 90 699Q90 789 122.0 866.0Q154 943 210.0 999.5Q266 1056 341.5 1088.0Q417 1120 503 1120Z" fill="black" />
  </g>
</svg>
