
<svg xmlns="http://www.w3.org/2000/svg" viewBox="0 0 653 1740">
  <g transform="translate(-80, 282)">
    <path d="M251 856Q215 884 183.5 916.0Q152 948 129.0 986.0Q106 1024 93.0 1068.0Q80 1112 80 1163Q80 1233 104.0 1288.0Q128 1343 168.5 1380.5Q209 1418 262.5 1438.0Q316 1458 376 1458Q437 1458 494.0 1437.5Q551 1417 594.0 1375.5Q637 1334 663.0 1270.5Q689 1207 689 1120Q689 1030 656.0 943.5Q623 857 568.0 773.0Q513 689 441.0 606.0Q369 523 291 439Q415 331 500.0 249.5Q585 168 636.5 104.5Q688 41 710.5 -10.5Q733 -62 733 -111Q733 -157 714.5 -198.5Q696 -240 664 -282L591 -234Q614 -199 625.5 -170.0Q637 -141 637 -106Q637 -82 633.5 -60.5Q630 -39 615.0 -11.5Q600 16 570.5 52.0Q541 88 489.0 140.0Q437 192 358.5 264.0Q280 336 169 435Q295 563 377.0 660.5Q459 758 507.0 837.0Q555 916 574.0 982.5Q593 1049 593 1115Q593 1187 575.0 1236.0Q557 1285 528.0 1315.5Q499 1346 461.5 1359.5Q424 1373 385 1373Q340 1373 301.5 1357.5Q263 1342 235.5 1313.5Q208 1285 192.0 1245.5Q176 1206 176 1159Q176 1082 211.5 1025.0Q247 968 300 926Z" fill="black" />
  </g>
</svg>
