
<svg xmlns="http://www.w3.org/2000/svg" viewBox="0 0 1130 1716">
  <g transform="translate(-100, 282)">
    <path d="M274 1434Q254 1356 239.5 1289.0Q225 1222 215.5 1162.0Q206 1102 201.0 1047.0Q196 992 196 940Q196 811 218.5 720.5Q241 630 282.0 573.0Q323 516 379.5 489.5Q436 463 504 463Q552 463 592.5 478.0Q633 493 665.0 514.0Q697 535 719.5 557.5Q742 580 754 595Q712 655 694.5 711.5Q677 768 677 813Q677 876 704.0 917.5Q731 959 780 959Q811 959 836.5 943.5Q862 928 880.0 901.5Q898 875 908.0 840.0Q918 805 918 765Q918 718 904.5 673.0Q891 628 858 576Q892 468 932.5 360.5Q973 253 1019.5 150.5Q1066 48 1118.5 -48.0Q1171 -144 1230 -229L1153 -282Q1117 -229 1079.5 -162.0Q1042 -95 1006.5 -22.5Q971 50 938.5 125.0Q906 200 878.5 270.5Q851 341 830.5 402.0Q810 463 799 508Q746 462 700.0 436.0Q654 410 615.5 397.0Q577 384 546.0 381.0Q515 378 492 378Q388 378 314.0 424.0Q240 470 192.5 547.0Q145 624 122.5 724.5Q100 825 100 935Q100 1016 115.0 1143.0Q130 1270 174 1434Z" fill="black" />
  </g>
</svg>
