
<svg xmlns="http://www.w3.org/2000/svg" viewBox="0 0 1063 1716">
  <g transform="translate(-100, 282)">
    <path d="M797 791H577Q494 791 438.0 767.5Q382 744 347.0 705.0Q312 666 297.0 615.5Q282 565 282 510Q282 439 305.5 377.0Q329 315 373.5 268.5Q418 222 481.0 195.0Q544 168 622 168Q657 168 705.0 176.0Q753 184 807 203Q777 265 763.0 308.0Q749 351 749 385Q749 437 771.0 466.0Q793 495 835 495Q872 495 903.0 476.5Q934 458 956.5 428.0Q979 398 991.5 360.0Q1004 322 1004 282Q1004 246 984.5 215.5Q965 185 920 150Q969 52 1031.5 -47.5Q1094 -147 1163 -228L1092 -282Q1062 -245 1027.5 -196.0Q993 -147 960.0 -94.0Q927 -41 897.0 13.5Q867 68 846 115Q779 95 730.0 85.5Q681 76 638 76Q539 76 456.0 110.5Q373 145 313.0 205.0Q253 265 219.5 345.5Q186 426 186 519Q186 559 194.0 599.0Q202 639 220.5 677.5Q239 716 270.0 751.0Q301 786 348 816Q272 840 224.0 873.5Q176 907 148.5 947.5Q121 988 110.5 1035.5Q100 1083 100 1137Q100 1207 125.0 1256.0Q150 1305 190.0 1338.0Q230 1371 280.0 1390.0Q330 1409 380.5 1419.0Q431 1429 476.5 1431.5Q522 1434 553 1434H759V1350H576Q499 1350 430.0 1342.0Q361 1334 309.0 1310.5Q257 1287 226.5 1243.5Q196 1200 196 1129Q196 1061 224.5 1012.5Q253 964 300.0 933.0Q347 902 407.0 888.0Q467 874 529 874H797Z" fill="black" />
  </g>
</svg>
