
<svg xmlns="http://www.w3.org/2000/svg" viewBox="0 0 1097 1458">
  <g transform="translate(-100, 24)">
    <path d="M905 490Q805 491 734.0 525.0Q663 559 617.5 611.5Q572 664 551.0 729.0Q530 794 530 856Q530 920 551.0 973.5Q572 1027 610.0 1066.0Q648 1105 701.0 1126.5Q754 1148 817 1148Q905 1148 975.0 1107.0Q1045 1066 1094.5 993.5Q1144 921 1170.5 822.0Q1197 723 1197 607Q1197 462 1161.0 345.0Q1125 228 1061.0 146.0Q997 64 908.5 20.0Q820 -24 715 -24Q623 -24 547.5 7.5Q472 39 411.5 97.0Q351 155 304.5 238.0Q258 321 225 423Q192 525 168.5 645.0Q145 765 130.0 895.5Q115 1026 107.5 1162.5Q100 1299 100 1434H190Q191 1287 198.0 1148.5Q205 1010 220.0 884.0Q235 758 258.5 646.5Q282 535 314 443Q344 357 384.5 287.0Q425 217 476.0 167.0Q527 117 587.5 89.5Q648 62 718 62Q809 62 880.0 105.5Q951 149 1000.0 224.0Q1049 299 1075.0 399.5Q1101 500 1101 614Q1101 720 1076.0 803.5Q1051 887 1010.5 944.5Q970 1002 918.5 1032.5Q867 1063 814 1063Q784 1063 750.5 1053.0Q717 1043 689.0 1019.0Q661 995 643.0 954.0Q625 913 625 851Q625 780 651.5 730.0Q678 680 719.0 647.0Q760 614 809.5 596.5Q859 579 905 575Z" fill="black" />
  </g>
</svg>
