
<svg xmlns="http://www.w3.org/2000/svg" viewBox="0 0 941 1544">
  <g transform="translate(-100, 95)">
    <path d="M859 1395Q704 1182 594.0 1021.5Q484 861 409.0 744.0Q334 627 290.5 548.5Q247 470 226 420Q212 386 204.0 349.0Q196 312 196 279Q196 203 224.5 148.5Q253 94 299.0 59.0Q345 24 402.5 7.5Q460 -9 518 -9Q584 -9 645.0 15.0Q706 39 761.5 82.0Q817 125 866.5 183.0Q916 241 960 309L1041 260Q990 184 933.5 119.0Q877 54 813.0 6.5Q749 -41 676.5 -68.0Q604 -95 520 -95Q436 -95 360.0 -69.0Q284 -43 226.0 5.5Q168 54 134.0 123.5Q100 193 100 281Q100 335 114.0 386.0Q128 437 149 484Q174 541 222.5 625.0Q271 709 347.5 826.0Q424 943 531.0 1097.0Q638 1251 781 1449Z" fill="black" />
  </g>
</svg>
