
<svg xmlns="http://www.w3.org/2000/svg" viewBox="0 0 927 1740">
  <g transform="translate(-100, 282)">
    <path d="M554 824Q629 870 674.5 941.0Q720 1012 720 1104Q720 1156 704.0 1205.0Q688 1254 656.0 1291.0Q624 1328 576.5 1350.5Q529 1373 466 1373Q396 1373 345.0 1350.0Q294 1327 261.0 1287.0Q228 1247 212.0 1194.5Q196 1142 196 1084Q196 1020 224.0 955.5Q252 891 306.5 816.0Q361 741 441.5 652.0Q522 563 628 451Q724 349 798.5 267.0Q873 185 923.5 118.0Q974 51 1000.5 -4.0Q1027 -59 1027 -107Q1027 -145 1012.0 -189.5Q997 -234 964 -282L886 -232Q903 -206 917.0 -175.5Q931 -145 931 -109Q931 -70 910.5 -27.0Q890 16 848.5 69.5Q807 123 744.0 191.5Q681 260 595 352Q473 482 380.5 583.5Q288 685 225.5 771.5Q163 858 131.5 936.0Q100 1014 100 1098Q100 1179 127.0 1245.5Q154 1312 202.0 1359.0Q250 1406 315.5 1432.0Q381 1458 458 1458Q541 1458 607.0 1429.5Q673 1401 719.5 1352.0Q766 1303 790.5 1237.5Q815 1172 815 1099Q815 1049 803.0 1000.0Q791 951 764.0 906.0Q737 861 694.0 822.0Q651 783 589 752Z" fill="black" />
  </g>
</svg>
