<svg xmlns="http://www.w3.org/2000/svg"
     width="160" height="200"
     viewBox="0 0 160 200">
  <g transform="translate(80.0,100.0) scale(0.13212147086249706, -0.13212147086249706) translate(-702.4965986394558, -645.0)">
    <path d="M736 1038Q736 942 653 838Q640 821 499 675Q416 589 416 539Q416 492 525.0 373.0Q634 254 634 194Q634 86 481 -40L379 91Q456 142 456 194Q456 226 346.0 349.0Q236 472 236 539Q236 623 347 757Q254 840 223 880Q164 956 164 1038Q164 1167 241 1261Q323 1360 450 1360Q586 1360 664 1263Q736 1175 736 1038ZM578 1038Q578 1096 547 1141Q512 1193 454 1193Q396 1193 359 1141Q326 1096 326 1038Q326 936 452 848Q578 936 578 1038Z" fill="black"/>
  </g>
</svg>
