<svg xmlns="http://www.w3.org/2000/svg"
     width="160" height="200"
     viewBox="0 0 160 200">
  <g transform="translate(80.0,100.0) scale(0.13212147086249706, -0.13212147086249706) translate(-702.4965986394558, -645.0)">
    <path d="M973 912Q973 739 851 607Q743 490 606 465L936 75L800 -40L367 475Q260 508 159 596L295 711Q378 627 491 627Q620 627 709.5 709.0Q799 791 799 912Q799 1040 702 1122Q614 1196 498 1196Q363 1196 247 1106L138 1231Q319 1360 498 1360Q694 1360 825 1252Q973 1129 973 912Z" fill="black"/>
  </g>
</svg>
