<svg xmlns="http://www.w3.org/2000/svg"
     width="160" height="200"
     viewBox="0 0 160 200">
  <g transform="translate(80.0,100.0) scale(0.13212147086249706, -0.13212147086249706) translate(-702.4965986394558, -645.0)">
    <path d="M1160 1113Q1160 833 803 584Q983 431 983 276Q983 129 876 41Q779 -40 641 -40Q503 -40 406 41Q300 129 300 276Q300 428 480 584Q123 833 123 1113Q123 1241 199 1360L346 1261Q299 1197 299 1122Q299 999 412 868Q513 753 641 692Q770 753 870 868Q984 999 984 1122Q984 1197 937 1261L1084 1360Q1160 1241 1160 1113ZM802 276Q802 384 641 501Q481 384 481 276Q481 139 641 139Q802 139 802 276Z" fill="black"/>
  </g>
</svg>
