<svg xmlns="http://www.w3.org/2000/svg"
     width="160" height="200"
     viewBox="0 0 160 200">
  <g transform="translate(80.0,100.0) scale(0.13212147086249706, -0.13212147086249706) translate(-702.4965986394558, -645.0)">
    <path d="M977 20 830 -40Q799 41 734 219Q660 149 527 149Q372 149 262 235Q139 331 139 495Q139 641 293 749Q112 845 112 1010Q112 1150 217.5 1255.0Q323 1360 466 1360Q633 1360 803 1258L713 1128Q576 1193 479 1193Q404 1193 345 1130Q290 1071 290 1005Q290 935 344 891Q394 849 467 849H649V689H510Q425 689 371.5 633.0Q318 577 318 494Q318 405 379 355Q436 308 525 308Q616 308 681 365Q674 389 651 444L798 504Z" fill="black"/>
  </g>
</svg>
