<svg xmlns="http://www.w3.org/2000/svg"
     width="160" height="200"
     viewBox="0 0 160 200">
  <g transform="translate(80.0,100.0) scale(0.13212147086249706, -0.13212147086249706) translate(-702.4965986394558, -645.0)">
    <path d="M1308 617Q1308 354 1140 175Q976 0 743 0Q456 0 310 190Q187 351 148 674Q123 876 123 1320H297Q297 735 355 519Q449 170 748 170Q896 170 1000.5 264.5Q1105 359 1126 504Q1071 470 1001 470Q883 470 804 556Q729 638 729 753Q729 879 815 961Q896 1039 1014 1039Q1308 1039 1308 617ZM1133 753Q1133 808 1096.5 846.5Q1060 885 1009 885Q958 885 921.5 846.5Q885 808 885 753Q885 698 921.5 659.5Q958 621 1009 621Q1060 621 1096.5 659.5Q1133 698 1133 753Z" fill="black"/>
  </g>
</svg>
