<svg xmlns="http://www.w3.org/2000/svg"
     width="160" height="200"
     viewBox="0 0 160 200">
  <g transform="translate(80.0,100.0) scale(0.13212147086249706, -0.13212147086249706) translate(-702.4965986394558, -645.0)">
    <path d="M995 173Q995 39 849 -80L745 61Q814 110 814 150Q814 200 706 278Q588 359 470 439Q315 551 236 656Q108 827 108 986Q108 1130 205 1239Q311 1360 479 1360Q622 1360 722.5 1261.0Q823 1162 823 1019Q823 884 733 777Q637 665 504 665Q472 665 452 669Q500 620 654 522Q822 417 885 361Q995 264 995 173ZM661 1003Q661 1081 606.0 1136.0Q551 1191 473 1191Q395 1191 340.0 1136.0Q285 1081 285 1003Q285 925 340.0 870.0Q395 815 473 815Q551 815 606.0 870.0Q661 925 661 1003Z" fill="black"/>
  </g>
</svg>
