<svg xmlns="http://www.w3.org/2000/svg" 
    viewBox="0 0 367.0 453.0" 
    width="367.0" height="453.0">
  <path d="M 73.0,3.0 Q 74.0,9.0 76.0,33.0 Q 78.0,57.0 78.0,84.0 Q 78.0,142.0 74.0,185.5 Q 70.0,229.0 63.5,268.0 Q 57.0,307.0 49.0,350.0 Q 54.0,368.0 64.0,394.5 Q 74.0,421.0 83.0,439.0 L 94.0,438.0 Q 96.0,432.0 99.5,419.5 Q 103.0,407.0 105.0,394.0 Q 113.0,374.0 133.5,365.5 Q 154.0,357.0 173.0,357.0 Q 206.0,357.0 234.5,372.0 Q 263.0,387.0 279.0,439.0 L 300.0,435.0 Q 287.0,348.0 255.5,308.0 Q 224.0,268.0 155.0,268.0 Q 134.0,268.0 120.0,273.0 Q 122.0,262.0 123.0,239.0 Q 124.0,216.0 124.0,204.0 Q 124.0,143.0 120.0,96.0 Q 116.0,49.0 93.0,0.0 L 73.0,3.0" fill="black"/>
</svg>
