<svg xmlns="http://www.w3.org/2000/svg" 
    viewBox="0 0 367.0 453.0" 
    width="367.0" height="453.0">
  <path d="M 74.0,3.0 Q 75.0,11.0 76.5,35.0 Q 78.0,59.0 78.0,91.0 Q 78.0,135.0 75.0,170.5 Q 72.0,206.0 66.0,247.5 Q 60.0,289.0 49.0,350.0 Q 54.0,368.0 65.0,395.0 Q 76.0,422.0 83.0,439.0 L 95.0,438.0 Q 97.0,431.0 100.0,416.0 Q 103.0,401.0 107.0,383.0 Q 122.0,357.0 150.0,357.0 Q 177.0,357.0 195.0,371.5 Q 213.0,386.0 226.0,438.0 L 247.0,436.0 Q 246.0,416.0 243.0,401.0 Q 240.0,386.0 237.0,372.0 Q 243.0,363.0 254.5,360.0 Q 266.0,357.0 275.0,357.0 Q 298.0,357.0 316.0,372.0 Q 334.0,387.0 347.0,439.0 L 367.0,437.0 Q 360.0,355.0 326.5,315.0 Q 293.0,275.0 247.0,275.0 Q 235.0,275.0 222.0,278.5 Q 209.0,282.0 197.0,291.0 Q 184.0,280.0 168.5,274.0 Q 153.0,268.0 132.0,268.0 L 122.0,268.0 Q 125.0,240.0 125.0,214.0 Q 125.0,144.0 120.0,96.5 Q 115.0,49.0 94.0,0.0 L 74.0,3.0" fill="black"/>
</svg>
