<svg xmlns="http://www.w3.org/2000/svg" 
    viewBox="0 0 367.0 453.0" 
    width="367.0" height="453.0">
  <path d="M 177.0,390.0 Q 205.0,390.0 232.0,367.5 Q 259.0,345.0 277.0,306.0 Q 295.0,267.0 295.0,215.0 Q 295.0,117.0 257.0,66.5 Q 219.0,16.0 136.0,16.0 Q 86.0,16.0 57.0,44.0 Q 28.0,72.0 28.0,118.0 Q 28.0,156.0 39.0,198.0 Q 50.0,240.0 75.0,291.0 Q 123.0,390.0 177.0,390.0 M 254.0,168.0 Q 254.0,193.0 239.0,223.5 Q 224.0,254.0 202.0,276.5 Q 180.0,299.0 158.0,299.0 Q 139.0,299.0 123.5,283.0 Q 108.0,267.0 97.0,243.5 Q 86.0,220.0 80.5,198.5 Q 75.0,177.0 75.0,166.0 Q 75.0,137.0 96.0,122.0 Q 117.0,107.0 155.0,107.0 Q 178.0,107.0 200.5,112.0 Q 223.0,117.0 238.5,130.5 Q 254.0,144.0 254.0,168.0" fill="black"/>
</svg>
