<svg xmlns="http://www.w3.org/2000/svg" 
    viewBox="0 0 367.0 453.0" 
    width="367.0" height="453.0">
  <path d="M 244.0,427.0 Q 243.0,419.0 243.0,399.5 Q 243.0,380.0 243.0,350.0 Q 243.0,281.0 246.0,235.0 Q 249.0,189.0 256.0,142.0 Q 258.0,129.0 260.0,113.0 Q 262.0,97.0 263.0,87.0 Q 258.0,70.0 248.5,44.0 Q 239.0,18.0 232.0,1.0 L 218.0,1.0 Q 214.0,16.0 209.0,47.0 Q 204.0,78.0 200.5,115.5 Q 197.0,153.0 197.0,185.0 Q 197.0,229.0 198.5,264.0 Q 200.0,299.0 203.0,332.0 Q 185.0,322.0 161.5,316.5 Q 138.0,311.0 119.0,311.0 Q 94.0,311.0 66.0,317.0 Q 38.0,323.0 20.0,336.0 Q 9.0,344.0 4.5,350.0 Q 0.0,356.0 0.0,369.0 Q 0.0,375.0 2.5,394.0 Q 5.0,413.0 12.0,432.0 L 22.0,434.0 Q 43.0,412.0 71.0,403.5 Q 99.0,395.0 133.0,395.0 Q 153.0,395.0 180.5,403.0 Q 208.0,411.0 227.0,431.0 L 244.0,427.0" fill="black"/>
</svg>
