<svg xmlns="http://www.w3.org/2000/svg" 
    viewBox="0 0 367.0 453.0" 
    width="367.0" height="453.0">
  <path d="M 331.0,86.0 Q 328.0,74.0 315.0,47.5 Q 302.0,21.0 289.0,1.0 L 278.0,1.0 Q 268.0,22.0 251.5,63.0 Q 235.0,104.0 217.5,151.5 Q 200.0,199.0 185.0,243.0 Q 170.0,287.0 163.0,314.0 L 161.0,314.0 L 118.0,200.0 Q 107.0,171.0 96.5,144.0 Q 86.0,117.0 72.5,83.5 Q 59.0,50.0 39.0,1.0 L 28.0,1.0 Q 25.0,9.0 19.5,22.0 Q 14.0,35.0 10.0,47.5 Q 6.0,60.0 6.0,65.0 Q 21.0,97.0 41.0,140.0 Q 61.0,183.0 81.5,230.5 Q 102.0,278.0 120.0,321.0 Q 138.0,365.0 152.0,398.0 Q 166.0,431.0 172.0,439.0 L 189.0,439.0 Q 193.0,432.0 199.5,415.5 Q 206.0,399.0 214.0,376.0 Q 239.0,311.0 262.0,253.0 Q 285.0,195.0 303.5,152.5 Q 322.0,110.0 331.0,90.0 L 331.0,86.0" fill="black"/>
</svg>
